<?xml version="1.0" encoding="utf-8"?>
<!-- Generator: Adobe Illustrator 26.0.1, SVG Export Plug-In . SVG Version: 6.00 Build 0)  -->
<svg version="1.1" id="Layer_1" xmlns="http://www.w3.org/2000/svg" xmlns:xlink="http://www.w3.org/1999/xlink" x="0px" y="0px"
	 viewBox="0 0 256 256" style="enable-background:new 0 0 256 256;" xml:space="preserve">
<style type="text/css">
	.st0{fill:#4259C3;}
</style>
<g>
	<g>
		<path class="st0" d="M105.52,45.67c-23.32,1.94-25.55,3.61-29.43,23.88L53.87,185.9c-4.17,21.1-1.67,23.05,21.66,24.71l-1.39,7.78
			H0l1.67-7.78c22.49-1.94,24.99-3.89,29.16-24.71L53.31,69.55C57.2,49,54.98,47.61,31.66,45.67l1.66-7.78h73.86L105.52,45.67z"/>
		<path class="st0" d="M219.91,37.9c13.33,0,25.82,0,36.09-0.28c-1.66,6.67-4.72,25.82-7.22,42.21l-8.61,0.27
			c-1.11-28.88-5.83-31.65-23.88-31.65h-27.49c-9.16,0-11.66,0.56-13.61,11.11l-11.66,59.7h28.6c22.77,0,23.88-3.33,31.65-22.77
			h8.33l-11.39,57.48h-8.33c0-21.38,0.83-24.16-22.77-24.16h-28.04l-9.72,49.42c-4.17,19.72-3.61,28.6,16.1,28.6h20.55
			c16.38,0,23.6-1.66,31.38-8.88c6.66-6.11,13.05-15.55,18.32-25.55l8.05,2.78c-2.78,7.78-12.22,33.6-15.83,42.2H95.23l1.94-7.78
			c24.44-2.5,26.66-3.33,30.82-25.55l21.94-113.57c4.16-21.38,2.78-23.88-21.38-25.82l1.66-7.78H219.91z"/>
	</g>
</g>
</svg>
