<?xml version="1.0" encoding="utf-8"?>
<!-- Generator: Adobe Illustrator 26.0.1, SVG Export Plug-In . SVG Version: 6.00 Build 0)  -->
<svg version="1.1" id="Layer_1" xmlns="http://www.w3.org/2000/svg" xmlns:xlink="http://www.w3.org/1999/xlink" x="0px" y="0px"
	 viewBox="0 0 256 256" style="enable-background:new 0 0 256 256;" xml:space="preserve">
<style type="text/css">
	.st0{fill:#4259C3;}
</style>
<g>
	<g>
		<path class="st0" d="M106.73,80.26c-6.23,8.14-14.25,12.72-17.81,12.72c-3.69,0-5.34-3.05-2.8-15.13l1.53-7.12
			c-7.38,10.81-19.33,22.26-28.36,22.26c-4.96,0-9.67-4.45-9.67-16.41c0-11.32,5.22-25.31,14.88-33.45
			c5.47-4.83,15.39-9.03,21.24-9.03c2.93,0,6.74,0.38,9.29,1.66l4.45-21.88c1.02-5.09,0.13-5.6-4.58-5.98
			c-1.27-0.13-3.94-0.26-4.83-0.26l0.76-3.43c5.98-0.64,12.34-2.03,16.15-3.31c1.91-0.51,2.93-0.89,3.69-0.89
			c1.02,0,1.27,1.14,0.64,3.82c-5.85,25.06-11.83,51.52-16.15,75.05c-0.64,3.43-0.13,4.83,0.76,4.83c1.53,0,4.71-1.91,9.29-6.74
			L106.73,80.26z M84.85,68.05c2.55-3.56,4.58-7.38,5.98-13.48l2.54-10.94c-1.78-2.03-6.11-3.94-12.21-3.94
			c-14.63,0-20.86,20.99-20.86,34.09c0,7.12,1.91,10.81,5.34,10.81C70.86,84.59,78.37,77.46,84.85,68.05z"/>
		<path class="st0" d="M225.27,12.21c-10.94,1.02-11.57,1.4-13.23,11.96c-2.67,18.19-4.45,33.2-6.61,49.86
			c-1.66,12.34-0.51,12.84,10.18,13.74l-0.89,3.56h-33.32l0.89-3.56c10.18-1.02,10.94-1.4,12.84-13.74
			c2.67-18.45,5.09-35.36,7.89-53.42h-0.38c-13.99,23.4-35.24,58.89-41.59,70.72h-2.93c-2.03-13.1-10.05-45.16-15.01-69.45h-0.26
			l-8.39,34.85c-3.05,12.84-4.45,18.7-5.09,23.02c-0.89,5.59,0.38,7.12,10.18,8.01l-0.89,3.56h-29.89l0.89-3.56
			c8.65-0.64,10.81-2.42,12.59-7.76c2.29-6.61,4.96-15.39,8.4-28.87l6.1-24.42c3.18-12.47,3.05-12.97-9.28-14.5l1.02-3.56h21.37
			c4.2,19.59,10.94,43.25,15.77,64.62l39.43-64.62h21.11L225.27,12.21z"/>
	</g>
	<g>
		<path class="st0" d="M89.94,243.28C83.71,251.42,75.7,256,72.13,256c-3.69,0-5.34-3.05-2.8-15.14l1.53-7.12
			C63.48,244.55,51.53,256,42.5,256c-4.96,0-9.67-4.45-9.67-16.41c0-11.32,5.22-25.31,14.88-33.45c5.47-4.84,15.39-9.03,21.24-9.03
			c2.93,0,6.74,0.38,9.28,1.65l4.45-21.88c1.02-5.09,0.13-5.59-4.58-5.98c-1.27-0.13-3.94-0.26-4.83-0.26l0.76-3.43
			c5.98-0.64,12.34-2.03,16.15-3.31c1.91-0.51,2.93-0.89,3.69-0.89c1.02,0,1.27,1.14,0.64,3.81c-5.85,25.06-11.83,51.52-16.15,75.05
			c-0.64,3.43-0.13,4.83,0.76,4.83c1.53,0,4.71-1.91,9.28-6.74L89.94,243.28z M68.06,231.07c2.54-3.56,4.58-7.38,5.98-13.49
			l2.55-10.94c-1.78-2.04-6.11-3.95-12.21-3.95c-14.63,0-20.86,20.99-20.86,34.09c0,7.12,1.91,10.81,5.34,10.81
			C54.07,247.6,61.58,240.48,68.06,231.07z"/>
		<path class="st0" d="M175.79,168.87c-1.4,5.85-2.93,15.13-4.07,22.01l-3.94,0.25c0-2.03,0-4.83-0.51-6.99
			c-0.64-5.6-2.16-7.63-13.74-7.63h-7.76l-11.96,62.45c-1.91,10.3-0.89,10.94,10.68,11.83l-0.76,3.56h-34.98l0.89-3.56
			c10.81-0.89,11.7-1.66,13.61-11.83l11.96-62.45h-7.63c-10.18,0-12.34,1.65-14.63,4.96c-1.78,2.29-3.82,5.6-5.72,9.79l-4.07-0.38
			c2.03-7.38,4.07-15.01,5.22-22.01h2.93c1.27,2.93,2.67,2.8,6.11,2.8h48.84c3.31,0,4.2-0.38,6.61-2.8H175.79z"/>
	</g>
	<g>
		<g>
			<rect x="29.84" y="127.72" class="st0" width="163.93" height="6.02"/>
		</g>
	</g>
</g>
</svg>
