<?xml version="1.0" encoding="utf-8"?>
<!-- Generator: Adobe Illustrator 26.0.1, SVG Export Plug-In . SVG Version: 6.00 Build 0)  -->
<svg version="1.1" id="Layer_1" xmlns="http://www.w3.org/2000/svg" xmlns:xlink="http://www.w3.org/1999/xlink" x="0px" y="0px"
	 viewBox="0 0 64 64" style="enable-background:new 0 0 64 64;" xml:space="preserve">
<style type="text/css">
	.st0{fill:#999999;}
</style>
<g id="Boat_View">
	<g>
		<path class="st0" d="M32.82,55.71c-2.74,0-4.19-0.84-5.46-1.59c-1.21-0.71-2.35-1.38-4.68-1.38c-2.32,0-3.46,0.67-4.67,1.37
			c-0.39,0.23-0.79,0.46-1.23,0.67l-0.3,0.15l-0.31-0.12C5.31,50.7,0.96,44.8,0.78,44.55L0,43.46l63.15-7.04l-0.17,1.01
			c-0.08,0.48-2.04,11.83-12.37,17.75l-0.3,0.17l-0.33-0.11c-0.94-0.31-1.66-0.73-2.36-1.14c-1.21-0.71-2.35-1.37-4.68-1.37
			c-2.32,0-3.46,0.67-4.67,1.38C37.01,54.86,35.56,55.71,32.82,55.71z M22.68,51.18c2.75,0,4.19,0.84,5.46,1.59
			c1.21,0.71,2.35,1.38,4.67,1.38c2.32,0,3.46-0.67,4.67-1.38c1.27-0.74,2.72-1.59,5.46-1.59c2.75,0,4.19,0.84,5.46,1.59
			c0.56,0.33,1.1,0.64,1.74,0.89c7.69-4.58,10.35-12.62,11.07-15.45L2.97,44.7c1.72,1.83,5.96,5.64,13.44,8.54
			c0.28-0.15,0.55-0.3,0.83-0.47C18.5,52.03,19.94,51.18,22.68,51.18z"/>
	</g>
	<g>
		<path class="st0" d="M53.09,59.56c-2.75,0-4.19-0.84-5.46-1.59c-1.21-0.71-2.35-1.38-4.67-1.38s-3.46,0.67-4.67,1.38
			c-1.27,0.75-2.72,1.59-5.46,1.59c-2.74,0-4.19-0.84-5.46-1.59c-1.21-0.71-2.35-1.38-4.67-1.38s-3.46,0.67-4.67,1.38
			c-1.27,0.75-2.72,1.59-5.46,1.59s-4.19-0.84-5.46-1.59c-1.21-0.71-2.35-1.38-4.67-1.38c-0.43,0-0.78-0.35-0.78-0.78
			s0.35-0.78,0.78-0.78c2.74,0,4.19,0.84,5.46,1.59C9.09,57.33,10.23,58,12.55,58s3.46-0.67,4.67-1.38
			c1.27-0.75,2.72-1.59,5.46-1.59s4.19,0.84,5.46,1.59C29.35,57.33,30.5,58,32.82,58s3.46-0.67,4.67-1.38
			c1.27-0.75,2.72-1.59,5.46-1.59s4.19,0.84,5.46,1.59c1.21,0.71,2.35,1.38,4.67,1.38c2.32,0,3.46-0.67,4.67-1.38
			c1.27-0.75,2.72-1.59,5.46-1.59c0.43,0,0.78,0.35,0.78,0.78s-0.35,0.78-0.78,0.78c-2.32,0-3.46,0.67-4.67,1.38
			C57.27,58.71,55.83,59.56,53.09,59.56z"/>
	</g>
	<g>
		<path class="st0" d="M30.9,37.76l0.14-0.94c0.03-0.17,2.58-17.49-4.18-29.58l-1.56-2.8l2.67,1.77
			c0.18,0.12,18.16,12.16,25.24,29.43l0.42,1.02L30.9,37.76z M29.63,9.34c4.57,10.59,3.5,23.23,3.07,26.78l18.63-0.91
			C45.85,22.74,34.64,13.18,29.63,9.34z"/>
	</g>
	<g>
		<path class="st0" d="M13.3,39.53l3.04-1.54c8.95-4.53,11.36-18.13,11.38-18.27l1.21-7.12l1.23,26.6L13.3,39.53z M27.95,24.94
			c-1.35,3.99-3.91,9.48-8.46,12.91l9.05-0.17L27.95,24.94z"/>
	</g>
</g>
</svg>
