<?xml version="1.0" encoding="utf-8"?>
<!-- Generator: Adobe Illustrator 26.0.1, SVG Export Plug-In . SVG Version: 6.00 Build 0)  -->
<svg version="1.1" id="Layer_1" xmlns="http://www.w3.org/2000/svg" xmlns:xlink="http://www.w3.org/1999/xlink" x="0px" y="0px"
	 viewBox="0 0 64 64" style="enable-background:new 0 0 64 64;" xml:space="preserve">
<style type="text/css">
	.st0{fill:#999999;}
</style>
<g id="Distance">
	<g>
		<path class="st0" d="M9.71,45.38c-2.15,0-3.89-1.75-3.89-3.89c0-2.15,1.75-3.89,3.89-3.89c2.15,0,3.9,1.75,3.9,3.89
			C13.61,43.63,11.86,45.38,9.71,45.38z M9.71,38.94c-1.4,0-2.54,1.14-2.54,2.54c0,1.4,1.14,2.54,2.54,2.54
			c1.4,0,2.54-1.14,2.54-2.54C12.26,40.08,11.12,38.94,9.71,38.94z"/>
	</g>
	<g>
		<path class="st0" d="M48.06,21.24L48.06,21.24c-0.24,0-0.46-0.13-0.59-0.34l-4.65-8.05c-1.09-1.89-1.09-4.15,0-6.04
			c1.09-1.89,3.05-3.02,5.23-3.02h0c2.18,0,4.14,1.13,5.23,3.02c1.09,1.89,1.09,4.15,0,6.04l-4.65,8.05
			C48.52,21.11,48.3,21.24,48.06,21.24z M48.06,5.15c-1.7,0-3.21,0.88-4.06,2.34c-0.85,1.47-0.85,3.22,0,4.69l4.06,7.03l4.06-7.03
			c0.85-1.47,0.85-3.22,0-4.69S49.76,5.15,48.06,5.15z"/>
	</g>
	<g>
		<path class="st0" d="M48.06,12.42c-1.43,0-2.59-1.16-2.59-2.59s1.16-2.59,2.59-2.59c1.43,0,2.59,1.16,2.59,2.59
			S49.49,12.42,48.06,12.42z M48.06,8.6c-0.68,0-1.24,0.56-1.24,1.24s0.56,1.24,1.24,1.24c0.68,0,1.24-0.56,1.24-1.24
			S48.74,8.6,48.06,8.6z"/>
	</g>
	<g>
		<path class="st0" d="M14.82,60.13c-2.23,0-3.54-0.06-3.6-0.06c-0.37-0.02-0.66-0.33-0.64-0.71c0.02-0.37,0.34-0.65,0.71-0.64
			c0.01,0,1.34,0.06,3.53,0.06c0.37,0,0.68,0.3,0.68,0.68C15.5,59.83,15.2,60.13,14.82,60.13z M20.24,60.02
			c-0.36,0-0.66-0.28-0.67-0.65c-0.01-0.37,0.27-0.69,0.65-0.7c1.81-0.07,3.62-0.18,5.38-0.33c0.37-0.03,0.7,0.25,0.73,0.62
			c0.03,0.37-0.25,0.7-0.62,0.73c-1.77,0.14-3.6,0.25-5.43,0.33C20.25,60.02,20.24,60.02,20.24,60.02z M31.02,59.14
			c-0.34,0-0.63-0.25-0.67-0.59c-0.05-0.37,0.22-0.71,0.59-0.76c1.83-0.23,3.61-0.5,5.32-0.81c0.37-0.06,0.72,0.18,0.78,0.55
			c0.07,0.37-0.18,0.72-0.55,0.78c-1.72,0.31-3.54,0.59-5.39,0.82C31.08,59.14,31.05,59.14,31.02,59.14z M41.67,57.2
			c-0.3,0-0.58-0.21-0.66-0.51c-0.09-0.36,0.13-0.73,0.49-0.82c1.8-0.45,3.53-0.95,5.14-1.49c0.35-0.12,0.74,0.07,0.86,0.42
			c0.12,0.35-0.07,0.74-0.42,0.86c-1.65,0.56-3.41,1.07-5.25,1.52C41.77,57.19,41.72,57.2,41.67,57.2z M51.88,53.69
			c-0.25,0-0.5-0.14-0.61-0.39c-0.16-0.34-0.01-0.74,0.32-0.9c1.69-0.8,3.24-1.67,4.61-2.61c0.31-0.21,0.73-0.13,0.94,0.18
			c0.21,0.31,0.13,0.73-0.18,0.94c-1.42,0.97-3.04,1.89-4.79,2.72C52.07,53.67,51.98,53.69,51.88,53.69z M60.67,47.51
			c-0.16,0-0.33-0.06-0.46-0.18c-0.28-0.25-0.29-0.68-0.04-0.95c1.46-1.6,2.3-3.03,2.48-4.27c0.06-0.37,0.4-0.62,0.77-0.57
			c0.37,0.06,0.62,0.4,0.57,0.77c-0.23,1.53-1.15,3.16-2.82,4.98C61.04,47.44,60.86,47.51,60.67,47.51z M60.94,38.42
			c-0.13,0-0.27-0.04-0.38-0.12c-1.13-0.78-2.68-1.48-4.73-2.15c-0.35-0.12-0.55-0.5-0.43-0.85c0.12-0.35,0.5-0.55,0.85-0.43
			c2.18,0.71,3.85,1.47,5.08,2.32c0.31,0.21,0.38,0.63,0.17,0.94C61.37,38.32,61.16,38.42,60.94,38.42z M50.81,34.78
			c-0.05,0-0.1-0.01-0.15-0.02c-1.71-0.39-3.48-0.75-5.28-1.11c-0.37-0.07-0.6-0.43-0.53-0.8c0.07-0.37,0.43-0.6,0.8-0.53
			c1.82,0.36,3.59,0.72,5.32,1.12c0.36,0.08,0.59,0.45,0.51,0.81C51.39,34.57,51.11,34.78,50.81,34.78z M40.2,32.57
			c-0.05,0-0.1-0.01-0.15-0.02c-2.29-0.51-3.98-0.98-5.3-1.46c-0.35-0.13-0.53-0.52-0.4-0.87c0.13-0.35,0.51-0.53,0.87-0.4
			c1.27,0.46,2.9,0.91,5.13,1.41c0.36,0.08,0.59,0.44,0.51,0.81C40.79,32.36,40.51,32.57,40.2,32.57z M30.92,27.88
			c-0.31,0-0.59-0.21-0.66-0.53c-0.04-0.18-0.06-0.37-0.06-0.55c0-1.47,1.24-2.76,3.78-3.94c0.34-0.16,0.74-0.01,0.9,0.33
			c0.16,0.34,0.01,0.74-0.33,0.9c-1.93,0.9-3,1.87-3,2.72c0,0.08,0.01,0.17,0.03,0.26c0.08,0.36-0.15,0.73-0.51,0.81
			C31.02,27.87,30.97,27.88,30.92,27.88z M39.38,22.38c-0.3,0-0.57-0.2-0.65-0.5c-0.1-0.36,0.12-0.73,0.48-0.83
			c2.85-0.75,5.27-1.14,5.37-1.15c0.37-0.06,0.71,0.19,0.77,0.56c0.06,0.37-0.19,0.71-0.56,0.77c-0.02,0-2.46,0.39-5.24,1.13
			C39.49,22.37,39.44,22.38,39.38,22.38z"/>
	</g>
	<g>
		<path class="st0" d="M9.71,60.2L9.71,60.2c-0.24,0-0.46-0.13-0.59-0.34L1.32,46.33c-1.75-3.04-1.75-6.66,0-9.7
			c1.75-3.04,4.89-4.85,8.4-4.85h0c3.51,0,6.65,1.81,8.4,4.85c1.75,3.04,1.75,6.66,0,9.7L10.3,59.87
			C10.18,60.08,9.96,60.2,9.71,60.2z M9.72,33.13c-3.02,0-5.72,1.56-7.23,4.17c-1.51,2.61-1.51,5.73,0,8.35l7.23,12.52l7.23-12.52
			c1.51-2.61,1.51-5.73,0-8.35C15.44,34.69,12.73,33.13,9.72,33.13z"/>
	</g>
</g>
</svg>
