<?xml version="1.0" encoding="utf-8"?>
<!-- Generator: Adobe Illustrator 26.0.1, SVG Export Plug-In . SVG Version: 6.00 Build 0)  -->
<svg version="1.1" id="Layer_1" xmlns="http://www.w3.org/2000/svg" xmlns:xlink="http://www.w3.org/1999/xlink" x="0px" y="0px"
	 viewBox="0 0 64 64" style="enable-background:new 0 0 64 64;" xml:space="preserve">
<style type="text/css">
	.st0{fill:#999999;}
</style>
<g id="Floor_Plan_View">
	<g>
		<path class="st0" d="M63.07,64H37.1c-0.51,0-0.93-0.42-0.93-0.93c0-0.51,0.42-0.93,0.93-0.93h25.04V1.86H1.86v60.27H26.9
			c0.51,0,0.93,0.42,0.93,0.93c0,0.51-0.42,0.93-0.93,0.93H0.93C0.42,64,0,63.58,0,63.07V0.93C0,0.42,0.42,0,0.93,0h62.13
			C63.58,0,64,0.42,64,0.93v62.13C64,63.58,63.58,64,63.07,64z"/>
	</g>
	<g>
		<g>
			<path class="st0" d="M22.81,64c-0.51,0-0.93-0.42-0.93-0.93V48.45c0-0.51,0.42-0.93,0.93-0.93s0.93,0.42,0.93,0.93v14.61
				C23.74,63.58,23.32,64,22.81,64z"/>
		</g>
		<g>
			<path class="st0" d="M22.81,10.57c-0.51,0-0.93-0.42-0.93-0.93V0.93c0-0.51,0.42-0.93,0.93-0.93s0.93,0.42,0.93,0.93v8.71
				C23.74,10.16,23.32,10.57,22.81,10.57z"/>
		</g>
		<g>
			<path class="st0" d="M22.81,39.55c-0.51,0-0.93-0.42-0.93-0.93V19.8c0-0.51,0.42-0.93,0.93-0.93s0.93,0.42,0.93,0.93v18.82
				C23.74,39.14,23.32,39.55,22.81,39.55z"/>
		</g>
		<g>
			<path class="st0" d="M41.19,64c-0.51,0-0.93-0.42-0.93-0.93V48.45c0-0.51,0.42-0.93,0.93-0.93s0.93,0.42,0.93,0.93v14.61
				C42.12,63.58,41.71,64,41.19,64z"/>
		</g>
		<g>
			<path class="st0" d="M41.19,10.57c-0.51,0-0.93-0.42-0.93-0.93V0.93c0-0.51,0.42-0.93,0.93-0.93s0.93,0.42,0.93,0.93v8.71
				C42.12,10.16,41.71,10.57,41.19,10.57z"/>
		</g>
		<g>
			<path class="st0" d="M41.19,39.55c-0.51,0-0.93-0.42-0.93-0.93V19.8c0-0.51,0.42-0.93,0.93-0.93s0.93,0.42,0.93,0.93v18.82
				C42.12,39.14,41.71,39.55,41.19,39.55z"/>
		</g>
	</g>
	<g>
		<path class="st0" d="M22.81,39.55H1.73c-0.51,0-0.93-0.42-0.93-0.93s0.42-0.93,0.93-0.93h21.07c0.51,0,0.93,0.42,0.93,0.93
			S23.32,39.55,22.81,39.55z"/>
	</g>
	<g>
		<path class="st0" d="M63.07,28.19H41.19c-0.51,0-0.93-0.42-0.93-0.93s0.42-0.93,0.93-0.93h21.87c0.51,0,0.93,0.42,0.93,0.93
			S63.58,28.19,63.07,28.19z"/>
	</g>
</g>
</svg>
