<?xml version="1.0" encoding="utf-8"?>
<!-- Generator: Adobe Illustrator 26.0.1, SVG Export Plug-In . SVG Version: 6.00 Build 0)  -->
<svg version="1.1" id="Layer_1" xmlns="http://www.w3.org/2000/svg" xmlns:xlink="http://www.w3.org/1999/xlink" x="0px" y="0px"
	 viewBox="0 0 64 64" style="enable-background:new 0 0 64 64;" xml:space="preserve">
<style type="text/css">
	.st0{fill:#999999;}
</style>
<g>
	<g>
		<path class="st0" d="M63.22,53.31H0.78C0.35,53.31,0,52.96,0,52.53V11.47c0-0.43,0.35-0.78,0.78-0.78h62.44
			c0.43,0,0.78,0.35,0.78,0.78v41.06C64,52.96,63.65,53.31,63.22,53.31z M1.56,51.75h60.88v-39.5H1.56V51.75z"/>
	</g>
	<g>
		<path class="st0" d="M33.65,27.24c0.86,0,1.67,0,2.53,0c-0.13,0.25-0.25,0.47-0.35,0.7c-0.06,0.13-0.17,0.1-0.27,0.11
			c-0.67,0.04-1.34,0.08-2.05,0.13c-0.16,0.93-0.32,1.86-0.49,2.79c-0.44,2.41-0.78,4.85-1.54,7.19c-0.56,1.75-1.5,3.24-3.02,4.32
			c-0.35,0.25-0.74,0.43-1.16,0.55c-0.45,0.13-0.88,0.07-1.29-0.13c-0.56-0.27-0.72-0.73-0.45-1.3c0.12-0.25,0.26-0.49,0.48-0.68
			c0.21-0.18,0.4-0.19,0.61,0c0.18,0.16,0.37,0.32,0.58,0.44c0.78,0.48,1.53,0.26,1.96-0.54c0.37-0.7,0.53-1.46,0.69-2.22
			c0.6-2.99,1.11-6,1.61-9.01c0.08-0.47,0.16-0.93,0.24-1.42c-0.65,0-1.27,0-1.88,0c-0.03-0.36,0.46-0.92,0.8-0.92
			c0.41-0.01,0.81,0,1.25,0c0.19-0.77,0.36-1.54,0.64-2.28c0.63-1.67,1.67-3,3.33-3.75c0.53-0.24,1.09-0.4,1.69-0.25
			c0.44,0.11,0.86,0.27,0.99,0.76c0.09,0.35-0.38,1.11-0.75,1.3c-0.19,0.09-0.33,0.01-0.47-0.11c-0.29-0.27-0.58-0.53-0.96-0.68
			c-0.66-0.25-1.13-0.1-1.48,0.5c-0.53,0.92-0.74,1.95-0.95,2.97C33.83,26.2,33.75,26.7,33.65,27.24z"/>
	</g>
</g>
</svg>
