<?xml version="1.0" encoding="utf-8"?>
<!-- Generator: Adobe Illustrator 26.0.1, SVG Export Plug-In . SVG Version: 6.00 Build 0)  -->
<svg version="1.1" id="Layer_1" xmlns="http://www.w3.org/2000/svg" xmlns:xlink="http://www.w3.org/1999/xlink" x="0px" y="0px"
	 viewBox="0 0 64 64" style="enable-background:new 0 0 64 64;" xml:space="preserve">
<style type="text/css">
	.st0{fill:#999999;}
</style>
<g>
	<g>
		<path class="st0" d="M63.22,53.31H0.78C0.35,53.31,0,52.96,0,52.53V11.47c0-0.43,0.35-0.78,0.78-0.78h62.44
			c0.43,0,0.78,0.35,0.78,0.78v41.06C64,52.96,63.65,53.31,63.22,53.31z M1.56,51.75h60.88v-39.5H1.56V51.75z"/>
	</g>
	<g>
		<g>
			<polygon class="st0" points="23.9,22.84 22.64,22.84 22.64,41.16 25.65,41.16 25.65,33.66 33.03,33.66 33.03,30.79 25.65,30.79 
				25.65,25.72 34.42,25.72 34.42,22.84 25.65,22.84 			"/>
		</g>
		<g>
			<polygon class="st0" points="35.93,24.32 35.93,27.49 38.35,26.27 38.35,41.16 41.36,41.16 41.36,22.84 38.6,22.84 			"/>
		</g>
	</g>
</g>
</svg>
