<?xml version="1.0" encoding="utf-8"?>
<!-- Generator: Adobe Illustrator 26.0.1, SVG Export Plug-In . SVG Version: 6.00 Build 0)  -->
<svg version="1.1" id="Layer_1" xmlns="http://www.w3.org/2000/svg" xmlns:xlink="http://www.w3.org/1999/xlink" x="0px" y="0px"
	 viewBox="0 0 64 64" style="enable-background:new 0 0 64 64;" xml:space="preserve">
<style type="text/css">
	.st0{fill:#999999;}
</style>
<g>
	<g>
		<path class="st0" d="M63.22,53.31H0.78C0.35,53.31,0,52.96,0,52.53V11.47c0-0.43,0.35-0.78,0.78-0.78h62.44
			c0.43,0,0.78,0.35,0.78,0.78v41.06C64,52.96,63.65,53.31,63.22,53.31z M1.56,51.75h60.88v-39.5H1.56V51.75z"/>
	</g>
	<g>
		<g>
			<polygon class="st0" points="21.08,22.93 19.82,22.93 19.82,41.26 22.83,41.26 22.83,33.76 30.22,33.76 30.22,30.88 22.83,30.88 
				22.83,25.82 31.6,25.82 31.6,22.93 22.83,22.93 			"/>
		</g>
		<g>
			<path class="st0" d="M42.49,31.92c0.5-0.66,0.88-1.37,1.17-2.13c0.28-0.76,0.42-1.52,0.42-2.26v-0.01c0-1.52-0.46-2.7-1.39-3.53
				c-0.92-0.83-2.23-1.25-3.91-1.25c-1.52,0-2.76,0.46-3.72,1.37c-0.96,0.91-1.53,2.2-1.7,3.86v0.01h3.1v-0.01
				c0.08-0.75,0.33-1.33,0.74-1.73c0.41-0.41,0.95-0.61,1.6-0.61c0.69,0,1.22,0.17,1.59,0.5c0.37,0.34,0.56,0.81,0.56,1.42v0.03
				c0,0.4-0.09,0.83-0.27,1.29c-0.18,0.45-0.43,0.89-0.76,1.32l-6.34,8.39v2.67h10.59v-2.89h-6.6L42.49,31.92z"/>
		</g>
	</g>
</g>
</svg>
