<?xml version="1.0" encoding="utf-8"?>
<!-- Generator: Adobe Illustrator 26.0.1, SVG Export Plug-In . SVG Version: 6.00 Build 0)  -->
<svg version="1.1" id="Layer_1" xmlns="http://www.w3.org/2000/svg" xmlns:xlink="http://www.w3.org/1999/xlink" x="0px" y="0px"
	 viewBox="0 0 64 64" style="enable-background:new 0 0 64 64;" xml:space="preserve">
<style type="text/css">
	.st0{fill:#999999;}
</style>
<g id="General_Setting">
	<path class="st0" d="M13.68,57.26c-0.51-0.04-0.98-0.32-1.42-0.58c-1.47-0.89-2.96-1.81-4.1-3.1s-1.89-3.03-1.59-4.73
		c0.27-1.51,1.31-2.75,2.09-4.06c0.79-1.32,1.34-3.01,0.6-4.35c-1.47-2.66-6.14-1.29-8.04-3.67c-0.42-0.53-0.65-1.19-0.82-1.85
		c-0.65-2.56-0.54-5.31,0.31-7.82c0.15-0.45,0.34-0.92,0.68-1.25c0.47-0.47,1.17-0.63,1.83-0.73c1.31-0.2,2.66-0.27,3.91-0.7
		c1.25-0.44,2.44-1.34,2.79-2.62c0.49-1.81-0.8-3.56-1.82-5.13c-2.26-3.51-0.03-6.57,2.9-8.89c1.29-1.02,3-1.65,4.6-1.27
		c1.35,0.32,2.43,1.29,3.58,2.06c1.15,0.78,2.59,1.4,3.89,0.93c1.54-0.55,2.2-2.35,2.53-3.95c0.34-1.6,0.64-3.39,1.93-4.4
		c0.91-0.71,2.12-0.86,3.27-0.99c2.62-0.29,5.73-0.38,7.33,1.71c0.93,1.21,1.05,2.83,1.35,4.32s0.97,3.12,2.39,3.66
		c2.65,1,4.93-2.45,7.74-2.83c2.43-0.33,4.49,1.69,6.1,3.54c0.96,1.1,1.96,2.32,2.02,3.77c0.07,1.63-1.04,3.04-1.99,4.36
		c-0.94,1.33-1.8,3.02-1.17,4.53c1.16,2.79,5.65,1.83,7.87,3.88c1.37,1.27,1.53,3.35,1.53,5.22c0,2.36-0.35,5.16-2.42,6.29
		c-1.62,0.89-3.71,0.37-5.39,1.15c-1.62,0.76-2.51,2.78-1.98,4.49c0.49,1.58,1.98,2.69,2.54,4.25c0.61,1.66,0.05,3.56-0.99,4.98
		s-2.52,2.46-3.96,3.47c-0.53,0.37-1.07,0.74-1.71,0.85c-0.72,0.12-1.44-0.14-2.09-0.47c-1.29-0.66-2.4-1.64-3.7-2.28
		c-1.3-0.64-2.96-0.87-4.14-0.04c-2.27,1.6-1.13,5.53-3.03,7.55c-0.94,1-2.4,1.28-3.77,1.38c-1.89,0.13-3.8,0.01-5.66-0.36
		c-0.55-0.11-1.12-0.26-1.53-0.64c-0.31-0.3-0.49-0.71-0.63-1.12c-0.48-1.43-0.55-2.98-0.98-4.43c-0.43-1.45-1.36-2.91-2.83-3.29
		c-2.47-0.66-4.5,1.9-6.85,2.9C14.5,57.17,14.09,57.29,13.68,57.26z M21.13,31.82c-0.09,6.14,4.77,11.05,10.94,11.07
		c5.98,0.02,10.83-4.84,10.84-10.85c0.01-6.02-4.81-10.91-10.77-10.92C26.09,21.1,21.21,25.84,21.13,31.82z"/>
</g>
</svg>
