<?xml version="1.0" encoding="utf-8"?>
<!-- Generator: Adobe Illustrator 26.0.1, SVG Export Plug-In . SVG Version: 6.00 Build 0)  -->
<svg version="1.1" id="Layer_1" xmlns="http://www.w3.org/2000/svg" xmlns:xlink="http://www.w3.org/1999/xlink" x="0px" y="0px"
	 viewBox="0 0 64 64" style="enable-background:new 0 0 64 64;" xml:space="preserve">
<style type="text/css">
	.st0{fill:#999999;}
</style>
<g id="Horizontal_Line_00000150103013604971188840000007849153016231530902_">
	<g>
		<g>
			<g>
				<g>
					<g>
						<g>
							<g>
								<path class="st0" d="M11.74,47.86c0.15,0.94,0.91,2.14,2.16,2.56c0.51,0.17,1.07,0.17,1.58,0c1.23-0.43,2.01-1.62,2.16-2.56
									c0.16-0.01,0.38-0.23,0.61-1.03c0.32-1.08-0.02-1.25-0.31-1.22c0.05-0.15,0.1-0.3,0.12-0.44c0.49-2.81-0.95-2.91-0.95-2.91
									s-0.24-0.44-0.87-0.77c-0.42-0.24-1.01-0.43-1.78-0.36c-0.25,0.01-0.49,0.06-0.71,0.13c-0.28,0.09-0.55,0.23-0.78,0.39
									c-0.29,0.17-0.56,0.39-0.8,0.64c-0.38,0.38-0.72,0.86-0.87,1.46c-0.12,0.45-0.1,0.92,0.01,1.43
									c0.03,0.15,0.07,0.3,0.12,0.44c-0.29-0.03-0.63,0.13-0.31,1.22C11.36,47.63,11.58,47.85,11.74,47.86L11.74,47.86z
									 M11.74,47.86"/>
							</g>
						</g>
						<g>
							<g>
								<path class="st0" d="M20.36,51.55c-1.75-0.43-3.18-1.39-3.18-1.39l-1.11,3.38l-0.21,0.64l0-0.01l-0.18,0.54l-0.59-1.6
									c1.44-1.93-0.29-1.91-0.39-1.91c-0.1,0-1.83-0.02-0.39,1.91l-0.59,1.6l-0.18-0.54l0,0.01l-0.21-0.64l-1.12-3.38
									c0,0-1.42,0.96-3.18,1.39c-1.31,0.32-1.37,1.77-1.32,2.48c0,0,0.08,0.97,0.15,1.4c0,0,2.55,1.59,6.83,1.59
									c4.28,0,6.83-1.59,6.83-1.59c0.08-0.43,0.15-1.4,0.15-1.4C21.73,53.32,21.66,51.87,20.36,51.55L20.36,51.55z M20.36,51.55"
									/>
							</g>
						</g>
					</g>
				</g>
			</g>
		</g>
		<g>
			<g>
				<g>
					<g>
						<g>
							<g>
								<path class="st0" d="M29.05,47.86c0.15,0.94,0.91,2.14,2.16,2.56c0.51,0.17,1.07,0.17,1.58,0c1.23-0.43,2.01-1.62,2.16-2.56
									c0.16-0.01,0.38-0.23,0.61-1.03c0.32-1.08-0.02-1.25-0.31-1.22c0.05-0.15,0.1-0.3,0.12-0.44c0.49-2.81-0.95-2.91-0.95-2.91
									s-0.24-0.44-0.87-0.77c-0.42-0.24-1.01-0.43-1.78-0.36c-0.25,0.01-0.49,0.06-0.71,0.13c-0.28,0.09-0.55,0.23-0.78,0.39
									c-0.29,0.17-0.56,0.39-0.8,0.64c-0.38,0.38-0.72,0.86-0.87,1.46c-0.12,0.45-0.1,0.92,0.01,1.43
									c0.03,0.15,0.07,0.3,0.12,0.44c-0.29-0.03-0.63,0.13-0.31,1.22C28.67,47.63,28.88,47.85,29.05,47.86L29.05,47.86z
									 M29.05,47.86"/>
							</g>
						</g>
						<g>
							<g>
								<path class="st0" d="M37.66,51.55c-1.75-0.43-3.18-1.39-3.18-1.39l-1.11,3.38l-0.21,0.64l0-0.01l-0.18,0.54l-0.59-1.6
									c1.44-1.93-0.29-1.91-0.39-1.91c-0.1,0-1.83-0.02-0.39,1.91l-0.59,1.6l-0.18-0.54l0,0.01l-0.21-0.64l-1.12-3.38
									c0,0-1.42,0.96-3.18,1.39c-1.31,0.32-1.37,1.77-1.32,2.48c0,0,0.08,0.97,0.15,1.4c0,0,2.55,1.59,6.83,1.59
									c4.28,0,6.83-1.59,6.83-1.59c0.08-0.43,0.15-1.4,0.15-1.4C39.03,53.32,38.97,51.87,37.66,51.55L37.66,51.55z M37.66,51.55"
									/>
							</g>
						</g>
					</g>
				</g>
			</g>
		</g>
		<g>
			<g>
				<g>
					<g>
						<g>
							<g>
								<path class="st0" d="M46.35,47.86c0.15,0.94,0.91,2.14,2.16,2.56c0.51,0.17,1.07,0.17,1.58,0c1.23-0.43,2.01-1.62,2.16-2.56
									c0.16-0.01,0.38-0.23,0.61-1.03c0.32-1.08-0.02-1.25-0.31-1.22c0.05-0.15,0.1-0.3,0.12-0.44c0.49-2.81-0.95-2.91-0.95-2.91
									s-0.24-0.44-0.87-0.77c-0.42-0.24-1.01-0.43-1.78-0.36c-0.25,0.01-0.49,0.06-0.71,0.13c-0.28,0.09-0.55,0.23-0.78,0.39
									c-0.29,0.17-0.56,0.39-0.8,0.64c-0.38,0.38-0.72,0.86-0.87,1.46c-0.12,0.45-0.1,0.92,0.01,1.43
									c0.03,0.15,0.07,0.3,0.12,0.44c-0.29-0.03-0.63,0.13-0.31,1.22C45.97,47.63,46.19,47.85,46.35,47.86L46.35,47.86z
									 M46.35,47.86"/>
							</g>
						</g>
						<g>
							<g>
								<path class="st0" d="M54.97,51.55c-1.75-0.43-3.18-1.39-3.18-1.39l-1.11,3.38l-0.21,0.64l0-0.01l-0.18,0.54l-0.59-1.6
									c1.44-1.93-0.29-1.91-0.39-1.91c-0.1,0-1.83-0.02-0.39,1.91l-0.59,1.6l-0.18-0.54l0,0.01l-0.21-0.64l-1.12-3.38
									c0,0-1.42,0.96-3.18,1.39c-1.31,0.32-1.37,1.77-1.32,2.48c0,0,0.08,0.97,0.15,1.4c0,0,2.55,1.59,6.83,1.59
									c4.28,0,6.83-1.59,6.83-1.59c0.08-0.43,0.15-1.4,0.15-1.4C56.34,53.32,56.28,51.87,54.97,51.55L54.97,51.55z M54.97,51.55"
									/>
							</g>
						</g>
					</g>
				</g>
			</g>
		</g>
	</g>
	<g>
		<g>
			<rect y="38.36" class="st0" width="64" height="1.89"/>
		</g>
	</g>
	<g>
		<g>
			<g>
				<g>
					<path class="st0" d="M46.88,25.72c-0.02-0.04-0.04-0.09-0.08-0.11c-0.01-0.01-0.02-0.02-0.04-0.03
						c-0.02-0.01-0.03-0.01-0.05-0.02c-0.02-0.01-0.03-0.01-0.05-0.01h-0.02c0,0-0.01,0-0.01,0c-0.05,0-0.1,0.02-0.15,0.07
						l-0.4,0.35l0,0l-8.45,7.5l-2.46,2.19l-0.79,0.7c-0.38,0.34-0.87,0.52-1.39,0.48c-0.51-0.03-1-0.27-1.34-0.66
						c-0.2-0.22-0.33-0.47-0.42-0.75c-0.07-0.21-0.1-0.44-0.08-0.67c0.03-0.52,0.26-0.99,0.65-1.32l0.82-0.73l5.02-4.45l5.87-5.21
						l0,0l0.4-0.35c0.05-0.05,0.08-0.11,0.08-0.18c0-0.03,0-0.06-0.02-0.09c-0.01-0.01-0.01-0.03-0.02-0.04
						c0-0.01-0.01-0.02-0.02-0.03c-0.01-0.01-0.01-0.02-0.02-0.02l-6.28-7.07l-1.92-2.16l-5.36-6.03c-0.1-0.11-0.26-0.12-0.36-0.02
						l-6.82,6.06l-4.47,3.96l-0.82,0.73c-0.99,0.88-1.06,2.42-0.16,3.44L30.3,35.39l0.98,1.11c0.91,1.02,2.44,1.13,3.43,0.25
						l1.18-1.05l1.73-1.53l9.2-8.17v0C46.92,25.91,46.92,25.81,46.88,25.72z M18.1,20.89c-0.71-0.8-0.66-2.02,0.12-2.72l0.63-0.56
						l0.38-0.33l4.71-4.18l6.2-5.5l4.89,5.5l2.59,2.92l5.74,6.46l-5.74,5.1l-5.17,4.59l-0.38,0.33l-0.63,0.56
						c-0.56,0.49-0.84,1.22-0.78,1.98L18.1,20.89z"/>
				</g>
			</g>
			<g>
				<g>
					<path class="st0" d="M46.82,25.99c-0.05,0.04-0.12,0.07-0.18,0.06c-0.88-0.06-1.71-0.48-2.3-1.15
						c-0.59-0.67-0.91-1.54-0.87-2.42c0.02-0.33,0.52-0.3,0.51,0.04c-0.03,0.75,0.23,1.48,0.73,2.05s1.2,0.92,1.95,0.97
						C46.88,25.56,46.98,25.85,46.82,25.99L46.82,25.99z M46.82,25.99"/>
				</g>
			</g>
			<g>
				<g>
					<path class="st0" d="M32.62,32.36l-0.17-0.2L19.24,17.28l-0.17-0.19c-0.12-0.13-0.27-0.11-0.36-0.02
						c-0.09,0.08-0.13,0.23-0.02,0.36l0.17,0.19l13.21,14.88l0.17,0.2c0.09,0.11,0.25,0.12,0.36,0.03
						C32.71,32.62,32.72,32.46,32.62,32.36z"/>
				</g>
			</g>
		</g>
		<g>
			<g>
				
					<rect x="24" y="9.92" transform="matrix(0.7478 -0.6639 0.6639 0.7478 -5.303 25.7927)" class="st0" width="14.59" height="19.9"/>
			</g>
		</g>
		<g>
			<g>
				<path class="st0" d="M32.07,32.49l-0.63,0.56c-0.56,0.49-0.84,1.22-0.78,1.98L18.1,20.89c-0.71-0.8-0.66-2.02,0.12-2.72
					l0.63-0.56L32.07,32.49z"/>
			</g>
		</g>
	</g>
</g>
</svg>
