<?xml version="1.0" encoding="utf-8"?>
<!-- Generator: Adobe Illustrator 26.0.1, SVG Export Plug-In . SVG Version: 6.00 Build 0)  -->
<svg version="1.1" id="Layer_1" xmlns="http://www.w3.org/2000/svg" xmlns:xlink="http://www.w3.org/1999/xlink" x="0px" y="0px"
	 viewBox="0 0 64 64" style="enable-background:new 0 0 64 64;" xml:space="preserve">
<style type="text/css">
	.st0{fill:#999999;}
</style>
<g id="Inter-Router">
	<g>
		<path class="st0" d="M52.78,33.33H11.22c-0.73,0-1.33-0.59-1.33-1.33s0.59-1.33,1.33-1.33h41.55c0.73,0,1.33,0.59,1.33,1.33
			S53.51,33.33,52.78,33.33z"/>
	</g>
	<g>
		<g>
			<path class="st0" d="M0,32c5.28,1.96,11.83,5.3,15.9,8.84L12.7,32l3.2-8.84C11.83,26.7,5.28,30.04,0,32z"/>
		</g>
	</g>
	<g>
		<g>
			<path class="st0" d="M64,32c-5.28,1.96-11.83,5.3-15.9,8.84L51.3,32l-3.2-8.84C52.17,26.7,58.72,30.04,64,32z"/>
		</g>
	</g>
</g>
</svg>
