<?xml version="1.0" encoding="utf-8"?>
<!-- Generator: Adobe Illustrator 26.0.1, SVG Export Plug-In . SVG Version: 6.00 Build 0)  -->
<svg version="1.1" id="Layer_1" xmlns="http://www.w3.org/2000/svg" xmlns:xlink="http://www.w3.org/1999/xlink" x="0px" y="0px"
	 viewBox="0 0 64 64" style="enable-background:new 0 0 64 64;" xml:space="preserve">
<style type="text/css">
	.st0{fill:#999999;}
</style>
<g id="Map_View">
	<g>
		<path class="st0" d="M46.9,44.7c-0.29,0-0.57-0.14-0.74-0.37c-0.75-0.99-1.49-1.95-2.23-2.9c-1.19-1.54-2.32-2.99-3.43-4.52
			c-2.09-2.89-4.49-6.35-6.4-10.07c-2.13-4.14-3.06-7.76-2.93-11.4c0.13-3.85,1.33-7.09,3.57-9.64c4.18-4.77,9.49-6.65,15.35-5.43
			C56.76,1.74,61.75,7.22,62.51,14c0.45,4.02-0.4,7.98-2.67,12.47c-2.78,5.49-6.47,10.4-10.02,14.96c-0.48,0.61-0.94,1.24-1.43,1.89
			l-0.75,1.01C47.47,44.57,47.2,44.7,46.9,44.7C46.9,44.7,46.9,44.7,46.9,44.7z M46.64,1.86c-3.97,0-7.49,1.73-10.51,5.16
			c-1.95,2.22-2.99,5.07-3.11,8.48c-0.11,3.31,0.75,6.64,2.73,10.49c1.86,3.62,4.21,7,6.26,9.83c1.09,1.5,2.21,2.95,3.39,4.47
			c0.5,0.64,0.99,1.28,1.49,1.93l0.01-0.01c0.5-0.67,0.97-1.3,1.45-1.92c3.49-4.49,7.13-9.31,9.83-14.65
			c2.1-4.15,2.89-7.78,2.48-11.42C59.99,8.24,55.59,3.4,49.71,2.18C48.66,1.97,47.64,1.86,46.64,1.86z M46.92,23.3
			c-0.02,0-0.04,0-0.06,0l0,0c-4.15-0.04-7.49-3.45-7.46-7.6c0.02-2.03,0.81-3.91,2.24-5.31C43.06,9,44.96,8.27,47,8.26
			c1.98,0.02,3.84,0.81,5.23,2.23c1.41,1.44,2.17,3.34,2.15,5.37C54.33,19.97,50.99,23.3,46.92,23.3z M46.94,10.12
			c-1.53,0-2.95,0.57-4.01,1.6c-1.07,1.04-1.66,2.46-1.68,3.99c-0.03,3.13,2.49,5.69,5.61,5.72l0,0c0.02,0,0.03,0,0.05,0
			c3.06,0,5.56-2.5,5.6-5.61c0.02-1.52-0.56-2.96-1.62-4.04c-1.04-1.06-2.43-1.66-3.91-1.67C46.97,10.12,46.96,10.12,46.94,10.12z"
			/>
	</g>
	<g>
		<g>
			<path class="st0" d="M51.99,64H8.72c-4.05,0-7.35-3.3-7.35-7.36V13.38c0-4.06,3.3-7.36,7.35-7.36h26.26
				c0.51,0,0.93,0.42,0.93,0.93s-0.42,0.93-0.93,0.93H8.72c-3.03,0-5.49,2.46-5.49,5.49v43.27c0,3.03,2.46,5.49,5.49,5.49h43.27
				c3.03,0,5.49-2.46,5.49-5.49V27.21c0-0.51,0.42-0.93,0.93-0.93c0.51,0,0.93,0.42,0.93,0.93v29.43C59.34,60.7,56.05,64,51.99,64z"
				/>
		</g>
		<g>
			<path class="st0" d="M2.3,50.56c-0.24,0-0.48-0.09-0.66-0.27c-0.36-0.36-0.36-0.95,0-1.32l30.12-30.12
				c0.36-0.36,0.95-0.36,1.32,0c0.36,0.36,0.36,0.95,0,1.32L2.96,50.29C2.78,50.47,2.54,50.56,2.3,50.56z"/>
		</g>
		<g>
			<path class="st0" d="M40.08,64c-0.24,0-0.48-0.09-0.66-0.27l-25.7-25.52c-0.37-0.36-0.37-0.95,0-1.32c0.36-0.36,0.95-0.37,1.32,0
				l25.7,25.52c0.37,0.36,0.37,0.95,0,1.32C40.56,63.91,40.32,64,40.08,64z"/>
		</g>
	</g>
</g>
</svg>
