<?xml version="1.0" encoding="utf-8"?>
<!-- Generator: Adobe Illustrator 26.0.1, SVG Export Plug-In . SVG Version: 6.00 Build 0)  -->
<svg version="1.1" id="Layer_1" xmlns="http://www.w3.org/2000/svg" xmlns:xlink="http://www.w3.org/1999/xlink" x="0px" y="0px"
	 viewBox="0 0 64 64" style="enable-background:new 0 0 64 64;" xml:space="preserve">
<style type="text/css">
	.st0{fill:#999999;}
</style>
<g id="Person">
	<g>
		<path class="st0" d="M20.64,27.14c0.58,3.79,3.5,8.61,8.3,10.31c1.97,0.69,4.12,0.7,6.09-0.01c4.72-1.71,7.73-6.52,8.32-10.3
			c0.63-0.05,1.47-0.94,2.36-4.13c1.23-4.36-0.08-5.01-1.19-4.9c0.21-0.6,0.37-1.21,0.48-1.79c1.88-11.3-3.67-11.69-3.67-11.69
			s-0.93-1.78-3.34-3.11c-1.63-0.97-3.88-1.71-6.86-1.46c-0.96,0.04-1.88,0.24-2.73,0.52c-1.1,0.37-2.1,0.91-3.01,1.55
			c-1.11,0.7-2.17,1.58-3.09,2.57c-1.47,1.51-2.77,3.46-3.34,5.88c-0.48,1.81-0.37,3.71,0.03,5.75c0.11,0.6,0.26,1.19,0.48,1.79
			c-1.11-0.11-2.42,0.54-1.19,4.9C19.17,26.19,20.01,27.08,20.64,27.14L20.64,27.14z M20.64,27.14"/>
	</g>
	<g>
		<path class="st0" d="M53.79,41.96c-6.75-1.72-12.23-5.59-12.23-5.59l-4.28,13.58l-0.81,2.56l-0.01-0.04l-0.7,2.17l-2.26-6.43
			c5.55-7.77-1.12-7.69-1.49-7.67c-0.37-0.01-7.04-0.09-1.49,7.67l-2.26,6.43l-0.7-2.17l-0.01,0.04l-0.81-2.56l-4.29-13.58
			c0,0-5.48,3.87-12.23,5.59c-5.03,1.29-5.27,7.12-5.07,9.99c0,0,0.29,3.91,0.58,5.63c0,0,9.83,6.4,26.29,6.41
			c16.46,0,26.29-6.41,26.29-6.41c0.29-1.72,0.58-5.63,0.58-5.63C59.06,49.08,58.82,43.25,53.79,41.96L53.79,41.96z M53.79,41.96"/>
	</g>
</g>
</svg>
