<?xml version="1.0" encoding="utf-8"?>
<!-- Generator: Adobe Illustrator 26.0.1, SVG Export Plug-In . SVG Version: 6.00 Build 0)  -->
<svg version="1.1" id="Layer_1" xmlns="http://www.w3.org/2000/svg" xmlns:xlink="http://www.w3.org/1999/xlink" x="0px" y="0px"
	 viewBox="0 0 64 64" style="enable-background:new 0 0 64 64;" xml:space="preserve">
<style type="text/css">
	.st0{fill:#999999;}
</style>
<g>
	<g id="Person_00000089535693728130985740000003184174006451869570_">
		<g>
			<path class="st0" d="M24.01,19.1c0.41,2.67,2.46,6.06,5.84,7.25c1.38,0.48,2.9,0.49,4.29-0.01c3.32-1.2,5.44-4.59,5.86-7.25
				c0.45-0.04,1.03-0.66,1.66-2.91c0.86-3.07-0.06-3.53-0.84-3.45c0.15-0.42,0.26-0.85,0.33-1.26c1.32-7.95-2.58-8.23-2.58-8.23
				S37.91,2,36.21,1.06c-1.14-0.68-2.73-1.2-4.83-1.03c-0.68,0.03-1.32,0.17-1.92,0.36c-0.77,0.26-1.48,0.64-2.12,1.09
				c-0.78,0.49-1.52,1.11-2.18,1.81c-1.03,1.06-1.95,2.43-2.35,4.14c-0.33,1.28-0.26,2.61,0.02,4.05c0.07,0.42,0.19,0.84,0.33,1.26
				c-0.78-0.07-1.7,0.38-0.84,3.45C22.97,18.43,23.56,19.06,24.01,19.1L24.01,19.1z M24.01,19.1"/>
		</g>
		<g>
			<path class="st0" d="M47.33,29.53c-4.75-1.21-8.61-3.94-8.61-3.94l-3.01,9.56l-0.57,1.8l-0.01-0.03l-0.49,1.53l-1.59-4.52
				c3.91-5.46-0.79-5.41-1.05-5.4c-0.26-0.01-4.96-0.07-1.05,5.4l-1.59,4.52l-0.49-1.53l-0.01,0.03l-0.57-1.8l-3.02-9.56
				c0,0-3.86,2.72-8.61,3.94c-3.54,0.9-3.71,5.01-3.57,7.03c0,0,0.2,2.75,0.41,3.96c0,0,6.92,4.5,18.5,4.51
				c11.58,0,18.5-4.51,18.5-4.51c0.2-1.21,0.41-3.96,0.41-3.96C51.04,34.54,50.88,30.43,47.33,29.53L47.33,29.53z M47.33,29.53"/>
		</g>
	</g>
	<g>
		<path class="st0" d="M42.07,64c-5.18,0-7.82-1.04-10.36-2.04c-2.52-0.99-4.9-1.93-9.78-1.93c-4.88,0-7.26,0.94-9.78,1.93
			c-0.25,0.1-0.5,0.2-0.75,0.29c-0.4,0.15-0.85-0.04-1.01-0.45c-0.15-0.4,0.05-0.85,0.45-1.01c0.25-0.1,0.5-0.19,0.74-0.29
			c2.54-1,5.17-2.03,10.35-2.03c5.18,0,7.81,1.04,10.36,2.04c2.52,0.99,4.9,1.93,9.79,1.93c4.89,0,7.26-0.94,9.78-1.93
			c0.25-0.1,0.5-0.2,0.75-0.29c0.4-0.15,0.85,0.04,1.01,0.45c0.15,0.4-0.04,0.85-0.45,1.01c-0.25,0.1-0.49,0.19-0.74,0.29
			C49.88,62.97,47.25,64,42.07,64z"/>
	</g>
	<g>
		<path class="st0" d="M42.07,56.48c-5.18,0-7.82-1.04-10.36-2.04c-2.52-0.99-4.9-1.93-9.78-1.93c-4.88,0-7.26,0.94-9.78,1.93
			c-0.25,0.1-0.5,0.2-0.75,0.29c-0.4,0.15-0.85-0.04-1.01-0.45c-0.15-0.4,0.05-0.85,0.45-1.01c0.25-0.1,0.5-0.19,0.74-0.29
			c2.54-1,5.17-2.03,10.35-2.03c5.18,0,7.81,1.04,10.36,2.04c2.52,0.99,4.9,1.93,9.79,1.93c4.89,0,7.26-0.94,9.78-1.93
			c0.25-0.1,0.5-0.2,0.75-0.29c0.4-0.15,0.85,0.04,1.01,0.45c0.15,0.4-0.04,0.85-0.45,1.01c-0.25,0.1-0.49,0.19-0.74,0.29
			C49.88,55.45,47.25,56.48,42.07,56.48z"/>
	</g>
</g>
</svg>
