<?xml version="1.0" encoding="utf-8"?>
<!-- Generator: Adobe Illustrator 26.0.1, SVG Export Plug-In . SVG Version: 6.00 Build 0)  -->
<svg version="1.1" id="Layer_1" xmlns="http://www.w3.org/2000/svg" xmlns:xlink="http://www.w3.org/1999/xlink" x="0px" y="0px"
	 viewBox="0 0 64 64" style="enable-background:new 0 0 64 64;" xml:space="preserve">
<style type="text/css">
	.st0{fill:#999999;}
</style>
<g id="Principle_Line_00000072249041583836976370000012970480704635272589_">
	<g>
		<g>
			<g>
				<g>
					<g>
						<g>
							<g>
								<path class="st0" d="M11.74,48.03c0.15,0.94,0.91,2.14,2.16,2.56c0.51,0.17,1.07,0.17,1.58,0c1.23-0.43,2.01-1.62,2.16-2.56
									c0.16-0.01,0.38-0.23,0.61-1.03c0.32-1.08-0.02-1.25-0.31-1.22c0.05-0.15,0.1-0.3,0.12-0.44c0.49-2.81-0.95-2.91-0.95-2.91
									s-0.24-0.44-0.87-0.77c-0.42-0.24-1.01-0.43-1.78-0.36c-0.25,0.01-0.49,0.06-0.71,0.13c-0.28,0.09-0.55,0.23-0.78,0.39
									c-0.29,0.17-0.56,0.39-0.8,0.64c-0.38,0.38-0.72,0.86-0.87,1.46c-0.12,0.45-0.1,0.92,0.01,1.43
									c0.03,0.15,0.07,0.3,0.12,0.44c-0.29-0.03-0.63,0.13-0.31,1.22C11.36,47.79,11.58,48.01,11.74,48.03L11.74,48.03z
									 M11.74,48.03"/>
							</g>
						</g>
						<g>
							<g>
								<path class="st0" d="M20.36,51.71c-1.75-0.43-3.18-1.39-3.18-1.39l-1.11,3.38l-0.21,0.64l0-0.01l-0.18,0.54l-0.59-1.6
									c1.44-1.93-0.29-1.91-0.39-1.91c-0.1,0-1.83-0.02-0.39,1.91l-0.59,1.6l-0.18-0.54l0,0.01l-0.21-0.64l-1.12-3.38
									c0,0-1.42,0.96-3.18,1.39c-1.31,0.32-1.37,1.77-1.32,2.48c0,0,0.08,0.97,0.15,1.4c0,0,2.55,1.59,6.83,1.59
									c4.28,0,6.83-1.59,6.83-1.59c0.08-0.43,0.15-1.4,0.15-1.4C21.73,53.48,21.66,52.03,20.36,51.71L20.36,51.71z M20.36,51.71"
									/>
							</g>
						</g>
					</g>
				</g>
			</g>
		</g>
		<g>
			<g>
				<g>
					<g>
						<g>
							<g>
								<path class="st0" d="M29.05,48.03c0.15,0.94,0.91,2.14,2.16,2.56c0.51,0.17,1.07,0.17,1.58,0c1.23-0.43,2.01-1.62,2.16-2.56
									c0.16-0.01,0.38-0.23,0.61-1.03c0.32-1.08-0.02-1.25-0.31-1.22c0.05-0.15,0.1-0.3,0.12-0.44c0.49-2.81-0.95-2.91-0.95-2.91
									s-0.24-0.44-0.87-0.77c-0.42-0.24-1.01-0.43-1.78-0.36c-0.25,0.01-0.49,0.06-0.71,0.13c-0.28,0.09-0.55,0.23-0.78,0.39
									c-0.29,0.17-0.56,0.39-0.8,0.64c-0.38,0.38-0.72,0.86-0.87,1.46c-0.12,0.45-0.1,0.92,0.01,1.43
									c0.03,0.15,0.07,0.3,0.12,0.44c-0.29-0.03-0.63,0.13-0.31,1.22C28.67,47.79,28.88,48.01,29.05,48.03L29.05,48.03z
									 M29.05,48.03"/>
							</g>
						</g>
						<g>
							<g>
								<path class="st0" d="M37.66,51.71c-1.75-0.43-3.18-1.39-3.18-1.39l-1.11,3.38l-0.21,0.64l0-0.01l-0.18,0.54l-0.59-1.6
									c1.44-1.93-0.29-1.91-0.39-1.91c-0.1,0-1.83-0.02-0.39,1.91l-0.59,1.6l-0.18-0.54l0,0.01l-0.21-0.64l-1.12-3.38
									c0,0-1.42,0.96-3.18,1.39c-1.31,0.32-1.37,1.77-1.32,2.48c0,0,0.08,0.97,0.15,1.4c0,0,2.55,1.59,6.83,1.59
									c4.28,0,6.83-1.59,6.83-1.59c0.08-0.43,0.15-1.4,0.15-1.4C39.03,53.48,38.97,52.03,37.66,51.71L37.66,51.71z M37.66,51.71"
									/>
							</g>
						</g>
					</g>
				</g>
			</g>
		</g>
		<g>
			<g>
				<g>
					<g>
						<g>
							<g>
								<path class="st0" d="M46.35,48.03c0.15,0.94,0.91,2.14,2.16,2.56c0.51,0.17,1.07,0.17,1.58,0c1.23-0.43,2.01-1.62,2.16-2.56
									c0.16-0.01,0.38-0.23,0.61-1.03c0.32-1.08-0.02-1.25-0.31-1.22c0.05-0.15,0.1-0.3,0.12-0.44c0.49-2.81-0.95-2.91-0.95-2.91
									s-0.24-0.44-0.87-0.77c-0.42-0.24-1.01-0.43-1.78-0.36c-0.25,0.01-0.49,0.06-0.71,0.13c-0.28,0.09-0.55,0.23-0.78,0.39
									c-0.29,0.17-0.56,0.39-0.8,0.64c-0.38,0.38-0.72,0.86-0.87,1.46c-0.12,0.45-0.1,0.92,0.01,1.43
									c0.03,0.15,0.07,0.3,0.12,0.44c-0.29-0.03-0.63,0.13-0.31,1.22C45.97,47.79,46.19,48.01,46.35,48.03L46.35,48.03z
									 M46.35,48.03"/>
							</g>
						</g>
						<g>
							<g>
								<path class="st0" d="M54.97,51.71c-1.75-0.43-3.18-1.39-3.18-1.39l-1.11,3.38l-0.21,0.64l0-0.01l-0.18,0.54l-0.59-1.6
									c1.44-1.93-0.29-1.91-0.39-1.91c-0.1,0-1.83-0.02-0.39,1.91l-0.59,1.6l-0.18-0.54l0,0.01l-0.21-0.64l-1.12-3.38
									c0,0-1.42,0.96-3.18,1.39c-1.31,0.32-1.37,1.77-1.32,2.48c0,0,0.08,0.97,0.15,1.4c0,0,2.55,1.59,6.83,1.59
									c4.28,0,6.83-1.59,6.83-1.59c0.08-0.43,0.15-1.4,0.15-1.4C56.34,53.48,56.28,52.03,54.97,51.71L54.97,51.71z M54.97,51.71"
									/>
							</g>
						</g>
					</g>
				</g>
			</g>
		</g>
	</g>
	<g>
		<g>
			<rect y="38.53" class="st0" width="64" height="1.89"/>
		</g>
	</g>
	<g>
		<g>
			<g>
				<path class="st0" d="M32.25,13.2c-0.8,0.05-0.98,0.29-1.09,0.73c-0.12,0.42-0.29,1.17-0.72,3.36c-0.42,2.25-1.25,3.43-3.35,3.42
					c-1.6-0.01-2.88-0.8-2.39-3.29l0.62-3.18c0.16-0.9,0.06-0.94-0.91-1.04l0.07-0.33h3.1l-0.06,0.33
					c-0.94,0.09-1.05,0.12-1.23,1.04l-0.61,3.15c-0.39,1.97,0.42,2.7,1.67,2.7c1.44,0,2.15-0.73,2.55-2.77
					c0.44-2.25,0.57-2.99,0.6-3.44c0.04-0.5-0.18-0.61-1.06-0.67l0.08-0.33h2.79L32.25,13.2z"/>
			</g>
			<g>
				<path class="st0" d="M39.58,12.61c-0.13,0.54-0.27,1.4-0.38,2.04l-0.37,0.02c0-0.19,0-0.45-0.05-0.65
					c-0.06-0.52-0.2-0.71-1.27-0.71h-0.72l-1.11,5.79c-0.18,0.95-0.08,1.01,0.99,1.1l-0.07,0.33h-3.24l0.08-0.33
					c1-0.08,1.08-0.15,1.26-1.1l1.11-5.79h-0.71c-0.94,0-1.14,0.15-1.36,0.46c-0.17,0.21-0.35,0.52-0.53,0.91l-0.38-0.04
					c0.19-0.68,0.38-1.39,0.48-2.04h0.27c0.12,0.27,0.25,0.26,0.57,0.26h4.53c0.31,0,0.39-0.04,0.61-0.26H39.58z"/>
			</g>
		</g>
		<g>
			<path class="st0" d="M44.81,26.5H19.2c-0.44,0-0.8-0.36-0.8-0.8V7.61c0-0.44,0.36-0.8,0.8-0.8h25.61c0.44,0,0.8,0.36,0.8,0.8
				V25.7C45.61,26.14,45.25,26.5,44.81,26.5z M20,24.9h24V8.42H20V24.9z"/>
		</g>
	</g>
	<g>
		<g>
			<path class="st0" d="M32,35.45c-0.44,0-0.8-0.36-0.8-0.8V25.7c0-0.44,0.36-0.8,0.8-0.8s0.8,0.36,0.8,0.8v8.95
				C32.8,35.09,32.44,35.45,32,35.45z"/>
		</g>
		<g>
			<g>
				<path class="st0" d="M32,38.53c-0.68-1.82-1.83-4.09-3.06-5.49L32,34.14l3.06-1.11C33.83,34.44,32.68,36.7,32,38.53z"/>
			</g>
		</g>
	</g>
</g>
</svg>
