<?xml version="1.0" encoding="utf-8"?>
<!-- Generator: Adobe Illustrator 26.0.1, SVG Export Plug-In . SVG Version: 6.00 Build 0)  -->
<svg version="1.1" id="Layer_1" xmlns="http://www.w3.org/2000/svg" xmlns:xlink="http://www.w3.org/1999/xlink" x="0px" y="0px"
	 viewBox="0 0 64 64" style="enable-background:new 0 0 64 64;" xml:space="preserve">
<style type="text/css">
	.st0{fill:#999999;}
</style>
<g id="Relate_00000023275173723924364880000010646489712323013046_">
	<g>
		<path class="st0" d="M14.8,19.34H0.64C0.29,19.34,0,19.05,0,18.7V4.54c0-0.35,0.29-0.64,0.64-0.64H14.8
			c0.35,0,0.64,0.29,0.64,0.64V18.7C15.43,19.05,15.15,19.34,14.8,19.34z M1.27,18.06h12.88V5.18H1.27V18.06z"/>
	</g>
	<g>
		<g>
			<path class="st0" d="M40.16,20.18c-0.35,0-0.64-0.29-0.64-0.64v-7.29H14.8c-0.35,0-0.64-0.29-0.64-0.64
				c0-0.35,0.29-0.64,0.64-0.64h25.37c0.35,0,0.64,0.29,0.64,0.64v7.92C40.8,19.9,40.52,20.18,40.16,20.18z"/>
		</g>
		<g>
			<g>
				<polygon class="st0" points="40.16,24.95 37.05,17.34 40.16,19.14 43.27,17.34 				"/>
			</g>
		</g>
	</g>
	<g>
		<path class="st0" d="M14.8,60.09H0.64C0.29,60.09,0,59.81,0,59.46V45.3c0-0.35,0.29-0.64,0.64-0.64H14.8
			c0.35,0,0.64,0.29,0.64,0.64v14.16C15.43,59.81,15.15,60.09,14.8,60.09z M1.27,58.82h12.88V45.94H1.27V58.82z"/>
	</g>
	<g>
		<g>
			<path class="st0" d="M40.16,53.02H14.8c-0.35,0-0.64-0.29-0.64-0.64c0-0.35,0.29-0.64,0.64-0.64h24.73v-7.29
				c0-0.35,0.29-0.64,0.64-0.64c0.35,0,0.64,0.29,0.64,0.64v7.92C40.8,52.73,40.52,53.02,40.16,53.02z"/>
		</g>
		<g>
			<g>
				<polygon class="st0" points="40.16,39.05 43.27,46.66 40.16,44.86 37.06,46.66 				"/>
			</g>
		</g>
	</g>
	<g>
		<path class="st0" d="M40.16,39.74c-4.25,0-7.72-3.46-7.72-7.72s3.46-7.72,7.72-7.72s7.72,3.46,7.72,7.72S44.42,39.74,40.16,39.74z
			 M40.16,25.58c-3.55,0-6.44,2.89-6.44,6.44s2.89,6.44,6.44,6.44s6.44-2.89,6.44-6.44S43.72,25.58,40.16,25.58z"/>
	</g>
	<g>
		<g>
			<path class="st0" d="M59.38,32.66H47.24c-0.35,0-0.64-0.29-0.64-0.64c0-0.35,0.29-0.64,0.64-0.64h12.14
				c0.35,0,0.64,0.29,0.64,0.64C60.02,32.38,59.74,32.66,59.38,32.66z"/>
		</g>
		<g>
			<g>
				<path class="st0" d="M64,32.02c-2.17,0.81-4.87,2.18-6.54,3.64l1.32-3.64l-1.32-3.64C59.13,29.84,61.83,31.22,64,32.02z"/>
			</g>
		</g>
	</g>
</g>
</svg>
