<?xml version="1.0" encoding="utf-8"?>
<!-- Generator: Adobe Illustrator 26.0.1, SVG Export Plug-In . SVG Version: 6.00 Build 0)  -->
<svg version="1.1" id="Layer_1" xmlns="http://www.w3.org/2000/svg" xmlns:xlink="http://www.w3.org/1999/xlink" x="0px" y="0px"
	 viewBox="0 0 64 64" style="enable-background:new 0 0 64 64;" xml:space="preserve">
<style type="text/css">
	.st0{fill:#999999;}
	.st1{fill:#666666;}
</style>
<g id="Scoll_Feature">
	<g>
		<g>
			<path class="st0" d="M20.85,64h-5.73c-0.84,0-1.53-0.68-1.53-1.53V48.56c0-0.84,0.68-1.53,1.53-1.53h5.73
				c0.84,0,1.53,0.68,1.53,1.53v13.91C22.38,63.32,21.69,64,20.85,64z"/>
		</g>
		<g>
			<path class="st0" d="M32.16,64h-5.73c-0.84,0-1.53-0.68-1.53-1.53V40.68c0-0.84,0.68-1.53,1.53-1.53h5.73
				c0.84,0,1.53,0.68,1.53,1.53v21.79C33.69,63.32,33,64,32.16,64z"/>
		</g>
		<g>
			<path class="st0" d="M43.47,64h-5.73c-0.84,0-1.53-0.68-1.53-1.53V31.59c0-0.84,0.68-1.53,1.53-1.53h5.73
				c0.84,0,1.53,0.68,1.53,1.53v30.88C45,63.32,44.32,64,43.47,64z"/>
		</g>
		<g>
			<path class="st0" d="M54.78,64h-5.73c-0.84,0-1.53-0.68-1.53-1.53V22.2c0-0.84,0.68-1.53,1.53-1.53h5.73
				c0.84,0,1.53,0.68,1.53,1.53v40.27C56.31,63.32,55.63,64,54.78,64z"/>
		</g>
	</g>
	<g>
		<path class="st0" d="M54.95,0l-7.47,6.05l1.74,1.12c-0.46,0.58-0.92,1.15-1.38,1.73l-1.88,2.26c-0.63,0.75-1.25,1.51-1.9,2.24
			l-1.91,2.23c-0.65,0.74-1.31,1.45-1.96,2.18l-0.98,1.09l-1.01,1.07c-0.68,0.7-1.34,1.42-2.02,2.12c-2.71,2.82-5.57,5.49-8.52,8.06
			c-2.97,2.54-6.05,4.96-9.35,7.05c-1.64,1.06-3.34,2.04-5.1,2.89c-0.88,0.42-1.77,0.83-2.69,1.17c-0.92,0.34-1.85,0.67-2.82,0.83
			c1.97-0.19,3.87-0.83,5.71-1.54c1.85-0.73,3.62-1.63,5.35-2.59c3.46-1.95,6.71-4.24,9.8-6.73c1.55-1.23,3.06-2.52,4.52-3.85
			c0.73-0.67,1.46-1.34,2.18-2.02l2.13-2.07c0.71-0.69,1.38-1.42,2.07-2.12l1.03-1.07l1-1.09c0.66-0.73,1.34-1.45,2-2.19l1.95-2.23
			c1.81-2.11,3.57-4.26,5.27-6.45l1.81,1.17L54.95,0z"/>
	</g>
</g>
</svg>
