<?xml version="1.0" encoding="utf-8"?>
<!-- Generator: Adobe Illustrator 26.0.1, SVG Export Plug-In . SVG Version: 6.00 Build 0)  -->
<svg version="1.1" id="Layer_1" xmlns="http://www.w3.org/2000/svg" xmlns:xlink="http://www.w3.org/1999/xlink" x="0px" y="0px"
	 viewBox="0 0 64 64" style="enable-background:new 0 0 64 64;" xml:space="preserve">
<style type="text/css">
	.st0{fill:#999999;}
	.st1{fill:#666666;}
</style>
<g>
	<g id="Scoll_Feature_00000176731646318146550350000006239965724792159876_">
		<g id="grpahical_change_00000026154749916258701740000008975294503059554980_">
			<g>
				<g>
					<g>
						<path class="st0" d="M14.99,64H9.26c-0.84,0-1.53-0.68-1.53-1.53V48.56c0-0.84,0.68-1.53,1.53-1.53h5.73
							c0.84,0,1.53,0.68,1.53,1.53v13.91C16.52,63.32,15.84,64,14.99,64z"/>
					</g>
				</g>
				<g>
					<g>
						<path class="st0" d="M26.3,64h-5.73c-0.84,0-1.53-0.68-1.53-1.53V40.68c0-0.84,0.68-1.53,1.53-1.53h5.73
							c0.84,0,1.53,0.68,1.53,1.53v21.79C27.83,63.32,27.15,64,26.3,64z"/>
					</g>
				</g>
				<g>
					<g>
						<path class="st0" d="M37.61,64h-5.73c-0.84,0-1.53-0.68-1.53-1.53V31.59c0-0.84,0.68-1.53,1.53-1.53h5.73
							c0.84,0,1.53,0.68,1.53,1.53v30.88C39.14,63.32,38.46,64,37.61,64z"/>
					</g>
				</g>
				<g>
					<g>
						<path class="st0" d="M48.93,64H43.2c-0.84,0-1.53-0.68-1.53-1.53V22.2c0-0.84,0.68-1.53,1.53-1.53h5.73
							c0.84,0,1.53,0.68,1.53,1.53v40.27C50.46,63.32,49.77,64,48.93,64z"/>
					</g>
				</g>
			</g>
			<g>
				<g>
					<path class="st0" d="M49.09,0l-7.47,6.05l1.74,1.12c-0.46,0.58-0.92,1.15-1.38,1.73l-1.88,2.26c-0.63,0.75-1.25,1.51-1.9,2.24
						l-1.91,2.23c-0.65,0.74-1.31,1.45-1.96,2.18l-0.98,1.09l-1.01,1.07c-0.68,0.7-1.34,1.42-2.02,2.12
						c-2.71,2.82-5.57,5.49-8.52,8.06c-2.97,2.54-6.05,4.96-9.35,7.05c-1.64,1.06-3.34,2.04-5.1,2.89
						c-0.88,0.42-1.77,0.83-2.69,1.17c-0.92,0.34-1.85,0.67-2.82,0.83c1.97-0.19,3.87-0.83,5.71-1.54c1.85-0.73,3.62-1.63,5.35-2.59
						c3.46-1.95,6.71-4.24,9.8-6.73c1.55-1.23,3.06-2.52,4.52-3.85c0.73-0.67,1.46-1.34,2.18-2.02l2.13-2.07
						c0.71-0.69,1.38-1.42,2.07-2.12l1.03-1.07l1-1.09c0.66-0.73,1.34-1.45,2-2.19l1.95-2.23c1.81-2.11,3.57-4.26,5.27-6.45
						l1.81,1.17L49.09,0z"/>
				</g>
			</g>
		</g>
		<g>
			<g>
				<path class="st0" d="M7.88,20.67l2.82-7.51h0.9l2.82,7.51H13.1l-1.94-5.6l-1.94,5.6H7.88z M9.21,19.24v-1.18h3.95v1.18H9.21z"/>
			</g>
			<g>
				<path class="st0" d="M17.09,18.9l1.21-3.6h1.26l-2.01,5.36h-0.9l-2.02-5.36h1.26L17.09,18.9z"/>
			</g>
			<g>
				<path class="st0" d="M22.06,20.76c-0.58,0-1.03-0.2-1.35-0.59s-0.48-0.95-0.48-1.66v-1.02c0-0.72,0.16-1.28,0.47-1.67
					c0.31-0.39,0.76-0.59,1.33-0.59c0.3,0,0.57,0.08,0.83,0.25c0.25,0.17,0.45,0.41,0.6,0.71l-0.11,1.14c0-0.21-0.04-0.38-0.11-0.53
					c-0.07-0.14-0.18-0.25-0.31-0.33c-0.14-0.08-0.31-0.11-0.5-0.11c-0.31,0-0.54,0.1-0.71,0.3c-0.17,0.2-0.25,0.48-0.25,0.84v1.01
					c0,0.36,0.08,0.63,0.25,0.82c0.17,0.19,0.41,0.29,0.71,0.29c0.2,0,0.36-0.04,0.5-0.12c0.14-0.08,0.24-0.19,0.31-0.33
					c0.07-0.14,0.11-0.32,0.11-0.52l0.07,1.18c-0.1,0.27-0.27,0.49-0.5,0.66S22.41,20.76,22.06,20.76z M22.24,22.85
					c-0.41,0-0.78-0.07-1.11-0.22c-0.33-0.15-0.58-0.36-0.76-0.63l0.83-0.76c0.13,0.16,0.28,0.28,0.46,0.37
					c0.18,0.09,0.37,0.13,0.57,0.13c0.34,0,0.62-0.1,0.83-0.29c0.21-0.19,0.31-0.46,0.31-0.81v-5.33h1.23v5.2
					c0,0.74-0.2,1.32-0.61,1.73S22.99,22.85,22.24,22.85z"/>
			</g>
		</g>
	</g>
	<g>
		<g>
			<path class="st1" d="M3.95,49.66h-1.6c-0.35,0-0.64-0.29-0.64-0.64c0-0.35,0.29-0.64,0.64-0.64h1.6c0.35,0,0.64,0.29,0.64,0.64
				C4.59,49.37,4.3,49.66,3.95,49.66z"/>
		</g>
		<g>
			<path class="st1" d="M56.75,49.66h-3.3c-0.35,0-0.64-0.29-0.64-0.64c0-0.35,0.29-0.64,0.64-0.64h3.3c0.35,0,0.64,0.29,0.64,0.64
				C57.39,49.37,57.1,49.66,56.75,49.66z M50.15,49.66h-3.3c-0.35,0-0.64-0.29-0.64-0.64c0-0.35,0.29-0.64,0.64-0.64h3.3
				c0.35,0,0.64,0.29,0.64,0.64C50.79,49.37,50.5,49.66,50.15,49.66z M43.55,49.66h-3.3c-0.35,0-0.64-0.29-0.64-0.64
				c0-0.35,0.29-0.64,0.64-0.64h3.3c0.35,0,0.64,0.29,0.64,0.64C44.19,49.37,43.9,49.66,43.55,49.66z M36.95,49.66h-3.3
				c-0.35,0-0.64-0.29-0.64-0.64c0-0.35,0.29-0.64,0.64-0.64h3.3c0.35,0,0.64,0.29,0.64,0.64C37.59,49.37,37.3,49.66,36.95,49.66z
				 M30.35,49.66h-3.3c-0.35,0-0.64-0.29-0.64-0.64c0-0.35,0.29-0.64,0.64-0.64h3.3c0.35,0,0.64,0.29,0.64,0.64
				C30.99,49.37,30.7,49.66,30.35,49.66z M23.75,49.66h-3.3c-0.35,0-0.64-0.29-0.64-0.64c0-0.35,0.29-0.64,0.64-0.64h3.3
				c0.35,0,0.64,0.29,0.64,0.64C24.39,49.37,24.1,49.66,23.75,49.66z M17.15,49.66h-3.3c-0.35,0-0.64-0.29-0.64-0.64
				c0-0.35,0.29-0.64,0.64-0.64h3.3c0.35,0,0.64,0.29,0.64,0.64C17.79,49.37,17.5,49.66,17.15,49.66z M10.55,49.66h-3.3
				c-0.35,0-0.64-0.29-0.64-0.64c0-0.35,0.29-0.64,0.64-0.64h3.3c0.35,0,0.64,0.29,0.64,0.64C11.19,49.37,10.9,49.66,10.55,49.66z"
				/>
		</g>
		<g>
			<path class="st1" d="M61.65,49.66h-1.6c-0.35,0-0.64-0.29-0.64-0.64c0-0.35,0.29-0.64,0.64-0.64h1.6c0.35,0,0.64,0.29,0.64,0.64
				C62.29,49.37,62,49.66,61.65,49.66z"/>
		</g>
	</g>
</g>
</svg>
