<?xml version="1.0" encoding="utf-8"?>
<!-- Generator: Adobe Illustrator 26.0.1, SVG Export Plug-In . SVG Version: 6.00 Build 0)  -->
<svg version="1.1" id="Layer_1" xmlns="http://www.w3.org/2000/svg" xmlns:xlink="http://www.w3.org/1999/xlink" x="0px" y="0px"
	 viewBox="0 0 64 64" style="enable-background:new 0 0 64 64;" xml:space="preserve">
<style type="text/css">
	.st0{fill:#999999;}
	.st1{fill:#666666;}
</style>
<g>
	<g id="grpahical_change_00000162343636912550868670000004679616400851829120_">
		<g>
			<g>
				<g>
					<path class="st0" d="M10.72,57.84H6.1c-0.68,0-1.24-0.55-1.24-1.24V45.37c0-0.68,0.55-1.24,1.24-1.24h4.62
						c0.68,0,1.24,0.55,1.24,1.24V56.6C11.96,57.29,11.41,57.84,10.72,57.84z"/>
				</g>
			</g>
			<g>
				<g>
					<path class="st0" d="M19.86,57.84h-4.62c-0.68,0-1.24-0.55-1.24-1.24V39.01c0-0.68,0.55-1.24,1.24-1.24h4.62
						c0.68,0,1.24,0.55,1.24,1.24V56.6C21.09,57.29,20.54,57.84,19.86,57.84z"/>
				</g>
			</g>
			<g>
				<g>
					<path class="st0" d="M28.99,57.84h-4.62c-0.68,0-1.24-0.55-1.24-1.24V31.67c0-0.68,0.55-1.24,1.24-1.24h4.62
						c0.68,0,1.24,0.55,1.24,1.24V56.6C30.23,57.29,29.67,57.84,28.99,57.84z"/>
				</g>
			</g>
			<g>
				<g>
					<path class="st0" d="M38.12,57.84H33.5c-0.68,0-1.24-0.55-1.24-1.24V24.09c0-0.68,0.55-1.24,1.24-1.24h4.62
						c0.68,0,1.24,0.55,1.24,1.24V56.6C39.36,57.29,38.81,57.84,38.12,57.84z"/>
				</g>
			</g>
		</g>
		<g>
			<g>
				<path class="st0" d="M38.26,6.16l-6.03,4.89l1.4,0.9c-0.37,0.47-0.74,0.93-1.11,1.4L31,15.18c-0.51,0.61-1.01,1.22-1.54,1.81
					l-1.55,1.8c-0.52,0.59-1.06,1.17-1.59,1.76l-0.8,0.88l-0.81,0.86c-0.55,0.57-1.08,1.15-1.63,1.72c-2.19,2.28-4.5,4.44-6.88,6.51
					c-2.4,2.05-4.88,4.01-7.55,5.7c-1.33,0.86-2.7,1.64-4.12,2.34c-0.71,0.34-1.43,0.67-2.17,0.94c-0.74,0.28-1.49,0.54-2.28,0.67
					c1.59-0.15,3.12-0.67,4.61-1.25c1.49-0.59,2.92-1.31,4.32-2.09c2.79-1.57,5.42-3.43,7.91-5.43c1.25-1,2.47-2.04,3.65-3.11
					c0.59-0.54,1.18-1.08,1.76-1.63l1.72-1.67c0.57-0.56,1.12-1.14,1.67-1.72l0.83-0.86l0.81-0.88c0.54-0.59,1.08-1.17,1.61-1.77
					l1.58-1.8c1.46-1.7,2.88-3.44,4.26-5.21l1.46,0.94L38.26,6.16z"/>
			</g>
		</g>
	</g>
	<g>
		<g>
			<path class="st0" d="M51.5,47.73l2.11-5.62h0.67l2.11,5.62H55.4l-1.45-4.18l-1.45,4.18H51.5z M52.5,46.67v-0.88h2.96v0.88H52.5z"
				/>
		</g>
		<g>
			<path class="st0" d="M58.39,46.41l0.9-2.69h0.94l-1.51,4.01h-0.67l-1.51-4.01h0.94L58.39,46.41z"/>
		</g>
		<g>
			<path class="st0" d="M62.11,47.8c-0.44,0-0.77-0.15-1.01-0.44c-0.24-0.29-0.36-0.71-0.36-1.24v-0.77c0-0.54,0.12-0.95,0.35-1.25
				c0.24-0.29,0.57-0.44,0.99-0.44c0.22,0,0.43,0.06,0.62,0.19c0.19,0.13,0.34,0.3,0.45,0.53l-0.08,0.85c0-0.15-0.03-0.29-0.08-0.39
				c-0.05-0.11-0.13-0.19-0.24-0.25c-0.1-0.06-0.23-0.08-0.37-0.08c-0.23,0-0.41,0.07-0.53,0.22c-0.13,0.15-0.19,0.36-0.19,0.63
				v0.76c0,0.27,0.06,0.47,0.19,0.62c0.13,0.15,0.3,0.22,0.53,0.22c0.15,0,0.27-0.03,0.37-0.09c0.1-0.06,0.18-0.14,0.24-0.25
				c0.05-0.11,0.08-0.24,0.08-0.39l0.05,0.88c-0.07,0.2-0.2,0.36-0.37,0.5C62.58,47.73,62.37,47.8,62.11,47.8z M62.24,49.36
				c-0.31,0-0.59-0.06-0.83-0.17c-0.25-0.11-0.44-0.27-0.57-0.47l0.62-0.57c0.1,0.12,0.21,0.21,0.35,0.28
				c0.14,0.07,0.28,0.1,0.42,0.1c0.26,0,0.46-0.07,0.62-0.21c0.16-0.14,0.23-0.34,0.23-0.6v-3.99H64v3.89
				c0,0.56-0.15,0.99-0.46,1.29C63.23,49.21,62.8,49.36,62.24,49.36z"/>
		</g>
	</g>
	<g>
		<g>
			<path class="st1" d="M1.81,46.26H0.52C0.23,46.26,0,46.03,0,45.74c0-0.29,0.23-0.52,0.52-0.52h1.29c0.29,0,0.52,0.23,0.52,0.52
				C2.33,46.03,2.09,46.26,1.81,46.26z"/>
		</g>
		<g>
			<path class="st1" d="M44.44,46.26h-2.66c-0.29,0-0.52-0.23-0.52-0.52c0-0.29,0.23-0.52,0.52-0.52h2.66
				c0.29,0,0.52,0.23,0.52,0.52C44.96,46.03,44.73,46.26,44.44,46.26z M39.11,46.26h-2.66c-0.29,0-0.52-0.23-0.52-0.52
				c0-0.29,0.23-0.52,0.52-0.52h2.66c0.29,0,0.52,0.23,0.52,0.52C39.63,46.03,39.4,46.26,39.11,46.26z M33.78,46.26h-2.66
				c-0.29,0-0.52-0.23-0.52-0.52c0-0.29,0.23-0.52,0.52-0.52h2.66c0.29,0,0.52,0.23,0.52,0.52C34.3,46.03,34.07,46.26,33.78,46.26z
				 M28.45,46.26h-2.66c-0.29,0-0.52-0.23-0.52-0.52c0-0.29,0.23-0.52,0.52-0.52h2.66c0.29,0,0.52,0.23,0.52,0.52
				C28.97,46.03,28.74,46.26,28.45,46.26z M23.12,46.26h-2.66c-0.29,0-0.52-0.23-0.52-0.52c0-0.29,0.23-0.52,0.52-0.52h2.66
				c0.29,0,0.52,0.23,0.52,0.52C23.64,46.03,23.41,46.26,23.12,46.26z M17.8,46.26h-2.66c-0.29,0-0.52-0.23-0.52-0.52
				c0-0.29,0.23-0.52,0.52-0.52h2.66c0.29,0,0.52,0.23,0.52,0.52C18.31,46.03,18.08,46.26,17.8,46.26z M12.47,46.26H9.8
				c-0.29,0-0.52-0.23-0.52-0.52c0-0.29,0.23-0.52,0.52-0.52h2.66c0.29,0,0.52,0.23,0.52,0.52C12.98,46.03,12.75,46.26,12.47,46.26z
				 M7.14,46.26H4.47c-0.29,0-0.52-0.23-0.52-0.52c0-0.29,0.23-0.52,0.52-0.52h2.66c0.29,0,0.52,0.23,0.52,0.52
				C7.65,46.03,7.42,46.26,7.14,46.26z"/>
		</g>
		<g>
			<path class="st1" d="M48.4,46.26h-1.29c-0.29,0-0.52-0.23-0.52-0.52c0-0.29,0.23-0.52,0.52-0.52h1.29c0.29,0,0.52,0.23,0.52,0.52
				C48.91,46.03,48.68,46.26,48.4,46.26z"/>
		</g>
	</g>
</g>
</svg>
