<?xml version="1.0" encoding="utf-8"?>
<!-- Generator: Adobe Illustrator 26.0.1, SVG Export Plug-In . SVG Version: 6.00 Build 0)  -->
<svg version="1.1" id="Layer_1" xmlns="http://www.w3.org/2000/svg" xmlns:xlink="http://www.w3.org/1999/xlink" x="0px" y="0px"
	 viewBox="0 0 64 64" style="enable-background:new 0 0 64 64;" xml:space="preserve">
<style type="text/css">
	.st0{fill:#999999;}
</style>
<g>
	<g>
		<path class="st0" d="M63.22,53.31H0.78C0.35,53.31,0,52.96,0,52.53V11.47c0-0.43,0.35-0.78,0.78-0.78h62.44
			c0.43,0,0.78,0.35,0.78,0.78v41.06C64,52.96,63.65,53.31,63.22,53.31z M1.56,51.75h60.88v-39.5H1.56V51.75z"/>
	</g>
	<g>
		<g>
			<g>
				<path class="st0" d="M41.71,32.71c-0.14,0.58-0.29,1.5-0.4,2.18l-0.39,0.03c0-0.2,0-0.48-0.05-0.69
					c-0.06-0.55-0.21-0.75-1.36-0.75h-0.77l-1.18,6.17c-0.19,1.02-0.09,1.08,1.06,1.17l-0.08,0.35h-3.46l0.09-0.35
					c1.07-0.09,1.16-0.16,1.35-1.17l1.18-6.17h-0.75c-1.01,0-1.22,0.16-1.45,0.49c-0.18,0.23-0.38,0.55-0.57,0.97l-0.4-0.04
					c0.2-0.73,0.4-1.48,0.52-2.18h0.29c0.13,0.29,0.26,0.28,0.6,0.28h4.83c0.33,0,0.41-0.04,0.65-0.28H41.71z"/>
			</g>
		</g>
		<g>
			<g>
				<path class="st0" d="M35.58,23.4c-1.36,0.08-1.66,0.5-1.84,1.24c-0.2,0.72-0.5,1.98-1.22,5.71c-0.72,3.82-2.12,5.83-5.69,5.81
					c-2.72-0.02-4.89-1.36-4.06-5.59l1.06-5.41c0.28-1.52,0.1-1.6-1.54-1.76l0.12-0.56h5.27l-0.1,0.56c-1.6,0.16-1.78,0.2-2.08,1.76
					l-1.04,5.35c-0.66,3.34,0.72,4.59,2.84,4.59c2.44,0,3.64-1.24,4.33-4.71c0.74-3.82,0.96-5.09,1.02-5.85
					c0.06-0.84-0.3-1.04-1.8-1.14l0.14-0.56h4.75L35.58,23.4z"/>
			</g>
		</g>
	</g>
</g>
</svg>
