<?xml version="1.0" encoding="utf-8"?>
<!-- Generator: Adobe Illustrator 26.0.1, SVG Export Plug-In . SVG Version: 6.00 Build 0)  -->
<svg version="1.1" id="Layer_1" xmlns="http://www.w3.org/2000/svg" xmlns:xlink="http://www.w3.org/1999/xlink" x="0px" y="0px"
	 viewBox="0 0 64 64" style="enable-background:new 0 0 64 64;" xml:space="preserve">
<style type="text/css">
	.st0{fill:#999999;}
</style>
<g id="The_Given_Set">
	<g>
		<path class="st0" d="M63.22,53.31H0.78C0.35,53.31,0,52.96,0,52.53V11.47c0-0.43,0.35-0.78,0.78-0.78h62.44
			c0.43,0,0.78,0.35,0.78,0.78v41.06C64,52.96,63.65,53.31,63.22,53.31z M1.56,51.75h60.88v-39.5H1.56V51.75z"/>
	</g>
	<g>
		<g>
			<path class="st0" d="M41.05,23.61c-1.87,0.11-2.29,0.69-2.54,1.71c-0.28,0.99-0.69,2.73-1.68,7.85
				c-0.99,5.26-2.92,8.02-7.83,7.99c-3.75-0.03-6.72-1.87-5.59-7.69l1.46-7.44c0.39-2.09,0.14-2.2-2.12-2.43l0.17-0.77h7.25
				l-0.14,0.77c-2.2,0.22-2.45,0.28-2.87,2.43l-1.43,7.36c-0.91,4.6,0.99,6.31,3.91,6.31c3.36,0,5.02-1.71,5.95-6.48
				c1.02-5.26,1.32-7,1.41-8.05c0.08-1.16-0.41-1.43-2.48-1.57l0.19-0.77h6.53L41.05,23.61z"/>
		</g>
	</g>
</g>
</svg>
