<?xml version="1.0" encoding="utf-8"?>
<!-- Generator: Adobe Illustrator 26.0.1, SVG Export Plug-In . SVG Version: 6.00 Build 0)  -->
<svg version="1.1" id="Layer_1" xmlns="http://www.w3.org/2000/svg" xmlns:xlink="http://www.w3.org/1999/xlink" x="0px" y="0px"
	 viewBox="0 0 64 64" style="enable-background:new 0 0 64 64;" xml:space="preserve">
<style type="text/css">
	.st0{fill:#999999;}
	.st1{fill:#FFFFFF;}
</style>
<g id="Welcome_Sign_00000078738248888059225240000016789361142414872465_">
	<g>
		<g>
			<path class="st0" d="M10.95,35.28c-1.65,0-2.99-1.34-2.99-2.99V3.2c0-1.65,1.34-2.99,2.99-2.99h42.1c1.65,0,2.99,1.34,2.99,2.99
				v29.1c0,1.65-1.34,2.99-2.99,2.99H10.95z"/>
		</g>
		<g>
			<path class="st0" d="M53.05,0.42c1.53,0,2.78,1.25,2.78,2.78v29.1c0,1.53-1.25,2.78-2.78,2.78h-42.1c-1.53,0-2.78-1.25-2.78-2.78
				V3.2c0-1.53,1.25-2.78,2.78-2.78H53.05 M53.05,0h-42.1c-1.77,0-3.2,1.43-3.2,3.2v29.1c0,1.77,1.43,3.2,3.2,3.2h42.1
				c1.77,0,3.2-1.43,3.2-3.2V3.2C56.25,1.43,54.81,0,53.05,0L53.05,0z"/>
		</g>
	</g>
	<g>
		<g>
			<polygon class="st1" points="27.31,15.2 28.6,15.2 30.27,7.95 28.86,7.95 27.93,12.79 26.54,7.95 25.44,7.95 24.06,12.79 
				23.12,7.95 21.72,7.95 23.39,15.2 24.68,15.2 26.02,10.14 			"/>
		</g>
		<g>
			<polygon class="st1" points="36.03,15.2 36.03,13.89 32.53,13.89 32.53,12.26 35.48,12.26 35.48,10.94 32.53,10.94 32.53,9.27 
				36.03,9.27 36.03,7.95 32.53,7.95 31.66,7.95 31.17,7.95 31.17,15.2 31.66,15.2 32.53,15.2 			"/>
		</g>
		<g>
			<polygon class="st1" points="42.13,13.89 38.64,13.89 38.64,7.95 37.27,7.95 37.27,15.2 37.88,15.2 38.64,15.2 42.13,15.2 			"/>
		</g>
		<g>
			<path class="st1" d="M21.04,21.86c0.21-0.23,0.51-0.35,0.89-0.35c0.2,0,0.37,0.05,0.53,0.13c0.16,0.09,0.29,0.22,0.4,0.39
				c0.11,0.17,0.19,0.37,0.25,0.62h1.42c-0.09-0.53-0.25-0.98-0.49-1.36c-0.23-0.37-0.53-0.66-0.89-0.85
				c-0.36-0.2-0.77-0.29-1.22-0.29c-0.56,0-1.03,0.11-1.42,0.32c-0.39,0.21-0.69,0.52-0.9,0.92c-0.21,0.4-0.31,0.89-0.31,1.47v1.99
				c0,0.57,0.1,1.06,0.31,1.46c0.21,0.4,0.5,0.71,0.9,0.92c0.39,0.21,0.86,0.32,1.42,0.32c0.46,0,0.87-0.1,1.22-0.29
				s0.65-0.48,0.89-0.86c0.23-0.37,0.4-0.83,0.49-1.35h-1.42c-0.08,0.36-0.22,0.64-0.42,0.84c-0.21,0.2-0.46,0.3-0.76,0.3
				c-0.38,0-0.68-0.12-0.89-0.35c-0.21-0.23-0.32-0.56-0.32-0.99v-1.99C20.72,22.42,20.83,22.09,21.04,21.86z"/>
		</g>
		<g>
			<path class="st1" d="M29.47,20.47c-0.4-0.22-0.86-0.33-1.39-0.33c-0.53,0-1,0.11-1.39,0.33c-0.4,0.22-0.71,0.53-0.93,0.93
				c-0.22,0.4-0.33,0.87-0.33,1.41v2.06c0,0.54,0.11,1,0.33,1.41c0.22,0.4,0.53,0.71,0.93,0.94c0.4,0.22,0.86,0.33,1.39,0.33
				c0.53,0,1-0.11,1.39-0.33c0.4-0.22,0.71-0.53,0.93-0.94c0.22-0.4,0.33-0.87,0.33-1.41v-2.06c0-0.54-0.11-1.01-0.33-1.41
				C30.18,21,29.87,20.69,29.47,20.47z M29.31,24.9c0,0.38-0.11,0.69-0.34,0.92c-0.22,0.23-0.52,0.35-0.9,0.35
				c-0.37,0-0.67-0.12-0.9-0.35c-0.22-0.23-0.34-0.54-0.34-0.92v-2.13c0-0.39,0.11-0.69,0.34-0.93c0.22-0.23,0.52-0.35,0.9-0.35
				c0.37,0,0.67,0.12,0.9,0.35c0.22,0.23,0.34,0.54,0.34,0.93V24.9z"/>
		</g>
		<g>
			<polygon class="st1" points="35.26,25.1 33.87,20.21 32.07,20.21 32.07,27.47 33.31,27.47 33.31,22.41 34.65,26.66 35.86,26.66 
				37.2,22.32 37.2,27.47 38.44,27.47 38.44,20.21 36.64,20.21 			"/>
		</g>
		<g>
			<polygon class="st1" points="44.89,21.53 44.89,20.21 41.4,20.21 40.53,20.21 40.04,20.21 40.04,27.47 40.53,27.47 41.4,27.47 
				44.89,27.47 44.89,26.15 41.4,26.15 41.4,24.52 44.35,24.52 44.35,23.21 41.4,23.21 41.4,21.53 			"/>
		</g>
	</g>
	<g>
		<g>
			<rect x="29.91" y="34.9" class="st0" width="4.17" height="29.1"/>
		</g>
	</g>
</g>
</svg>
