<?xml version="1.0" encoding="utf-8"?>
<!-- Generator: Adobe Illustrator 26.0.1, SVG Export Plug-In . SVG Version: 6.00 Build 0)  -->
<svg version="1.1" id="Layer_1" xmlns="http://www.w3.org/2000/svg" xmlns:xlink="http://www.w3.org/1999/xlink" x="0px" y="0px"
	 viewBox="0 0 256 256" style="enable-background:new 0 0 256 256;" xml:space="preserve">
<style type="text/css">
	.st0{fill:#4259C3;}
</style>
<g>
	<path class="st0" d="M72.7,35.9C83.94,19.22,104.25,0,117.3,0s17.41,23.21,19.58,54.76c2.54,31.18,3.99,63.09,5.44,86.3
		c16.32-24.3,52.58-75.78,52.21-102.25c0-7.25-3.62-13.78-5.43-17.77c-1.82-4.35-1.82-7.62,1.45-11.61
		C194.18,4.72,201.43,0,207.23,0c8.34,0,13.42,7.98,13.42,19.94c0,10.15-3.63,25.02-12.69,41.7
		c-29.37,54.02-89.93,138.88-131.63,184.56L38.62,256l-3.26-8.34c36.25-23.21,65.27-52.94,83.04-76.87
		c-0.37-29.01-4.72-81.23-7.98-114.22c-2.18-22.12-5.8-30.46-9.43-30.46c-3.99,0-13.78,8.34-22.48,19.22L72.7,35.9z"/>
</g>
</svg>
