<?xml version="1.0" encoding="utf-8"?>
<!-- Generator: Adobe Illustrator 26.0.1, SVG Export Plug-In . SVG Version: 6.00 Build 0)  -->
<svg version="1.1" id="Layer_1" xmlns="http://www.w3.org/2000/svg" xmlns:xlink="http://www.w3.org/1999/xlink" x="0px" y="0px"
	 viewBox="0 0 256 256" style="enable-background:new 0 0 256 256;" xml:space="preserve">
<style type="text/css">
	.st0{fill:#4259C3;}
</style>
<g>
	<g>
		<path class="st0" d="M0,161.99l42.46-94.95l9.86-20.13h10.03l49.37,115.09v7.58H0V161.99z M14.49,155.08H90.4v-1.35l-3.62-6.15
			l-29.82-68.5l-2.78-9.61h-1.18l-34.96,78.27l-3.54,5.98V155.08z"/>
		<path class="st0" d="M189.43,75.89c-4.64,0.46-16.47,1.39-23.42,1.39c-10.43,48.23-13.68,63.07-14.84,70.03
			c-1.16,7.19,0.23,9.27,2.32,9.27c4.63,0,12.29-6.03,20.87-14.61l3.01,5.8c-7.42,11.36-25.51,24.58-35.48,24.58
			c-8.12,0-12.06-6.26-6.03-33.62l13.45-61.45h-18.55V75.2l6.72-7.42h13.91l5.33-24.81c3.71-2.09,13.45-8.35,18.32-12.75l2.09,1.16
			c-2.78,9.28-6.49,24.35-9.04,36.41h25.74L189.43,75.89z"/>
	</g>
	<g>
		<path class="st0" d="M256,210.93c-7.14,9.9-16.6,14.85-20.68,14.85c-3.79,0-5.53-3.5-3.2-15.58c1.16-5.53,1.89-8.74,2.62-11.94
			c-5.97,8.16-12.96,15.73-20.24,21.41c-4.51,3.35-9.76,6.12-14.13,6.12c-4.66,0-9.9-3.06-5.82-20.97c2.18-9.03,4.81-19.8,7.28-30
			c1.16-4.37,1.02-5.68-0.14-5.68c-1.6,0-5.83,3.06-9.46,6.7l-2.04-3.64c6.99-7.72,16.46-13.69,20.97-13.69
			c4.08,0,4.22,4.51,1.6,15.73c-2.48,9.61-5.1,20.09-7.14,28.98c-2.18,9.9-1.31,12.67,1.6,12.67c5.1,0,13.69-7.57,21.11-17.04
			c4.37-5.54,8.45-12.52,10.63-21.12c0.87-3.35,2.33-9.32,3.49-15.58c2.91-0.88,7.43-2.48,10.48-3.79h1.6
			c-4.37,16.89-9.76,39.03-11.94,51.55c-0.43,3.49,0,4.95,1.02,4.95c1.31,0,4.81-1.75,10.2-7.43L256,210.93z"/>
	</g>
</g>
</svg>
