<?xml version="1.0" encoding="utf-8"?>
<!-- Generator: Adobe Illustrator 26.0.1, SVG Export Plug-In . SVG Version: 6.00 Build 0)  -->
<svg version="1.1" id="Layer_1" xmlns="http://www.w3.org/2000/svg" xmlns:xlink="http://www.w3.org/1999/xlink" x="0px" y="0px"
	 viewBox="0 0 256 256" style="enable-background:new 0 0 256 256;" xml:space="preserve">
<style type="text/css">
	.st0{fill:#4259C3;}
</style>
<g>
	<g>
		<g>
			<g>
				<polygon class="st0" points="256,255.54 237.33,255.54 237.33,250.21 250.66,250.21 250.66,236.87 256,236.87 				"/>
			</g>
		</g>
		<g>
			<g>
				<polygon class="st0" points="211.86,255.54 193.19,255.54 193.19,236.87 198.52,236.87 198.52,250.21 211.86,250.21 				"/>
			</g>
		</g>
		<g>
			<g>
				<rect x="193.19" y="197.09" class="st0" width="5.34" height="19.89"/>
			</g>
		</g>
		<g>
			<g>
				<polygon class="st0" points="198.52,177.19 193.19,177.19 193.19,158.52 211.86,158.52 211.86,163.85 198.52,163.85 				"/>
			</g>
		</g>
		<g>
			<g>
				<polygon class="st0" points="256,177.19 250.66,177.19 250.66,163.85 237.33,163.85 237.33,158.52 256,158.52 				"/>
			</g>
		</g>
		<g>
			<g>
				<rect x="250.66" y="197.09" class="st0" width="5.34" height="19.89"/>
			</g>
		</g>
	</g>
	<g>
		<path class="st0" d="M168.12,154.91c-3.5,11.76-16.52,43.86-20.98,52.12H0l1.91-8.9c24.79-2.22,28.92-4.13,33.37-28.28
			L61.02,37.32c4.77-24.79,1.59-25.42-25.1-27.97l2.22-8.9h84.22l-1.59,8.9c-26.06,2.22-29.24,3.5-33.69,27.97L62.61,164.76
			c-4.45,22.88-3.17,30.19,18.12,30.19h19.07c18.43,0,25.74-1.59,35.6-10.8c7.31-6.99,15.89-18.75,23.2-33.05L168.12,154.91z"/>
	</g>
</g>
</svg>
