<?xml version="1.0" encoding="utf-8"?>
<!-- Generator: Adobe Illustrator 26.0.1, SVG Export Plug-In . SVG Version: 6.00 Build 0)  -->
<svg version="1.1" id="Layer_1" xmlns="http://www.w3.org/2000/svg" xmlns:xlink="http://www.w3.org/1999/xlink" x="0px" y="0px"
	 viewBox="0 0 256 256" style="enable-background:new 0 0 256 256;" xml:space="preserve">
<style type="text/css">
	.st0{fill:#4259C3;}
</style>
<g>
	<g>
		<path class="st0" d="M0,174.75l44.72-99.99l10.38-21.2h10.56l51.99,121.19v7.99H0V174.75z M15.26,167.48H95.2v-1.42l-3.82-6.48
			L59.97,87.46l-2.93-10.12h-1.24l-36.82,82.42l-3.73,6.3V167.48z"/>
		<path class="st0" d="M199.48,84.09c-4.88,0.49-17.34,1.47-24.66,1.47c-10.99,50.79-14.4,66.41-15.63,73.74
			c-1.22,7.57,0.24,9.76,2.44,9.76c4.88,0,12.94-6.35,21.97-15.38l3.18,6.1c-7.82,11.97-26.86,25.88-37.36,25.88
			c-8.55,0-12.7-6.59-6.35-35.4l14.16-64.71H137.7v-2.2l7.08-7.82h14.65l5.61-26.13c3.91-2.2,14.16-8.79,19.29-13.43l2.2,1.22
			c-2.93,9.77-6.84,25.64-9.52,38.34h27.1L199.48,84.09z"/>
	</g>
	<g>
		<g>
			<g>
				<polygon class="st0" points="256,220.01 241.65,220.01 241.65,215.91 251.9,215.91 251.9,205.66 256,205.66 				"/>
			</g>
		</g>
		<g>
			<g>
				<polygon class="st0" points="222.09,220.01 207.74,220.01 207.74,205.66 211.84,205.66 211.84,215.91 222.09,215.91 				"/>
			</g>
		</g>
		<g>
			<g>
				<rect x="207.74" y="175.09" class="st0" width="4.1" height="15.28"/>
			</g>
		</g>
		<g>
			<g>
				<polygon class="st0" points="211.84,159.81 207.74,159.81 207.74,145.46 222.09,145.46 222.09,149.56 211.84,149.56 				"/>
			</g>
		</g>
		<g>
			<g>
				<polygon class="st0" points="256,159.81 251.9,159.81 251.9,149.56 241.65,149.56 241.65,145.46 256,145.46 				"/>
			</g>
		</g>
		<g>
			<g>
				<rect x="251.9" y="175.09" class="st0" width="4.1" height="15.28"/>
			</g>
		</g>
	</g>
</g>
</svg>
