<?xml version="1.0" encoding="utf-8"?>
<!-- Generator: Adobe Illustrator 26.0.1, SVG Export Plug-In . SVG Version: 6.00 Build 0)  -->
<svg version="1.1" id="Layer_1" xmlns="http://www.w3.org/2000/svg" xmlns:xlink="http://www.w3.org/1999/xlink" x="0px" y="0px"
	 viewBox="0 0 256 256" style="enable-background:new 0 0 256 256;" xml:space="preserve">
<style type="text/css">
	.st0{fill:#4259C3;}
</style>
<g>
	<g>
		<g>
			<g>
				<polygon class="st0" points="247.57,256 226.56,256 226.56,250 241.57,250 241.57,234.98 247.57,234.98 				"/>
			</g>
		</g>
		<g>
			<g>
				<polygon class="st0" points="197.89,256 176.88,256 176.88,234.98 182.88,234.98 182.88,250 197.89,250 				"/>
			</g>
		</g>
		<g>
			<g>
				<rect x="176.88" y="190.2" class="st0" width="6" height="22.39"/>
			</g>
		</g>
		<g>
			<g>
				<polygon class="st0" points="182.88,167.82 176.88,167.82 176.88,146.8 197.89,146.8 197.89,152.8 182.88,152.8 				"/>
			</g>
		</g>
		<g>
			<g>
				<polygon class="st0" points="247.57,167.82 241.57,167.82 241.57,152.8 226.56,152.8 226.56,146.8 247.57,146.8 				"/>
			</g>
		</g>
		<g>
			<g>
				<rect x="241.57" y="190.2" class="st0" width="6" height="22.39"/>
			</g>
		</g>
	</g>
	<g>
		<path class="st0" d="M20.94,173.83c3.58,28.98,14.67,56.52,53.66,56.52c28.97,0,44.35-17.88,44.35-45.78
			c0-20.74-10.01-34.34-31.47-50.43l-12.52-9.3c-17.89-13.59-38.63-30.4-38.63-61.52C36.32,29.69,62.44,0,109.29,0
			c24.33,0,44.35,6.8,53.66,9.3c-2.86,14.3-4.65,35.41-6.44,51.15l-10.73,0.72c0.36-27.9-8.23-49.36-40.77-49.36
			c-28.26,0-41.14,19.31-41.14,42.92c0,21.1,12.17,32.91,31.48,46.86l12.88,9.66c24.68,18.24,40.42,36.84,40.42,63.31
			c0,38.28-33.26,68.32-78.33,68.32c-27.9,0-53.65-11.09-61.88-17.17c0.36-8.95,1.79-33.98,2.14-50.79L20.94,173.83z"/>
	</g>
</g>
</svg>
