<?xml version="1.0" encoding="utf-8"?>
<!-- Generator: Adobe Illustrator 26.0.1, SVG Export Plug-In . SVG Version: 6.00 Build 0)  -->
<svg version="1.1" id="Layer_1" xmlns="http://www.w3.org/2000/svg" xmlns:xlink="http://www.w3.org/1999/xlink" x="0px" y="0px"
	 viewBox="0 0 256 256" style="enable-background:new 0 0 256 256;" xml:space="preserve">
<style type="text/css">
	.st0{fill:#4259C3;}
</style>
<g>
	<g>
		<g>
			<path class="st0" d="M200.91,135.73H36.98c-1.87,0-3.38-1.51-3.38-3.38s1.51-3.38,3.38-3.38h163.92c1.87,0,3.38,1.51,3.38,3.38
				S202.78,135.73,200.91,135.73z"/>
		</g>
	</g>
	<g>
		<path class="st0" d="M37.32,89.15l32-71.55l7.43-15.17h7.55l37.2,86.72v5.71H37.32V89.15z M48.24,83.94h57.2v-1.01l-2.73-4.64
			L80.24,26.68l-2.1-7.24h-0.89L50.9,78.42l-2.66,4.51V83.94z"/>
		<path class="st0" d="M212.25,27c1-17-6.14-22-21.15-22c-26.71,0-43,24-43,49.72c0,23.14,11.29,37.14,31,37.14
			c7.71,0,14.57-2.71,16.29-10.14l2.58-13c2.14-10.43,0.86-11-12.72-12.29l0.86-4h36.29l-1,3.86c-8.57,1.43-9.57,1.71-11.72,12.43
			l-2.14,11.71c-0.86,4.43-1.43,8.72-1,11.72c-8.86,2-18.14,4.86-29.43,4.86c-25,0-42.71-15.28-42.71-41.43
			c0-32.14,24.43-55.57,60-55.57c11.85,0,21.28,2.71,26.14,3.57c-1,4.43-2.57,13.14-3.86,23.14L212.25,27z"/>
	</g>
	<g>
		<path class="st0" d="M52.89,248.57l32-71.55l7.43-15.18h7.55l37.2,86.72v5.72H52.89V248.57z M63.81,243.37h57.2v-1.02l-2.73-4.63
			L95.81,186.1l-2.1-7.24h-0.88l-26.35,58.98l-2.67,4.51V243.37z"/>
		<path class="st0" d="M185.53,196.57c-2.85,0.29-10.14,0.86-14.43,0.86c-6.43,29.71-8.43,38.86-9.14,43.14
			c-0.71,4.43,0.14,5.72,1.43,5.72c2.86,0,7.57-3.71,12.86-9l1.86,3.57c-4.57,7-15.71,15.14-21.86,15.14c-5,0-7.43-3.86-3.71-20.72
			l8.29-37.86h-11.43v-1.28l4.14-4.57h8.57l3.29-15.28c2.28-1.29,8.29-5.14,11.29-7.86l1.29,0.71c-1.72,5.72-4,15-5.57,22.43h15.86
			L185.53,196.57z"/>
	</g>
</g>
</svg>
