<?xml version="1.0" encoding="utf-8"?>
<!-- Generator: Adobe Illustrator 26.0.1, SVG Export Plug-In . SVG Version: 6.00 Build 0)  -->
<svg version="1.1" id="Layer_1" xmlns="http://www.w3.org/2000/svg" xmlns:xlink="http://www.w3.org/1999/xlink" x="0px" y="0px"
	 viewBox="0 0 256 256" style="enable-background:new 0 0 256 256;" xml:space="preserve">
<style type="text/css">
	.st0{fill:#4259C3;}
</style>
<g>
	<path class="st0" d="M35.6,61.26C58.11,26.18,81.14,6.81,97.89,6.81c14.66,0,24.6,16.75,36.65,57.06l7.85,27.75
		c45.55-62.82,68.05-84.81,91.61-84.81c15.18,0,22.51,11,21.98,22.51c0,7.33-5.75,20.41-12.56,25.12c-4.71,3.67-7.85,4.71-11,4.19
		c-5.75-1.05-11.51-14.14-19.37-14.14c-11.51,0-31.4,20.94-64.91,67l17.27,53.4c9.95,31.41,17.8,47.11,26.7,47.11
		c8.37,0,17.8-6.28,38.21-30.88l9.42,12.04c-22.51,35.6-48.16,56.02-67,56.02c-14.13,0-25.65-17.28-38.21-56.53l-14.13-45.55
		c-51.3,73.81-73.81,102.08-97.37,102.08C9.42,249.19,0,239.24,0,224.58c0.52-15.18,13.08-31.41,23.03-31.41
		c7.33,0,12.04,14.13,19.37,14.13c9.42,0,26.18-16.22,72.24-80.09l-14.13-46.06c-8.9-28.27-13.61-38.21-20.94-38.21
		c-5.24,0-15.7,5.24-33.5,29.84L35.6,61.26z"/>
</g>
</svg>
