<?xml version="1.0" encoding="utf-8"?>
<!-- Generator: Adobe Illustrator 26.0.1, SVG Export Plug-In . SVG Version: 6.00 Build 0)  -->
<svg version="1.1" id="Layer_1" xmlns="http://www.w3.org/2000/svg" xmlns:xlink="http://www.w3.org/1999/xlink" x="0px" y="0px"
	 viewBox="0 0 256 256" style="enable-background:new 0 0 256 256;" xml:space="preserve">
<style type="text/css">
	.st0{fill:#4259C3;}
</style>
<g>
	<g>
		<g>
			<path class="st0" d="M210.61,134.78H45.39c-1.88,0-3.41-1.52-3.41-3.41c0-1.88,1.52-3.41,3.41-3.41h165.22
				c1.88,0,3.41,1.52,3.41,3.41C214.02,133.26,212.49,134.78,210.61,134.78z"/>
		</g>
	</g>
	<g>
		<path class="st0" d="M45.73,87.83l32.25-72.11l7.48-15.29h7.61l37.5,87.41v5.76H45.73V87.83z M56.74,82.58h57.65v-1.02l-2.75-4.67
			L88.98,24.87l-2.11-7.29h-0.9L59.43,77.02l-2.69,4.55V82.58z"/>
		<path class="st0" d="M210.96,69.98c-1.58,5.33-7.49,19.87-9.5,23.61h-66.67l0.87-4.03c11.23-1.01,13.1-1.87,15.12-12.82
			l11.66-60.04c2.16-11.23,0.72-11.52-11.38-12.67L152.06,0h38.16l-0.72,4.03c-11.81,1.01-13.25,1.58-15.27,12.67l-11.09,57.74
			c-2.01,10.37-1.44,13.68,8.21,13.68H180c8.35,0,11.66-0.72,16.12-4.9c3.31-3.17,7.2-8.5,10.51-14.98L210.96,69.98z"/>
	</g>
	<g>
		<path class="st0" d="M61.42,248.51l32.25-72.11l7.48-15.3h7.61l37.5,87.41v5.76H61.42V248.51z M72.43,243.27h57.65v-1.03
			l-2.75-4.67l-22.65-52.02l-2.11-7.29h-0.9L75.12,237.7l-2.69,4.54V243.27z"/>
		<path class="st0" d="M195.11,196.1c-2.88,0.29-10.22,0.87-14.54,0.87c-6.48,29.95-8.5,39.16-9.22,43.48
			c-0.72,4.46,0.14,5.76,1.44,5.76c2.88,0,7.63-3.74,12.96-9.07l1.87,3.6c-4.61,7.06-15.84,15.26-22.03,15.26
			c-5.04,0-7.49-3.89-3.74-20.88l8.35-38.16h-11.52v-1.29l4.17-4.61h8.64l3.31-15.41c2.31-1.3,8.35-5.19,11.38-7.92l1.29,0.72
			c-1.72,5.76-4.03,15.12-5.61,22.61h15.98L195.11,196.1z"/>
	</g>
</g>
</svg>
