<?xml version="1.0" encoding="utf-8"?>
<!-- Generator: Adobe Illustrator 26.0.1, SVG Export Plug-In . SVG Version: 6.00 Build 0)  -->
<svg version="1.1" id="Layer_1" xmlns="http://www.w3.org/2000/svg" xmlns:xlink="http://www.w3.org/1999/xlink" x="0px" y="0px"
	 viewBox="0 0 256 256" style="enable-background:new 0 0 256 256;" xml:space="preserve">
<style type="text/css">
	.st0{fill:#4259C3;}
</style>
<g>
	<path class="st0" d="M0,191.58L49.97,79.85l11.6-23.7h11.8l58.1,135.43v8.92H0V191.58z M17.05,183.45h89.33v-1.59l-4.26-7.24
		l-35.1-80.6l-3.27-11.3h-1.39l-41.14,92.11l-4.16,7.04V183.45z"/>
	<path class="st0" d="M256,163.92c-2.45,8.25-11.6,30.79-14.72,36.59H137.98l1.34-6.25c17.4-1.56,20.3-2.9,23.43-19.85l18.07-93.03
		c3.35-17.4,1.11-17.85-17.62-19.63l1.56-6.25h59.12l-1.12,6.25c-18.29,1.56-20.52,2.45-23.65,19.63l-17.18,89.46
		c-3.12,16.06-2.23,21.19,12.72,21.19h13.39c12.94,0,18.07-1.11,24.98-7.58c5.13-4.91,11.16-13.16,16.29-23.2L256,163.92z"/>
</g>
</svg>
