<?xml version="1.0" encoding="utf-8"?>
<!-- Generator: Adobe Illustrator 26.0.1, SVG Export Plug-In . SVG Version: 6.00 Build 0)  -->
<svg version="1.1" id="Layer_1" xmlns="http://www.w3.org/2000/svg" xmlns:xlink="http://www.w3.org/1999/xlink" x="0px" y="0px"
	 viewBox="0 0 256 256" style="enable-background:new 0 0 256 256;" xml:space="preserve">
<style type="text/css">
	.st0{fill:#4259C3;}
</style>
<g>
	<path class="st0" d="M187.28,251.65L102.44,256l1.81-9.79l6.53-1.09c17.41-3.63,20.67-6.89,25.75-28.64
		c4.72-21.03,14.86-74.69,21.76-108.05c-23.21,31.18-56.2,59.47-83.04,59.47c-14.87,0-25.02-16.32-25.02-42.07
		c0-36.98,15.23-73.97,40.97-96.45C118.03,6.16,147.4,0,165.89,0c9.06,0,26.11,2.9,39.89,6.89c-1.45,5.8-5.8,20.31-7.25,29.73
		c-17.77,88.84-27.19,140.69-33.72,178.04c-3.99,22.12-2.91,24.65,14.86,26.47l9.43,1.08L187.28,251.65z M81.04,116.4
		c0,18.5,5.44,27.56,13.78,27.56c13.41,0,32.99-13.78,58.01-48.23c6.53-8.7,10.87-18.49,13.42-30.82c2.9-13.78,6.16-29.37,8.7-42.79
		c-6.16-3.63-17.77-5.81-28.64-5.81C98.81,16.32,81.04,74.34,81.04,116.4z"/>
</g>
</svg>
