<?xml version="1.0" encoding="utf-8"?>
<!-- Generator: Adobe Illustrator 26.0.1, SVG Export Plug-In . SVG Version: 6.00 Build 0)  -->
<svg version="1.1" id="Layer_1" xmlns="http://www.w3.org/2000/svg" xmlns:xlink="http://www.w3.org/1999/xlink" x="0px" y="0px"
	 viewBox="0 0 256 256" style="enable-background:new 0 0 256 256;" xml:space="preserve">
<style type="text/css">
	.st0{fill:#4259C3;}
</style>
<g>
	<path class="st0" d="M59.76,183.23c3.77,30.54,15.46,59.57,56.56,59.57c30.54,0,46.75-18.85,46.75-48.26
		c0-21.86-10.56-36.19-33.18-53.16l-13.2-9.81c-18.85-14.32-40.72-32.04-40.72-64.85C75.97,31.29,103.49,0,152.88,0
		c25.64,0,46.75,7.16,56.56,9.8c-3.02,15.08-4.9,37.33-6.79,53.91l-11.31,0.76c0.38-29.41-8.67-52.03-42.98-52.03
		C118.57,12.44,105,32.8,105,57.68c0,22.24,12.82,34.69,33.18,49.39l13.57,10.18c26.02,19.23,42.61,38.83,42.61,66.73
		c0,40.35-35.06,72.01-82.57,72.01c-29.41,0-56.56-11.68-65.23-18.09c0.38-9.43,1.88-35.82,2.26-53.54L59.76,183.23z"/>
</g>
</svg>
