<?xml version="1.0" encoding="utf-8"?>
<!-- Generator: Adobe Illustrator 26.0.1, SVG Export Plug-In . SVG Version: 6.00 Build 0)  -->
<svg version="1.1" id="Layer_1" xmlns="http://www.w3.org/2000/svg" xmlns:xlink="http://www.w3.org/1999/xlink" x="0px" y="0px"
	 viewBox="0 0 256 256" style="enable-background:new 0 0 256 256;" xml:space="preserve">
<style type="text/css">
	.st0{fill:#4259C3;}
</style>
<g>
	<path class="st0" d="M0,187.11L47.94,79.92l11.13-22.73h11.32l55.74,129.92v8.56H0V187.11z M16.36,179.31h85.69v-1.52l-4.09-6.94
		L64.29,93.52l-3.14-10.84h-1.33l-39.47,88.36l-3.99,6.75V179.31z"/>
	<path class="st0" d="M145.79,104.84c11.25-17.54,22.77-27.22,31.15-27.22c7.33,0,12.3,8.38,18.33,28.53l3.92,13.88
		c22.77-31.41,34.03-42.41,45.81-42.41c7.59,0,11.25,5.5,10.99,11.26c0,3.66-2.88,10.21-6.28,12.56c-2.36,1.84-3.92,2.36-5.5,2.1
		c-2.88-0.52-5.76-7.07-9.69-7.07c-5.76,0-15.7,10.47-32.46,33.5l8.64,26.7c4.97,15.71,8.9,23.56,13.35,23.56
		c4.19,0,8.9-3.14,19.11-15.44l4.71,6.02c-11.25,17.8-24.08,28.01-33.5,28.01c-7.07,0-12.83-8.64-19.11-28.27l-7.07-22.77
		c-25.65,36.91-36.91,51.04-48.69,51.04c-6.81,0-11.52-4.97-11.52-12.3c0.26-7.59,6.54-15.71,11.52-15.71
		c3.67,0,6.02,7.07,9.69,7.07c4.71,0,13.09-8.11,36.12-40.05l-7.07-23.03c-4.45-14.13-6.81-19.11-10.47-19.11
		c-2.62,0-7.85,2.62-16.75,14.92L145.79,104.84z"/>
</g>
</svg>
