<?xml version="1.0" encoding="utf-8"?>
<!-- Generator: Adobe Illustrator 26.0.1, SVG Export Plug-In . SVG Version: 6.00 Build 0)  -->
<svg version="1.1" id="Layer_1" xmlns="http://www.w3.org/2000/svg" xmlns:xlink="http://www.w3.org/1999/xlink" x="0px" y="0px"
	 viewBox="0 0 256 256" style="enable-background:new 0 0 256 256;" xml:space="preserve">
<style type="text/css">
	.st0{fill:#4259C3;}
</style>
<g>
	<path class="st0" d="M203.12,222.73C185.96,248.29,170.9,256,161.79,256c-8.4,0-15.41-6.3-27.31-32.92
		c-8.06-17.86-16.11-36.07-22.41-52.18C97.7,187.36,90,196.46,87.55,207.67c-3.85,16.11-5.6,26.96-8.75,41.32
		c-9.1,1.75-18.21,4.55-25.21,7.01l-2.45-2.1C65.84,186.66,87.55,85.45,96.66,36.77c2.1-12.26,1.75-14.71-23.82-16.11l2.1-8.75
		C103.31,8.05,122.92,0,127.47,0c3.5,0,3.85,3.5,2.1,10.5c-10.5,46.23-24.51,111.37-36.42,165.3
		c19.61-21.37,70.39-81.95,95.61-81.95c10.16,0,16.11,4.91,16.11,11.56c0,5.6-4.55,15.76-10.51,21.01c-3.85,3.15-5.6,3.5-8.75,1.4
		c-3.5-2.46-9.81-7.71-16.81-7.71c-7.71,0-27.66,19.61-39.22,32.57c5.95,15.76,17.86,40.62,26.97,58.13
		c7.7,15.41,12.61,21.71,17.86,21.71c4.2,0,11.91-4.55,22.76-17.86L203.12,222.73z"/>
</g>
</svg>
