<?xml version="1.0" encoding="utf-8"?>
<!-- Generator: Adobe Illustrator 26.0.1, SVG Export Plug-In . SVG Version: 6.00 Build 0)  -->
<svg version="1.1" id="Layer_1" xmlns="http://www.w3.org/2000/svg" xmlns:xlink="http://www.w3.org/1999/xlink" x="0px" y="0px"
	 viewBox="0 0 256 256" style="enable-background:new 0 0 256 256;" xml:space="preserve">
<style type="text/css">
	.st0{fill:#4259C3;}
</style>
<g>
	<g>
		<g>
			<g>
				<polygon class="st0" points="256,255.66 237.63,255.66 237.63,250.41 250.75,250.41 250.75,237.29 256,237.29 				"/>
			</g>
		</g>
		<g>
			<g>
				<polygon class="st0" points="212.58,255.66 194.21,255.66 194.21,237.29 199.46,237.29 199.46,250.41 212.58,250.41 				"/>
			</g>
		</g>
		<g>
			<g>
				<rect x="194.21" y="198.15" class="st0" width="5.25" height="19.57"/>
			</g>
		</g>
		<g>
			<g>
				<polygon class="st0" points="199.46,178.58 194.21,178.58 194.21,160.21 212.58,160.21 212.58,165.46 199.46,165.46 				"/>
			</g>
		</g>
		<g>
			<g>
				<polygon class="st0" points="256,178.58 250.75,178.58 250.75,165.46 237.63,165.46 237.63,160.21 256,160.21 				"/>
			</g>
		</g>
		<g>
			<g>
				<rect x="250.75" y="198.15" class="st0" width="5.25" height="19.57"/>
			</g>
		</g>
	</g>
	<g>
		<path class="st0" d="M170.39,59.43c2.19-37.2-13.45-48.15-46.27-48.15c-58.47,0-94.1,52.52-94.1,108.8
			c0,50.65,24.7,81.28,67.84,81.28c16.88,0,31.89-5.94,35.64-22.2l5.63-28.45c4.69-22.82,1.87-24.08-27.83-26.89l1.88-8.75h79.41
			l-2.19,8.45c-18.76,3.12-20.95,3.75-25.64,27.2l-4.69,25.64c-1.87,9.69-3.13,19.07-2.19,25.64c-19.38,4.38-39.7,10.63-64.4,10.63
			C38.77,212.62,0,179.17,0,121.96C0,51.61,53.46,0.34,131.31,0.34c25.95,0,46.58,5.94,57.21,7.81c-2.19,9.69-5.63,28.76-8.44,50.65
			L170.39,59.43z"/>
	</g>
</g>
</svg>
