<?xml version="1.0" encoding="utf-8"?>
<!-- Generator: Adobe Illustrator 26.0.1, SVG Export Plug-In . SVG Version: 6.00 Build 0)  -->
<svg version="1.1" id="Layer_1" xmlns="http://www.w3.org/2000/svg" xmlns:xlink="http://www.w3.org/1999/xlink" x="0px" y="0px"
	 viewBox="0 0 256 256" style="enable-background:new 0 0 256 256;" xml:space="preserve">
<style type="text/css">
	.st0{fill:#4259C3;}
</style>
<g>
	<path class="st0" d="M18.39,60.68C30.01,42.57,41.9,32.57,50.55,32.57c7.57,0,12.71,8.65,18.93,29.47l4.05,14.33
		c23.52-32.44,35.15-43.8,47.31-43.8c7.84,0,11.62,5.68,11.35,11.63c0,3.78-2.97,10.54-6.49,12.97c-2.43,1.9-4.05,2.43-5.68,2.17
		c-2.97-0.54-5.95-7.3-10-7.3c-5.95,0-16.22,10.82-33.52,34.6l8.92,27.58c5.14,16.22,9.19,24.33,13.79,24.33
		c4.32,0,9.19-3.24,19.74-15.95l4.87,6.22c-11.62,18.39-24.87,28.93-34.6,28.93c-7.3,0-13.25-8.92-19.74-29.2l-7.3-23.52
		c-26.49,38.12-38.12,52.72-50.29,52.72C4.87,157.74,0,152.6,0,145.03c0.27-7.84,6.76-16.22,11.89-16.22c3.79,0,6.22,7.3,10,7.3
		c4.87,0,13.52-8.38,37.31-41.36l-7.3-23.79c-4.6-14.6-7.03-19.74-10.82-19.74c-2.7,0-8.11,2.7-17.3,15.41L18.39,60.68z"/>
	<path class="st0" d="M145.7,59.34c8.38-12.44,23.52-26.77,33.25-26.77c9.73,0,12.98,17.3,14.6,40.82
		c1.9,23.25,2.97,47.04,4.06,64.34c12.17-18.11,39.2-56.5,38.93-76.24c0-5.41-2.7-10.27-4.05-13.25c-1.35-3.25-1.35-5.68,1.08-8.65
		c2.7-3.51,8.11-7.03,12.44-7.03c6.22,0,10,5.95,10,14.87c0,7.57-2.7,18.66-9.46,31.09c-21.9,40.28-67.05,103.54-98.13,137.6
		l-28.12,7.3l-2.43-6.22c27.03-17.3,48.66-39.47,61.91-57.31c-0.27-21.63-3.52-60.56-5.95-85.16c-1.62-16.49-4.32-22.71-7.03-22.71
		c-2.97,0-10.27,6.22-16.76,14.33L145.7,59.34z"/>
</g>
</svg>
