<?xml version="1.0" encoding="utf-8"?>
<!-- Generator: Adobe Illustrator 26.0.1, SVG Export Plug-In . SVG Version: 6.00 Build 0)  -->
<svg version="1.1" id="Layer_1" xmlns="http://www.w3.org/2000/svg" xmlns:xlink="http://www.w3.org/1999/xlink" x="0px" y="0px"
	 viewBox="0 0 256 256" style="enable-background:new 0 0 256 256;" xml:space="preserve">
<style type="text/css">
	.st0{fill:#4259C3;}
</style>
<g>
	<path class="st0" d="M217.36,71.26c2.64-44.87-16.22-58.06-55.8-58.06C91.05,13.2,48.07,76.53,48.07,144.4
		c0,61.08,29.78,98.02,81.81,98.02c20.36,0,38.46-7.16,42.98-26.77l6.79-34.31c5.65-27.52,2.26-29.03-33.56-32.43l2.27-10.56h95.76
		l-2.64,10.19c-22.62,3.77-25.26,4.52-30.92,32.8l-5.66,30.92c-2.26,11.69-3.77,23-2.64,30.92C178.9,248.46,154.39,256,124.61,256
		c-65.98,0-112.74-40.34-112.74-109.34C11.87,61.83,76.35,0,170.23,0c31.29,0,56.18,7.16,69,9.42
		c-2.64,11.69-6.79,34.69-10.18,61.08L217.36,71.26z"/>
</g>
</svg>
