<?xml version="1.0" encoding="utf-8"?>
<!-- Generator: Adobe Illustrator 26.0.1, SVG Export Plug-In . SVG Version: 6.00 Build 0)  -->
<svg version="1.1" id="Layer_1" xmlns="http://www.w3.org/2000/svg" xmlns:xlink="http://www.w3.org/1999/xlink" x="0px" y="0px"
	 viewBox="0 0 256 256" style="enable-background:new 0 0 256 256;" xml:space="preserve">
<style type="text/css">
	.st0{fill:#4259C3;}
</style>
<g>
	<g>
		<path class="st0" d="M37.21,36.24C48.41,19.62,68.65,0.47,81.65,0.47s17.34,23.12,19.51,54.55c2.53,31.07,3.98,62.86,5.42,85.98
			c16.26-24.21,52.38-75.5,52.02-101.88c0-7.23-3.62-13.73-5.42-17.7c-1.8-4.34-1.8-7.59,1.45-11.56
			c3.61-4.69,10.83-9.39,16.62-9.39c8.31,0,13.37,7.95,13.37,19.87c0,10.12-3.61,24.93-12.65,41.55
			C142.7,115.72,82.37,200.26,40.83,245.77l-37.58,9.75L0,247.22c36.13-23.12,65.03-52.75,82.73-76.59
			c-0.36-28.9-4.69-80.93-7.94-113.8c-2.17-22.04-5.78-30.35-9.39-30.35c-3.98,0-13.73,8.31-22.4,19.15L37.21,36.24z"/>
	</g>
	<g>
		<g>
			<g>
				<polygon class="st0" points="256,218.55 234.77,218.55 234.77,212.49 249.94,212.49 249.94,197.32 256,197.32 				"/>
			</g>
		</g>
		<g>
			<g>
				<polygon class="st0" points="205.82,218.55 184.59,218.55 184.59,197.32 190.66,197.32 190.66,212.49 205.82,212.49 				"/>
			</g>
		</g>
		<g>
			<g>
				<rect x="184.59" y="152.1" class="st0" width="6.06" height="22.61"/>
			</g>
		</g>
		<g>
			<g>
				<polygon class="st0" points="190.66,129.48 184.59,129.48 184.59,108.26 205.82,108.26 205.82,114.32 190.66,114.32 				"/>
			</g>
		</g>
		<g>
			<g>
				<polygon class="st0" points="256,129.48 249.94,129.48 249.94,114.32 234.77,114.32 234.77,108.26 256,108.26 				"/>
			</g>
		</g>
		<g>
			<g>
				<rect x="249.94" y="152.1" class="st0" width="6.06" height="22.61"/>
			</g>
		</g>
	</g>
</g>
</svg>
