<?xml version="1.0" encoding="utf-8"?>
<!-- Generator: Adobe Illustrator 26.0.1, SVG Export Plug-In . SVG Version: 6.00 Build 0)  -->
<svg version="1.1" id="Layer_1" xmlns="http://www.w3.org/2000/svg" xmlns:xlink="http://www.w3.org/1999/xlink" x="0px" y="0px"
	 viewBox="0 0 256 256" style="enable-background:new 0 0 256 256;" xml:space="preserve">
<style type="text/css">
	.st0{fill:#4259C3;}
</style>
<g>
	<path class="st0" d="M232.17,191.41c-4.33,14.57-20.48,54.35-26,64.59H23.83l2.36-11.03c30.72-2.76,35.84-5.12,41.36-35.05
		l31.9-164.24c5.91-30.72,1.97-31.51-31.11-34.66L71.09,0h104.37l-1.97,11.03c-32.3,2.76-36.23,4.33-41.75,34.66l-30.33,157.94
		c-5.51,28.36-3.93,37.41,22.45,37.41h23.63c22.84,0,31.9-1.97,44.11-13.39c9.06-8.67,19.69-23.24,28.75-40.96L232.17,191.41z"/>
</g>
</svg>
