<?xml version="1.0" encoding="utf-8"?>
<!-- Generator: Adobe Illustrator 26.0.1, SVG Export Plug-In . SVG Version: 6.00 Build 0)  -->
<svg version="1.1" id="Layer_1" xmlns="http://www.w3.org/2000/svg" xmlns:xlink="http://www.w3.org/1999/xlink" x="0px" y="0px"
	 viewBox="0 0 256 256" style="enable-background:new 0 0 256 256;" xml:space="preserve">
<style type="text/css">
	.st0{fill:#4259C3;}
</style>
<g>
	<path class="st0" d="M0,208.17l56.08-125.4L69.1,56.18h13.24l65.21,151.99v10.02H0V208.17z M19.14,199.05h100.25v-1.78l-4.78-8.12
		L75.21,98.68L71.54,86h-1.56L23.81,189.37l-4.67,7.9V199.05z"/>
	<path class="st0" d="M250.18,94.47c-6.13,0.61-21.74,1.84-30.93,1.84c-13.78,63.7-18.07,83.29-19.59,92.48
		c-1.53,9.49,0.3,12.25,3.06,12.25c6.13,0,16.23-7.96,27.56-19.29l3.98,7.65c-9.8,15.01-33.69,32.46-46.85,32.46
		c-10.72,0-15.92-8.27-7.97-44.4l17.76-81.15h-24.5v-2.76l8.88-9.8h18.37L207,50.98c4.9-2.76,17.76-11.02,24.2-16.84l2.76,1.53
		c-3.68,12.25-8.57,32.16-11.94,48.08h34L250.18,94.47z"/>
</g>
</svg>
