<?xml version="1.0" encoding="utf-8"?>
<!-- Generator: Adobe Illustrator 26.0.1, SVG Export Plug-In . SVG Version: 6.00 Build 0)  -->
<svg version="1.1" id="Layer_1" xmlns="http://www.w3.org/2000/svg" xmlns:xlink="http://www.w3.org/1999/xlink" x="0px" y="0px"
	 viewBox="0 0 256 256" style="enable-background:new 0 0 256 256;" xml:space="preserve">
<style type="text/css">
	.st0{fill:#4259C3;}
</style>
<g>
	<g>
		<path class="st0" d="M23.88,58.55c15.09-23.52,30.54-36.51,41.77-36.51c9.83,0,16.5,11.24,24.58,38.27l5.26,18.61
			c30.55-42.13,45.64-56.88,61.44-56.88c10.18,0,15.09,7.37,14.74,15.1c0,4.91-3.86,13.69-8.42,16.85
			c-3.16,2.46-5.26,3.16-7.37,2.81c-3.86-0.7-7.72-9.48-12.99-9.48c-7.72,0-21.06,14.05-43.53,44.94l11.58,35.81
			c6.67,21.07,11.94,31.6,17.91,31.6c5.62,0,11.94-4.21,25.63-20.71l6.32,8.07c-15.09,23.88-32.3,37.57-44.94,37.57
			c-9.48,0-17.2-11.59-25.63-37.92l-9.48-30.55c-34.4,49.5-49.5,68.46-65.3,68.46c-9.13,0-15.45-6.67-15.45-16.5
			c0.35-10.18,8.78-21.07,15.45-21.07c4.92,0,8.08,9.48,12.99,9.48c6.32,0,17.56-10.88,48.45-53.71l-9.48-30.89
			c-5.97-18.96-9.13-25.63-14.05-25.63c-3.51,0-10.53,3.51-22.47,20.01L23.88,58.55z"/>
	</g>
	<g>
		<g>
			<g>
				<polygon class="st0" points="256,233.96 235.37,233.96 235.37,228.07 250.11,228.07 250.11,213.34 256,213.34 				"/>
			</g>
		</g>
		<g>
			<g>
				<polygon class="st0" points="207.24,233.96 186.61,233.96 186.61,213.34 192.5,213.34 192.5,228.07 207.24,228.07 				"/>
			</g>
		</g>
		<g>
			<g>
				<rect x="186.61" y="169.39" class="st0" width="5.89" height="21.98"/>
			</g>
		</g>
		<g>
			<g>
				<polygon class="st0" points="192.5,147.41 186.61,147.41 186.61,126.78 207.24,126.78 207.24,132.68 192.5,132.68 				"/>
			</g>
		</g>
		<g>
			<g>
				<polygon class="st0" points="256,147.41 250.11,147.41 250.11,132.68 235.37,132.68 235.37,126.78 256,126.78 				"/>
			</g>
		</g>
		<g>
			<g>
				<rect x="250.11" y="169.39" class="st0" width="5.89" height="21.98"/>
			</g>
		</g>
	</g>
</g>
</svg>
