<?xml version="1.0" encoding="utf-8"?>
<!-- Generator: Adobe Illustrator 26.0.1, SVG Export Plug-In . SVG Version: 6.00 Build 0)  -->
<svg version="1.1" id="Layer_1" xmlns="http://www.w3.org/2000/svg" xmlns:xlink="http://www.w3.org/1999/xlink" x="0px" y="0px"
	 viewBox="0 0 256 256" style="enable-background:new 0 0 256 256;" xml:space="preserve">
<style type="text/css">
	.st0{fill:#4259C3;}
</style>
<g>
	<g>
		<path class="st0" d="M12.93,80.66c8.17-12.74,16.54-19.77,22.62-19.77c5.33,0,8.94,6.09,13.31,20.72l2.85,10.08
			c16.54-22.81,24.72-30.8,33.27-30.8c5.51,0,8.17,3.99,7.99,8.18c0,2.66-2.09,7.41-4.56,9.12c-1.71,1.33-2.85,1.71-3.99,1.52
			c-2.09-0.38-4.18-5.14-7.04-5.14c-4.18,0-11.4,7.61-23.57,24.34l6.28,19.39c3.61,11.41,6.46,17.11,9.69,17.11
			c3.04,0,6.47-2.28,13.88-11.22l3.42,4.37c-8.17,12.93-17.49,20.34-24.34,20.34c-5.13,0-9.32-6.28-13.88-20.53l-5.13-16.54
			c-18.63,26.81-26.81,37.07-35.36,37.07c-4.95,0-8.37-3.61-8.37-8.94c0.19-5.51,4.75-11.41,8.37-11.41c2.66,0,4.37,5.13,7.03,5.13
			c3.42,0,9.51-5.89,26.24-29.09L36.5,87.89c-3.23-10.27-4.94-13.88-7.6-13.88c-1.9,0-5.7,1.9-12.17,10.84L12.93,80.66z"/>
		<path class="st0" d="M140.86,79.71c5.89-8.75,16.54-18.82,23.39-18.82c6.84,0,9.12,12.17,10.27,28.71
			c1.33,16.35,2.09,33.08,2.85,45.25c8.56-12.74,27.57-39.73,27.38-53.61c0-3.8-1.9-7.22-2.85-9.32c-0.95-2.28-0.95-3.99,0.76-6.09
			c1.9-2.47,5.7-4.94,8.74-4.94c4.37,0,7.04,4.18,7.04,10.46c0,5.32-1.9,13.12-6.66,21.87c-15.4,28.33-47.15,72.82-69.01,96.77
			l-19.77,5.13l-1.71-4.37c19.01-12.17,34.22-27.76,43.54-40.31c-0.19-15.21-2.47-42.59-4.18-59.89
			c-1.14-11.6-3.04-15.97-4.94-15.97c-2.09,0-7.22,4.37-11.79,10.08L140.86,79.71z"/>
	</g>
	<g>
		<g>
			<g>
				<polygon class="st0" points="135.81,175.65 124.64,175.65 124.64,172.46 132.62,172.46 132.62,164.48 135.81,164.48 				"/>
			</g>
		</g>
		<g>
			<g>
				<polygon class="st0" points="109.4,175.65 98.23,175.65 98.23,164.48 101.42,164.48 101.42,172.46 109.4,172.46 				"/>
			</g>
		</g>
		<g>
			<g>
				<rect x="98.23" y="140.68" class="st0" width="3.19" height="11.9"/>
			</g>
		</g>
		<g>
			<g>
				<polygon class="st0" points="101.42,128.78 98.23,128.78 98.23,117.61 109.4,117.61 109.4,120.8 101.42,120.8 				"/>
			</g>
		</g>
		<g>
			<g>
				<polygon class="st0" points="135.81,128.78 132.62,128.78 132.62,120.8 124.64,120.8 124.64,117.61 135.81,117.61 				"/>
			</g>
		</g>
		<g>
			<g>
				<rect x="132.62" y="140.68" class="st0" width="3.19" height="11.9"/>
			</g>
		</g>
	</g>
	<g>
		<g>
			<g>
				<polygon class="st0" points="256,175.65 244.83,175.65 244.83,172.46 252.81,172.46 252.81,164.48 256,164.48 				"/>
			</g>
		</g>
		<g>
			<g>
				<polygon class="st0" points="229.59,175.65 218.42,175.65 218.42,164.48 221.61,164.48 221.61,172.46 229.59,172.46 				"/>
			</g>
		</g>
		<g>
			<g>
				<rect x="218.42" y="140.68" class="st0" width="3.19" height="11.9"/>
			</g>
		</g>
		<g>
			<g>
				<polygon class="st0" points="221.61,128.78 218.42,128.78 218.42,117.61 229.59,117.61 229.59,120.8 221.61,120.8 				"/>
			</g>
		</g>
		<g>
			<g>
				<polygon class="st0" points="256,128.78 252.81,128.78 252.81,120.8 244.83,120.8 244.83,117.61 256,117.61 				"/>
			</g>
		</g>
		<g>
			<g>
				<rect x="252.81" y="140.68" class="st0" width="3.19" height="11.9"/>
			</g>
		</g>
	</g>
</g>
</svg>
