<?xml version="1.0" encoding="utf-8"?>
<!-- Generator: Adobe Illustrator 26.0.1, SVG Export Plug-In . SVG Version: 6.00 Build 0)  -->
<svg version="1.1" id="Layer_1" xmlns="http://www.w3.org/2000/svg" xmlns:xlink="http://www.w3.org/1999/xlink" x="0px" y="0px"
	 viewBox="0 0 256 256" style="enable-background:new 0 0 256 256;" xml:space="preserve">
<style type="text/css">
	.st0{fill:#4259C3;}
</style>
<g>
	<path class="st0" d="M0,184.22l44.26-98.97l10.27-20.99h10.45l51.46,119.96v7.9H0V184.22z M15.1,177.02h79.13v-1.41l-3.77-6.41
		l-31.09-71.4l-2.9-10.01h-1.23l-36.44,81.58l-3.69,6.23V177.02z"/>
	<path class="st0" d="M241.97,98.26c1.38-23.52-8.5-30.43-29.25-30.43c-36.95,0-59.48,33.2-59.48,68.77
		c0,32.01,15.61,51.38,42.88,51.38c10.67,0,20.15-3.75,22.53-14.03l3.56-17.98c2.96-14.43,1.18-15.22-17.59-17l1.18-5.53H256
		l-1.38,5.34c-11.86,1.97-13.24,2.37-16.2,17.19l-2.97,16.2c-1.18,6.13-1.97,12.05-1.38,16.2c-12.25,2.77-25.1,6.72-40.71,6.72
		c-34.58,0-59.09-21.14-59.09-57.31c0-44.46,33.79-76.87,83-76.87c16.4,0,29.45,3.75,36.17,4.94c-1.38,6.13-3.56,18.18-5.34,32.01
		L241.97,98.26z"/>
</g>
</svg>
