<?xml version="1.0" encoding="utf-8"?>
<!-- Generator: Adobe Illustrator 26.0.1, SVG Export Plug-In . SVG Version: 6.00 Build 0)  -->
<svg version="1.1" id="Layer_1" xmlns="http://www.w3.org/2000/svg" xmlns:xlink="http://www.w3.org/1999/xlink" x="0px" y="0px"
	 viewBox="0 0 256 256" style="enable-background:new 0 0 256 256;" xml:space="preserve">
<style type="text/css">
	.st0{fill:#4259C3;}
</style>
<g>
	<path class="st0" d="M223.07,87.92c0,64.62-44.43,123.03-109.67,123.03c-49.08,0-80.46-33.86-80.46-85.13
		C32.93,60.27,78.6,0,142.91,0C192.62,0,223.07,34.79,223.07,87.92z M62.13,128c0,42.56,15.54,71.76,53.75,71.76
		c51.57,0,77.98-64.62,77.98-114.95c0-43.5-13.05-73.63-53.12-73.63C93.2,11.18,62.13,72.7,62.13,128z M128.62,192.62
		c45.36,34.8,70.21,48.16,87.3,56.23l-2.48,7.15c-12.12-0.31-28.27-3.42-35.73-5.6c-8.7-2.48-28.58-12.11-78.6-49.4L128.62,192.62z"
		/>
</g>
</svg>
