<?xml version="1.0" encoding="utf-8"?>
<!-- Generator: Adobe Illustrator 26.0.1, SVG Export Plug-In . SVG Version: 6.00 Build 0)  -->
<svg version="1.1" id="Layer_1" xmlns="http://www.w3.org/2000/svg" xmlns:xlink="http://www.w3.org/1999/xlink" x="0px" y="0px"
	 viewBox="0 0 256 256" style="enable-background:new 0 0 256 256;" xml:space="preserve">
<style type="text/css">
	.st0{fill:#4259C3;}
</style>
<g>
	<g>
		<path class="st0" d="M136.63,123.77c-2.72,9.14-12.85,34.11-16.32,40.53H5.89l1.49-6.92c19.28-1.73,22.49-3.21,25.95-21.99
			L53.34,32.33c3.71-19.28,1.24-19.77-19.52-21.75l1.73-6.92h65.49l-1.24,6.92c-20.26,1.73-22.74,2.72-26.2,21.75l-19.03,99.11
			c-3.46,17.79-2.47,23.48,14.08,23.48h14.83c14.34,0,20.02-1.23,27.68-8.4c5.68-5.44,12.36-14.58,18.04-25.7L136.63,123.77z"/>
	</g>
	<g>
		<path class="st0" d="M214.82,167.15c-3.1,0.31-11.02,0.93-15.68,0.93c-6.98,32.28-9.16,42.22-9.93,46.87
			c-0.78,4.81,0.15,6.21,1.55,6.21c3.11,0,8.23-4.04,13.97-9.78l2.02,3.88c-4.96,7.61-17.07,16.45-23.75,16.45
			c-5.43,0-8.07-4.19-4.04-22.51l9-41.13h-12.42v-1.4l4.5-4.97h9.31l3.57-16.61c2.48-1.4,9-5.59,12.26-8.54l1.4,0.77
			c-1.86,6.21-4.34,16.3-6.05,24.37h17.23L214.82,167.15z"/>
	</g>
	<g>
		<g>
			<path class="st0" d="M157.66,167.97c-2.03,0-3.67-1.64-3.67-3.67V3.67c0-2.03,1.64-3.67,3.67-3.67s3.67,1.64,3.67,3.67V164.3
				C161.33,166.33,159.69,167.97,157.66,167.97z"/>
		</g>
	</g>
	<g>
		<g>
			<path class="st0" d="M250.11,256h-31.44v-48.57h31.44V256z M221.34,253.33h26.1V210.1h-26.1V253.33z"/>
		</g>
	</g>
</g>
</svg>
