<?xml version="1.0" encoding="utf-8"?>
<!-- Generator: Adobe Illustrator 26.0.1, SVG Export Plug-In . SVG Version: 6.00 Build 0)  -->
<svg version="1.1" id="Layer_1" xmlns="http://www.w3.org/2000/svg" xmlns:xlink="http://www.w3.org/1999/xlink" x="0px" y="0px"
	 viewBox="0 0 256 256" style="enable-background:new 0 0 256 256;" xml:space="preserve">
<style type="text/css">
	.st0{fill:#4259C3;}
</style>
<g>
	<g>
		<path class="st0" d="M0,161.28l41.76-93.37l9.69-19.8h9.86l48.55,113.17v7.46H0V161.28z M14.25,154.49H88.9v-1.33l-3.56-6.05
			L56.01,79.76l-2.73-9.45h-1.16l-34.38,76.97l-3.48,5.88V154.49z"/>
		<path class="st0" d="M186.28,76.62c-4.56,0.46-16.19,1.37-23.03,1.37c-10.26,47.43-13.45,62.02-14.59,68.86
			c-1.14,7.07,0.23,9.12,2.28,9.12c4.56,0,12.08-5.93,20.52-14.36l2.97,5.7c-7.3,11.17-25.08,24.17-34.89,24.17
			c-7.98,0-11.86-6.16-5.93-33.06l13.23-60.42h-18.24v-2.05l6.61-7.3h13.68l5.24-24.4c3.65-2.05,13.23-8.21,18.02-12.54l2.05,1.14
			c-2.74,9.12-6.38,23.94-8.89,35.8h25.31L186.28,76.62z"/>
	</g>
	<g>
		<path class="st0" d="M250.45,209.98c-7.02,9.17-16.04,14.32-20.05,14.32c-4.15,0-6.01-3.44-3.15-17.04l1.72-8.02
			c-8.3,12.17-21.77,25.06-31.93,25.06c-5.58,0-10.88-5.01-10.88-18.47c0-12.75,5.87-28.5,16.75-37.66
			c6.16-5.44,17.33-10.17,23.91-10.17c3.29,0,7.59,0.43,10.46,1.86l5.01-24.63c1.15-5.73,0.14-6.3-5.16-6.73
			c-1.43-0.15-4.44-0.29-5.44-0.29l0.86-3.87c6.73-0.72,13.89-2.29,18.19-3.72c2.15-0.57,3.29-1,4.15-1c1.15,0,1.43,1.29,0.72,4.3
			c-6.59,28.21-13.32,58-18.19,84.49c-0.72,3.87-0.14,5.44,0.86,5.44c1.72,0,5.3-2.15,10.46-7.59L250.45,209.98z M225.82,196.23
			c2.87-4.01,5.16-8.3,6.73-15.18l2.86-12.32c-2.01-2.29-6.87-4.44-13.75-4.44c-16.47,0-23.49,23.63-23.49,38.38
			c0,8.02,2.15,12.17,6.01,12.17C210.07,214.85,218.52,206.83,225.82,196.23z"/>
	</g>
</g>
</svg>
