<?xml version="1.0" encoding="utf-8"?>
<!-- Generator: Adobe Illustrator 26.0.1, SVG Export Plug-In . SVG Version: 6.00 Build 0)  -->
<svg version="1.1" id="Layer_1" xmlns="http://www.w3.org/2000/svg" xmlns:xlink="http://www.w3.org/1999/xlink" x="0px" y="0px"
	 viewBox="0 0 256 256" style="enable-background:new 0 0 256 256;" xml:space="preserve">
<style type="text/css">
	.st0{fill:#4259C3;}
</style>
<g>
	<g>
		<path class="st0" d="M153.38,185.54c-14.41,18.82-32.93,29.4-41.17,29.4c-8.53,0-12.35-7.06-6.47-34.99l3.53-16.47
			c-17.05,24.99-44.69,51.46-65.57,51.46c-11.47,0-22.35-10.29-22.35-37.93c0-26.17,12.06-58.52,34.4-77.34
			C68.4,88.51,91.34,78.8,104.86,78.8c6.77,0,15.58,0.88,21.46,3.82l10.29-50.57c2.35-11.76,0.29-12.94-10.59-13.82
			c-2.94-0.29-9.11-0.59-11.17-0.59l1.77-7.94c13.82-1.47,28.52-4.7,37.34-7.64C158.38,0.88,160.73,0,162.5,0
			c2.35,0,2.94,2.65,1.47,8.82c-13.53,57.93-27.35,119.09-37.34,173.49c-1.47,7.94-0.29,11.17,1.76,11.17
			c3.53,0,10.88-4.41,21.46-15.59L153.38,185.54z M102.8,157.31c5.88-8.23,10.59-17.06,13.82-31.17l5.88-25.29
			c-4.11-4.7-14.11-9.12-28.23-9.12c-33.81,0-48.22,48.52-48.22,78.8c0,16.47,4.41,24.99,12.35,24.99
			C70.46,195.53,87.81,179.07,102.8,157.31z"/>
	</g>
	<g>
		<g>
			<g>
				<polygon class="st0" points="234.65,256 217.37,256 217.37,251.06 229.71,251.06 229.71,238.72 234.65,238.72 				"/>
			</g>
		</g>
		<g>
			<g>
				<polygon class="st0" points="193.8,256 176.53,256 176.53,238.72 181.46,238.72 181.46,251.06 193.8,251.06 				"/>
			</g>
		</g>
		<g>
			<g>
				<rect x="176.53" y="201.91" class="st0" width="4.94" height="18.41"/>
			</g>
		</g>
		<g>
			<g>
				<polygon class="st0" points="181.46,183.51 176.53,183.51 176.53,166.23 193.8,166.23 193.8,171.17 181.46,171.17 				"/>
			</g>
		</g>
		<g>
			<g>
				<polygon class="st0" points="234.65,183.51 229.71,183.51 229.71,171.17 217.37,171.17 217.37,166.23 234.65,166.23 				"/>
			</g>
		</g>
		<g>
			<g>
				<rect x="229.71" y="201.91" class="st0" width="4.94" height="18.41"/>
			</g>
		</g>
	</g>
</g>
</svg>
