<?xml version="1.0" encoding="utf-8"?>
<!-- Generator: Adobe Illustrator 26.0.1, SVG Export Plug-In . SVG Version: 6.00 Build 0)  -->
<svg version="1.1" id="Layer_1" xmlns="http://www.w3.org/2000/svg" xmlns:xlink="http://www.w3.org/1999/xlink" x="0px" y="0px"
	 viewBox="0 0 256 256" style="enable-background:new 0 0 256 256;" xml:space="preserve">
<style type="text/css">
	.st0{fill:#4259C3;}
</style>
<g>
	<g>
		<path class="st0" d="M199.84,220.98C182.68,243.39,160.62,256,150.81,256c-10.16,0-14.71-8.41-7.7-41.67l4.2-19.61
			C127,224.48,94.08,256,69.21,256c-13.66,0-26.62-12.26-26.62-45.18c0-31.17,14.36-69.69,40.97-92.11
			c15.06-13.3,42.38-24.86,58.49-24.86c8.06,0,18.56,1.05,25.56,4.55l12.26-60.23c2.8-14.01,0.35-15.41-12.61-16.46
			c-3.5-0.35-10.85-0.7-13.31-0.7l2.1-9.46c16.46-1.75,33.97-5.6,44.48-9.1C205.79,1.05,208.59,0,210.7,0c2.8,0,3.5,3.15,1.75,10.5
			c-16.11,68.99-32.57,141.83-44.48,206.62c-1.75,9.46-0.35,13.31,2.1,13.31c4.2,0,12.96-5.26,25.56-18.56L199.84,220.98z
			 M139.61,187.36c7.01-9.81,12.61-20.31,16.46-37.12l7-30.12c-4.9-5.6-16.81-10.86-33.62-10.86c-40.27,0-57.43,57.78-57.43,93.86
			c0,19.61,5.25,29.77,14.71,29.77C101.08,232.89,121.74,213.27,139.61,187.36z"/>
	</g>
</g>
</svg>
