<?xml version="1.0" encoding="utf-8"?>
<!-- Generator: Adobe Illustrator 26.0.1, SVG Export Plug-In . SVG Version: 6.00 Build 0)  -->
<svg version="1.1" id="Layer_1" xmlns="http://www.w3.org/2000/svg" xmlns:xlink="http://www.w3.org/1999/xlink" x="0px" y="0px"
	 viewBox="0 0 256 256" style="enable-background:new 0 0 256 256;" xml:space="preserve">
<style type="text/css">
	.st0{fill:#4259C3;}
</style>
<g>
	<g>
		<path class="st0" d="M129.69,49.92c1.66-28.32-10.23-36.64-35.22-36.64c-44.5,0-71.62,39.97-71.62,82.81
			c0,38.55,18.8,61.87,51.64,61.87c12.85,0,24.27-4.52,27.13-16.89l4.28-21.65c3.57-17.37,1.43-18.32-21.18-20.47l1.43-6.66h60.44
			l-1.66,6.43c-14.28,2.38-15.94,2.85-19.51,20.7l-3.57,19.51c-1.43,7.38-2.38,14.51-1.66,19.51c-14.75,3.33-30.22,8.09-49.02,8.09
			C29.51,166.52,0,141.06,0,97.51C0,43.97,40.69,4.95,99.94,4.95c19.75,0,35.46,4.52,43.55,5.95c-1.66,7.38-4.28,21.89-6.42,38.55
			L129.69,49.92z"/>
	</g>
	<g>
		<path class="st0" d="M222.02,165.69c-2.99,0.3-10.61,0.9-15.09,0.9c-6.73,31.08-8.82,40.65-9.56,45.13
			c-0.75,4.63,0.15,5.98,1.5,5.98c2.99,0,7.92-3.89,13.45-9.42l1.94,3.74c-4.78,7.32-16.44,15.84-22.86,15.84
			c-5.23,0-7.77-4.03-3.89-21.67l8.67-39.6h-11.95v-1.34l4.33-4.78h8.97l3.44-15.99c2.39-1.35,8.67-5.38,11.8-8.22l1.35,0.75
			c-1.79,5.98-4.19,15.69-5.83,23.46h16.59L222.02,165.69z"/>
	</g>
	<g>
		<g>
			<path class="st0" d="M166.98,166.49c-1.96,0-3.54-1.58-3.54-3.54V8.29c0-1.96,1.58-3.54,3.54-3.54c1.96,0,3.54,1.58,3.54,3.54
				v154.66C170.52,164.91,168.94,166.49,166.98,166.49z"/>
		</g>
	</g>
	<g>
		<g>
			<path class="st0" d="M256,251.24h-30.28v-46.77H256V251.24z M228.3,248.67h25.13v-41.62H228.3V248.67z"/>
		</g>
	</g>
</g>
</svg>
