<?xml version="1.0" encoding="utf-8"?>
<!-- Generator: Adobe Illustrator 26.0.1, SVG Export Plug-In . SVG Version: 6.00 Build 0)  -->
<svg version="1.1" id="Layer_1" xmlns="http://www.w3.org/2000/svg" xmlns:xlink="http://www.w3.org/1999/xlink" x="0px" y="0px"
	 viewBox="0 0 48 48" style="enable-background:new 0 0 48 48;" xml:space="preserve">
<style type="text/css">
	.st0{fill:#4259C3;}
</style>
<g>
	<g>
		<path class="st0" d="M0.1,31.9l3.1-1.1c1.2,2.9,2.5,5.1,3.9,6.7c1.4,1.5,3.1,2.8,5,3.9c1.9,1,5,1.5,9.1,1.5h5.4
			c3.2,0,5.8-0.3,7.6-0.9c1.9-0.6,3.8-1.8,5.6-3.5c1.9-1.8,3.5-4.3,4.8-7.7l3.1,1.1L43.8,48H4.2L0.1,31.9z"/>
	</g>
	<g>
		<path class="st0" d="M5.5,14.8l-3-1.1L5.7,0h36.5l3.2,13.6l-3,1.1c-0.9-2.8-2.2-4.9-3.8-6.4c-1.6-1.4-3-2.3-4.4-2.7
			c-1.3-0.3-3.7-0.5-7-0.5h-6.8c-3.4,0-5.9,0.2-7.5,0.7c-1.6,0.5-3,1.5-4.3,2.9C7.5,10.3,6.4,12.3,5.5,14.8z"/>
	</g>
	<g>
		<path class="st0" d="M14.2,14.5H17v0.7c0,2.5,0.5,4.1,1.6,4.8c1.1,0.7,2.4,1.1,4,1.1h2.8c1.5,0,2.8-0.3,3.7-0.8
			c0.9-0.5,1.5-1.2,1.7-1.9c0.2-0.7,0.3-1.8,0.3-3.2v-0.7h2.8v17.6H31v-1.5c0-2.3-0.6-3.7-1.6-4.3c-1.1-0.6-2.4-0.9-4-0.9h-2.8
			c-2.1,0-3.6,0.5-4.4,1.4c-0.8,1-1.2,2.5-1.2,4.5v0.7h-2.8V14.5z"/>
	</g>
</g>
</svg>
