<?xml version="1.0" encoding="utf-8"?>
<!-- Generator: Adobe Illustrator 26.0.1, SVG Export Plug-In . SVG Version: 6.00 Build 0)  -->
<svg version="1.1" id="Layer_1" xmlns="http://www.w3.org/2000/svg" xmlns:xlink="http://www.w3.org/1999/xlink" x="0px" y="0px"
	 viewBox="0 0 48 48" style="enable-background:new 0 0 48 48;" xml:space="preserve">
<style type="text/css">
	.st0{fill:#4259C3;}
</style>
<g>
	<g>
		<g>
			<path class="st0" d="M0.6,23.8c0-3.2,1-6.7,2.9-10.6c1.9-3.8,4.8-7,8.5-9.5C15.8,1.2,20,0,24.7,0c6.6,0,12,2.3,16.3,7
				c4.3,4.7,6.4,10.1,6.4,16.1c0,6.4-2.4,12.2-7.1,17.2C35.5,45.5,29.8,48,23.2,48c-6.4,0-11.7-2.2-16.1-6.7
				C2.8,36.9,0.6,31,0.6,23.8z M8.5,22.6c0,3.9,0.6,7.8,1.8,11.9c1.2,4.1,3,7,5.6,8.9c2.5,1.8,5.2,2.8,8.1,2.8
				c4.7,0,8.4-2.3,11.2-6.8c2.8-4.5,4.2-9.8,4.2-15.8c0-5.8-1.4-10.9-4.3-15.3c-2.9-4.4-6.6-6.6-11.2-6.6c-3.5,0-6.4,1.2-8.7,3.5
				c-2.3,2.3-4,5.1-5.1,8.4C9.1,16.9,8.5,19.9,8.5,22.6z"/>
		</g>
	</g>
	<g>
		<rect x="15.8" y="21.6" class="st0" width="16.3" height="4.9"/>
	</g>
</g>
</svg>
