<?xml version="1.0" encoding="utf-8"?>
<!-- Generator: Adobe Illustrator 26.0.1, SVG Export Plug-In . SVG Version: 6.00 Build 0)  -->
<svg version="1.1" id="Layer_1" xmlns="http://www.w3.org/2000/svg" xmlns:xlink="http://www.w3.org/1999/xlink" x="0px" y="0px"
	 viewBox="0 0 48 48" style="enable-background:new 0 0 48 48;" xml:space="preserve">
<style type="text/css">
	.st0{fill:#4259C3;}
</style>
<g>
	<path class="st0" d="M41.2,0.6c0.7,2.7,1.4,6.5,2.1,11.3c-0.1,0.2-0.2,0.3-0.4,0.3c-0.2,0-0.3-0.1-0.5-0.3
		c-1.7-2.7-3.3-4.7-4.8-6.1c-1.5-1.4-3-2.4-4.6-3C31.5,2.3,28.8,2,25.1,2c-3.5,0-6.3,0.2-8.3,0.6c-0.2,0.2-0.3,0.7-0.3,1.3
		c0,0.2,0,0.5-0.1,0.9C16.2,6.8,16,12,16,20.5c0,0.4,0,0.9,0.1,1.5c1.8,0.1,3.1,0.1,3.8,0.1c3,0,5.2-0.5,6.6-1.4
		c1.4-0.9,2.5-2.9,3.6-5.9c0.2-0.5,0.4-0.8,0.7-0.8c0.5,0,0.7,0.3,0.7,1l-0.1,1.4c-0.2,1.9-0.3,3.9-0.3,5.9c0,3.3,0.1,6.2,0.2,8.9
		c0,0.8-0.2,1.2-0.7,1.2c-0.3,0-0.5-0.3-0.7-0.9c-0.5-2.8-1.6-4.9-3.2-6.1c-1.6-1.3-5.1-1.9-10.5-1.9C16,25.5,16,28.3,16,32.2
		c0,5.1,0.2,8.3,0.5,9.7c0.4,1.4,1.2,2.5,2.6,3.3c1.4,0.8,3.7,1.2,7,1.2c9.4,0,15.4-3.2,18.1-9.7c0.3-0.8,0.7-1.2,1-1.2
		c0.4,0,0.6,0.3,0.6,0.8c0,0.3-0.1,0.6-0.2,0.9c-0.1,0.5-0.5,2.2-1,5.1C44.5,43,44,44.9,43.3,48l-15.1,0c-2.2,0-5.3-0.1-9.5-0.3
		c-4.2-0.2-7.9-0.3-11.2-0.3c-3.2,0-4.9-0.1-5.1-0.2c-0.1-0.1-0.2-0.3-0.2-0.4c0-0.5,0.4-0.7,1.2-0.7c2.7,0,4.4-0.7,5.3-2.1
		c0.8-1.4,1.3-4.9,1.3-10.3l0-7.4l0.1-6.9c0-1.4-0.1-4-0.2-7.9C9.6,7.5,9.4,5.3,9.3,4.7C9.1,4.2,8.8,3.6,8.2,3.1
		C7.5,2.5,6.2,2,4.1,1.4C3.5,1.3,3.2,1,3.2,0.6C3.2,0.2,3.6,0,4.4,0l7.4,0.4c2.6,0.1,9,0.2,19.2,0.2C37.6,0.6,41.1,0.6,41.2,0.6z"/>
</g>
</svg>
