<?xml version="1.0" encoding="utf-8"?>
<!-- Generator: Adobe Illustrator 26.0.1, SVG Export Plug-In . SVG Version: 6.00 Build 0)  -->
<svg version="1.1" id="Layer_1" xmlns="http://www.w3.org/2000/svg" xmlns:xlink="http://www.w3.org/1999/xlink" x="0px" y="0px"
	 viewBox="0 0 48 48" style="enable-background:new 0 0 48 48;" xml:space="preserve">
<style type="text/css">
	.st0{fill:#4259C3;}
</style>
<g>
	<path class="st0" d="M11.1,2.7c1.3,1.8,3.6,4.5,6.8,8.2l10.5,12.1l10.1,11.6c0.2-3.9,0.3-9.1,0.3-15.4c0-4.7-0.1-7.9-0.3-9.5
		c-0.2-1.6-0.9-2.9-2.2-4c-1.3-1.1-2.8-1.6-4.7-1.6c-0.9,0-1.3-0.2-1.3-0.6c0-0.2,0.1-0.4,0.3-0.5c0.2-0.1,1.7-0.2,4.4-0.3
		c2.7-0.1,5.1-0.1,6.9-0.1l4.4,0H47c0.7,0,1,0.2,1,0.6c0,0.3-0.3,0.5-0.9,0.6c-2.2,0.2-3.8,0.8-4.8,1.7c-1,0.9-1.5,2.2-1.7,3.9
		c-0.2,1.7-0.3,7.4-0.3,17.2L40,44c0,0.9-0.2,1.3-0.6,1.3c-0.1,0-0.3,0-0.5-0.1c-0.2-0.1-1.2-1.2-2.9-3.3c-1.8-2.1-3.9-4.6-6.5-7.6
		c-2.6-2.9-4.6-5.3-6.1-7.2c-3.2-3.9-5.3-6.4-6.1-7.3c-3.2-3.4-5-5.5-5.6-6.5c-0.4-0.7-0.7-1-1-1c-0.2,0-0.4,0.4-0.4,1.3l0.1,5.1
		c0,6.4,0.2,11.6,0.5,15.4c0.3,3.8,0.7,6.1,1.1,6.8c0.4,0.7,1,1.3,2,2c0.9,0.7,2,1,3,1c1.4,0,2.2,0.3,2.2,0.8c0,0.4-0.4,0.6-1.2,0.6
		l-15.7,0c-0.7,0-1.1-0.2-1.1-0.6c0-0.4,0.4-0.7,1.1-0.7c2.7,0,4.5-0.6,5.4-1.8c0.9-1.2,1.3-3.7,1.3-7.6L8.6,23.2
		c0-6.8-0.2-10.8-0.5-12C7.7,10,6.8,8.6,5.5,6.8C4.2,5.1,2.8,4.1,1.1,3.9C0.4,3.8,0,3.6,0,3.3c0-0.4,0.5-0.6,1.4-0.6L11.1,2.7z"/>
</g>
</svg>
