<?xml version="1.0" encoding="utf-8"?>
<!-- Generator: Adobe Illustrator 26.0.1, SVG Export Plug-In . SVG Version: 6.00 Build 0)  -->
<svg version="1.1" id="Layer_1" xmlns="http://www.w3.org/2000/svg" xmlns:xlink="http://www.w3.org/1999/xlink" x="0px" y="0px"
	 viewBox="0 0 48 48" style="enable-background:new 0 0 48 48;" xml:space="preserve">
<style type="text/css">
	.st0{fill:#4259C3;}
</style>
<g>
	<g>
		<path class="st0" d="M15.7,2.7l12.6,19.1v2L14.1,43h17c1.1,0,1.9-0.1,2.4-0.2c0.5-0.1,1-0.3,1.4-0.6c0.4-0.3,0.7-0.7,1.1-1.2
			c0.3-0.5,0.6-1.2,0.9-2.1c0.3-0.9,0.6-2.1,0.8-3.5h3L40,48H7.3v-1.4l15.9-21.9L8.3,1.5V0h31.9v11.5h-2.8c-0.4-1.6-0.8-3-1.2-4
			c-0.4-1-0.8-1.8-1.2-2.5c-0.4-0.6-0.8-1.1-1.2-1.4c-0.4-0.3-0.9-0.6-1.5-0.7c-0.6-0.2-1.3-0.2-2.2-0.2H15.7z"/>
	</g>
</g>
</svg>
