<?xml version="1.0" encoding="utf-8"?>
<!-- Generator: Adobe Illustrator 26.0.1, SVG Export Plug-In . SVG Version: 6.00 Build 0)  -->
<svg version="1.1" id="Layer_1" xmlns="http://www.w3.org/2000/svg" xmlns:xlink="http://www.w3.org/1999/xlink" x="0px" y="0px"
	 viewBox="0 0 48 48" style="enable-background:new 0 0 48 48;" xml:space="preserve">
<style type="text/css">
	.st0{fill:#4259C3;}
</style>
<g>
	<path class="st0" d="M40.8,47.8l-1.5,0.1c-22,0-33.3,0-34,0.1c-0.9,0-1.4,0-1.6-0.1c-0.2-0.1-0.3-0.2-0.3-0.5
		c0.1-0.3,0.7-1.4,1.8-3.3c1.1-1.9,3.4-5.4,6.8-10.5l9.4-13.9c2.9-4.2,4.8-7.1,5.9-8.5c3.1-4.3,5-7.2,5.6-8.8
		c-4.3-0.2-7.6-0.3-10-0.3c-3.6,0-6.3,0.3-8,0.8c-1.7,0.5-3.2,1.3-4.4,2.4C9.5,6.5,8,8.2,6.3,10.7c-0.8,1.2-1.4,1.8-1.6,1.8
		c-0.4,0-0.6-0.2-0.6-0.7c0-0.1,0.5-1.9,1.6-5.3c1-3.4,1.7-5.4,1.9-5.8C7.8,0.2,8,0,8.2,0l5.4,0.4c1.9,0.1,5.9,0.1,11.8,0.1
		c8.2,0,13.5-0.1,15.7-0.4c0.2,0,0.4,0,0.5,0c0.3,0,0.4,0.2,0.4,0.5c0,0.7-4.4,7.4-13.3,20.1c-8.1,11.6-13.6,20.1-16.6,25.5
		c3.5,0.1,6.4,0.2,8.9,0.2c3.4,0,6.1-0.2,8-0.5c1.9-0.3,3.7-0.9,5.2-1.6c1.6-0.8,2.7-1.5,3.5-2.1c0.8-0.7,2-2,3.6-4.1
		c1.5-1.9,2.4-2.8,2.7-2.8c0.4,0,0.6,0.3,0.6,0.8L40.8,47.8z"/>
</g>
</svg>
