<?xml version="1.0" encoding="utf-8"?>
<!-- Generator: Adobe Illustrator 26.0.1, SVG Export Plug-In . SVG Version: 6.00 Build 0)  -->
<svg version="1.1" id="Layer_1" xmlns="http://www.w3.org/2000/svg" xmlns:xlink="http://www.w3.org/1999/xlink" x="0px" y="0px"
	 viewBox="0 0 48 48" style="enable-background:new 0 0 48 48;" xml:space="preserve">
<style type="text/css">
	.st0{fill:#4259C3;}
</style>
<g>
	<path class="st0" d="M34.7,22.7l0.3-9.3c0-4.1-0.4-6.7-1.2-8c-0.8-1.3-2.2-1.9-4.1-1.9c-1.1,0-1.7-0.2-1.7-0.7c0-0.4,0.3-0.6,1-0.6
		l9.7,0.3L47,2.3c0.6,0,1,0.2,1,0.6c0,0.4-0.2,0.5-0.6,0.5c-1.7,0-3,0.2-3.9,0.7c-0.9,0.5-1.5,1.3-1.8,2.5
		c-0.3,1.2-0.5,4.5-0.7,10.1c-0.2,5.5-0.3,9.6-0.3,12.1L40.5,37c0,2.6,0.2,4.2,0.7,5c0.5,0.8,1.2,1.4,2.2,1.8c1,0.4,2,0.7,3,0.8
		c0.7,0.1,1.1,0.3,1.1,0.6c0,0.4-0.3,0.5-0.9,0.5l-10.3-0.3l-6.7,0.2c-0.8,0-1.2-0.2-1.2-0.6c0-0.3,0.3-0.5,0.8-0.5
		c1.8-0.1,2.9-0.3,3.5-0.7c0.5-0.4,1-1,1.3-2c0.3-1,0.5-2.7,0.6-5.1l0.2-12.1c-1.9-0.1-3.8-0.2-5.8-0.2c-8.6,0-14,0.2-16.3,0.5
		c-0.2,4.3-0.3,7.8-0.3,10.5c0,3.1,0.1,5,0.2,5.7s0.5,1.4,1.2,2c0.7,0.6,1.7,1,2.9,1.3c0.8,0.2,1.1,0.4,1.1,0.7
		c0,0.4-0.2,0.6-0.7,0.6c-0.2,0-0.4,0-0.7-0.1c-1.2-0.1-3.7-0.2-7.5-0.2c-4.1,0-6.6,0.1-7.6,0.3c-0.2,0-0.4,0-0.6,0
		c-0.5,0-0.8-0.2-0.8-0.5c0-0.4,0.3-0.6,1-0.7c1.7-0.2,2.9-0.7,3.7-1.4c0.7-0.8,1.2-3.6,1.5-8.5c0.3-4.9,0.4-10.9,0.4-17.9
		c0-5.7-0.3-9.3-0.8-10.8S4,3.8,1.9,3.6c-0.5,0-0.7-0.2-0.7-0.5c0-0.5,0.5-0.7,1.4-0.7l13.4-0.2c1,0,1.5,0,1.7,0.1
		c0.2,0.1,0.3,0.2,0.3,0.5c0,0.3-0.3,0.6-0.9,0.6c-2.2,0.2-3.5,0.6-4,1.2c-0.5,0.6-0.7,4.2-0.7,10.8c0,0.7,0,3.1,0.1,7.2
		c2.3,0.2,4.9,0.3,8,0.3C24.5,22.9,29.2,22.8,34.7,22.7z"/>
</g>
</svg>
