<?xml version="1.0" encoding="utf-8"?>
<!-- Generator: Adobe Illustrator 26.0.1, SVG Export Plug-In . SVG Version: 6.00 Build 0)  -->
<svg version="1.1" id="Layer_1" xmlns="http://www.w3.org/2000/svg" xmlns:xlink="http://www.w3.org/1999/xlink" x="0px" y="0px"
	 viewBox="0 0 48 48" style="enable-background:new 0 0 48 48;" xml:space="preserve">
<style type="text/css">
	.st0{fill:#4259C3;}
</style>
<g>
	<path class="st0" d="M25.5,22.7c1.3-1.4,3.2-4,5.9-7.7c2.6-3.7,4.2-6,4.7-6.9c0.5-0.9,0.7-1.6,0.7-2.2c0-0.9-0.5-1.7-1.4-2.3
		c-1-0.6-1.9-0.8-2.9-0.8c-0.8,0-1.2-0.2-1.2-0.6c0-0.4,0.7-0.7,2-0.7h13c1.2,0,1.8,0.2,1.8,0.7c0,0.4-0.3,0.6-0.8,0.6
		c-1.4,0-2.7,0.3-3.9,0.9c-1.3,0.6-2.8,2-4.6,4.2l-6,8.1c-3.1,4.2-4.8,6.7-5.1,7.4c-0.4,1.1-0.6,3.9-0.6,8.6c0,6.2,0.3,9.8,0.8,11
		c0.5,1.1,2.2,1.8,5,2.1c0.7,0.1,1.1,0.3,1.1,0.7c0,0.5-0.4,0.7-1.2,0.7l-9.3-0.2c-2.2,0-4.1,0-5.5,0.1c-1.2,0.1-1.9,0.1-2.2,0.1
		c-0.9,0-1.3-0.2-1.3-0.7c0-0.4,0.3-0.6,1-0.6c2.2-0.1,3.7-0.9,4.4-2.5c0.7-1.6,1.1-3.9,1.1-6.9c0-3.4-0.2-6.1-0.6-8.1
		c-0.1-0.5-1.1-2.4-3-5.6c-1.9-3.2-4.2-6.8-6.9-10.7C7.8,7.4,5.8,5.1,4.7,4.2C3.5,3.4,2.3,2.9,1.2,2.8C0.4,2.7,0,2.5,0,2.1
		c0-0.3,0.1-0.4,0.3-0.5c0.2-0.1,0.9-0.1,1.9-0.1h15.1c1,0,1.7,0,1.9,0.1c0.2,0.1,0.3,0.3,0.3,0.6c0,0.4-0.3,0.6-0.9,0.6
		c-2.9,0.2-4.3,1.1-4.3,2.6c0,0.8,0.5,2,1.6,3.7C16.9,10.7,20.2,15.3,25.5,22.7z"/>
</g>
</svg>
