<?xml version="1.0" encoding="utf-8"?>
<!-- Generator: Adobe Illustrator 26.0.1, SVG Export Plug-In . SVG Version: 6.00 Build 0)  -->
<svg version="1.1" id="Layer_1" xmlns="http://www.w3.org/2000/svg" xmlns:xlink="http://www.w3.org/1999/xlink" x="0px" y="0px"
	 viewBox="0 0 48 48" style="enable-background:new 0 0 48 48;" xml:space="preserve">
<style type="text/css">
	.st0{fill:#4259C3;}
</style>
<g>
	<path class="st0" d="M30.5,22.3c4.5,1.2,7.8,2.8,10,4.9c2.2,2.1,3.3,4.7,3.3,7.7c0,3.2-1.4,6.2-4.1,9c-2.8,2.8-6.8,4.1-12.1,4.1
		c-1,0-2.6-0.1-4.8-0.2c-1.4-0.1-2.2-0.1-2.3-0.1c-7.4,0-12.4,0.1-14.9,0.2c-0.9,0-1.3-0.2-1.3-0.7c0-0.2,0.1-0.4,0.4-0.5
		c0.3-0.1,1.2-0.3,2.8-0.6c1-0.2,1.7-0.6,2.3-1.2c0.6-0.6,1-2,1.3-4c0.3-2,0.4-4.9,0.4-8.9c0-3.9,0-7,0.1-9.4
		c0.1-2.4,0.1-4.2,0.1-5.5c0-4-0.1-7.1-0.4-9.5c-0.3-2.4-0.7-3.9-1.3-4.6C9.3,2.5,8.2,2,6.5,1.8c-0.7-0.1-1-0.3-1-0.8
		c0-0.4,0.3-0.6,1-0.6L13,0.5c2.1,0,4.1,0,6-0.1C23.2,0.1,25.9,0,27.1,0c4.4,0,8,1,10.6,2.9c2.6,1.9,3.9,4.6,3.9,7.9
		c0,2.6-0.9,4.9-2.6,6.8C37.3,19.5,34.5,21.1,30.5,22.3z M18.2,24c-0.3,0.6-0.5,1.6-0.5,3.1l-0.3,11.1c0,3.9,0.1,6.1,0.3,6.6
		c0.2,0.5,0.9,0.8,2.1,1.1c1.2,0.3,3.1,0.5,5.6,0.5c2.3,0,4.1-0.3,5.6-1c1.4-0.6,2.7-1.9,3.9-3.8c1.2-1.9,1.8-4.1,1.8-6.7
		c0-3.9-1.1-6.7-3.4-8.6c-2.3-1.8-5.7-2.7-10.1-2.7C21.6,23.7,20,23.8,18.2,24z M18.2,2.6c-0.2,5.2-0.3,9.5-0.3,12.8l0,5.3
		c0,0.7,0.1,1.2,0.3,1.4c0.2,0.2,0.8,0.3,1.7,0.3c4.6,0,8.2-0.8,11-2.5c2.8-1.7,4.1-4.5,4.1-8.4c0-3.3-1-5.8-3.1-7.5
		c-2-1.6-4.6-2.5-7.6-2.5C22.5,1.5,20.4,1.8,18.2,2.6z"/>
</g>
</svg>
