<?xml version="1.0" encoding="utf-8"?>
<!-- Generator: Adobe Illustrator 26.0.1, SVG Export Plug-In . SVG Version: 6.00 Build 0)  -->
<svg version="1.1" id="Layer_1" xmlns="http://www.w3.org/2000/svg" xmlns:xlink="http://www.w3.org/1999/xlink" x="0px" y="0px"
	 viewBox="0 0 48 48" style="enable-background:new 0 0 48 48;" xml:space="preserve">
<style type="text/css">
	.st0{fill:#4259C3;}
</style>
<g>
	<path class="st0" d="M11.6,6.8C13.3,10.6,15,14,16.5,17c1.8,3.5,3.3,6.4,4.3,8.8c1,2.3,2.2,4.6,3.6,6.9C28,26.7,32.2,18,37,6.8
		l10.5,0C47.8,6.9,48,7,48,7.3c0,0.3-0.2,0.4-0.6,0.5c-1.9,0.2-3.1,0.5-3.7,1.1c-0.6,0.6-1,1.6-1.2,3c-0.1,1.4-0.3,4-0.4,7.7
		c-0.1,3.8-0.2,6.9-0.2,9.4c0,4.8,0,7.6,0.1,8.4c0.1,0.8,0.4,1.4,0.9,1.9c0.5,0.5,1.5,0.8,3.1,1c0.4,0.1,0.7,0.2,0.7,0.5
		c0,0.3-0.3,0.4-0.8,0.4l-10.2,0h-2.7c-0.6,0-0.9-0.1-0.9-0.4c0-0.2,0.2-0.4,0.6-0.4c1.5-0.2,2.4-0.5,2.9-0.8c0.5-0.4,0.8-1,1.1-1.9
		c0.2-0.9,0.4-3.1,0.4-6.7l0.5-12.6l0.3-6.2c0-0.5-0.1-0.7-0.2-0.7c-0.2,0-0.4,0.1-0.5,0.4L31.8,22c-3.3,6.6-5.4,10.8-6.1,12.6
		l-1.6,4c-0.5,1.2-0.8,1.9-0.9,2c-0.1,0.1-0.2,0.2-0.4,0.2c-0.2,0-0.4-0.2-0.5-0.7c-0.3-1.1-1.9-4.5-4.9-10.4
		c-1.5-3.3-3.4-7-5.5-11.2c-2.1-4.2-3.3-6.4-3.5-6.6c-0.2-0.2-0.3-0.3-0.4-0.3c-0.2,0-0.3,0.2-0.3,0.7L7.5,28.2l-0.1,5.3
		c0,2.8,0.4,4.6,1.1,5.5c0.8,0.9,1.9,1.3,3.3,1.3c0.9,0,1.4,0.2,1.4,0.6c0,0.3-0.2,0.4-0.7,0.4l-0.6,0l-1.7,0l-3.7,0
		c-1.6,0-3.7,0.1-6.2,0.3C0.1,41.3,0,41.2,0,41c0-0.3,0.3-0.5,0.9-0.6c1.8-0.1,3-0.6,3.9-1.7C5.6,37.6,6,35.2,6,31.3L6,26.7L6.3,15
		c0-2.7-0.4-4.6-1.2-5.6c-0.8-1-2-1.6-3.5-1.8c-0.7-0.1-1-0.3-1-0.5c0-0.3,0.2-0.5,0.7-0.5c0.3,0,0.6,0,0.9,0L11.6,6.8z"/>
</g>
</svg>
