<?xml version="1.0" encoding="utf-8"?>
<!-- Generator: Adobe Illustrator 26.0.1, SVG Export Plug-In . SVG Version: 6.00 Build 0)  -->
<svg version="1.1" id="Layer_1" xmlns="http://www.w3.org/2000/svg" xmlns:xlink="http://www.w3.org/1999/xlink" x="0px" y="0px"
	 viewBox="0 0 48 48" style="enable-background:new 0 0 48 48;" xml:space="preserve">
<style type="text/css">
	.st0{fill:#4259C3;}
</style>
<g>
	<path class="st0" d="M27.4,6.8c0.3-3.6,2.6-5.5,6.8-5.5V0H13.8v1.3c4.2,0,6.5,1.8,6.8,5.5C14.5,7,9.5,8.7,5.7,11.7
		C1.9,14.8,0,18.9,0,24c0,4.8,1.9,8.9,5.6,12.2c3.7,3.4,8.7,5,15,5c-0.3,3.6-2.6,5.5-6.8,5.5V48h20.4v-1.3c-4.2,0-6.5-1.8-6.8-5.5
		c6.3,0,11.2-1.7,15-5C46.1,32.9,48,28.8,48,24c0-4.6-1.7-8.6-5.2-11.9C39.3,8.7,34.1,7,27.4,6.8z M20.6,39.3
		C12,38.8,7.7,33.9,7.7,24.6c0-5.8,1.1-9.8,3.4-12.1c2.3-2.3,5.5-3.5,9.5-3.8V39.3z M36.8,35.7c-2.4,2.2-5.5,3.4-9.4,3.6V8.7
		c8.6,0.5,13,5.4,13,14.7C40.4,29.4,39.2,33.4,36.8,35.7z"/>
</g>
</svg>
