<?xml version="1.0" encoding="utf-8"?>
<!-- Generator: Adobe Illustrator 26.0.1, SVG Export Plug-In . SVG Version: 6.00 Build 0)  -->
<svg version="1.1" id="Layer_1" xmlns="http://www.w3.org/2000/svg" xmlns:xlink="http://www.w3.org/1999/xlink" x="0px" y="0px"
	 viewBox="0 0 48 48" style="enable-background:new 0 0 48 48;" xml:space="preserve">
<style type="text/css">
	.st0{fill:#4259C3;}
</style>
<g>
	<path class="st0" d="M45.6,40.1c-0.7,0.8-2.1,1.2-4.3,1.2h-9.5l0.3-2.3c4.4-1.3,7.9-3.6,10.4-6.9c2.6-3.3,3.9-7.3,3.9-12
		c0-5.8-2.1-10.6-6.2-14.3c-4.1-3.7-9.4-5.6-16-5.6c-6.7,0-12.1,2-16.3,5.9c-4.2,3.9-6.2,8.7-6.2,14.3c0,5,1.5,9.2,4.5,12.5
		c3,3.3,6.3,5.3,9.9,6.1l0.1,2.3H6.8c-1.9,0-3.3-0.3-4.1-1c-0.9-0.6-1.3-1.8-1.4-3.4H0v10.7h19.2l-0.7-10.3c-3.4-1.3-5.7-3.4-7-6.5
		c-1.2-3.1-1.8-6.5-1.8-10.3c0-5.2,1.4-9.5,4.1-12.8c2.7-3.3,6.1-5,10.3-5c3.9,0,7.3,1.6,10.2,4.7c2.9,3.1,4.3,7.7,4.3,13.6
		c0,9-2.9,14.5-8.8,16.3l-0.9,10.3H48V37h-1.3C46.7,38.3,46.3,39.3,45.6,40.1z"/>
</g>
</svg>
