<?xml version="1.0" encoding="utf-8"?>
<!-- Generator: Adobe Illustrator 26.0.1, SVG Export Plug-In . SVG Version: 6.00 Build 0)  -->
<svg version="1.1" id="Layer_1" xmlns="http://www.w3.org/2000/svg" xmlns:xlink="http://www.w3.org/1999/xlink" x="0px" y="0px"
	 viewBox="0 0 48 48" style="enable-background:new 0 0 48 48;" xml:space="preserve">
<style type="text/css">
	.st0{fill:#4259C3;}
</style>
<g>
	<path class="st0" d="M24.6,19.8c1.1-1.3,2.5-3.3,4.4-5.9c1.8-2.6,2.9-4.3,3.3-5.1c0.4-0.7,0.5-1.4,0.5-2c0-1-0.4-1.7-1.3-2.2
		c-0.8-0.5-1.8-0.8-2.8-0.9c-0.9-0.1-1.4-0.3-1.4-0.7c0-0.4,0.7-0.6,2-0.6h13.8c0.9,0,1.5,0,1.7,0.1c0.2,0.1,0.3,0.2,0.3,0.5
		c0,0.4-0.4,0.6-1.3,0.6c-2,0.1-3.9,0.8-5.6,2c-1.7,1.3-4.1,4-7.2,8.2c-3.1,4.2-4.8,6.6-5.2,7.3c6.4,9.6,10.9,15.8,13.5,18.6
		c2.6,2.8,5.1,4.3,7.3,4.4c0.8,0,1.2,0.3,1.2,0.7c0,0.4-0.4,0.6-1.3,0.6c-0.4,0-1.3,0-2.7-0.1c-2.1-0.1-4-0.2-5.8-0.2
		c-3.1,0-6,0.1-8.8,0.2c-0.4,0-0.7,0-1.1,0c-1.1,0-1.6-0.2-1.6-0.6c0-0.4,0.3-0.7,0.9-0.7c2.8,0,4.2-0.9,4.2-2.6
		c0-1.8-3.2-7-9.7-15.4c-0.7,0.7-2.5,3-5.3,7.1c-2.8,4.1-4.2,6.7-4.2,7.7c0,0.7,0.5,1.4,1.6,2c1.1,0.6,2.4,0.9,4.1,1.1
		c0.8,0.1,1.2,0.3,1.2,0.6c0,0.4-0.4,0.6-1.2,0.6l-1.2,0l-6.7-0.2c-4,0-6.7,0.1-8.1,0.2c-0.9,0-1.4-0.2-1.4-0.6c0-0.4,0.3-0.6,1-0.6
		c1.5,0,2.9-0.3,4.1-0.8c1.2-0.6,2.3-1.3,3.1-2.3c0.8-1,2.7-3.5,5.6-7.6c2.9-4.1,4.9-7,6-8.8C13.2,13.7,8.6,7.4,6.8,6
		c-1.7-1.4-3.7-2.2-6-2.3C0.3,3.6,0,3.4,0,3s0.5-0.6,1.6-0.6H19c0.8,0,1.3,0,1.5,0.1c0.2,0.1,0.2,0.2,0.2,0.5c0,0.2-0.1,0.4-0.3,0.5
		c-0.2,0.1-0.9,0.2-2.2,0.2c-0.7,0.1-1.4,0.3-1.9,0.7c-0.5,0.4-0.8,0.9-0.8,1.4c0,0.6,1.1,2.6,3.2,5.8C20.8,15,22.8,17.7,24.6,19.8z
		"/>
</g>
</svg>
