<?xml version="1.0" encoding="utf-8"?>
<!-- Generator: Adobe Illustrator 26.0.1, SVG Export Plug-In . SVG Version: 6.00 Build 0)  -->
<svg version="1.1" id="Layer_1" xmlns="http://www.w3.org/2000/svg" xmlns:xlink="http://www.w3.org/1999/xlink" x="0px" y="0px"
	 viewBox="0 0 48 48" style="enable-background:new 0 0 48 48;" xml:space="preserve">
<style type="text/css">
	.st0{fill:#4259C3;}
</style>
<g>
	<path class="st0" d="M15.1,0l6.6,0.1L31.9,0c1.2,0,1.8,0.2,1.8,0.7c0,0.4-0.3,0.6-1,0.7c-2.7,0.3-4.4,1.3-5,2.9
		c-0.7,1.6-1,7.5-1,17.7c0,3.8,0.1,8,0.3,12.7c0.2,4.7,0.4,7.5,0.7,8.4c0.2,0.9,0.7,1.7,1.4,2.3c0.7,0.6,1.9,1,3.8,1.2
		c0.6,0.1,0.9,0.3,0.9,0.7c0,0.4-0.3,0.7-0.8,0.7l-9-0.1L16.1,48c-0.8,0-1.3-0.2-1.3-0.7c0-0.5,0.3-0.8,1-0.8c2.3,0,3.6-0.8,4-2.3
		c0.4-1.5,0.6-6.1,0.6-13.9c0-7.6-0.1-13.7-0.2-18.3c-0.1-4.7-0.5-7.5-1.2-8.6c-0.7-1-1.9-1.7-3.7-2c-0.7-0.1-1-0.4-1-0.8
		C14.3,0.2,14.6,0,15.1,0z"/>
</g>
</svg>
