<?xml version="1.0" encoding="utf-8"?>
<!-- Generator: Adobe Illustrator 26.0.1, SVG Export Plug-In . SVG Version: 6.00 Build 0)  -->
<svg version="1.1" id="Layer_1" xmlns="http://www.w3.org/2000/svg" xmlns:xlink="http://www.w3.org/1999/xlink" x="0px" y="0px"
	 viewBox="0 0 48 48" style="enable-background:new 0 0 48 48;" xml:space="preserve">
<style type="text/css">
	.st0{fill:#4259C3;}
</style>
<g>
	<path class="st0" d="M17.1,25c0,1.1-0.1,2.7-0.2,4.9c-0.1,1.1-0.1,2.1-0.1,3.2c0,0.8,0,2.6,0.1,5.3c0.1,2.7,0.3,4.4,0.5,5.1
		c0.3,0.7,0.8,1.3,1.7,2c0.9,0.6,1.8,1,2.8,1c1.1,0.1,1.7,0.3,1.7,0.8c0,0.3-0.2,0.5-0.5,0.6C22.7,48,21.4,48,19.2,48l-10,0
		c-2.8,0-4.3,0-4.5-0.1c-0.2-0.1-0.3-0.2-0.3-0.5c0-0.4,0.5-0.7,1.4-0.9c1.6-0.4,2.8-0.9,3.4-1.7c0.6-0.8,1-2.4,1.2-5
		c0.1-2.6,0.2-5.5,0.2-8.8l-0.1-9.7l0.1-10.5c0-3.7-0.3-6.1-0.8-7.1c-0.5-1-1.5-1.7-3-1.9C5.2,1.4,4.4,1.1,4.4,0.7
		C4.4,0.2,4.8,0,5.5,0l7.2,0L24.3,0C31.9,0,37,1.2,39.7,3.6c2.6,2.4,3.9,5.3,3.9,8.9c0,4.2-1.7,7.4-5.2,9.5
		c-3.4,2.1-8.6,3.2-15.5,3.2C21.2,25.2,19.3,25.1,17.1,25z M17.1,23.5c3.6,0.1,5.6,0.2,6.1,0.2c2.5,0,4.8-0.4,7-1.3
		c2.2-0.8,3.8-2.4,4.8-4.6c1-2.2,1.5-4.4,1.5-6.5c0-2.7-0.9-5.1-2.8-7c-1.9-1.9-5.2-2.8-10-2.8c-2.5,0-4.7,0.3-6.5,0.8
		c0,0.9,0,1.4,0,1.6l0.1,8.4l-0.1,8.9C17.1,21.6,17.1,22.4,17.1,23.5z"/>
</g>
</svg>
