<?xml version="1.0" encoding="utf-8"?>
<!-- Generator: Adobe Illustrator 26.0.1, SVG Export Plug-In . SVG Version: 6.00 Build 0)  -->
<svg version="1.1" id="Layer_1" xmlns="http://www.w3.org/2000/svg" xmlns:xlink="http://www.w3.org/1999/xlink" x="0px" y="0px"
	 viewBox="0 0 48 48" style="enable-background:new 0 0 48 48;" xml:space="preserve">
<style type="text/css">
	.st0{fill:#4259C3;}
</style>
<g>
	<path class="st0" d="M40.5,4.2C39,6.1,38.2,8.9,38,12.6c-0.2,3.4-0.5,5.8-1,7.2c-0.5,1.4-1.5,2.7-3.1,3.7c-1.5,1-3.8,1.5-6.8,1.5
		V10.7c0-2.6,0.1-4.2,0.4-5c0.3-0.8,0.9-1.4,1.9-1.8c0.9-0.4,2.4-0.7,4.4-0.7V2H14.1v1.2c2,0,3.5,0.3,4.4,0.7c0.9,0.4,1.6,1,1.9,1.8
		c0.3,0.8,0.4,2.4,0.4,5V25c-3,0-5.2-0.5-6.8-1.5c-1.6-1-2.6-2.2-3.1-3.7c-0.5-1.4-0.8-3.8-1-7.2C9.9,9.9,9.4,7.7,8.6,6
		C7.8,4.4,6.7,3.2,5.3,2.6C4,1.9,2.2,1.6,0,1.5v1.2c1.3,0.1,2.2,0.7,2.6,1.6C3,5.2,3.2,7,3.2,9.8c0,4.3,0.5,7.6,1.4,9.9
		c0.9,2.3,2.7,4.1,5.3,5.5c2.6,1.4,6.3,2.2,11,2.3v10.4c0,2.6-0.2,4.3-0.5,5.1c-0.3,0.8-1,1.4-1.9,1.8c-1,0.4-2.4,0.6-4.3,0.6v1.2
		h19.7v-1.2c-2,0-3.5-0.2-4.4-0.7c-1-0.5-1.6-1.1-1.9-1.8c-0.3-0.8-0.4-2.4-0.4-5V27.4c4.7-0.1,8.3-0.9,11-2.3
		c2.7-1.4,4.4-3.3,5.3-5.6c0.9-2.3,1.3-5.5,1.3-9.7c0-2.9,0.2-4.7,0.7-5.6c0.4-0.9,1.3-1.4,2.5-1.5V1.5C44.5,1.5,42,2.4,40.5,4.2z"
		/>
</g>
</svg>
