<?xml version="1.0" encoding="utf-8"?>
<!-- Generator: Adobe Illustrator 26.0.1, SVG Export Plug-In . SVG Version: 6.00 Build 0)  -->
<svg version="1.1" id="Layer_1" xmlns="http://www.w3.org/2000/svg" xmlns:xlink="http://www.w3.org/1999/xlink" x="0px" y="0px"
	 viewBox="0 0 48 48" style="enable-background:new 0 0 48 48;" xml:space="preserve">
<style type="text/css">
	.st0{fill:#4259C3;}
</style>
<g>
	<path class="st0" d="M7.2,47.5V47l13.9-27.5l2.2-3.2c-0.8-2.9-1.5-5.1-2.1-6.5c-0.6-1.4-1.2-2.3-1.7-2.8c-0.3-0.3-0.7-0.6-1.1-0.7
		C18,6.2,17.5,6,17,5.9c-0.5-0.1-1.1-0.1-1.7-0.1c-0.7,0-1.4,0-2.1,0.1C12.5,6,11.9,6,11.5,6.1h-1.3L9.9,0.5
		c0.4-0.1,0.9-0.2,1.5-0.2c0.6-0.1,1.2-0.1,1.7-0.2c0.6,0,1-0.1,1.2-0.1c1.6,0,3,0.2,4.3,0.6C20,1.1,21.2,2,22.3,3.4
		c1.1,1.4,2.1,3.6,3.1,6.5l9.4,28.7c0.3,0.8,0.6,1.6,1.1,2.2c0.4,0.6,1.2,0.9,2.4,0.9h2.6v0.5l-0.2,5.4c-0.3,0.1-0.7,0.2-1.2,0.2
		c-0.5,0.1-1,0.1-1.5,0.1c-1.6,0-2.9-0.4-3.9-1.2c-1-0.8-1.9-2.3-2.6-4.6l-5.6-19.2h-0.5l-1.6,3.6L13.3,47.5H7.2z"/>
</g>
</svg>
