<?xml version="1.0" encoding="utf-8"?>
<!-- Generator: Adobe Illustrator 26.0.1, SVG Export Plug-In . SVG Version: 6.00 Build 0)  -->
<svg version="1.1" id="Layer_1" xmlns="http://www.w3.org/2000/svg" xmlns:xlink="http://www.w3.org/1999/xlink" x="0px" y="0px"
	 viewBox="0 0 48 48" style="enable-background:new 0 0 48 48;" xml:space="preserve">
<style type="text/css">
	.st0{fill:#4259C3;}
</style>
<g>
	<path class="st0" d="M29.4,0c-1.8,0-3.3,0.5-4.6,1.5c-1.3,1-2.1,2.2-2.5,3.6c-0.4,1.4-0.6,3.5-0.6,6.4v20.2
		c-6.4-1.6-9.6-6.9-9.6-16c0-8.4,2.6-13.2,7.7-14.5V0c-4.1,0.2-7.5,1.7-10.1,4.6c-2.6,2.9-4,6.7-4,11.2c0,5.1,1.5,9.2,4.4,12.4
		c2.9,3.2,6.8,5,11.6,5.4V48h3.8V33.7c5.5-0.5,9.7-2.5,12.4-5.9c2.7-3.5,4.1-7.4,4.1-11.9c0-4.7-1.3-8.6-4-11.5
		C35.4,1.5,32.5,0,29.4,0z M25.6,31.8V11.2c0-2.2,0.1-3.6,0.2-4.4c0.1-0.7,0.5-1.4,1-1.9C27.3,4.3,27.9,4,28.7,4
		c2.1,0,3.9,1.3,5.5,3.9c1.6,2.6,2.3,5.8,2.3,9.7C36.5,26,32.9,30.7,25.6,31.8z"/>
</g>
</svg>
