<?xml version="1.0" encoding="utf-8"?>
<!-- Generator: Adobe Illustrator 26.0.1, SVG Export Plug-In . SVG Version: 6.00 Build 0)  -->
<svg version="1.1" id="Layer_1" xmlns="http://www.w3.org/2000/svg" xmlns:xlink="http://www.w3.org/1999/xlink" x="0px" y="0px"
	 viewBox="0 0 48 48" style="enable-background:new 0 0 48 48;" xml:space="preserve">
<style type="text/css">
	.st0{fill:#4259C3;}
</style>
<g>
	<path class="st0" d="M16.8,45.9c-3.1,0-6-0.9-8.5-2.6c-2.5-1.8-4.6-4.3-6.1-7.6C0.7,32.5,0,28.6,0,24.1c0-4.2,0.8-8,2.5-11.3
		c1.6-3.3,3.9-5.9,6.7-7.8c2.8-1.9,6-2.9,9.5-2.9c2.4,0,4.6,0.5,6.6,1.4c2,0.9,3.7,2.4,5.1,4.3c1.5,1.9,2.6,4.3,3.5,7.3h0.4
		c0.2-0.8,0.6-2,1.1-3.5c0.5-1.5,1-3.1,1.6-4.7c0.6-1.6,1.1-2.8,1.5-3.7h7.9V4c-1.6,2.9-3.1,6.2-4.7,9.8c-1.6,3.6-3,7.5-4.1,11.5
		c0.1,1.5,0.2,3,0.3,4.4c0.1,1.4,0.3,2.7,0.5,3.9c0.2,1.2,0.5,2.3,0.8,3.2c0.3,0.9,0.8,1.6,1.4,2.2c0.6,0.6,1.5,0.9,2.8,0.9
		c0.5,0,1-0.1,1.6-0.2c0.6-0.1,1.1-0.3,1.7-0.5H48V43c-1.3,0.9-2.7,1.6-4.2,2.1c-1.5,0.5-2.8,0.8-4.1,0.8c-2.3,0-4-0.8-5-2.5
		c-1-1.7-1.7-4.6-2.1-8.7h-0.5c-1.1,2.2-2.4,4.1-3.8,5.8c-1.4,1.7-3.1,3-5,4C21.5,45.5,19.3,45.9,16.8,45.9z M19.3,40.4
		c3.2,0,5.9-1.5,8-4.4c2.1-2.9,3.5-6.6,4.1-11.1c-0.2-2.7-0.7-5.1-1.3-7.3c-0.6-2.2-1.4-4.1-2.4-5.8c-1-1.6-2.2-2.9-3.5-3.8
		c-1.4-0.9-2.9-1.3-4.7-1.3c-3.4,0-6.1,1.6-8,4.8c-2,3.2-3,7.6-3,13.1c0,2.7,0.3,5.3,1,7.7c0.7,2.4,1.8,4.4,3.4,5.8
		C14.5,39.6,16.6,40.4,19.3,40.4z"/>
</g>
</svg>
