<?xml version="1.0" encoding="utf-8"?>
<!-- Generator: Adobe Illustrator 26.0.1, SVG Export Plug-In . SVG Version: 6.00 Build 0)  -->
<svg version="1.1" id="Layer_1" xmlns="http://www.w3.org/2000/svg" xmlns:xlink="http://www.w3.org/1999/xlink" x="0px" y="0px"
	 viewBox="0 0 48 48" style="enable-background:new 0 0 48 48;" xml:space="preserve">
<style type="text/css">
	.st0{fill:#4259C3;}
</style>
<g>
	<path class="st0" d="M6.8,31.7V9.8c0-0.6-0.2-1.1-0.5-1.5C6,8,5.6,7.8,5,7.6L0,5.5v-3l15.3-2.3v29.5c0,3.5,0.6,6.2,1.9,8
		c1.3,1.9,2.8,3.1,4.7,3.8c1.9,0.7,3.8,1,5.7,1c2.9,0,5.3-0.9,7.1-2.7c1.8-1.8,3.2-4.2,4.1-7.1c0.9-2.9,1.3-6,1.3-9.2
		c0-2.9-0.4-5.8-1.3-8.7C38,11.9,37,9.4,35.9,7.1c-1.1-2.2-2-3.8-2.7-4.8V0.9h11.3c0.7,2.3,1.4,4.9,2.2,7.9c0.8,2.9,1.2,5.9,1.2,9
		c0,5.5-0.8,10.6-2.4,15.1c-1.6,4.6-4.1,8.2-7.4,10.9c-3.3,2.7-7.5,4.1-12.5,4.1c-3.3,0-6.4-0.5-9.3-1.5c-2.9-1-5.2-2.7-7-5.1
		C7.7,38.9,6.8,35.8,6.8,31.7z"/>
</g>
</svg>
