<?xml version="1.0" encoding="utf-8"?>
<!-- Generator: Adobe Illustrator 26.0.1, SVG Export Plug-In . SVG Version: 6.00 Build 0)  -->
<svg version="1.1" id="Layer_1" xmlns="http://www.w3.org/2000/svg" xmlns:xlink="http://www.w3.org/1999/xlink" x="0px" y="0px"
	 viewBox="0 0 48 48" style="enable-background:new 0 0 48 48;" xml:space="preserve">
<style type="text/css">
	.st0{fill:#4259C3;}
</style>
<g>
	<path class="st0" d="M21.5,47.4L8,10.2C7.7,9.5,7.4,9.1,7.1,8.8C6.7,8.5,6.3,8.3,5.8,8.1L0,5.9V3l13.3-2.4L24,30.4l1.9,6.6h0.6
		c1.2-1.9,2.3-3.8,3.3-5.6c1.1-1.8,2.1-3.9,3-6.1c0.9-2.2,1.7-4.9,2.4-8c0.5-2.1,0.8-4.1,1-5.8c0.2-1.8,0.3-3.2,0.3-4.2
		c0-0.9,0-1.6-0.1-2.3c-0.1-0.6-0.1-1.3-0.1-1.9V1.4H48v1.5c-1.5,3.9-3.1,7.7-4.8,11.3c-1.7,3.6-3.5,7.3-5.4,11.2
		c-1.9,3.8-4.1,8.1-6.4,12.7l-4.7,9.3H21.5z"/>
</g>
</svg>
