<?xml version="1.0" encoding="utf-8"?>
<!-- Generator: Adobe Illustrator 26.0.1, SVG Export Plug-In . SVG Version: 6.00 Build 0)  -->
<svg version="1.1" id="Layer_1" xmlns="http://www.w3.org/2000/svg" xmlns:xlink="http://www.w3.org/1999/xlink" x="0px" y="0px"
	 viewBox="0 0 48 48" style="enable-background:new 0 0 48 48;" xml:space="preserve">
<style type="text/css">
	.st0{fill:#4259C3;}
</style>
<g>
	<path class="st0" d="M0.8,45.4V45l0.3-7.6h3.5c1.5,0,2.6-0.4,3.2-1.1c0.6-0.7,1.1-1.7,1.4-3c0.4-1.3,0.8-3.1,1.3-5.4
		s0.9-5.1,1.3-8.3c0.4-3.2,0.6-6.9,0.6-11.1h-2.3c-2.4,0-4.4,0.4-5.8,1.3c-1.5,0.9-2.6,1.6-3.4,2.2H0l0.3-7.1c0.9-0.5,2.2-1.1,4-1.7
		c1.8-0.7,4.3-1,7.5-1H48l-0.4,6.3H36.9v20.2c0,1.5,0,3.1,0,4.8c0,1.6,0.1,2.7,0.2,3.3c0.2,0.9,0.6,1.7,1.2,2.5
		c0.5,0.8,1.6,1.1,3.4,1.1c0.6,0,1.4-0.1,2.3-0.3c0.9-0.2,1.5-0.3,2-0.5h1.3v3.6c-1.5,1-3.1,1.6-5,2c-1.9,0.4-3.6,0.6-5,0.6
		c-1.7,0-3.1-0.3-4.2-1c-1.1-0.7-2-1.4-2.6-2.4c-0.6-0.9-1-1.8-1.2-2.6c-0.1-0.7-0.2-1.5-0.3-2.5c-0.1-1-0.1-2-0.1-3.3V8.5H18.3
		c-0.2,4.1-0.4,7.9-0.8,11.5c-0.4,3.6-0.8,6.8-1.3,9.8c-0.5,2.9-1.1,5.4-1.7,7.5c-0.7,2.5-1.6,4.4-2.4,5.6c-0.9,1.2-1.9,2-3,2.4
		c-1.1,0.4-2.4,0.6-3.9,0.6c-0.7,0-1.6,0-2.5-0.1C1.9,45.6,1.3,45.5,0.8,45.4z"/>
</g>
</svg>
