<?xml version="1.0" encoding="utf-8"?>
<!-- Generator: Adobe Illustrator 26.0.1, SVG Export Plug-In . SVG Version: 6.00 Build 0)  -->
<svg version="1.1" id="Layer_1" xmlns="http://www.w3.org/2000/svg" xmlns:xlink="http://www.w3.org/1999/xlink" x="0px" y="0px"
	 viewBox="0 0 48 48" style="enable-background:new 0 0 48 48;" xml:space="preserve">
<style type="text/css">
	.st0{fill:#4259C3;}
</style>
<g>
	<path class="st0" d="M20.2,45.9c-4,0-7.5-0.9-10.6-2.6c-3-1.8-5.4-4.3-7.1-7.6C0.9,32.4,0,28.4,0,23.8c0-4.2,0.9-8,2.8-11.2
		c1.9-3.3,4.5-5.8,7.8-7.7c3.3-1.9,7.1-2.8,11.3-2.8c0.8,0,1.8,0,3.2,0s2.9,0.1,4.5,0.1c1.6,0.1,3.1,0.1,4.6,0.1c1.4,0,2.6,0,3.5,0
		H48l-2,7.8c-1.6-0.3-3.2-0.6-4.9-0.8c-1.7-0.2-3.2-0.5-4.8-0.7c-1.5-0.2-2.8-0.4-4-0.6l-3.5,0.2c-0.6-0.1-1.3-0.1-2.2-0.2
		c-0.9-0.1-1.8-0.1-2.7-0.2c-0.9,0-1.6,0-2.2,0c-3.2,0-5.7,0.8-7.7,2.2c-1.9,1.5-3.3,3.4-4.2,5.7c-0.9,2.3-1.3,4.8-1.3,7.3
		c0,2.2,0.2,4.3,0.6,6.5c0.4,2.2,1,4.2,1.9,6c0.9,1.8,2.1,3.2,3.7,4.3c1.6,1.1,3.6,1.6,6,1.6c2.3,0,4.1-0.5,5.6-1.6
		c1.5-1,2.7-2.4,3.5-4.1c0.9-1.7,1.5-3.6,1.8-5.6c0.4-2,0.5-4,0.5-6c0-3.7-0.4-7-1.2-9.8c-0.8-2.8-2-5.1-3.5-6.8l5.2,0.1
		c2.2,1.6,4.1,3.7,5.7,6.5c1.6,2.7,2.5,5.7,2.5,8.9c0,4.2-0.8,8.1-2.5,11.5c-1.7,3.4-4.1,6.1-7.2,8.1C28.2,44.9,24.5,45.9,20.2,45.9
		z"/>
</g>
</svg>
