<?xml version="1.0" encoding="utf-8"?>
<!-- Generator: Adobe Illustrator 26.0.1, SVG Export Plug-In . SVG Version: 6.00 Build 0)  -->
<svg version="1.1" id="Layer_1" xmlns="http://www.w3.org/2000/svg" xmlns:xlink="http://www.w3.org/1999/xlink" x="0px" y="0px"
	 viewBox="0 0 48 48" style="enable-background:new 0 0 48 48;" xml:space="preserve">
<style type="text/css">
	.st0{fill:#4259C3;}
</style>
<g>
	<path class="st0" d="M22.7,48v-0.3l0.2-3.9h1c0.8,0,1.5,0,2.1-0.1c0.6-0.1,1.4-0.3,2.4-0.6c0.4-0.1,0.8-0.4,1.4-0.8
		c0.6-0.4,1-1.1,1.3-2.1c0-1.2-0.3-2-1-2.5c-0.7-0.5-1.7-0.7-3.1-0.8c-0.3,0-0.8,0-1.4,0c-0.6,0-1.1,0-1.3,0c-2-0.1-3.8-0.6-5.4-1.5
		c-1.6-0.9-2.8-2.2-3.7-3.8c-0.9-1.6-1.3-3.5-1.3-5.7c0-2.7,0.6-5.3,1.7-7.8c1.1-2.4,2.7-4.9,4.8-7.3c2.1-2.4,4.6-5,7.5-7.6V3H16.2
		l0.2-3h17.3l-0.1,2.5c-2.7,2.2-5.1,4.4-7.4,6.8c-2.3,2.4-4.1,4.9-5.5,7.4c-1.4,2.6-2.1,5.3-2.1,8.1c0,2,0.3,3.6,0.9,4.7
		c0.6,1.2,1.4,2.1,2.4,2.6c1,0.5,2.2,0.9,3.5,0.9c0.4,0,0.8,0,1.3,0c0.4,0,0.8,0,1.1,0.1c1.5,0.1,2.6,0.3,3.6,0.7
		c0.9,0.4,1.6,0.9,2.1,1.7c0.5,0.7,0.7,1.6,0.7,2.6c0,1.1-0.3,2.2-0.8,3.4c-0.6,1.1-1.3,2.2-2.3,3.1c-1,1-2.1,1.8-3.4,2.4
		c-0.3,0.2-0.8,0.3-1.3,0.4c-0.5,0.1-1.1,0.2-1.7,0.3C24,47.9,23.4,48,22.7,48z"/>
</g>
</svg>
