<?xml version="1.0" encoding="utf-8"?>
<!-- Generator: Adobe Illustrator 26.0.1, SVG Export Plug-In . SVG Version: 6.00 Build 0)  -->
<svg version="1.1" id="Layer_1" xmlns="http://www.w3.org/2000/svg" xmlns:xlink="http://www.w3.org/1999/xlink" x="0px" y="0px"
	 viewBox="0 0 48 48" style="enable-background:new 0 0 48 48;" xml:space="preserve">
<style type="text/css">
	.st0{fill:#4259C3;}
</style>
<g>
	<path class="st0" d="M23,48c-1.8,0-3.4-0.4-4.7-1.1c-1.3-0.7-2.3-1.6-3-2.6c-0.7-1-1.2-2-1.4-2.8c-0.2-0.8-0.3-1.7-0.3-2.8
		s-0.1-2.3-0.1-3.5V0h8.8v29.2c0,1.6,0,3.3,0,5.2c0,1.9,0.1,3.1,0.3,3.7c0.2,1,0.7,1.9,1.5,2.7c0.7,0.8,2,1.3,3.9,1.3
		c0.7,0,1.5-0.1,2.3-0.3c0.9-0.2,1.8-0.5,2.8-0.9h1.5v4c-2.1,1.3-4.1,2.1-6.1,2.5C26.4,47.8,24.6,48,23,48z"/>
</g>
</svg>
