<?xml version="1.0" encoding="utf-8"?>
<!-- Generator: Adobe Illustrator 26.0.1, SVG Export Plug-In . SVG Version: 6.00 Build 0)  -->
<svg version="1.1" id="Layer_1" xmlns="http://www.w3.org/2000/svg" xmlns:xlink="http://www.w3.org/1999/xlink" x="0px" y="0px"
	 viewBox="0 0 48 48" style="enable-background:new 0 0 48 48;" xml:space="preserve">
<style type="text/css">
	.st0{fill:#4259C3;}
</style>
<g>
	<path class="st0" d="M39,7c-2.7-1.6-6.3-2.4-10.8-2.4V6c2.7,0.1,5,0.9,6.9,2.3c1.9,1.5,3.3,3.5,4.2,6.1c0.9,2.6,1.4,6.3,1.4,11.2
		c0,5.8-0.7,9.8-2.2,11.9c-1.5,2.1-3.2,3.1-5.2,3.1c-3.6,0-6.3-3-8.3-9c1.8-4.1,2.6-8.1,2.6-11.9c0-5.5-1.2-8.3-3.6-8.3
		c-2.4,0-3.6,3-3.6,8.9c0,3.9,0.8,7.7,2.5,11.2c-1,2.7-1.7,4.5-2.2,5.4c-0.5,0.9-1.3,1.7-2.5,2.5c-1.2,0.8-2.4,1.2-3.7,1.2
		c-2,0-3.6-1.1-5.1-3.4C8.1,35,7.3,30.9,7.3,24.8c0-6,1.1-10.6,3.3-13.9C12.8,7.6,15.9,6,19.8,6V4.5c-4.5,0-8.1,0.8-10.8,2.4
		c-2.7,1.6-4.9,3.9-6.6,6.9C0.8,16.9,0,20.7,0,25.5c0,5.8,1.4,10.2,4.2,13.3c2.8,3.1,5.9,4.6,9.2,4.6c4.8,0,8.3-2.6,10.7-7.9
		c2.1,5.3,5.6,7.9,10.5,7.9c3.6,0,6.7-1.5,9.4-4.6c2.7-3.1,4-7.6,4-13.5c0-4.7-0.8-8.5-2.5-11.5C43.9,10.9,41.7,8.6,39,7z"/>
</g>
</svg>
