<?xml version="1.0" encoding="utf-8"?>
<!-- Generator: Adobe Illustrator 26.0.1, SVG Export Plug-In . SVG Version: 6.00 Build 0)  -->
<svg version="1.1" id="Layer_1" xmlns="http://www.w3.org/2000/svg" xmlns:xlink="http://www.w3.org/1999/xlink" x="0px" y="0px"
	 viewBox="0 0 48 48" style="enable-background:new 0 0 48 48;" xml:space="preserve">
<style type="text/css">
	.st0{fill:#4259C3;}
</style>
<g>
	<path class="st0" d="M6.8,46.7V10.3c0-0.6-0.2-1.1-0.5-1.4C5.9,8.5,5.5,8.3,4.9,8.1L0,6V3l15.2-2.3v24.7c3.6-4.6,6.8-8.7,9.5-12.3
		s4.8-6.3,6.3-8c1.4-1.5,2.7-2.6,3.9-3.3c1.2-0.7,2.7-1,4.6-1c0.9,0,1.7,0,2.4,0.1c0.7,0.1,1.6,0.2,2.7,0.3l-0.3,8.3h-1.7
		c-1.1-0.1-2.3-0.3-3.6-0.4c-1.3-0.1-2.3-0.1-2.8-0.1c-0.7,0-1.5,0.4-2.5,1.1c-1,0.7-2,1.8-3.3,3.2c-1.2,1.4-2.6,3.1-4.2,5.1
		l13.2,21.7c0.3,0.6,0.8,1,1.3,1.2c0.5,0.3,1,0.5,1.6,0.6l5.6,1.6v3.1l-9.3,0.5c-2,0.1-3.5-0.2-4.5-0.8c-0.9-0.6-1.9-1.9-3-3.7
		L20.7,24.5l-5.5,3.8v18.4H6.8z"/>
</g>
</svg>
