<?xml version="1.0" encoding="utf-8"?>
<!-- Generator: Adobe Illustrator 26.0.1, SVG Export Plug-In . SVG Version: 6.00 Build 0)  -->
<svg version="1.1" id="Layer_1" xmlns="http://www.w3.org/2000/svg" xmlns:xlink="http://www.w3.org/1999/xlink" x="0px" y="0px"
	 viewBox="0 0 48 48" style="enable-background:new 0 0 48 48;" xml:space="preserve">
<style type="text/css">
	.st0{fill:#4259C3;}
</style>
<g>
	<path class="st0" d="M6.9,48v-0.5l14.4-24.2c-0.9-2.1-1.7-4.1-2.5-5.9c-0.8-1.8-1.6-3.4-2.3-4.8c-0.7-1.4-1.5-2.7-2.2-3.9
		c-0.4-0.7-0.9-1.3-1.5-1.7c-0.5-0.4-1.3-0.6-2.4-0.6c-0.5,0-1,0-1.5,0s-1,0-1.5,0H7.1L6.9,0.4c0.3-0.1,0.6-0.1,1-0.2
		C8.3,0.1,8.7,0.1,9.2,0c0.4,0,0.8,0,1.2,0c0.9,0,1.8,0.1,2.6,0.2c0.8,0.2,1.5,0.6,2.2,1.2c0.7,0.6,1.4,1.6,2.1,3
		c0.6,1.2,1.3,2.4,1.9,3.7c0.6,1.3,1.3,2.8,2.1,4.7c0.8,1.8,1.8,4.1,3,6.9h0.4l1.4-3.5l8.4-15.7H41v0.5L27,24.8
		c0.9,2.1,1.7,4.1,2.5,5.9c0.8,1.8,1.5,3.5,2.2,4.9c0.7,1.5,1.4,2.7,2,3.7c0.5,0.8,1.1,1.4,1.6,1.7c0.5,0.3,1.3,0.5,2.2,0.5h3.5V42
		l-0.2,5.7c-0.4,0.1-0.9,0.2-1.5,0.2C38.7,48,38.2,48,37.8,48c-1.1,0-2-0.1-2.8-0.3c-0.8-0.2-1.5-0.7-2.3-1.4
		c-0.7-0.8-1.5-2-2.4-3.7c-0.6-1.2-1.2-2.5-1.7-3.7c-0.6-1.3-1.2-2.7-1.8-4.4c-0.7-1.6-1.5-3.6-2.4-5.8H24l-1.5,3.5L13.4,48H6.9z"/>
</g>
</svg>
