<?xml version="1.0" encoding="utf-8"?>
<!-- Generator: Adobe Illustrator 26.0.1, SVG Export Plug-In . SVG Version: 6.00 Build 0)  -->
<svg version="1.1" id="Layer_1" xmlns="http://www.w3.org/2000/svg" xmlns:xlink="http://www.w3.org/1999/xlink" x="0px" y="0px"
	 viewBox="0 0 48 48" style="enable-background:new 0 0 48 48;" xml:space="preserve">
<style type="text/css">
	.st0{fill:#4259C3;}
</style>
<g>
	<path class="st0" d="M24,48c-2.7,0-5.1-0.7-7-2c-1.9-1.3-3.5-3.1-4.7-5.4c-1.2-2.3-2.1-4.8-2.6-7.7c-0.6-2.9-0.8-5.9-0.8-8.9
		c0-3.2,0.3-6.3,0.9-9.1c0.6-2.9,1.5-5.4,2.7-7.7c1.2-2.2,2.8-4,4.7-5.3C19,0.6,21.3,0,24,0c2.8,0,5.1,0.7,7,2
		c1.9,1.3,3.5,3.1,4.7,5.4c1.2,2.3,2.1,4.8,2.6,7.7c0.6,2.9,0.8,5.8,0.8,9c0,3.1-0.3,6.1-0.9,9c-0.6,2.9-1.5,5.4-2.7,7.7
		c-1.2,2.3-2.8,4-4.7,5.3C29,47.3,26.7,48,24,48z M14.5,24.7v-3.2h19.1v3.2H14.5z M24,44.8c1.7,0,3.2-0.6,4.3-1.7
		c1.2-1.1,2.1-2.6,2.8-4.6c0.7-2,1.2-4.2,1.5-6.8c0.3-2.6,0.5-5.4,0.5-8.3c0-2.7-0.2-5.2-0.5-7.7c-0.3-2.4-0.8-4.6-1.5-6.5
		c-0.7-1.9-1.6-3.4-2.8-4.4c-1.2-1.1-2.6-1.6-4.3-1.6c-1.7,0-3.1,0.5-4.3,1.6c-1.2,1.1-2.1,2.5-2.8,4.4c-0.7,1.9-1.2,4-1.6,6.4
		c-0.3,2.4-0.5,5-0.5,7.8c0,2.9,0.1,5.7,0.4,8.3c0.3,2.6,0.8,4.9,1.5,6.9c0.7,2,1.6,3.5,2.8,4.7C20.8,44.3,22.2,44.8,24,44.8z"/>
</g>
</svg>
