<?xml version="1.0" encoding="utf-8"?>
<!-- Generator: Adobe Illustrator 26.0.1, SVG Export Plug-In . SVG Version: 6.00 Build 0)  -->
<svg version="1.1" id="Layer_1" xmlns="http://www.w3.org/2000/svg" xmlns:xlink="http://www.w3.org/1999/xlink" x="0px" y="0px"
	 viewBox="0 0 48 48" style="enable-background:new 0 0 48 48;" xml:space="preserve">
<style type="text/css">
	.st0{fill:#4259C3;}
</style>
<g>
	<path class="st0" d="M13.2,33.2V8.3c0-1.5-0.2-2.5-0.7-3.1C11.9,4.5,11,4.2,9.7,4.2H8.1V0.6c0.6-0.1,1.4-0.2,2.4-0.3
		c1-0.1,1.7-0.1,2.1-0.1c1.2,0,2.2,0.1,3,0.4c0.8,0.3,1.4,0.8,1.9,1.6c0.5,0.8,0.8,1.8,1,3.2H19c1.2-1.6,2.4-2.8,3.6-3.5
		c1.2-0.8,2.4-1.3,3.6-1.5C27.4,0.1,28.5,0,29.6,0c1.9,0,3.6,0.4,5.2,1.1c1.6,0.7,2.8,1.9,3.7,3.5c0.9,1.6,1.4,3.6,1.4,6.2V48h-6
		V13.5c0-1.9-0.2-3.5-0.5-4.8c-0.4-1.3-1-2.4-2-3.1c-1-0.7-2.5-1.1-4.4-1.1c-1.3,0-2.7,0.2-4.1,0.6c-1.5,0.4-2.7,1.2-3.6,2.4v25.5
		H13.2z"/>
</g>
</svg>
