<?xml version="1.0" encoding="utf-8"?>
<!-- Generator: Adobe Illustrator 26.0.1, SVG Export Plug-In . SVG Version: 6.00 Build 0)  -->
<svg version="1.1" id="Layer_1" xmlns="http://www.w3.org/2000/svg" xmlns:xlink="http://www.w3.org/1999/xlink" x="0px" y="0px"
	 viewBox="0 0 48 48" style="enable-background:new 0 0 48 48;" xml:space="preserve">
<style type="text/css">
	.st0{fill:#4259C3;}
</style>
<g>
	<path class="st0" d="M19.5,48v-1c0.4-1.9,0.7-3.5,1.1-5c0.3-1.4,0.6-2.9,0.8-4.2c0.2-1.4,0.3-2.8,0.3-4.4c0-1.4-0.2-3.1-0.7-5
		c-0.5-1.9-1.1-3.9-1.9-6c-0.8-2.1-1.7-4.2-2.6-6.2c-0.9-2-1.8-3.9-2.7-5.5c-0.9-1.6-1.7-3-2.3-3.9c-0.3-0.4-0.5-0.7-0.8-0.9
		c-0.3-0.2-0.6-0.4-1-0.6L5.6,3.8V1.7L14.5,0c1,1.6,2,3.4,3.1,5.4c1.1,2.1,2.2,4.2,3.2,6.5s2,4.6,2.9,7c0.9,2.3,1.6,4.6,2.1,6.7
		c1.8-5.6,3.4-10.5,5.1-14.9c1.6-4.3,2.9-7.7,3.9-10.2l7.5,0v1.1c-1.1,1.8-2.4,3.7-3.6,5.7c-1.3,2-2.6,4.2-3.9,6.7
		c-1.3,2.5-2.7,5.3-4,8.5c-1.3,3.2-2.7,6.9-3.9,11.1l0,14.3H19.5z"/>
</g>
</svg>
