<?xml version="1.0" encoding="utf-8"?>
<!-- Generator: Adobe Illustrator 26.0.1, SVG Export Plug-In . SVG Version: 6.00 Build 0)  -->
<svg version="1.1" id="Layer_1" xmlns="http://www.w3.org/2000/svg" xmlns:xlink="http://www.w3.org/1999/xlink" x="0px" y="0px"
	 viewBox="0 0 48 48" style="enable-background:new 0 0 48 48;" xml:space="preserve">
<style type="text/css">
	.st0{fill:#4259C3;}
</style>
<g>
	<path class="st0" d="M23.8,48c-4.4,0-8.3-1-11.6-2.9c-3.3-1.9-5.9-4.7-7.7-8.2C2.6,33.3,1.7,29,1.7,24.1c0-4.6,0.9-8.7,2.7-12.3
		c1.8-3.6,4.4-6.5,7.8-8.6c3.4-2.1,7.4-3.2,12-3.2c5,0,9.2,1.1,12.4,3.3c3.3,2.2,5.7,5.2,7.3,8.8c1.6,3.6,2.4,7.6,2.4,11.8
		c0,4.5-0.9,8.5-2.7,12.2c-1.8,3.6-4.4,6.5-7.8,8.7C32.4,46.9,28.4,48,23.8,48z M24.4,43.4c2.5,0,4.5-0.6,6.1-1.7
		c1.6-1.1,2.9-2.6,3.8-4.5c0.9-1.8,1.6-3.8,2-6c0.4-2.2,0.6-4.3,0.6-6.4c0-3.4-0.4-6.6-1.3-9.7c-0.9-3.1-2.3-5.6-4.3-7.6
		c-2-2-4.6-2.9-7.8-2.9c-2.4,0-4.5,0.6-6.1,1.7c-1.6,1.1-2.9,2.6-3.8,4.4c-0.9,1.8-1.6,3.8-2,6C11.2,18.9,11,21,11,23
		c0,2.3,0.2,4.6,0.7,7c0.4,2.4,1.2,4.6,2.2,6.6c1,2,2.4,3.6,4.1,4.9C19.7,42.7,21.8,43.4,24.4,43.4z"/>
</g>
</svg>
