<?xml version="1.0" encoding="utf-8"?>
<!-- Generator: Adobe Illustrator 26.0.1, SVG Export Plug-In . SVG Version: 6.00 Build 0)  -->
<svg version="1.1" id="Layer_1" xmlns="http://www.w3.org/2000/svg" xmlns:xlink="http://www.w3.org/1999/xlink" x="0px" y="0px"
	 viewBox="0 0 48 48" style="enable-background:new 0 0 48 48;" xml:space="preserve">
<style type="text/css">
	.st0{fill:#4259C3;}
</style>
<g>
	<path class="st0" d="M25,48c-3.9,0-7.3-0.5-10.4-1.4c-3.1-0.9-5.5-2.4-7.3-4.3c-1.8-2-2.7-4.5-2.7-7.7c0-1.9,0.5-3.5,1.5-5
		c1-1.4,2.3-2.7,3.8-3.6c1.5-1,3-1.7,4.6-2.3c1.6-0.5,2.9-0.8,4.1-0.9v-0.4c-3-0.5-5.5-1.4-7.2-2.6c-1.8-1.3-3.1-2.6-3.9-4.2
		c-0.8-1.5-1.2-3-1.2-4.3C6.3,9,7.1,7,8.8,5.3c1.6-1.7,3.8-3,6.4-3.9C17.9,0.5,20.8,0,23.9,0c2.5,0,4.6,0.1,6.5,0.4
		c1.9,0.3,3.6,0.7,5.3,1.2c1.6,0.5,3.4,1,5.1,1.6l-0.3,8.4h-1.8c-1-0.7-2.4-1.5-4-2.6c-1.7-1-3.5-2-5.4-2.8
		c-1.9-0.8-3.9-1.2-5.8-1.2c-2.6,0-4.6,0.5-5.9,1.6c-1.3,1-1.9,2.7-1.9,5.1c0,2.9,0.8,5,2.4,6.3c1.6,1.3,3.9,2,6.9,2h7.7v5.7h-8.3
		c-3.7,0-6.4,0.7-8,2.2c-1.7,1.4-2.5,3.5-2.5,6.1c0,1.9,0.6,3.4,1.9,4.5c1.2,1.1,2.8,1.9,4.8,2.4c2,0.5,4,0.7,6.2,0.7
		c2.2,0,4.3-0.3,6.2-1c1.9-0.6,3.7-1.4,5.3-2.3c1.6-0.9,2.9-1.8,3.9-2.6h1.2v5.2c-1.4,1.2-3.1,2.3-5,3.3c-1.9,1.1-3.9,1.9-6.1,2.6
		C30,47.7,27.6,48,25,48z"/>
</g>
</svg>
