<?xml version="1.0" encoding="utf-8"?>
<!-- Generator: Adobe Illustrator 26.0.1, SVG Export Plug-In . SVG Version: 6.00 Build 0)  -->
<svg version="1.1" id="Layer_1" xmlns="http://www.w3.org/2000/svg" xmlns:xlink="http://www.w3.org/1999/xlink" x="0px" y="0px"
	 viewBox="0 0 48 48" style="enable-background:new 0 0 48 48;" xml:space="preserve">
<style type="text/css">
	.st0{fill:#4259C3;}
</style>
<g>
	<path class="st0" d="M20.4,18.1l2.4,1c-1.3,0.8-2.6,1.8-3.7,3.1s-2,2.7-2.7,4.5c-0.7,1.7-1,3.8-1,6.1c0,3.6,0.8,6.5,2.4,8.7
		c1.6,2.2,3.8,3.3,6.6,3.3c2.1,0,3.7-0.6,5-1.8c1.2-1.2,2.1-2.8,2.7-4.7c0.6-1.9,0.8-4,0.8-6.1c0-2-0.3-3.7-1-5.1
		c-0.7-1.4-1.6-2.6-2.7-3.5c-1.1-1-2.4-1.8-3.7-2.5c-1.4-0.7-2.7-1.4-4.1-2c-1.5-0.7-3-1.5-4.3-2.3c-1.3-0.8-2.4-1.8-3.3-3
		c-0.8-1.2-1.3-2.7-1.3-4.5s0.6-3.4,1.7-4.7c1.1-1.4,2.6-2.5,4.4-3.2C20.4,0.4,22.3,0,24.4,0c1.7,0,3.1,0.1,4.4,0.3
		c1.3,0.2,2.4,0.5,3.5,0.8c1.1,0.3,2.2,0.7,3.3,1.1L35.4,8h-1.2c-0.7-0.5-1.7-1.1-2.9-1.9c-1.2-0.7-2.4-1.4-3.8-1.9S25,3.3,23.8,3.3
		c-1.6,0-2.9,0.4-4,1.3c-1.1,0.8-1.6,2-1.6,3.5c0,1.3,0.3,2.3,1,3.1c0.7,0.8,1.8,1.6,3.2,2.3c1.4,0.8,3.3,1.7,5.5,2.9
		c3.9,2,6.8,4.2,8.5,6.5c1.7,2.4,2.6,5.2,2.6,8.5c0,3-0.6,5.8-1.9,8.3c-1.3,2.5-3,4.5-5.3,6C29.6,47.3,27,48,24.1,48
		c-3,0-5.6-0.6-7.9-1.8c-2.3-1.2-4.1-2.9-5.4-5.1C9.6,38.8,9,36.2,9,33.2c0-3.3,1-6.3,2.9-8.8S16.6,19.7,20.4,18.1z"/>
</g>
</svg>
