<?xml version="1.0" encoding="utf-8"?>
<!-- Generator: Adobe Illustrator 26.0.1, SVG Export Plug-In . SVG Version: 6.00 Build 0)  -->
<svg version="1.1" id="Layer_1" xmlns="http://www.w3.org/2000/svg" xmlns:xlink="http://www.w3.org/1999/xlink" x="0px" y="0px"
	 viewBox="0 0 48 48" style="enable-background:new 0 0 48 48;" xml:space="preserve">
<style type="text/css">
	.st0{fill:#4259C3;}
</style>
<g>
	<path class="st0" d="M6.6,48v-0.4l0.2-20.5L6.8,0h6.1v19.8c0,1.9,0.2,3.5,0.5,4.9c0.4,1.4,1,2.4,2.1,3.1c1,0.7,2.5,1.1,4.5,1.1
		c1.3,0,2.8-0.2,4.3-0.7c1.5-0.4,2.8-1.3,3.7-2.5V0h6.1v23.1c0,0.7,0,1.3,0,2c0,0.7,0,1.3,0.1,1.7c0.1,0.7,0.4,1.3,0.8,1.8
		c0.4,0.5,1.2,0.7,2.4,0.7c0.4,0,0.9-0.1,1.4-0.2c0.5-0.1,1.1-0.3,1.5-0.5h1v2.7c-0.9,0.6-1.7,1-2.6,1.3c-0.8,0.3-1.6,0.6-2.4,0.7
		c-0.8,0.2-1.5,0.2-2.1,0.2c-1.8,0-3.2-0.5-4.2-1.5c-0.9-1-1.5-2.3-1.6-3.8h-0.4c-1.1,1.6-2.2,2.8-3.4,3.5c-1.2,0.7-2.4,1.2-3.6,1.4
		c-1.2,0.2-2.3,0.3-3.3,0.3c-0.9,0-2-0.1-3.1-0.4c-1.1-0.3-2.1-0.7-2.8-1.3h-0.3L13.1,47v1H6.6z"/>
</g>
</svg>
