<?xml version="1.0" encoding="utf-8"?>
<!-- Generator: Adobe Illustrator 26.0.1, SVG Export Plug-In . SVG Version: 6.00 Build 0)  -->
<svg version="1.1" id="Layer_1" xmlns="http://www.w3.org/2000/svg" xmlns:xlink="http://www.w3.org/1999/xlink" x="0px" y="0px"
	 viewBox="0 0 48 48" style="enable-background:new 0 0 48 48;" xml:space="preserve">
<style type="text/css">
	.st0{fill:#4259C3;}
</style>
<g>
	<path class="st0" d="M9.1,48V14.1c0-3.3,0.7-6,2.1-8.1c1.4-2.1,3.2-3.6,5.6-4.5c2.3-1,4.9-1.4,7.6-1.4c2.7,0,5.2,0.6,7.4,1.8
		C33.9,3,35.7,4.7,37,7c1.3,2.3,1.9,5.2,1.9,8.6c0,3.3-0.6,6.3-1.9,9c-1.3,2.7-3,4.9-5.3,6.5c-2.3,1.6-5.1,2.4-8.3,2.4
		c-1.9,0-3.5-0.3-4.9-1c-1.4-0.7-2.5-1.4-3.3-2.2V48H9.1z M22.5,29.7c2.2,0,4.1-0.6,5.6-1.7c1.5-1.1,2.6-2.7,3.3-4.7
		c0.7-2,1.1-4.2,1.1-6.7c0-1.3-0.1-2.7-0.3-4.3c-0.2-1.5-0.6-3-1.2-4.4c-0.6-1.4-1.4-2.5-2.6-3.4c-1.1-0.9-2.6-1.3-4.3-1.3
		c-1.6,0-3.1,0.4-4.4,1.1c-1.4,0.8-2.5,2.1-3.3,3.9c-0.8,1.8-1.2,4.3-1.2,7.5v12.3c0.6,0.4,1.3,0.7,2.2,0.9c0.9,0.2,1.8,0.4,2.8,0.5
		C21.1,29.7,21.8,29.7,22.5,29.7z"/>
</g>
</svg>
