<?xml version="1.0" encoding="utf-8"?>
<!-- Generator: Adobe Illustrator 26.0.1, SVG Export Plug-In . SVG Version: 6.00 Build 0)  -->
<svg version="1.1" id="Layer_1" xmlns="http://www.w3.org/2000/svg" xmlns:xlink="http://www.w3.org/1999/xlink" x="0px" y="0px"
	 viewBox="0 0 48 48" style="enable-background:new 0 0 48 48;" xml:space="preserve">
<style type="text/css">
	.st0{fill:#4259C3;}
</style>
<g>
	<path class="st0" d="M37.4,1.5c-1.1,1-1.9,2.3-2.3,4c-0.4,1.6-0.8,4.9-1.4,9.8c-0.6,6-1.4,10-2.5,12.1c-1.1,2.1-2.6,3.5-5,4.2V0
		h-4.4v31.5c-2.2-0.7-3.7-1.9-4.9-3.9c-1.2-1.9-2.1-6.4-2.8-13.3c-0.4-4.3-0.8-7.2-1.2-8.9c-0.4-1.6-1.2-3-2.4-4
		C9.4,0.5,7.9,0,6.1,0C5,0,3.8,0.2,2.5,0.5v1.3c0.3,0,0.5,0,0.7,0c1,0,1.8,0.6,2.5,1.8C6.4,4.8,7,7.6,7.5,12.2
		C8,16.8,8.6,20,9.2,21.8c0.6,1.8,1.5,3.6,2.7,5.3c1.2,1.7,2.7,3.1,4.3,4.1c1.6,1,3.3,1.7,5.6,2.1V48h4.4V33.4
		c2.2-0.4,3.8-1.1,5.4-2c1.6-0.9,3-2.2,4.4-4c1.3-1.8,2.3-3.6,2.9-5.4c0.6-1.8,1.1-4.9,1.6-9.2c0.5-4.9,1.1-7.9,1.8-9.1
		c0.7-1.2,1.6-1.8,2.6-1.8c0.2,0,0.4,0,0.7,0V0.5C44.2,0.2,43,0,41.9,0C40,0,38.5,0.5,37.4,1.5z"/>
</g>
</svg>
