<?xml version="1.0" encoding="utf-8"?>
<!-- Generator: Adobe Illustrator 26.0.1, SVG Export Plug-In . SVG Version: 6.00 Build 0)  -->
<svg version="1.1" id="Layer_1" xmlns="http://www.w3.org/2000/svg" xmlns:xlink="http://www.w3.org/1999/xlink" x="0px" y="0px"
	 viewBox="0 0 256 256" style="enable-background:new 0 0 256 256;" xml:space="preserve">
<style type="text/css">
	.st0{fill:#4259C3;}
</style>
<g id="A_communication_function_with_expected_communication">
	<g>
		<path class="st0" d="M78.68,82.38c8.21,0,16,0,24.26,0c-1.22,2.43-2.36,4.53-3.35,6.7c-0.57,1.25-1.65,0.98-2.57,1.04
			c-6.44,0.43-12.88,0.8-19.67,1.21c-1.54,8.87-3.02,17.83-4.67,26.76c-4.26,23.1-7.47,46.44-14.73,68.9
			c-5.41,16.73-14.37,31.06-28.96,41.37c-3.37,2.38-7.12,4.09-11.11,5.26c-4.3,1.26-8.41,0.62-12.33-1.22
			c-5.41-2.55-6.88-6.96-4.35-12.43c1.13-2.44,2.52-4.67,4.59-6.48c2.02-1.76,3.83-1.85,5.89-0.02c1.74,1.54,3.59,3.02,5.56,4.23
			c7.44,4.57,14.69,2.53,18.75-5.21c3.5-6.68,5.11-13.99,6.58-21.29c5.77-28.67,10.65-57.5,15.42-86.35
			c0.74-4.46,1.49-8.91,2.28-13.6c-6.26,0-12.14,0-18.01,0c-0.28-3.43,4.43-8.78,7.71-8.84c3.89-0.07,7.79-0.02,11.93-0.02
			c1.78-7.36,3.4-14.74,6.08-21.81c6.08-16.04,15.99-28.72,31.92-35.92c5.08-2.3,10.47-3.86,16.21-2.37
			c4.22,1.09,8.26,2.59,9.49,7.3c0.87,3.33-3.68,10.66-7.23,12.41c-1.81,0.89-3.17,0.13-4.49-1.1c-2.76-2.59-5.56-5.11-9.19-6.52
			c-6.3-2.43-10.79-0.99-14.16,4.81c-5.11,8.8-7.06,18.65-9.13,28.44C80.41,72.41,79.63,77.23,78.68,82.38z"/>
	</g>
	<g>
		<g>
			<g>
				<g>
					<polygon class="st0" points="204.6,184.67 188.85,184.67 188.85,180.17 200.1,180.17 200.1,168.92 204.6,168.92 					"/>
				</g>
			</g>
			<g>
				<g>
					<polygon class="st0" points="167.37,184.67 151.62,184.67 151.62,168.92 156.12,168.92 156.12,180.17 167.37,180.17 					"/>
				</g>
			</g>
			<g>
				<g>
					<rect x="151.62" y="135.37" class="st0" width="4.5" height="16.78"/>
				</g>
			</g>
			<g>
				<g>
					<polygon class="st0" points="156.12,118.6 151.62,118.6 151.62,102.85 167.37,102.85 167.37,107.35 156.12,107.35 					"/>
				</g>
			</g>
			<g>
				<g>
					<polygon class="st0" points="204.6,118.6 200.1,118.6 200.1,107.35 188.85,107.35 188.85,102.85 204.6,102.85 					"/>
				</g>
			</g>
			<g>
				<g>
					<rect x="200.1" y="135.37" class="st0" width="4.5" height="16.78"/>
				</g>
			</g>
		</g>
		<g>
			<g>
				<path class="st0" d="M146.64,76.72C124.5,92.59,111,120.16,111,151.06c0,16.99,4.04,33,12.81,47.62l-3.48,2.92
					c-13.09-13.92-20.47-33.97-20.47-52.35c0-34.11,19.49-62.23,44.55-76.3L146.64,76.72z"/>
			</g>
			<g>
				<path class="st0" d="M209.22,197.99c22.28-15.87,35.64-43.58,35.64-74.49c0-16.99-4.04-32.86-12.81-47.48l3.48-3.06
					C248.62,86.88,256,106.93,256,125.31c0,34.25-19.49,62.38-44.55,76.3L209.22,197.99z"/>
			</g>
		</g>
	</g>
</g>
</svg>
