<?xml version="1.0" encoding="utf-8"?>
<!-- Generator: Adobe Illustrator 26.0.1, SVG Export Plug-In . SVG Version: 6.00 Build 0)  -->
<svg version="1.1" id="Layer_1" xmlns="http://www.w3.org/2000/svg" xmlns:xlink="http://www.w3.org/1999/xlink" x="0px" y="0px"
	 viewBox="0 0 256 256" style="enable-background:new 0 0 256 256;" xml:space="preserve">
<style type="text/css">
	.st0{fill:#4259C3;}
</style>
<g>
	<g>
		<g>
			<g>
				<g>
					<polygon class="st0" points="224.18,157.34 214.43,157.34 214.43,154.55 221.39,154.55 221.39,147.59 224.18,147.59 					"/>
				</g>
			</g>
			<g>
				<g>
					<polygon class="st0" points="201.13,157.34 191.38,157.34 191.38,147.59 194.17,147.59 194.17,154.55 201.13,154.55 					"/>
				</g>
			</g>
			<g>
				<g>
					<rect x="191.38" y="126.82" class="st0" width="2.79" height="10.39"/>
				</g>
			</g>
			<g>
				<g>
					<polygon class="st0" points="194.17,116.43 191.38,116.43 191.38,106.68 201.13,106.68 201.13,109.47 194.17,109.47 					"/>
				</g>
			</g>
			<g>
				<g>
					<polygon class="st0" points="224.18,116.43 221.39,116.43 221.39,109.47 214.43,109.47 214.43,106.68 224.18,106.68 					"/>
				</g>
			</g>
			<g>
				<g>
					<rect x="221.39" y="126.82" class="st0" width="2.79" height="10.39"/>
				</g>
			</g>
		</g>
		<g>
			<g>
				<path class="st0" d="M188.29,90.5c-13.71,9.83-22.07,26.89-22.07,46.03c0,10.52,2.5,20.43,7.93,29.48l-2.16,1.81
					c-8.1-8.62-12.67-21.03-12.67-32.41c0-21.12,12.07-38.53,27.58-47.24L188.29,90.5z"/>
			</g>
			<g>
				<path class="st0" d="M227.04,165.58c13.79-9.83,22.07-26.98,22.07-46.12c0-10.52-2.5-20.34-7.93-29.39l2.15-1.9
					c8.1,8.62,12.67,21.03,12.67,32.41c0,21.2-12.07,38.62-27.58,47.24L227.04,165.58z"/>
			</g>
		</g>
	</g>
	<g>
		<g>
			<path class="st0" d="M39.81,94.4c4.26,0,8.25,0,11.53-0.09c-0.53,2.13-1.51,8.25-2.3,13.48l-2.75,0.09
				c-0.35-9.22-1.86-10.11-7.62-10.11h-8.78c-2.93,0-3.72,0.18-4.34,3.55l-3.72,19.06h9.13c7.27,0,7.63-1.06,10.11-7.27h2.66
				l-3.64,18.35h-2.66c0-6.83,0.27-7.71-7.27-7.71h-8.95l-3.1,15.78c-1.33,6.29-1.15,9.13,5.14,9.13h6.56
				c5.23,0,7.54-0.53,10.02-2.84c2.13-1.95,4.17-4.97,5.85-8.16l2.57,0.89c-0.89,2.48-3.9,10.73-5.05,13.48H0l0.62-2.48
				c7.8-0.8,8.51-1.06,9.84-8.16l7-36.26c1.33-6.83,0.89-7.62-6.83-8.24l0.53-2.48H39.81z"/>
		</g>
		<g>
			<path class="st0" d="M103.02,138.73c-1.15,3.55-4.08,10.37-5.59,12.77c-2.66,0.36-8.25,1.86-14.63,1.86
				c-15.25,0-26.24-9.4-26.24-25.62c0-20.92,16.31-34.58,36.17-34.58c7.45,0,12.24,1.24,15.43,2.13c-0.62,3.01-1.33,8.96-1.77,13.39
				l-2.75,0.18c-0.18-10.37-4.52-12.5-12.86-12.5c-15.16,0-25.71,14.72-25.71,31.3c0,13.39,6.56,22.43,18.44,22.43
				c8.69,0,12.77-5.14,17.11-12.5L103.02,138.73z"/>
		</g>
		<g>
			<path class="st0" d="M146.54,94.4c3.81,0,7.89,0,11.61,0c-0.71,3.01-1.68,8.69-2.3,13.56h-2.75c-0.09-1.69-0.27-3.99-0.71-6.21
				c-0.62-2.75-2.22-3.99-7-3.99h-9.84c-2.93,0-3.46,0.36-3.99,3.37l-3.81,20.13h10.46c7.36,0,7.71-0.98,10.46-7.18h2.66
				l-3.72,18.62h-2.57c-0.09-7.27-0.44-7.98-7.54-7.98h-10.37l-3.28,16.31c-1.33,7.27-0.89,7.89,7.54,8.51l-0.53,2.48h-24.12
				l0.62-2.48c7.18-0.62,7.71-1.15,9.22-8.6l6.83-35.29c1.51-7.71,0.8-8.07-6.74-8.78l0.62-2.48H146.54z"/>
		</g>
	</g>
</g>
</svg>
