<?xml version="1.0" encoding="utf-8"?>
<!-- Generator: Adobe Illustrator 26.0.1, SVG Export Plug-In . SVG Version: 6.00 Build 0)  -->
<svg version="1.1" id="Layer_1" xmlns="http://www.w3.org/2000/svg" xmlns:xlink="http://www.w3.org/1999/xlink" x="0px" y="0px"
	 viewBox="0 0 256 256" style="enable-background:new 0 0 256 256;" xml:space="preserve">
<style type="text/css">
	.st0{fill:#4259C3;}
</style>
<g>
	<g>
		<g>
			<path class="st0" d="M210.23,256h-55.1v-85.11h55.1V256z M159.81,251.32h45.74v-75.75h-45.74V251.32z"/>
		</g>
	</g>
	<g>
		<g>
			<path class="st0" d="M152.55,0c48.1,0,69.99,23.89,69.99,55.73c0,49.09-40.8,72.64-79.61,72.64c-2.99,0-9.29-0.67-13.27-1.66
				l-21.89-4.98l-9.95,53.74c-4.65,24.88-3.32,28.53,27.2,30.85l-1.66,9.29h-89.9l1.99-9.29c25.87-2.33,29.85-4.32,34.83-31.84
				l26.2-134.67c4.98-25.88,3.32-27.87-25.54-30.52L72.94,0H152.55z M110.09,110.79c4.64,1.33,15.26,4.31,27.2,4.31
				c23.88,0,55.4-14.26,55.4-59.37c0-28.2-15.26-44.78-42.13-44.78c-17.25,0-22.89,4.65-25.21,18.58L110.09,110.79z"/>
		</g>
	</g>
</g>
</svg>
