<?xml version="1.0" encoding="utf-8"?>
<!-- Generator: Adobe Illustrator 26.0.1, SVG Export Plug-In . SVG Version: 6.00 Build 0)  -->
<svg version="1.1" id="Layer_1" xmlns="http://www.w3.org/2000/svg" xmlns:xlink="http://www.w3.org/1999/xlink" x="0px" y="0px"
	 viewBox="0 0 256 256" style="enable-background:new 0 0 256 256;" xml:space="preserve">
<style type="text/css">
	.st0{fill:#4259C3;}
</style>
<g id="Negative_Communication_Function">
	<g>
		<path class="st0" d="M76.43,83.69c7.98,0,15.54,0,23.56,0c-1.19,2.36-2.29,4.4-3.25,6.51c-0.56,1.22-1.6,0.95-2.49,1.01
			c-6.25,0.42-12.51,0.78-19.11,1.18c-1.5,8.62-2.94,17.32-4.54,26c-4.14,22.44-7.26,45.11-14.31,66.92
			c-5.25,16.25-13.96,30.17-28.13,40.19c-3.28,2.32-6.92,3.97-10.8,5.11c-4.18,1.22-8.17,0.61-11.97-1.19
			c-5.25-2.48-6.68-6.76-4.23-12.08c1.1-2.37,2.45-4.54,4.46-6.29c1.96-1.71,3.72-1.79,5.72-0.02c1.69,1.5,3.48,2.93,5.4,4.11
			c7.23,4.44,14.27,2.45,18.21-5.06c3.4-6.49,4.96-13.59,6.39-20.68c5.6-27.85,10.34-55.85,14.98-83.87
			c0.72-4.33,1.45-8.65,2.22-13.21c-6.08,0-11.8,0-17.49,0c-0.28-3.33,4.31-8.53,7.49-8.59c3.78-0.07,7.57-0.02,11.59-0.02
			c1.73-7.15,3.31-14.31,5.91-21.18c5.9-15.58,15.53-27.89,31-34.9c4.94-2.23,10.17-3.74,15.75-2.3c4.09,1.06,8.02,2.52,9.22,7.09
			c0.85,3.23-3.57,10.35-7.02,12.05c-1.76,0.87-3.08,0.13-4.36-1.07c-2.69-2.51-5.4-4.97-8.93-6.33
			c-6.12-2.36-10.48-0.96-13.75,4.67c-4.96,8.55-6.85,18.12-8.87,27.62C78.11,74,77.35,78.69,76.43,83.69z"/>
	</g>
	<g>
		<path class="st0" d="M175.47,150.68c-5.93,7.81-10.97,15.73-16.84,23.04c-3.95,4.92-7.93,9.78-13.17,13.44
			c-2.36,1.65-4.96,2.63-7.8,2.56c-4.75-0.11-8.28-4-8.28-9.05c0-4.65,2.11-8.33,5.64-11.21c2.07-1.69,3.98-1.57,5.95,0.52
			c4.39,4.65,6.16,4.59,10.85-0.18c7.69-7.83,13.99-16.79,20.53-25.56c0.6-0.81,0.9-1.59,0.57-2.57c-2.98-8.88-5-18.1-8.94-26.66
			c-2.38-5.15-4.6-5.6-8.99-1.95c-3.01,2.51-5.34,5.67-7.76,8.48c-1.49-1.27-2.88-2.46-4.33-3.7c4.16-6.54,8.67-12.51,14.75-17.13
			c0.82-0.62,1.66-1.24,2.54-1.76c6.29-3.74,10.86-2.65,14.49,3.73c3.38,5.94,5.11,12.54,7.01,19.05c0.68,2.34,1.36,4.69,2.04,7.05
			c6.74-7.9,12.53-16.57,19.98-23.84c2.89-2.82,5.91-5.47,9.77-6.91c6.03-2.25,10.65-1.25,12.88,2.78c2.31,4.2,0.4,11.02-4.03,14.32
			c-2.89,2.16-4.06,2.06-6.63-0.56c-4.13-4.21-5.93-4.26-10.43-0.41c-7.29,6.24-12.49,14.25-18.37,21.69
			c-0.58,0.74-0.63,1.36-0.33,2.23c3.66,10.67,6.31,21.68,11.01,31.99c0.09,0.19,0.14,0.39,0.23,0.58
			c2.76,5.51,6.06,6.22,10.75,2.23c1.65-1.4,3.23-2.89,4.75-4.44c1.43-1.46,2.73-3.06,4.08-4.6c4.18,3.8,4.19,3.84,1.16,8.26
			c-4.36,6.37-9.74,11.7-16.19,15.94c-4.6,3.03-10.05,2.07-13.42-2.36c-3.49-4.59-5.52-9.88-7.27-15.29
			C179.58,163.96,177.6,157.47,175.47,150.68z"/>
	</g>
	<g>
		<g>
			<path class="st0" d="M219.71,89.63h-73.17c-1.49,0-2.71-1.21-2.71-2.71s1.21-2.71,2.71-2.71h73.17c1.49,0,2.71,1.21,2.71,2.71
				S221.2,89.63,219.71,89.63z"/>
		</g>
	</g>
	<g>
		<g>
			<g>
				<path class="st0" d="M175.47,150.68c-5.93,7.81-10.97,15.73-16.84,23.04c-3.95,4.92-7.93,9.78-13.17,13.44
					c-2.36,1.65-4.96,2.63-7.8,2.56c-4.75-0.11-8.28-4-8.28-9.05c0-4.65,2.11-8.33,5.64-11.21c2.07-1.69,3.98-1.57,5.95,0.52
					c4.39,4.65,6.16,4.59,10.85-0.18c7.69-7.83,13.99-16.79,20.53-25.56c0.6-0.81,0.9-1.59,0.57-2.57c-2.98-8.88-5-18.1-8.94-26.66
					c-2.38-5.15-4.6-5.6-8.99-1.95c-3.01,2.51-5.34,5.67-7.76,8.48c-1.49-1.27-2.88-2.46-4.33-3.7c4.16-6.54,8.67-12.51,14.75-17.13
					c0.82-0.62,1.66-1.24,2.54-1.76c6.29-3.74,10.86-2.65,14.49,3.73c3.38,5.94,5.11,12.54,7.01,19.05
					c0.68,2.34,1.36,4.69,2.04,7.05c6.74-7.9,12.53-16.57,19.98-23.84c2.89-2.82,5.91-5.47,9.77-6.91
					c6.03-2.25,10.65-1.25,12.88,2.78c2.31,4.2,0.4,11.02-4.03,14.32c-2.89,2.16-4.06,2.06-6.63-0.56
					c-4.13-4.21-5.93-4.26-10.43-0.41c-7.29,6.24-12.49,14.25-18.37,21.69c-0.58,0.74-0.63,1.36-0.33,2.23
					c3.66,10.67,6.31,21.68,11.01,31.99c0.09,0.19,0.14,0.39,0.23,0.58c2.76,5.51,6.06,6.22,10.75,2.23
					c1.65-1.4,3.23-2.89,4.75-4.44c1.43-1.46,2.73-3.06,4.08-4.6c4.18,3.8,4.19,3.84,1.16,8.26c-4.36,6.37-9.74,11.7-16.19,15.94
					c-4.6,3.03-10.05,2.07-13.42-2.36c-3.49-4.59-5.52-9.88-7.27-15.29C179.58,163.96,177.6,157.47,175.47,150.68z"/>
			</g>
			<g>
				<g>
					<g>
						<path class="st0" d="M219.71,89.63h-73.17c-1.49,0-2.71-1.21-2.71-2.71c0-1.5,1.21-2.71,2.71-2.71h73.17
							c1.49,0,2.71,1.21,2.71,2.71C222.41,88.42,221.2,89.63,219.71,89.63z"/>
					</g>
				</g>
			</g>
		</g>
		<g>
			<g>
				<path class="st0" d="M138.95,78.18c-21.5,15.42-34.62,42.2-34.62,72.22c0,16.5,3.92,32.05,12.44,46.25l-3.38,2.84
					c-12.71-13.52-19.88-33-19.88-50.85c0-33.14,18.93-60.45,43.28-74.11L138.95,78.18z"/>
			</g>
			<g>
				<path class="st0" d="M210.56,195.98c21.64-15.42,34.62-42.33,34.62-72.36c0-16.5-3.92-31.92-12.44-46.12l3.38-2.98
					c12.71,13.52,19.88,33,19.88,50.85c0,33.27-18.93,60.59-43.28,74.11L210.56,195.98z"/>
			</g>
		</g>
	</g>
</g>
</svg>
