<?xml version="1.0" encoding="utf-8"?>
<!-- Generator: Adobe Illustrator 26.0.1, SVG Export Plug-In . SVG Version: 6.00 Build 0)  -->
<svg version="1.1" id="Layer_1" xmlns="http://www.w3.org/2000/svg" xmlns:xlink="http://www.w3.org/1999/xlink" x="0px" y="0px"
	 viewBox="0 0 256 256" style="enable-background:new 0 0 256 256;" xml:space="preserve">
<style type="text/css">
	.st0{fill:#4259C3;}
</style>
<g id="Negative_Communication">
	<g>
		<g>
			<path class="st0" d="M119.01,165.08c-13.79,18.14-25.48,36.55-39.12,53.53c-9.18,11.43-18.42,22.73-30.6,31.22
				c-5.49,3.83-11.52,6.1-18.13,5.95c-11.03-0.25-19.24-9.3-19.23-21.02c0.01-10.79,4.9-19.36,13.1-26.05
				c4.81-3.92,9.24-3.64,13.82,1.21c10.2,10.8,14.32,10.67,25.21-0.42c17.87-18.2,32.51-39.01,47.69-59.38
				c1.4-1.87,2.09-3.69,1.32-5.98c-6.93-20.64-11.61-42.05-20.78-61.93c-5.52-11.97-10.69-13.02-20.88-4.52
				c-7,5.84-12.41,13.18-18.03,19.71c-3.47-2.96-6.69-5.71-10.07-8.59c9.67-15.2,20.15-29.06,34.27-39.8c1.9-1.45,3.85-2.87,5.9-4.1
				c14.61-8.7,25.24-6.16,33.66,8.66c7.84,13.81,11.87,29.14,16.29,44.27c1.59,5.44,3.15,10.89,4.74,16.38
				c15.67-18.34,29.1-38.5,46.43-55.38c6.71-6.54,13.73-12.71,22.71-16.06c14.01-5.23,24.74-2.91,29.92,6.46
				c5.38,9.75,0.92,25.59-9.36,33.28c-6.72,5.02-9.43,4.79-15.4-1.3c-9.59-9.78-13.77-9.9-24.22-0.95
				c-16.94,14.51-29.02,33.11-42.69,50.39c-1.35,1.71-1.45,3.16-0.76,5.17c8.5,24.78,14.66,50.37,25.57,74.33
				c0.2,0.44,0.32,0.91,0.53,1.34c6.41,12.81,14.08,14.44,24.97,5.17c3.83-3.26,7.51-6.71,11.03-10.31
				c3.32-3.4,6.34-7.11,9.49-10.68c9.71,8.83,9.74,8.93,2.71,19.2c-10.13,14.79-22.63,27.18-37.62,37.04
				c-10.69,7.04-23.35,4.82-31.17-5.48c-8.1-10.66-12.82-22.96-16.89-35.52C128.55,195.93,123.95,180.87,119.01,165.08z"/>
		</g>
	</g>
	<g>
		<g>
			<path class="st0" d="M239.52,9.09H38.29c-2.51,0-4.54-2.03-4.54-4.54S35.78,0,38.29,0h201.23c2.51,0,4.54,2.03,4.54,4.54
				S242.03,9.09,239.52,9.09z"/>
		</g>
	</g>
</g>
</svg>
