<?xml version="1.0" encoding="utf-8"?>
<!-- Generator: Adobe Illustrator 26.0.1, SVG Export Plug-In . SVG Version: 6.00 Build 0)  -->
<svg version="1.1" id="Layer_1" xmlns="http://www.w3.org/2000/svg" xmlns:xlink="http://www.w3.org/1999/xlink" x="0px" y="0px"
	 viewBox="0 0 256 256" style="enable-background:new 0 0 256 256;" xml:space="preserve">
<style type="text/css">
	.st0{fill:#4259C3;}
</style>
<g>
	<g>
		<g>
			<path class="st0" d="M190,0c-2.98,12.46-6.23,32.24-8.67,46.88l-8.4,0.54c0-4.33,0-10.29-1.08-14.9
				c-1.35-11.92-4.61-16.26-29.27-16.26h-16.53L100.58,149.3c-4.06,21.95-1.9,23.3,22.76,25.2l-1.63,7.59H47.2l1.9-7.59
				c23.03-1.9,24.93-3.52,28.99-25.2l25.47-133.04H87.3c-21.68,0-26.28,3.52-31.16,10.57c-3.79,4.88-8.13,11.92-12.19,20.86
				l-8.67-0.81C39.61,31.16,43.95,14.9,46.39,0h6.23c2.71,6.23,5.69,5.96,13.01,5.96h104.05c7.05,0,8.94-0.81,14.09-5.96H190z"/>
		</g>
	</g>
	<g>
		<g>
			<path class="st0" d="M216.46,147.94l1.02,1.36l-4.42,11.23h-39.14c-1.53,9.36-3.74,22.63-5.27,30.97
				c6.47-2.38,15.83-4.93,20.08-4.93c20.93,0,31.99,14.8,31.99,28.93c0,10.21-4.26,20.08-14.64,28.59
				c-9.36,7.49-21.1,11.91-30.12,11.91c-8,0-14.3-3.23-17.7-6.64c-2.38-2.21-3.06-3.58-2.72-5.79c0-1.53,1.36-4.08,3.57-5.79
				c1.53-1.02,3.06-1.36,4.77,0c4.94,4.42,10.89,9.36,21.44,9.36c14.3,0,21.1-12.25,21.1-25.02c0-14.98-9.02-25.7-27.91-25.7
				c-6.98,0-12.59,1.53-17.02,3.06l-0.51-0.68c2.55-13.27,6.3-37.27,8.17-50.88H216.46z"/>
		</g>
	</g>
</g>
</svg>
