<?xml version="1.0" encoding="utf-8"?>
<!-- Generator: Adobe Illustrator 26.0.1, SVG Export Plug-In . SVG Version: 6.00 Build 0)  -->
<svg version="1.1" id="Layer_1" xmlns="http://www.w3.org/2000/svg" xmlns:xlink="http://www.w3.org/1999/xlink" x="0px" y="0px"
	 viewBox="0 0 256 256" style="enable-background:new 0 0 256 256;" xml:space="preserve">
<style type="text/css">
	.st0{fill:#4259C3;}
</style>
<g>
	<g>
		<g>
			<path class="st0" d="M187.91,0c-2.99,12.49-6.24,32.31-8.69,46.97l-8.42,0.54c0-4.34,0-10.31-1.09-14.93
				c-1.36-11.95-4.62-16.29-29.32-16.29h-16.56L98.31,149.6c-4.07,21.99-1.9,23.35,22.81,25.25l-1.63,7.6H44.82l1.9-7.6
				c23.08-1.9,24.98-3.53,29.05-25.25L101.3,16.29H85.01c-21.72,0-26.34,3.53-31.22,10.59c-3.8,4.89-8.14,11.95-12.22,20.9
				l-8.69-0.81C37.22,31.23,41.57,14.93,44.01,0h6.24c2.72,6.25,5.7,5.97,13.03,5.97h104.26c7.06,0,8.96-0.82,14.12-5.97H187.91z"/>
		</g>
	</g>
	<g>
		<g>
			<path class="st0" d="M223.12,150.45c-16.37,34.61-32.23,69.06-48.77,104.35L162.08,256l-1.19-1.88
				c17.73-28.82,36.49-64.11,49.96-93.27h-36.49c-11.08,0-11.76,1.54-16.37,12.79h-5.28c1.7-9.55,2.39-18.07,3.24-25.41h66.16
				L223.12,150.45z"/>
		</g>
	</g>
</g>
</svg>
