<?xml version="1.0" encoding="utf-8"?>
<!-- Generator: Adobe Illustrator 26.0.1, SVG Export Plug-In . SVG Version: 6.00 Build 0)  -->
<svg version="1.1" id="Layer_1" xmlns="http://www.w3.org/2000/svg" xmlns:xlink="http://www.w3.org/1999/xlink" x="0px" y="0px"
	 viewBox="0 0 256 256" style="enable-background:new 0 0 256 256;" xml:space="preserve">
<style type="text/css">
	.st0{fill:#4259C3;}
</style>
<g>
	<g>
		<path class="st0" d="M236.76,0c-4.19,17.52-8.76,45.33-12.19,65.91l-11.81,0.76c0-6.09,0-14.47-1.52-20.95
			c-1.9-16.76-6.48-22.85-41.14-22.85h-23.24L111.05,209.9c-5.72,30.86-2.67,32.76,32,35.43L140.76,256H36l2.67-10.67
			c32.38-2.67,35.05-4.95,40.76-35.43l35.81-187.04H92.38c-30.48,0-36.95,4.95-43.81,14.86c-5.33,6.86-11.43,16.76-17.14,29.33
			l-12.19-1.14C25.33,43.81,31.43,20.95,34.86,0h8.76c3.81,8.76,8,8.38,18.28,8.38h146.28c9.91,0,12.57-1.14,19.81-8.38H236.76z"/>
	</g>
</g>
</svg>
