<?xml version="1.0" encoding="utf-8"?>
<!-- Generator: Adobe Illustrator 26.0.1, SVG Export Plug-In . SVG Version: 6.00 Build 0)  -->
<svg version="1.1" id="Layer_1" xmlns="http://www.w3.org/2000/svg" xmlns:xlink="http://www.w3.org/1999/xlink" x="0px" y="0px"
	 viewBox="0 0 256 256" style="enable-background:new 0 0 256 256;" xml:space="preserve">
<style type="text/css">
	.st0{fill:#4259C3;}
</style>
<g>
	<g>
		<g>
			<path class="st0" d="M256,251.9h-49.13v-75.88H256V251.9z M211.04,247.72h40.78v-67.54h-40.78V247.72z"/>
		</g>
	</g>
	<g>
		<g>
			<path class="st0" d="M180.79,196.4h-68.5l1.4-7.86c20.21-2.25,22.46-4.77,21.05-16.84c-1.4-11.51-3.65-25.55-6.18-41.83H69.62
				c-4.77,8.98-14.32,25.26-20.77,37.9c-8.7,16.56-4.49,18.53,17.13,20.77l-1.68,7.86H0l1.97-7.86
				c17.97-2.25,21.62-3.93,35.37-26.95l86.18-149.91l9.26-1.4c12.35,82.53,18.53,120.15,24.14,154.12
				c3.09,19.65,5.33,22.18,25.83,24.14L180.79,196.4z M116.22,45.65h-0.56c-14.32,26.11-28.63,51.65-40.14,72.99h51.37L116.22,45.65
				z"/>
		</g>
		<g>
			<path class="st0" d="M203.52,4.1c-6.46,23.58-18.53,53.62-26.39,66.53l-15.72,1.96c6.18-16.56,13.47-45.76,16.56-65.97
				L203.52,4.1z"/>
		</g>
	</g>
</g>
</svg>
