<?xml version="1.0" encoding="utf-8"?>
<!-- Generator: Adobe Illustrator 26.0.1, SVG Export Plug-In . SVG Version: 6.00 Build 0)  -->
<svg version="1.1" id="Layer_1" xmlns="http://www.w3.org/2000/svg" xmlns:xlink="http://www.w3.org/1999/xlink" x="0px" y="0px"
	 viewBox="0 0 256 256" style="enable-background:new 0 0 256 256;" xml:space="preserve">
<style type="text/css">
	.st0{fill:#4259C3;}
</style>
<g>
	<g>
		<g>
			<path class="st0" d="M192.64,0c-3.01,12.56-6.28,32.5-8.74,47.26l-8.47,0.54c0-4.37,0-10.38-1.09-15.02
				c-1.37-12.02-4.64-16.39-29.5-16.39h-16.66L102.51,150.5c-4.1,22.12-1.91,23.49,22.94,25.4l-1.64,7.65H48.7l1.91-7.65
				c23.22-1.91,25.13-3.55,29.23-25.4l25.68-134.11H89.12c-21.85,0-26.5,3.55-31.41,10.65c-3.82,4.92-8.19,12.02-12.29,21.03
				l-8.74-0.82C41.05,31.41,45.42,15.02,47.88,0h6.28c2.73,6.28,5.74,6.01,13.11,6.01h104.89c7.1,0,9.01-0.82,14.2-6.01H192.64z"/>
		</g>
	</g>
	<g>
		<g>
			<path class="st0" d="M164.77,256v-4.8c19.04-1.2,20.07-2.06,20.07-14.92V170.4c0-8.75-1.2-9.09-8.75-9.78l-8.41-0.86v-4.29
				c11.32-1.89,22.65-4.63,31.39-8.41v89.2c0,13.04,1.03,13.72,20.24,14.92v4.8H164.77z"/>
		</g>
	</g>
</g>
</svg>
