<?xml version="1.0" encoding="utf-8"?>
<!-- Generator: Adobe Illustrator 26.0.1, SVG Export Plug-In . SVG Version: 6.00 Build 0)  -->
<svg version="1.1" id="Layer_1" xmlns="http://www.w3.org/2000/svg" xmlns:xlink="http://www.w3.org/1999/xlink" x="0px" y="0px"
	 viewBox="0 0 256 256" style="enable-background:new 0 0 256 256;" xml:space="preserve">
<style type="text/css">
	.st0{fill:#4259C3;}
</style>
<g>
	<g>
		<path class="st0" d="M250.98,256h-94.21l1.93-10.81c27.8-3.09,30.89-6.56,28.96-23.17c-1.93-15.83-5.02-35.14-8.49-57.53H98.08
			c-6.56,12.35-19.69,34.75-28.57,52.13c-11.97,22.78-6.18,25.49,23.55,28.57L90.74,256H2.31l2.7-10.81
			c24.71-3.09,29.73-5.4,48.65-37.07L172.21,1.93L184.95,0c16.99,113.52,25.48,165.26,33.21,211.98
			c4.25,27.03,7.34,30.51,35.52,33.21L250.98,256z M162.17,48.65h-0.77c-19.69,35.91-39.39,71.05-55.22,100.39h70.66L162.17,48.65z"
			/>
	</g>
</g>
</svg>
