<?xml version="1.0" encoding="utf-8"?>
<!-- Generator: Adobe Illustrator 26.0.1, SVG Export Plug-In . SVG Version: 6.00 Build 0)  -->
<svg version="1.1" id="Layer_1" xmlns="http://www.w3.org/2000/svg" xmlns:xlink="http://www.w3.org/1999/xlink" x="0px" y="0px"
	 viewBox="0 0 256 256" style="enable-background:new 0 0 256 256;" xml:space="preserve">
<style type="text/css">
	.st0{fill:#4259C3;}
</style>
<g>
	<g>
		<g>
			<path class="st0" d="M189.49,0c-2.98,12.46-6.23,32.24-8.67,46.88l-8.4,0.54c0-4.33,0-10.29-1.08-14.9
				c-1.35-11.92-4.61-16.26-29.27-16.26h-16.53L100.07,149.3c-4.06,21.95-1.9,23.3,22.76,25.2l-1.63,7.59H46.69l1.9-7.59
				c23.03-1.9,24.93-3.52,28.99-25.2l25.47-133.04H86.79c-21.68,0-26.28,3.52-31.16,10.57c-3.79,4.88-8.13,11.92-12.19,20.86
				l-8.67-0.81C39.1,31.16,43.44,14.9,45.88,0h6.23c2.71,6.23,5.69,5.96,13.01,5.96h104.05c7.05,0,8.94-0.81,14.09-5.96H189.49z"/>
		</g>
	</g>
	<g>
		<g>
			<path class="st0" d="M189.07,145.9c16.34,0,27.74,11.4,27.74,25.18c0,5.11-1.53,10.04-4.77,13.78
				c-1.53,1.7-6.64,5.45-14.12,10.89c11.74,6.47,23.31,14.64,23.31,29.44c0,19.91-18.04,30.8-34.21,30.8
				c-18.89,0-32.84-10.89-32.84-28.08c0-8.68,3.74-13.44,7.83-16.85c2.72-2.38,9.36-6.81,15.32-10.55
				c-11.06-6.47-18.89-14.63-18.89-26.72C158.44,159,170.52,145.9,189.07,145.9z M189.07,250.21c11.4,0,18.38-7.49,18.38-19.91
				c0-13.61-11.4-20.25-25.19-26.89c-9.19,5.28-14.3,13.27-14.3,23.31C167.96,242.39,177.83,250.21,189.07,250.21z M186.85,151.51
				c-10.21,0-15.49,8-15.49,17.53c0,12.42,8.34,17.02,21.61,23.99c6.64-5.11,11.23-11.06,11.23-21.1
				C204.21,157.64,195.7,151.51,186.85,151.51z"/>
		</g>
	</g>
</g>
</svg>
