<?xml version="1.0" encoding="utf-8"?>
<!-- Generator: Adobe Illustrator 26.0.1, SVG Export Plug-In . SVG Version: 6.00 Build 0)  -->
<svg version="1.1" id="Layer_1" xmlns="http://www.w3.org/2000/svg" xmlns:xlink="http://www.w3.org/1999/xlink" x="0px" y="0px"
	 viewBox="0 0 256 256" style="enable-background:new 0 0 256 256;" xml:space="preserve">
<style type="text/css">
	.st0{fill:#4259C3;}
</style>
<g>
	<g>
		<g>
			<path class="st0" d="M190.51,0c-2.98,12.46-6.23,32.24-8.67,46.88l-8.4,0.54c0-4.33,0-10.29-1.08-14.9
				c-1.36-11.92-4.61-16.26-29.27-16.26h-16.53L101.09,149.3c-4.07,21.95-1.9,23.3,22.76,25.2l-1.63,7.59H47.71l1.9-7.59
				c23.03-1.9,24.93-3.52,28.99-25.2l25.47-133.04H87.82c-21.68,0-26.28,3.52-31.16,10.57c-3.79,4.88-8.13,11.92-12.19,20.86
				l-8.67-0.81C40.13,31.16,44.46,14.9,46.9,0h6.23c2.71,6.23,5.69,5.96,13.01,5.96h104.05c7.05,0,8.94-0.81,14.09-5.96H190.51z"/>
		</g>
	</g>
	<g>
		<g>
			<path class="st0" d="M156.73,166.32l8-10.72c4.94-5.45,12.76-9.7,21.95-9.7c15.49,0,25.7,9.7,25.7,22.63
				c0,5.11-2.21,9.19-5.28,12.59c-2.72,2.89-7.15,5.95-12.08,9.19c15.83,3.4,25.18,13.78,25.18,26.21
				c0,27.74-32.67,39.48-44.75,39.48c-8,0-15.32-3.4-17.7-5.95c-2.04-2.21-2.55-3.74-2.55-5.62c0.17-2.72,2.38-5.27,3.92-6.47
				c1.36-1.02,2.89-1.19,4.42,0.17c4.6,4.08,11.4,9.02,21.1,9.02c12.25,0,20.93-9.19,20.93-25.7
				c-0.17-15.66-11.57-21.78-22.46-21.78c-3.92,0-8.68,1.02-11.4,1.87l-1.19-5.11c15.15-4.93,27.4-11.74,27.4-24.34
				c0-10.04-6.47-15.83-16.34-15.83c-9.53,0-16.85,6.98-21.27,13.44L156.73,166.32z"/>
		</g>
	</g>
</g>
</svg>
