<?xml version="1.0" encoding="utf-8"?>
<!-- Generator: Adobe Illustrator 26.0.1, SVG Export Plug-In . SVG Version: 6.00 Build 0)  -->
<svg version="1.1" id="Layer_1" xmlns="http://www.w3.org/2000/svg" xmlns:xlink="http://www.w3.org/1999/xlink" x="0px" y="0px"
	 viewBox="0 0 256 256" style="enable-background:new 0 0 256 256;" xml:space="preserve">
<style type="text/css">
	.st0{fill:#4259C3;}
</style>
<g>
	<g>
		<g>
			<path class="st0" d="M189.13,0c-3.01,12.56-6.28,32.5-8.74,47.26l-8.47,0.54c0-4.37,0-10.38-1.09-15.02
				c-1.37-12.02-4.64-16.39-29.5-16.39h-16.66L98.99,150.5c-4.1,22.12-1.91,23.49,22.94,25.4l-1.64,7.65H45.18l1.91-7.65
				c23.22-1.91,25.13-3.55,29.23-25.4l25.68-134.11H85.61c-21.85,0-26.5,3.55-31.41,10.65C50.37,31.96,46,39.06,41.9,48.07
				l-8.74-0.82C37.53,31.41,41.9,15.02,44.36,0h6.28c2.73,6.28,5.74,6.01,13.11,6.01h104.89c7.1,0,9.01-0.82,14.2-6.01H189.13z"/>
		</g>
	</g>
	<g>
		<g>
			<path class="st0" d="M222.84,233.18c-2.23,7.72-5.15,16.47-6.86,22.82h-64.67v-4.12c9.43-9.26,19.73-19.38,28.13-29.16
				c10.81-12.69,21.1-26.42,21.1-41.34c0-14.24-7.55-22.47-20.07-22.47c-11.84,0-19.21,9.26-23.67,15.95l-3.95-3.6l9.78-13.89
				c5.32-6,13.55-10.29,23.5-10.29c16.3,0,29.16,11.15,29.16,29.68c0,14.58-5.32,24.87-21.61,41.51
				c-7.38,7.72-18.18,18.18-25.56,25.22c1.03,0,31.22,0,32.76,0c9.26,0,11.84-0.86,17.67-11.66L222.84,233.18z"/>
		</g>
	</g>
</g>
</svg>
