<?xml version="1.0" encoding="utf-8"?>
<!-- Generator: Adobe Illustrator 26.0.1, SVG Export Plug-In . SVG Version: 6.00 Build 0)  -->
<svg version="1.1" id="Layer_1" xmlns="http://www.w3.org/2000/svg" xmlns:xlink="http://www.w3.org/1999/xlink" x="0px" y="0px"
	 viewBox="0 0 256 256" style="enable-background:new 0 0 256 256;" xml:space="preserve">
<style type="text/css">
	.st0{fill:#4259C3;}
</style>
<g>
	<g>
		<g>
			<path class="st0" d="M146.33,6.94c-2.82,11.79-5.89,30.5-8.2,44.34l-7.94,0.51c0-4.1,0-9.73-1.02-14.09
				c-1.28-11.27-4.36-15.37-27.68-15.37H85.85L61.76,148.15c-3.84,20.76-1.79,22.04,21.53,23.83l-1.54,7.18H11.27l1.79-7.18
				c21.78-1.79,23.58-3.33,27.42-23.83L64.58,22.32H49.2c-20.5,0-24.86,3.33-29.47,10c-3.59,4.61-7.69,11.27-11.53,19.73L0,51.28
				C4.1,36.42,8.2,21.04,10.51,6.94h5.89c2.56,5.9,5.38,5.64,12.3,5.64h98.41c6.66,0,8.46-0.77,13.33-5.64H146.33z"/>
		</g>
	</g>
	<g>
		<g>
			<path class="st0" d="M120.18,247.13v-4.51c17.86-1.13,18.83-1.93,18.83-14v-61.8c0-8.21-1.13-8.53-8.21-9.17l-7.89-0.81v-4.02
				c10.62-1.77,21.25-4.35,29.45-7.89v83.69c0,12.23,0.97,12.87,18.99,14v4.51H120.18z"/>
		</g>
		<g>
			<path class="st0" d="M222.85,144.93c24.14,0,33.15,27.04,33.15,51.98c0,23.5-9.01,52.15-33.15,52.15
				c-24.63,0-33.64-26.55-33.64-51.98C189.21,173.57,198.38,144.93,222.85,144.93z M222.85,150.56c-14.97,0-18.67,23.66-18.67,46.19
				c0,22.53,4.51,46.67,18.67,46.67c14.48,0,18.35-23.98,18.35-46.51C241.19,174.22,237.17,150.56,222.85,150.56z"/>
		</g>
	</g>
</g>
</svg>
