<?xml version="1.0" encoding="utf-8"?>
<!-- Generator: Adobe Illustrator 26.0.1, SVG Export Plug-In . SVG Version: 6.00 Build 0)  -->
<svg version="1.1" id="Layer_1" xmlns="http://www.w3.org/2000/svg" xmlns:xlink="http://www.w3.org/1999/xlink" x="0px" y="0px"
	 viewBox="0 0 256 256" style="enable-background:new 0 0 256 256;" xml:space="preserve">
<style type="text/css">
	.st0{fill:#4259C3;}
</style>
<g>
	<g>
		<g>
			<path class="st0" d="M256,240.03h-35.52v-54.87H256V240.03z M223.49,237.01h29.49v-48.84h-29.49V237.01z"/>
		</g>
	</g>
	<g>
		<g>
			<path class="st0" d="M130.73,155.02H81.2l1.02-5.68c14.62-1.62,16.24-3.45,15.22-12.18c-1.02-8.32-2.64-18.47-4.47-30.25H50.34
				c-3.45,6.49-10.35,18.27-15.02,27.4c-6.29,11.98-3.25,13.4,12.38,15.02l-1.22,5.68H0l1.42-5.68
				c12.99-1.62,15.63-2.84,25.58-19.49l62.32-108.4l6.7-1.01c8.93,59.68,13.4,86.88,17.46,111.44c2.23,14.21,3.86,16.04,18.68,17.46
				L130.73,155.02z M84.04,46.01h-0.41C73.28,64.89,62.93,83.36,54.6,98.79h37.15L84.04,46.01z"/>
		</g>
		<g>
			<path class="st0" d="M147.16,15.97c-4.67,17.05-13.4,38.77-19.08,48.11l-11.37,1.42c4.47-11.97,9.74-33.09,11.98-47.7
				L147.16,15.97z"/>
		</g>
	</g>
	<g>
		<g>
			<path class="st0" d="M209.35,157.35c-2.55,0.25-9.05,0.77-12.88,0.77c-5.74,26.52-7.52,34.68-8.16,38.5
				c-0.64,3.95,0.13,5.1,1.27,5.1c2.55,0,6.76-3.31,11.47-8.03l1.66,3.19c-4.08,6.25-14.02,13.51-19.5,13.51
				c-4.46,0-6.63-3.44-3.31-18.48l7.39-33.78h-10.2v-1.15l3.7-4.08h7.65l2.93-13.64c2.04-1.15,7.39-4.59,10.07-7.01l1.15,0.64
				c-1.53,5.1-3.57,13.39-4.97,20.02h14.15L209.35,157.35z"/>
		</g>
	</g>
	<g>
		<g>
			<rect x="155.16" y="31.65" class="st0" width="9.05" height="163.49"/>
		</g>
	</g>
</g>
</svg>
