<?xml version="1.0" encoding="utf-8"?>
<!-- Generator: Adobe Illustrator 26.0.1, SVG Export Plug-In . SVG Version: 6.00 Build 0)  -->
<svg version="1.1" id="Layer_1" xmlns="http://www.w3.org/2000/svg" xmlns:xlink="http://www.w3.org/1999/xlink" x="0px" y="0px"
	 viewBox="0 0 256 256" style="enable-background:new 0 0 256 256;" xml:space="preserve">
<style type="text/css">
	.st0{fill:#4259C3;}
</style>
<g>
	<g>
		<path class="st0" d="M227.41,248.94h-86.16l1.77-9.89c25.42-2.82,28.25-6,26.48-21.19c-1.77-14.48-4.59-32.13-7.77-52.62H87.58
			c-6,11.3-18.01,31.78-26.13,47.67c-10.95,20.84-5.65,23.31,21.54,26.13l-2.12,9.89H0l2.47-9.89c22.6-2.82,27.19-4.94,44.49-33.9
			L155.37,16.59l11.65-1.76c15.54,103.81,23.3,151.14,30.37,193.86c3.88,24.72,6.71,27.9,32.49,30.37L227.41,248.94z M146.19,59.32
			h-0.71c-18.01,32.84-36.02,64.98-50.5,91.81h64.62L146.19,59.32z"/>
	</g>
	<g>
		<path class="st0" d="M256,7.06c-8.12,29.66-23.31,67.45-33.19,83.69l-19.77,2.47c7.77-20.83,16.95-57.56,20.83-82.98L256,7.06z"/>
	</g>
</g>
</svg>
