<?xml version="1.0" encoding="utf-8"?>
<!-- Generator: Adobe Illustrator 26.0.1, SVG Export Plug-In . SVG Version: 6.00 Build 0)  -->
<svg version="1.1" id="Layer_1" xmlns="http://www.w3.org/2000/svg" xmlns:xlink="http://www.w3.org/1999/xlink" x="0px" y="0px"
	 viewBox="0 0 256 256" style="enable-background:new 0 0 256 256;" xml:space="preserve">
<style type="text/css">
	.st0{fill:#4259C3;}
</style>
<g>
	<g>
		<g>
			<path class="st0" d="M188.55,0c-2.98,12.46-6.23,32.24-8.67,46.88l-8.4,0.54c0-4.33,0-10.29-1.08-14.9
				c-1.35-11.92-4.61-16.26-29.27-16.26h-16.53L99.14,149.3c-4.06,21.95-1.9,23.3,22.76,25.2l-1.63,7.59H45.76l1.9-7.59
				c23.03-1.9,24.93-3.52,28.99-25.2l25.47-133.04H85.86c-21.68,0-26.28,3.52-31.16,10.57c-3.79,4.88-8.13,11.92-12.19,20.86
				l-8.67-0.81C38.17,31.16,42.5,14.9,44.94,0h6.23c2.71,6.23,5.69,5.96,13.01,5.96h104.05c7.05,0,8.94-0.81,14.09-5.96H188.55z"/>
		</g>
	</g>
	<g>
		<g>
			<path class="st0" d="M180.81,189.8c3.58-1.87,7.49-2.89,10.89-2.89c18.04,0,30.46,14.12,30.46,31.48
				c0,20.42-14.64,37.61-35.06,37.61c-20.08,0-35.4-16.51-35.4-42.54c0-35.06,26.72-57.18,47.14-64.16
				c3.74-1.36,12.25-3.23,19.23-4.42l1.02,5.62c-5.45,1.19-13.44,3.4-18.55,5.79c-10.38,4.77-26.55,16-31.14,39.31L180.81,189.8z
				 M184.9,196.61c-6.81,0-12.59,2.55-16.51,4.77c-0.68,3.06-1.02,7.32-1.02,11.57c0,21.27,8,36.93,22.46,36.93
				c13.27,0,17.36-13.95,17.36-25.36C207.19,210.39,200.38,196.61,184.9,196.61z"/>
		</g>
	</g>
</g>
</svg>
