<?xml version="1.0" encoding="utf-8"?>
<!-- Generator: Adobe Illustrator 26.0.1, SVG Export Plug-In . SVG Version: 6.00 Build 0)  -->
<svg version="1.1" id="Layer_1" xmlns="http://www.w3.org/2000/svg" xmlns:xlink="http://www.w3.org/1999/xlink" x="0px" y="0px"
	 viewBox="0 0 256 256" style="enable-background:new 0 0 256 256;" xml:space="preserve">
<style type="text/css">
	.st0{fill:#4259C3;}
</style>
<g>
	<g>
		<g>
			<path class="st0" d="M180.2,218.69h-67.8l1.39-7.78c20.01-2.22,22.23-4.72,20.84-16.67c-1.39-11.4-3.61-25.29-6.11-41.41H70.15
				c-4.72,8.89-14.17,25.01-20.56,37.51c-8.61,16.4-4.45,18.34,16.95,20.56l-1.67,7.78H1.23l1.95-7.78
				c17.79-2.22,21.4-3.89,35.01-26.68l85.31-148.4l9.17-1.39c12.23,81.7,18.34,118.94,23.9,152.56c3.06,19.46,5.28,21.96,25.57,23.9
				L180.2,218.69z M116.28,69.47h-0.56c-14.17,25.84-28.35,51.13-39.74,72.25h50.85L116.28,69.47z"/>
		</g>
	</g>
	<g>
		<g>
			<g>
				<polygon class="st0" points="254.77,256 240.41,256 240.41,251.9 250.66,251.9 250.66,241.64 254.77,241.64 				"/>
			</g>
		</g>
		<g>
			<g>
				<polygon class="st0" points="220.82,256 206.46,256 206.46,241.64 210.56,241.64 210.56,251.9 220.82,251.9 				"/>
			</g>
		</g>
		<g>
			<g>
				<rect x="206.46" y="211.05" class="st0" width="4.1" height="15.3"/>
			</g>
		</g>
		<g>
			<g>
				<polygon class="st0" points="210.56,195.75 206.46,195.75 206.46,181.39 220.82,181.39 220.82,185.49 210.56,185.49 				"/>
			</g>
		</g>
		<g>
			<g>
				<polygon class="st0" points="254.77,195.75 250.66,195.75 250.66,185.49 240.41,185.49 240.41,181.39 254.77,181.39 				"/>
			</g>
		</g>
		<g>
			<g>
				<rect x="250.66" y="211.05" class="st0" width="4.1" height="15.3"/>
			</g>
		</g>
	</g>
	<g>
		<path class="st0" d="M97.04,23.78C105.5,15,115.27,8.22,125.5,1.85c8.87-5.35,15.37,1.99,20.65,8.39
			c14.61,17.28,13.92,18.2-4.4,4.71c-3.81-2-7.22-8.51-12-6.05C119.32,14.96,108.76,20.41,97.04,23.78L97.04,23.78z"/>
	</g>
</g>
</svg>
