<?xml version="1.0" encoding="utf-8"?>
<!-- Generator: Adobe Illustrator 26.0.1, SVG Export Plug-In . SVG Version: 6.00 Build 0)  -->
<svg version="1.1" id="Layer_1" xmlns="http://www.w3.org/2000/svg" xmlns:xlink="http://www.w3.org/1999/xlink" x="0px" y="0px"
	 viewBox="0 0 256 256" style="enable-background:new 0 0 256 256;" xml:space="preserve">
<style type="text/css">
	.st0{fill:#4259C3;}
</style>
<g>
	<g>
		<g>
			<path class="st0" d="M180.2,218.69h-67.8l1.39-7.78c20.01-2.22,22.23-4.72,20.84-16.67c-1.39-11.4-3.61-25.29-6.11-41.41H70.15
				c-4.72,8.89-14.17,25.01-20.56,37.51c-8.61,16.4-4.45,18.34,16.95,20.56l-1.67,7.78H1.23l1.95-7.78
				c17.79-2.22,21.4-3.89,35.01-26.68l85.31-148.4l9.17-1.39c12.23,81.7,18.34,118.94,23.9,152.56c3.06,19.46,5.28,21.96,25.57,23.9
				L180.2,218.69z M116.28,69.47h-0.56c-14.17,25.84-28.35,51.13-39.74,72.25h50.85L116.28,69.47z"/>
		</g>
	</g>
	<g>
		<path class="st0" d="M244.62,181.39h-4.22h-33.94v29.66v15.3v15.3v7.18V256h11.33h3.03h33.94v-7.18v-7.18v-15.3v-15.3v-29.66
			H244.62z M250.66,226.34v15.3v7.18v3.08h-29.84h-3.03h-7.23v-3.08v-7.18v-15.3v-15.3v-25.55h29.84h4.22h6.04v25.55V226.34z"/>
	</g>
</g>
</svg>
