<?xml version="1.0" encoding="utf-8"?>
<!-- Generator: Adobe Illustrator 26.0.1, SVG Export Plug-In . SVG Version: 6.00 Build 0)  -->
<svg version="1.1" id="Layer_1" xmlns="http://www.w3.org/2000/svg" xmlns:xlink="http://www.w3.org/1999/xlink" x="0px" y="0px"
	 viewBox="0 0 256 256" style="enable-background:new 0 0 256 256;" xml:space="preserve">
<style type="text/css">
	.st0{fill:#4259C3;}
</style>
<g>
	<g>
		<g>
			<path class="st0" d="M231.6,256h-79.37l1.62-9.11c23.42-2.6,26.02-5.53,24.39-19.52c-1.62-13.34-4.23-29.6-7.15-48.47h-68.31
				c-5.53,10.41-16.59,29.28-24.07,43.91c-10.09,19.19-5.2,21.47,19.84,24.07L96.61,256H22.12l2.28-9.11
				c20.81-2.6,25.05-4.55,40.99-31.23l99.86-173.71l10.73-1.62c14.32,95.63,21.47,139.23,27.98,178.58
				c3.57,22.77,6.18,25.7,29.93,27.98L231.6,256z M156.79,81.32h-0.65c-16.59,30.25-33.18,59.86-46.52,84.57h59.53L156.79,81.32z"/>
		</g>
	</g>
	<g>
		<path class="st0" d="M134.26,27.83c9.91-10.28,21.34-18.21,33.31-25.67c10.38-6.26,17.99,2.33,24.18,9.83
			c17.1,20.23,16.3,21.31-5.15,5.51c-4.46-2.34-8.45-9.96-14.05-7.08C160.35,17.51,147.98,23.89,134.26,27.83L134.26,27.83z"/>
	</g>
</g>
</svg>
