<?xml version="1.0" encoding="utf-8"?>
<!-- Generator: Adobe Illustrator 26.0.1, SVG Export Plug-In . SVG Version: 6.00 Build 0)  -->
<svg version="1.1" id="Layer_1" xmlns="http://www.w3.org/2000/svg" xmlns:xlink="http://www.w3.org/1999/xlink" x="0px" y="0px"
	 viewBox="0 0 256 256" style="enable-background:new 0 0 256 256;" xml:space="preserve">
<style type="text/css">
	.st0{fill:#4259C3;}
</style>
<g>
	<g>
		<g>
			<path class="st0" d="M231.52,9.67H90.15c-2.24,0-4.06-2.16-4.06-4.84S87.91,0,90.15,0h141.38c2.24,0,4.06,2.16,4.06,4.84
				S233.76,9.67,231.52,9.67z"/>
		</g>
	</g>
	<g>
		<g>
			<path class="st0" d="M229.91,256h-79.37l1.63-9.11c23.42-2.6,26.02-5.53,24.4-19.52c-1.63-13.34-4.23-29.6-7.16-48.47H101.1
				c-5.53,10.41-16.59,29.28-24.07,43.91c-10.08,19.19-5.2,21.47,19.84,24.07L94.92,256H20.42l2.28-9.11
				c20.82-2.6,25.05-4.55,40.99-31.23l99.87-173.71l10.74-1.62c14.31,95.63,21.47,139.23,27.98,178.58
				c3.58,22.77,6.18,25.7,29.93,27.98L229.91,256z M155.1,81.32h-0.65c-16.59,30.25-33.18,59.86-46.52,84.57h59.53L155.1,81.32z"/>
		</g>
	</g>
	<g>
		<g>
			<path class="st0" d="M231.27,256H151.9l1.63-9.11c23.42-2.6,26.02-5.53,24.39-19.52c-1.62-13.34-4.23-29.6-7.15-48.47h-68.31
				c-5.53,10.41-16.59,29.28-24.07,43.91c-10.09,19.19-5.2,21.47,19.84,24.07L96.27,256H21.78l2.28-9.11
				c20.82-2.6,25.05-4.55,40.99-31.23l99.87-173.71l10.73-1.62c14.31,95.63,21.47,139.23,27.98,178.58
				c3.57,22.77,6.18,25.7,29.93,27.98L231.27,256z M156.45,81.32h-0.65c-16.59,30.25-33.18,59.86-46.52,84.57h59.53L156.45,81.32z"
				/>
		</g>
	</g>
</g>
</svg>
