<?xml version="1.0" encoding="utf-8"?>
<!-- Generator: Adobe Illustrator 26.0.1, SVG Export Plug-In . SVG Version: 6.00 Build 0)  -->
<svg version="1.1" id="Layer_1" xmlns="http://www.w3.org/2000/svg" xmlns:xlink="http://www.w3.org/1999/xlink" x="0px" y="0px"
	 viewBox="0 0 256 256" style="enable-background:new 0 0 256 256;" xml:space="preserve">
<style type="text/css">
	.st0{fill:#4259C3;}
</style>
<g>
	<g>
		<path class="st0" d="M39.9,94.32c4.27,0,8.26,0,11.55-0.09c-0.53,2.13-1.51,8.27-2.31,13.51l-2.76,0.09
			c-0.36-9.24-1.87-10.13-7.64-10.13h-8.8c-2.93,0-3.73,0.18-4.35,3.56l-3.73,19.11h9.15c7.29,0,7.64-1.07,10.13-7.29h2.67
			l-3.64,18.39H37.5c0-6.84,0.27-7.73-7.29-7.73h-8.98l-3.11,15.82c-1.33,6.31-1.16,9.15,5.15,9.15h6.58
			c5.24,0,7.55-0.53,10.04-2.84c2.13-1.95,4.18-4.98,5.86-8.18l2.58,0.89c-0.89,2.49-3.91,10.75-5.07,13.51H0l0.62-2.49
			c7.82-0.8,8.53-1.07,9.86-8.18l7.02-36.35c1.33-6.84,0.89-7.64-6.84-8.26l0.53-2.49H39.9z"/>
	</g>
	<g>
		<path class="st0" d="M103.26,138.75c-1.16,3.56-4.09,10.4-5.6,12.8c-2.67,0.36-8.26,1.87-14.66,1.87
			c-15.29,0-26.31-9.42-26.31-25.68c0-20.97,16.35-34.66,36.26-34.66c7.47,0,12.26,1.24,15.46,2.13c-0.62,3.02-1.33,8.98-1.78,13.42
			l-2.75,0.18c-0.18-10.4-4.53-12.53-12.89-12.53c-15.2,0-25.77,14.75-25.77,31.37c0,13.42,6.58,22.48,18.48,22.48
			c8.71,0,12.8-5.15,17.15-12.53L103.26,138.75z"/>
	</g>
	<g>
		<path class="st0" d="M146.89,94.32c3.82,0,7.91,0,11.64,0c-0.71,3.02-1.69,8.71-2.31,13.6h-2.76c-0.09-1.69-0.27-4-0.71-6.22
			c-0.62-2.76-2.22-4-7.02-4h-9.86c-2.93,0-3.47,0.36-4,3.38l-3.82,20.17h10.49c7.38,0,7.73-0.98,10.49-7.2h2.67l-3.73,18.66h-2.58
			c-0.09-7.29-0.44-8-7.55-8h-10.4l-3.29,16.35c-1.33,7.29-0.89,7.91,7.55,8.53l-0.53,2.49h-24.17l0.62-2.49
			c7.2-0.62,7.73-1.15,9.24-8.62l6.84-35.37c1.51-7.73,0.8-8.09-6.75-8.8l0.62-2.49H146.89z"/>
	</g>
	<g>
		<path class="st0" d="M190.51,89.34c-14.13,10.13-22.75,27.73-22.75,47.45c0,10.84,2.58,21.06,8.18,30.39l-2.22,1.87
			c-8.35-8.89-13.06-21.68-13.06-33.41c0-21.77,12.44-39.72,28.44-48.7L190.51,89.34z"/>
	</g>
	<g>
		<path class="st0" d="M192.46,121.25c3.82-5.95,7.73-9.24,10.57-9.24c2.49,0,4.18,2.84,6.22,9.69l1.33,4.71
			c7.73-10.66,11.55-14.4,15.55-14.4c2.58,0,3.82,1.87,3.73,3.82c0,1.24-0.98,3.47-2.13,4.26c-0.8,0.62-1.33,0.8-1.87,0.71
			c-0.98-0.18-1.95-2.4-3.29-2.4c-1.95,0-5.33,3.56-11.02,11.37l2.93,9.07c1.69,5.33,3.02,8,4.53,8c1.42,0,3.02-1.07,6.49-5.24
			l1.6,2.04c-3.82,6.04-8.18,9.51-11.37,9.51c-2.4,0-4.35-2.93-6.49-9.6l-2.4-7.73c-8.71,12.53-12.53,17.33-16.53,17.33
			c-2.31,0-3.91-1.69-3.91-4.18c0.09-2.58,2.22-5.33,3.91-5.33c1.24,0,2.04,2.4,3.29,2.4c1.6,0,4.44-2.75,12.26-13.6l-2.4-7.82
			c-1.51-4.8-2.31-6.49-3.55-6.49c-0.89,0-2.67,0.89-5.69,5.07L192.46,121.25z"/>
	</g>
	<g>
		<path class="st0" d="M226.14,166.75c14.22-10.13,22.75-27.82,22.75-47.54c0-10.84-2.58-20.97-8.18-30.3l2.22-1.96
			c8.35,8.89,13.06,21.68,13.06,33.41c0,21.86-12.44,39.81-28.44,48.7L226.14,166.75z"/>
	</g>
</g>
</svg>
