<?xml version="1.0" encoding="utf-8"?>
<!-- Generator: Adobe Illustrator 26.0.1, SVG Export Plug-In . SVG Version: 6.00 Build 0)  -->
<svg version="1.1" id="Layer_1" xmlns="http://www.w3.org/2000/svg" xmlns:xlink="http://www.w3.org/1999/xlink" x="0px" y="0px"
	 viewBox="0 0 256 256" style="enable-background:new 0 0 256 256;" xml:space="preserve">
<style type="text/css">
	.st0{fill:#4259C3;}
</style>
<g>
	<g>
		<path class="st0" d="M74.18,84.99c7.74,0,15.08,0,22.87,0c-1.15,2.29-2.22,4.27-3.15,6.32c-0.54,1.18-1.56,0.92-2.42,0.98
			c-6.07,0.41-12.14,0.76-18.55,1.14c-1.46,8.37-2.85,16.81-4.4,25.23c-4.02,21.78-7.04,43.78-13.89,64.95
			c-5.1,15.77-13.55,29.28-27.3,39c-3.18,2.25-6.71,3.86-10.48,4.96c-4.05,1.19-7.93,0.59-11.62-1.15c-5.1-2.4-6.49-6.57-4.1-11.72
			c1.06-2.3,2.38-4.41,4.33-6.11c1.91-1.66,3.61-1.74,5.55-0.02c1.64,1.46,3.38,2.85,5.25,3.99c7.01,4.31,13.85,2.38,17.68-4.91
			c3.3-6.3,4.82-13.19,6.2-20.07c5.44-27.03,10.04-54.2,14.54-81.4c0.69-4.2,1.41-8.4,2.15-12.82c-5.9,0-11.45,0-16.98,0
			c-0.27-3.23,4.18-8.28,7.27-8.33c3.67-0.06,7.34-0.02,11.25-0.02c1.67-6.94,3.21-13.89,5.74-20.56
			c5.73-15.12,15.08-27.07,30.09-33.87c4.79-2.17,9.87-3.63,15.28-2.24c3.97,1.03,7.78,2.44,8.95,6.88
			c0.82,3.14-3.47,10.05-6.81,11.7c-1.71,0.84-2.99,0.12-4.23-1.03c-2.61-2.44-5.25-4.82-8.67-6.14
			c-5.94-2.29-10.18-0.94-13.35,4.53c-4.82,8.3-6.65,17.58-8.6,26.81C75.8,75.6,75.07,80.14,74.18,84.99z"/>
	</g>
	<g>
		<g>
			<g>
				<polygon class="st0" points="92.45,228.19 83.32,228.19 83.32,225.59 89.84,225.59 89.84,219.06 92.45,219.06 				"/>
			</g>
		</g>
		<g>
			<g>
				<polygon class="st0" points="70.87,228.19 61.74,228.19 61.74,219.06 64.35,219.06 64.35,225.59 70.87,225.59 				"/>
			</g>
		</g>
		<g>
			<g>
				<rect x="61.74" y="199.61" class="st0" width="2.61" height="9.73"/>
			</g>
		</g>
		<g>
			<g>
				<polygon class="st0" points="64.35,189.89 61.74,189.89 61.74,180.76 70.87,180.76 70.87,183.37 64.35,183.37 				"/>
			</g>
		</g>
		<g>
			<g>
				<polygon class="st0" points="92.45,189.89 89.84,189.89 89.84,183.37 83.32,183.37 83.32,180.76 92.45,180.76 				"/>
			</g>
		</g>
		<g>
			<g>
				<rect x="89.84" y="199.61" class="st0" width="2.61" height="9.73"/>
			</g>
		</g>
	</g>
	<g>
		<g>
			<path class="st0" d="M177.85,157.06c-5.76,7.58-10.64,15.27-16.34,22.36c-3.84,4.77-7.7,9.49-12.78,13.04
				c-2.29,1.6-4.81,2.55-7.57,2.49c-4.61-0.1-8.04-3.89-8.03-8.78c0-4.51,2.05-8.09,5.47-10.88c2.01-1.64,3.86-1.52,5.77,0.51
				c4.26,4.51,5.98,4.46,10.53-0.18c7.46-7.6,13.58-16.3,19.92-24.8c0.58-0.78,0.87-1.54,0.55-2.5c-2.9-8.62-4.85-17.57-8.68-25.87
				c-2.31-5-4.47-5.44-8.72-1.89c-2.92,2.44-5.18,5.51-7.53,8.23c-1.45-1.23-2.8-2.39-4.21-3.59c4.04-6.35,8.42-12.14,14.31-16.63
				c0.8-0.61,1.61-1.2,2.46-1.71c6.1-3.63,10.54-2.57,14.06,3.62c3.28,5.77,4.96,12.17,6.81,18.49c0.66,2.27,1.32,4.55,1.98,6.84
				c6.55-7.66,12.16-16.08,19.39-23.13c2.8-2.73,5.73-5.31,9.49-6.71c5.85-2.18,10.34-1.22,12.5,2.7c2.25,4.07,0.38,10.69-3.91,13.9
				c-2.81,2.1-3.94,2-6.43-0.54c-4.01-4.09-5.75-4.14-10.12-0.4c-7.08,6.06-12.12,13.83-17.83,21.05c-0.57,0.71-0.61,1.32-0.32,2.16
				c3.55,10.35,6.12,21.04,10.68,31.05c0.08,0.18,0.13,0.38,0.22,0.56c2.68,5.35,5.88,6.03,10.43,2.16c1.6-1.36,3.14-2.8,4.61-4.3
				c1.39-1.42,2.65-2.97,3.96-4.46c4.06,3.69,4.07,3.73,1.13,8.02c-4.23,6.18-9.45,11.35-15.71,15.47
				c-4.47,2.94-9.76,2.01-13.02-2.29c-3.38-4.45-5.36-9.59-7.05-14.84C181.83,169.95,179.91,163.65,177.85,157.06z"/>
		</g>
		<g>
			<g>
				<g>
					<path class="st0" d="M220.78,97.81h-71.01c-1.45,0-2.63-1.17-2.63-2.63s1.18-2.63,2.63-2.63h71.01c1.45,0,2.63,1.17,2.63,2.63
						S222.23,97.81,220.78,97.81z"/>
				</g>
			</g>
		</g>
	</g>
	<g>
		<g>
			<path class="st0" d="M142.4,86.7c-20.87,14.96-33.6,40.95-33.6,70.09c0,16.01,3.81,31.11,12.08,44.89l-3.28,2.76
				c-12.34-13.13-19.29-32.03-19.29-49.35c0-32.16,18.38-58.67,42-71.93L142.4,86.7z"/>
		</g>
		<g>
			<path class="st0" d="M211.9,201.03c21-14.96,33.6-41.08,33.6-70.22c0-16.01-3.81-30.98-12.08-44.76l3.28-2.89
				C249.04,96.28,256,115.18,256,132.51c0,32.29-18.38,58.8-42,71.93L211.9,201.03z"/>
		</g>
	</g>
</g>
</svg>
