<?xml version="1.0" encoding="utf-8"?>
<!-- Generator: Adobe Illustrator 26.0.1, SVG Export Plug-In . SVG Version: 6.00 Build 0)  -->
<svg version="1.1" id="Layer_1" xmlns="http://www.w3.org/2000/svg" xmlns:xlink="http://www.w3.org/1999/xlink" x="0px" y="0px"
	 viewBox="0 0 256 256" style="enable-background:new 0 0 256 256;" xml:space="preserve">
<style type="text/css">
	.st0{fill:#4259C3;}
</style>
<g>
	<g>
		<g>
			<path class="st0" d="M185.7,129.25c-5.18,6.82-9.57,13.73-14.7,20.11c-3.45,4.29-6.92,8.54-11.5,11.73
				c-2.06,1.44-4.33,2.29-6.81,2.24c-4.15-0.09-7.23-3.49-7.22-7.9c0-4.06,1.84-7.28,4.92-9.79c1.81-1.47,3.47-1.37,5.19,0.45
				c3.83,4.06,5.38,4.01,9.47-0.16c6.71-6.84,12.21-14.66,17.92-22.31c0.52-0.7,0.78-1.39,0.5-2.25c-2.61-7.76-4.36-15.8-7.81-23.27
				c-2.07-4.5-4.02-4.89-7.85-1.7c-2.63,2.19-4.66,4.95-6.78,7.4c-1.3-1.11-2.52-2.15-3.78-3.23c3.63-5.71,7.57-10.92,12.88-14.96
				c0.72-0.54,1.45-1.08,2.22-1.54c5.49-3.27,9.48-2.31,12.65,3.26c2.95,5.19,4.46,10.95,6.12,16.63c0.6,2.05,1.18,4.09,1.78,6.15
				c5.89-6.89,10.94-14.47,17.45-20.81c2.52-2.46,5.16-4.77,8.53-6.03c5.26-1.96,9.3-1.09,11.24,2.43c2.02,3.66,0.35,9.62-3.52,12.5
				c-2.52,1.89-3.54,1.8-5.79-0.49c-3.6-3.68-5.17-3.72-9.1-0.36c-6.37,5.45-10.9,12.44-16.04,18.93c-0.51,0.64-0.55,1.19-0.29,1.94
				c3.2,9.31,5.51,18.93,9.61,27.93c0.07,0.16,0.12,0.34,0.2,0.5c2.41,4.81,5.29,5.43,9.38,1.94c1.44-1.22,2.82-2.52,4.14-3.87
				c1.25-1.28,2.38-2.67,3.56-4.01c3.65,3.32,3.66,3.35,1.02,7.21c-3.81,5.56-8.5,10.21-14.14,13.92
				c-4.02,2.64-8.77,1.81-11.71-2.06c-3.04-4.01-4.82-8.63-6.35-13.35C189.28,140.84,187.55,135.18,185.7,129.25z"/>
		</g>
		<g>
			<g>
				<g>
					<path class="st0" d="M224.32,75.95h-63.87c-1.3,0-2.36-1.06-2.36-2.36c0-1.31,1.06-2.36,2.36-2.36h63.87
						c1.3,0,2.36,1.06,2.36,2.36C226.68,74.89,225.62,75.95,224.32,75.95z"/>
				</g>
			</g>
		</g>
	</g>
	<g>
		<g>
			<g>
				<polygon class="st0" points="115.68,193.23 107.46,193.23 107.46,190.88 113.33,190.88 113.33,185.02 115.68,185.02 				"/>
			</g>
		</g>
		<g>
			<g>
				<polygon class="st0" points="96.26,193.23 88.05,193.23 88.05,185.02 90.4,185.02 90.4,190.88 96.26,190.88 				"/>
			</g>
		</g>
		<g>
			<g>
				<rect x="88.05" y="167.52" class="st0" width="2.35" height="8.75"/>
			</g>
		</g>
		<g>
			<g>
				<polygon class="st0" points="90.4,158.77 88.05,158.77 88.05,150.56 96.26,150.56 96.26,152.91 90.4,152.91 				"/>
			</g>
		</g>
		<g>
			<g>
				<polygon class="st0" points="115.68,158.77 113.33,158.77 113.33,152.91 107.46,152.91 107.46,150.56 115.68,150.56 				"/>
			</g>
		</g>
		<g>
			<g>
				<rect x="113.33" y="167.52" class="st0" width="2.35" height="8.75"/>
			</g>
		</g>
	</g>
	<g>
		<g>
			<path class="st0" d="M86.77,94.97c1.11-18.94-6.85-24.52-23.56-24.52c-29.77,0-47.92,26.75-47.92,55.4
				c0,25.79,12.58,41.39,34.55,41.39c8.6,0,16.24-3.03,18.15-11.3l2.86-14.49c2.39-11.62,0.96-12.26-14.17-13.69l0.95-4.46h40.44
				l-1.11,4.3c-9.55,1.59-10.67,1.91-13.06,13.85l-2.39,13.05c-0.96,4.94-1.59,9.71-1.11,13.05c-9.87,2.23-20.22,5.41-32.8,5.41
				c-27.86,0-47.6-17.03-47.6-46.17c0-35.82,27.22-61.93,66.87-61.93c13.21,0,23.72,3.02,29.14,3.98
				c-1.11,4.94-2.87,14.65-4.3,25.79L86.77,94.97z"/>
		</g>
	</g>
	<g>
		<g>
			<path class="st0" d="M153.81,65.96c-18.77,13.46-30.23,36.84-30.23,63.05c0,14.4,3.42,27.98,10.86,40.38l-2.95,2.48
				c-11.1-11.81-17.36-28.81-17.36-44.39c0-28.93,16.53-52.77,37.78-64.7L153.81,65.96z"/>
		</g>
		<g>
			<path class="st0" d="M216.33,168.79c18.89-13.46,30.23-36.96,30.23-63.17c0-14.4-3.42-27.87-10.86-40.26l2.95-2.6
				C249.74,74.57,256,91.58,256,107.16c0,29.04-16.53,52.89-37.78,64.7L216.33,168.79z"/>
		</g>
	</g>
</g>
</svg>
