<?xml version="1.0" encoding="utf-8"?>
<!-- Generator: Adobe Illustrator 26.0.1, SVG Export Plug-In . SVG Version: 6.00 Build 0)  -->
<svg version="1.1" id="Layer_1" xmlns="http://www.w3.org/2000/svg" xmlns:xlink="http://www.w3.org/1999/xlink" x="0px" y="0px"
	 viewBox="0 0 256 256" style="enable-background:new 0 0 256 256;" xml:space="preserve">
<style type="text/css">
	.st0{fill:#4259C3;}
</style>
<g>
	<g>
		<g>
			<path class="st0" d="M256,241.35h-48.79v-75.37H256V241.35z M211.35,237.21h40.5v-67.08h-40.5V237.21z"/>
		</g>
	</g>
	<g>
		<g>
			<path class="st0" d="M28.04,57.54c17.73-27.63,35.88-42.89,49.07-42.89c11.55,0,19.38,13.2,28.87,44.95l6.19,21.86
				c35.88-49.49,53.61-66.81,72.17-66.81c11.96,0,17.73,8.67,17.32,17.74c0,5.77-4.53,16.08-9.89,19.79
				c-3.71,2.89-6.19,3.71-8.66,3.3c-4.53-0.83-9.07-11.15-15.26-11.15c-9.07,0-24.74,16.5-51.13,52.78l13.61,42.07
				c7.84,24.75,14.02,37.11,21.03,37.11c6.6,0,14.02-4.94,30.1-24.33l7.42,9.48c-17.73,28.04-37.94,44.13-52.78,44.13
				c-11.13,0-20.21-13.61-30.1-44.53l-11.13-35.88c-40.41,58.15-58.14,80.41-76.7,80.41C7.42,205.59,0,197.75,0,186.2
				c0.41-11.96,10.31-24.75,18.15-24.75c5.77,0,9.48,11.13,15.26,11.13c7.42,0,20.62-12.79,56.91-63.09L79.18,73.22
				c-7.01-22.27-10.72-30.11-16.49-30.11c-4.12,0-12.37,4.13-26.39,23.51L28.04,57.54z"/>
		</g>
	</g>
</g>
</svg>
