<?xml version="1.0" encoding="utf-8"?>
<!-- Generator: Adobe Illustrator 26.0.1, SVG Export Plug-In . SVG Version: 6.00 Build 0)  -->
<svg version="1.1" id="Layer_1" xmlns="http://www.w3.org/2000/svg" xmlns:xlink="http://www.w3.org/1999/xlink" x="0px" y="0px"
	 viewBox="0 0 256 256" style="enable-background:new 0 0 256 256;" xml:space="preserve">
<style type="text/css">
	.st0{fill:#4259C3;}
</style>
<g id="Communication">
	<g>
		<path class="st0" d="M120.44,147.26c-15.51,20.41-28.66,41.11-44,60.21c-10.33,12.86-20.72,25.57-34.42,35.12
			c-6.17,4.3-12.96,6.86-20.4,6.69C9.22,249-0.01,238.82,0,225.64c0.01-12.14,5.51-21.78,14.74-29.3
			c5.42-4.41,10.39-4.09,15.54,1.36c11.47,12.15,16.11,12.01,28.36-0.48c20.1-20.47,36.57-43.88,53.65-66.79
			c1.57-2.11,2.35-4.16,1.48-6.73c-7.8-23.22-13.06-47.3-23.37-69.66c-6.21-13.47-12.03-14.65-23.49-5.08
			c-7.88,6.57-13.96,14.83-20.29,22.17c-3.9-3.32-7.53-6.42-11.33-9.66c10.88-17.1,22.67-32.68,38.55-44.77
			c2.14-1.63,4.33-3.23,6.64-4.61c16.44-9.79,28.39-6.93,37.86,9.75c8.82,15.54,13.36,32.78,18.33,49.8
			c1.79,6.12,3.54,12.25,5.33,18.42c17.63-20.64,32.74-43.31,52.23-62.29c7.55-7.36,15.44-14.29,25.54-18.06
			c15.76-5.88,27.83-3.27,33.65,7.27c6.05,10.97,1.04,28.79-10.53,37.43c-7.56,5.65-10.61,5.39-17.33-1.47
			c-10.79-11.01-15.49-11.14-27.25-1.07c-19.06,16.32-32.64,37.25-48.02,56.68c-1.52,1.92-1.63,3.55-0.86,5.82
			c9.57,27.88,16.49,56.66,28.76,83.61c0.22,0.49,0.36,1.02,0.6,1.5c7.21,14.41,15.84,16.25,28.09,5.82
			c4.3-3.67,8.45-7.55,12.4-11.59c3.74-3.83,7.13-7.99,10.67-12.01c10.92,9.93,10.96,10.04,3.04,21.6
			c-11.39,16.64-25.46,30.57-42.32,41.66c-12.03,7.92-26.27,5.42-35.06-6.16c-9.11-12-14.42-25.83-19-39.96
			C131.17,181.96,126,165.02,120.44,147.26z"/>
	</g>
</g>
</svg>
