<?xml version="1.0" encoding="utf-8"?>
<!-- Generator: Adobe Illustrator 26.0.1, SVG Export Plug-In . SVG Version: 6.00 Build 0)  -->
<svg version="1.1" id="Layer_1" xmlns="http://www.w3.org/2000/svg" xmlns:xlink="http://www.w3.org/1999/xlink" x="0px" y="0px"
	 viewBox="0 0 256 256" style="enable-background:new 0 0 256 256;" xml:space="preserve">
<style type="text/css">
	.st0{fill:#4259C3;}
</style>
<g>
	<g>
		<path class="st0" d="M61.55,92.32c6.42,0,12.51,0,18.97,0c-0.96,1.9-1.84,3.55-2.62,5.24c-0.45,0.98-1.29,0.76-2.01,0.81
			c-5.04,0.34-10.08,0.63-15.39,0.95c-1.21,6.94-2.37,13.95-3.65,20.93c-3.33,18.07-5.84,36.33-11.52,53.89
			c-4.23,13.09-11.24,24.29-22.65,32.36c-2.64,1.87-5.57,3.2-8.69,4.11c-3.36,0.98-6.58,0.49-9.64-0.96
			c-4.23-1.99-5.38-5.45-3.4-9.72c0.88-1.91,1.97-3.66,3.59-5.07c1.58-1.38,3-1.44,4.61-0.02c1.36,1.21,2.81,2.36,4.35,3.31
			c5.82,3.58,11.49,1.98,14.67-4.08c2.74-5.23,4-10.94,5.14-16.65c4.51-22.43,8.33-44.98,12.06-67.54
			c0.58-3.49,1.17-6.97,1.78-10.64c-4.9,0-9.5,0-14.09,0c-0.22-2.68,3.47-6.87,6.03-6.91c3.05-0.05,6.09-0.01,9.34-0.01
			c1.39-5.76,2.66-11.53,4.76-17.06c4.75-12.54,12.51-22.46,24.97-28.1c3.98-1.8,8.19-3.02,12.68-1.86c3.3,0.85,6.46,2.03,7.42,5.71
			c0.68,2.6-2.88,8.34-5.65,9.71c-1.42,0.7-2.48,0.1-3.51-0.86c-2.16-2.02-4.35-4-7.19-5.1c-4.93-1.9-8.44-0.78-11.08,3.76
			c-4,6.89-5.52,14.59-7.14,22.25C62.9,84.52,62.29,88.29,61.55,92.32z"/>
	</g>
	<g>
		<path class="st0" d="M70.22,171.78h-1.08H51.23v6.89v0.68v24.21v7.58h17.91h1.08h6.49v-7.58v-24.21v-0.68v-6.89H70.22z
			 M74.55,179.35v24.21v5.41h-4.33h-1.08H53.4v-5.41v-24.21v-0.68v-4.73h15.74h1.08h4.33v4.73V179.35z"/>
	</g>
	<g>
		<path class="st0" d="M208.72,171.78h-1.08h-17.91v6.89v0.68v24.21v7.58h17.91h1.08h6.49v-7.58v-24.21v-0.68v-6.89H208.72z
			 M213.05,179.35v24.21v5.41h-4.33h-1.08h-15.74v-5.41v-24.21v-0.68v-4.73h15.74h1.08h4.33v4.73V179.35z"/>
	</g>
	<g>
		<g>
			<path class="st0" d="M149.75,152.11c-4.78,6.29-8.83,12.67-13.56,18.55c-3.18,3.96-6.39,7.88-10.61,10.82
				c-1.9,1.33-3.99,2.11-6.29,2.06c-3.82-0.09-6.67-3.22-6.66-7.29c0-3.74,1.7-6.71,4.54-9.03c1.67-1.36,3.2-1.26,4.79,0.42
				c3.53,3.74,4.96,3.7,8.74-0.15c6.19-6.31,11.27-13.52,16.53-20.58c0.48-0.65,0.72-1.28,0.46-2.07c-2.4-7.15-4.02-14.57-7.2-21.47
				c-1.91-4.15-3.71-4.51-7.24-1.57c-2.43,2.02-4.3,4.57-6.25,6.83c-1.2-1.02-2.32-1.98-3.49-2.98c3.35-5.27,6.99-10.07,11.88-13.8
				c0.66-0.5,1.33-1,2.04-1.42c5.06-3.02,8.75-2.14,11.67,3c2.72,4.79,4.12,10.1,5.65,15.34c0.55,1.89,1.09,3.78,1.64,5.68
				c5.43-6.36,10.09-13.34,16.09-19.19c2.33-2.27,4.76-4.4,7.87-5.57c4.86-1.81,8.58-1.01,10.37,2.24
				c1.86,3.38,0.32,8.87-3.25,11.54c-2.33,1.74-3.27,1.66-5.34-0.45c-3.32-3.39-4.77-3.43-8.4-0.33
				c-5.87,5.03-10.06,11.48-14.8,17.47c-0.47,0.59-0.5,1.09-0.26,1.79c2.95,8.59,5.08,17.46,8.86,25.76
				c0.07,0.15,0.11,0.32,0.18,0.46c2.22,4.44,4.88,5.01,8.65,1.79c1.33-1.13,2.6-2.33,3.82-3.57c1.15-1.18,2.2-2.46,3.29-3.7
				c3.37,3.06,3.38,3.09,0.94,6.65c-3.51,5.13-7.85,9.42-13.04,12.84c-3.71,2.44-8.09,1.67-10.8-1.9c-2.81-3.7-4.44-7.96-5.85-12.31
				C153.05,162.81,151.46,157.58,149.75,152.11z"/>
		</g>
		<g>
			<g>
				<g>
					<path class="st0" d="M185.37,102.95h-58.92c-1.2,0-2.18-0.97-2.18-2.18c0-1.2,0.98-2.18,2.18-2.18h58.92
						c1.2,0,2.18,0.97,2.18,2.18C187.55,101.98,186.57,102.95,185.37,102.95z"/>
				</g>
			</g>
		</g>
	</g>
	<g>
		<g>
			<path class="st0" d="M118.16,93.73c-17.32,12.42-27.88,33.98-27.88,58.16c0,13.29,3.16,25.81,10.02,37.25l-2.72,2.29
				c-10.24-10.89-16.01-26.57-16.01-40.95c0-26.68,15.25-48.68,34.85-59.68L118.16,93.73z"/>
		</g>
		<g>
			<path class="st0" d="M219.41,188.59c17.43-12.42,27.88-34.09,27.88-58.27c0-13.29-3.16-25.7-10.02-37.14l2.72-2.4
				c10.24,10.89,16.01,26.57,16.01,40.95c0,26.79-15.25,48.79-34.85,59.68L219.41,188.59z"/>
		</g>
	</g>
</g>
</svg>
