<?xml version="1.0" encoding="utf-8"?>
<!-- Generator: Adobe Illustrator 26.0.1, SVG Export Plug-In . SVG Version: 6.00 Build 0)  -->
<svg version="1.1" id="Layer_1" xmlns="http://www.w3.org/2000/svg" xmlns:xlink="http://www.w3.org/1999/xlink" x="0px" y="0px"
	 viewBox="0 0 256 256" style="enable-background:new 0 0 256 256;" xml:space="preserve">
<style type="text/css">
	.st0{fill:#4259C3;}
</style>
<g>
	<g>
		<g>
			<g>
				<polygon class="st0" points="219.2,154.63 208.79,154.63 208.79,151.66 216.22,151.66 216.22,144.23 219.2,144.23 				"/>
			</g>
		</g>
		<g>
			<g>
				<polygon class="st0" points="194.61,154.63 184.2,154.63 184.2,144.23 187.18,144.23 187.18,151.66 194.61,151.66 				"/>
			</g>
		</g>
		<g>
			<g>
				<rect x="184.2" y="122.07" class="st0" width="2.97" height="11.08"/>
			</g>
		</g>
		<g>
			<g>
				<polygon class="st0" points="187.18,110.99 184.2,110.99 184.2,100.58 194.61,100.58 194.61,103.56 187.18,103.56 				"/>
			</g>
		</g>
		<g>
			<g>
				<polygon class="st0" points="219.2,110.99 216.22,110.99 216.22,103.56 208.79,103.56 208.79,100.58 219.2,100.58 				"/>
			</g>
		</g>
		<g>
			<g>
				<rect x="216.22" y="122.07" class="st0" width="2.97" height="11.08"/>
			</g>
		</g>
	</g>
	<g>
		<path class="st0" d="M47.04,84.55c-10.4,0.87-11.39,1.61-13.12,10.65l-9.9,51.87c-1.86,9.41-0.74,10.28,9.66,11.02l-0.62,3.47H0
			l0.74-3.47c10.03-0.87,11.14-1.73,13-11.02l10.03-51.87c1.73-9.16,0.74-9.78-9.66-10.65l0.74-3.47h32.93L47.04,84.55z"/>
		<path class="st0" d="M101.39,150.41c-6.56,8.67-14.11,12.63-17.7,12.63c-3.34,0-5.08-2.97-2.72-13.12
			c2.23-8.79,4.33-17.58,6.19-25.38c1.98-8.05,1.49-10.77-1.61-10.77c-4.09,0-13.62,6.93-22.04,19.81
			c-2.23,3.34-3.22,6.56-4.21,10.4c-1.24,4.83-2.85,11.51-3.84,16.59c-3.09,0.62-6.44,1.61-8.79,2.48l-0.87-0.87
			c3.47-13.49,7.06-28.6,10.15-42.34c0.87-3.84,0.37-4.95-0.62-4.95c-1.36,0-4.46,2.72-7.55,5.69l-1.73-3.22
			c5.69-7.18,12.13-11.64,16.22-11.64c3.59,0,4.58,4.33,1.98,15.1l-1.73,7.31c11.02-14.36,22.16-22.41,29.59-22.41
			c4.08,0,7.92,2.85,3.96,19.44c-1.61,6.81-3.96,16.34-5.82,24.14c-0.74,3.34-0.74,4.83,0.12,4.83c1.11,0,4.7-1.98,9.16-6.69
			L101.39,150.41z"/>
		<path class="st0" d="M143.36,111.53c-2.48,0.25-8.79,0.74-12.5,0.74c-5.57,25.75-7.3,33.67-7.92,37.39
			c-0.62,3.84,0.12,4.95,1.24,4.95c2.48,0,6.56-3.22,11.14-7.8l1.61,3.09c-3.96,6.07-13.62,13.12-18.94,13.12
			c-4.33,0-6.44-3.34-3.22-17.95l7.18-32.81h-9.9v-1.11l3.59-3.96h7.43l2.85-13.25c1.98-1.11,7.18-4.46,9.78-6.81l1.11,0.62
			c-1.49,4.95-3.47,13-4.83,19.44h13.74L143.36,111.53z"/>
		<path class="st0" d="M189.9,76c-9.53,1.11-13.87,3.84-15.85,16.84c-0.87,5.57-1.49,12.13-2.35,18.69
			c-1.36,9.78-6.69,15.1-16.71,16.71c7.06,1.73,13.25,8.17,9.41,21.54c-0.99,3.84-1.98,6.56-2.85,9.66
			c-4.58,15.1,0.62,19.44,8.17,20.55l-0.87,3.59c-9.66-0.25-21.29-6.93-15.35-26.74c0.99-3.71,1.73-6.07,2.85-9.66
			c3.84-13.12-0.5-16.59-10.89-17.21l0.87-3.84c13.12-0.74,15.23-5.32,16.59-13.37c0.87-5.45,2.1-15.35,2.6-19.44
			c2.72-19.44,17.21-20.67,24.76-20.92L189.9,76z"/>
		<path class="st0" d="M211.18,180c9.41-1.11,13.87-3.84,15.85-16.84c0.87-5.57,1.61-11.02,2.48-17.58
			c1.36-9.66,6.93-15.97,16.96-17.45c-7.18-1.73-13.25-8.17-9.66-21.54c0.99-3.71,1.49-5.94,2.72-10.15
			c3.96-14.36-0.74-19.31-8.17-20.43l0.87-3.59c9.66,0.25,21.05,6.69,15.48,26.62c-0.99,4.09-2.11,6.81-2.85,10.15
			c-3.34,13.25,0.62,16.59,11.14,17.21l-0.99,3.84c-13,0.74-15.1,5.45-16.47,13.37c-0.99,5.57-2.48,15.1-3.1,19.07
			c-2.6,19.44-17.08,20.8-24.64,20.92L211.18,180z"/>
	</g>
</g>
</svg>
