<?xml version="1.0" encoding="utf-8"?>
<!-- Generator: Adobe Illustrator 26.0.1, SVG Export Plug-In . SVG Version: 6.00 Build 0)  -->
<svg version="1.1" id="Layer_1" xmlns="http://www.w3.org/2000/svg" xmlns:xlink="http://www.w3.org/1999/xlink" x="0px" y="0px"
	 viewBox="0 0 256 256" style="enable-background:new 0 0 256 256;" xml:space="preserve">
<style type="text/css">
	.st0{fill:#4259C3;}
</style>
<g>
	<g>
		<path class="st0" d="M14.31,43.11c10.25-1.07,20.08-3.2,26.27-5.34c3.2-1.28,4.7-1.71,5.98-1.71c1.71,0,2.14,2.14,1.07,7.05
			c-5.98,27.34-13.67,61.3-19.65,88.64c17.09-23.71,38.66-38.45,51.9-38.45c7.26,0,14.1,3.42,7.48,30.54
			c-2.99,13.24-7.05,31.18-10.47,44.64c-1.49,5.77-1.28,8.12,0.43,8.12c1.92,0,7.05-2.56,14.74-10.68l3.2,5.13
			c-10.46,14.31-24.35,21.14-30.54,21.14c-5.98,0-7.9-6.62-4.27-21.79c3.84-14.74,8.33-33.75,11.75-48.06
			c2.99-12.17,1.28-15.38-2.99-15.38c-7.9,0-23.92,10.25-38.23,33.75c-4.06,6.19-5.98,11.11-7.69,17.94
			c-1.92,8.54-4.7,21.14-6.41,29.47c-4.91,0.85-10.68,2.56-15.38,4.06L0,190.69c9.18-41.22,20.29-93.33,27.77-131.56
			c1.71-8.76,0.43-8.97-5.98-9.61c-2.35-0.21-7.05-0.64-8.76-0.64L14.31,43.11z"/>
		<path class="st0" d="M167.27,77.55c-25.24,18.1-40.64,49.53-40.64,84.77c0,19.37,4.6,37.62,14.6,54.29l-3.97,3.33
			c-14.92-15.88-23.34-38.73-23.34-59.69c0-38.89,22.22-70.95,50.8-86.99L167.27,77.55z"/>
		<path class="st0" d="M207.59,125.49c-3.17,0.32-11.27,0.95-16.03,0.95c-7.14,33.02-9.37,43.18-10.16,47.94
			c-0.79,4.92,0.16,6.35,1.59,6.35c3.17,0,8.41-4.13,14.29-10l2.06,3.97c-5.08,7.78-17.46,16.82-24.29,16.82
			c-5.56,0-8.25-4.28-4.13-23.02l9.21-42.07h-12.7v-1.43l4.6-5.08h9.52l3.65-16.99c2.54-1.43,9.21-5.71,12.54-8.73l1.43,0.79
			c-1.91,6.35-4.44,16.67-6.19,24.92h17.62L207.59,125.49z"/>
		<path class="st0" d="M202.66,215.81c25.4-18.1,40.64-49.69,40.64-84.93c0-19.37-4.6-37.46-14.6-54.13l3.97-3.49
			C247.59,89.14,256,112,256,132.95c0,39.05-22.22,71.12-50.8,86.99L202.66,215.81z"/>
	</g>
</g>
</svg>
