<?xml version="1.0" encoding="utf-8"?>
<!-- Generator: Adobe Illustrator 26.0.1, SVG Export Plug-In . SVG Version: 6.00 Build 0)  -->
<svg version="1.1" id="Layer_1" xmlns="http://www.w3.org/2000/svg" xmlns:xlink="http://www.w3.org/1999/xlink" x="0px" y="0px"
	 viewBox="0 0 256 256" style="enable-background:new 0 0 256 256;" xml:space="preserve">
<style type="text/css">
	.st0{fill:#4259C3;}
</style>
<g>
	<g>
		<path class="st0" d="M39.61,161.33c12.16,5.46,19.65,8.78,22.47,9.97c12.11,5.07,21.93,7.6,29.48,7.6
			c11.99,0,20.95-6.59,26.86-19.76c1.91-4.33,3.88-6.5,5.91-6.5c2.03,0,3.04,1.07,3.04,3.21c0,3.88-2.82,8.64-8.45,14.27
			c-3.66,3.66-7.83,6.78-12.5,9.37c-6.98,3.89-14.13,5.83-21.45,5.83c-7.88,0-17.68-2.76-29.39-8.28
			c-2.65-1.24-10.08-4.93-22.3-11.06c-6.93,3.6-13.68,5.4-20.27,5.4c-5.29,0-9.01-1.35-11.15-4.05C0.62,165.86,0,164.34,0,162.77
			c0-2.37,1.3-4.45,3.88-6.25c2.7-1.86,6.05-2.79,10.05-2.79c5.69,0,12.75,1.86,21.2,5.57c2.81-2.99,5.07-6.53,6.76-10.64
			c2.48-6.14,5.57-16.44,9.29-30.91c4.34-16.78,8.64-28.49,12.92-35.14c5.74-9.01,13.06-15.65,21.96-19.93
			c6.25-3.04,12.72-4.56,19.43-4.56c9.4,0,17.2,2.79,23.4,8.36c6.47,5.8,9.71,13.43,9.71,22.89c0,8-2.14,15.43-6.42,22.3
			c-5.01,8.05-12.08,14.05-21.2,17.99c-6.7,2.93-13.37,4.39-20.02,4.39c-3.27,0-5.72-0.53-7.35-1.6c-1.13-0.79-1.69-1.72-1.69-2.79
			c0-1.07,0.48-1.97,1.44-2.7c0.68-0.56,1.49-0.84,2.45-0.84c1.01,0,3.55,0.48,7.6,1.44c1.91,0.45,3.83,0.68,5.74,0.68
			c8.5,0,15.91-3.97,22.21-11.91c5.97-7.43,8.95-15.57,8.95-24.41c0-5.86-1.47-11.32-4.39-16.38c-2.65-4.5-6.42-7.91-11.32-10.22
			c-4.17-1.91-8.47-2.87-12.92-2.87c-4.96,0-9.77,1.37-14.44,4.1c-4.67,2.73-8.62,6.49-11.82,11.28c-3.55,5.29-6.28,10.9-8.19,16.81
			c-1.97,6.19-4.45,14.81-7.43,25.84c-4.22,15.26-8.33,25.82-12.33,31.67C45.38,155.22,42.77,158.29,39.61,161.33z M28.89,163.78
			c-7.21-3.77-12.78-5.66-16.72-5.66c-3.83,0-5.74,1.07-5.74,3.21c0,1.41,0.93,2.62,2.79,3.63c2.14,1.18,4.65,1.77,7.52,1.77
			C20.16,166.73,24.21,165.75,28.89,163.78z"/>
		<path class="st0" d="M184.13,82.55c-20.44,14.66-32.92,40.11-32.92,68.66c0,15.69,3.73,30.47,11.83,43.97l-3.21,2.7
			c-12.09-12.86-18.9-31.37-18.9-48.35c0-31.5,18-57.47,41.14-70.46L184.13,82.55z"/>
		<path class="st0" d="M216.79,121.38c-2.57,0.26-9.13,0.77-12.99,0.77c-5.79,26.74-7.59,34.97-8.23,38.83
			c-0.64,3.99,0.13,5.14,1.29,5.14c2.57,0,6.81-3.34,11.57-8.1l1.67,3.21c-4.11,6.3-14.14,13.63-19.67,13.63
			c-4.5,0-6.69-3.47-3.34-18.64l7.46-34.07h-10.29v-1.16l3.73-4.11h7.71l2.96-13.76c2.06-1.16,7.46-4.63,10.16-7.07l1.16,0.64
			c-1.54,5.14-3.6,13.5-5.01,20.19h14.27L216.79,121.38z"/>
		<path class="st0" d="M212.8,194.54c20.57-14.66,32.92-40.25,32.92-68.79c0-15.69-3.73-30.34-11.83-43.84l3.21-2.83
			c12.09,12.86,18.9,31.37,18.9,48.34c0,31.63-18,57.6-41.14,70.46L212.8,194.54z"/>
	</g>
</g>
</svg>
