<?xml version="1.0" encoding="utf-8"?>
<!-- Generator: Adobe Illustrator 26.0.1, SVG Export Plug-In . SVG Version: 6.00 Build 0)  -->
<svg version="1.1" id="Layer_1" xmlns="http://www.w3.org/2000/svg" xmlns:xlink="http://www.w3.org/1999/xlink" x="0px" y="0px"
	 viewBox="0 0 256 256" style="enable-background:new 0 0 256 256;" xml:space="preserve">
<style type="text/css">
	.st0{fill:#4259C3;}
</style>
<g>
	<g>
		<path class="st0" d="M36.32,50.2c-0.81,1.62-1.68,2.98-2.61,4.09c-0.93,1.11-1.9,2.02-2.9,2.73c-1,0.71-2.03,1.22-3.08,1.53
			c-1.05,0.31-2.1,0.47-3.15,0.47c-2.04,0-3.81-0.35-5.31-1.05c-1.5-0.7-2.74-1.63-3.73-2.79c-0.99-1.16-1.73-2.5-2.21-4.02
			c-0.49-1.52-0.73-3.09-0.73-4.73c0-1.76,0.26-3.39,0.79-4.88c0.53-1.5,1.27-2.79,2.24-3.88c0.97-1.09,2.15-1.95,3.53-2.56
			c1.39-0.62,2.95-0.93,4.69-0.93c1.29,0,2.49,0.21,3.59,0.62c1.1,0.42,2.12,1,3.05,1.74c0.93,0.75,1.78,1.64,2.55,2.68
			c0.77,1.04,1.48,2.19,2.12,3.44c0.85-1.7,1.76-3.1,2.73-4.2c0.97-1.1,1.98-1.97,3.03-2.61c1.05-0.64,2.14-1.08,3.26-1.32
			c1.12-0.24,2.26-0.36,3.41-0.36c1.66,0,3.16,0.32,4.5,0.97c1.34,0.65,2.49,1.53,3.43,2.65c0.94,1.12,1.66,2.43,2.17,3.91
			c0.51,1.49,0.76,3.06,0.76,4.72c0,1.8-0.26,3.47-0.79,5c-0.53,1.54-1.27,2.87-2.24,4c-0.97,1.13-2.15,2.02-3.55,2.67
			c-1.4,0.65-2.96,0.97-4.7,0.97c-1.29,0-2.47-0.24-3.53-0.71c-1.06-0.47-2.03-1.11-2.91-1.91c-0.88-0.8-1.68-1.74-2.41-2.82
			C37.6,52.56,36.93,51.41,36.32,50.2z M33.87,44.99c-1.19-2.73-2.61-4.69-4.26-5.9c-1.65-1.2-3.44-1.8-5.38-1.8
			c-1.01,0-1.99,0.18-2.93,0.53c-0.94,0.35-1.77,0.9-2.49,1.62c-0.72,0.73-1.29,1.65-1.71,2.77c-0.42,1.12-0.64,2.44-0.64,3.96
			c0,1.27,0.16,2.46,0.47,3.55c0.31,1.09,0.79,2.04,1.43,2.84c0.64,0.8,1.43,1.43,2.37,1.88c0.94,0.45,2.05,0.68,3.32,0.68
			c1.05,0,2-0.23,2.84-0.68c0.84-0.45,1.64-1.11,2.4-1.97c0.76-0.86,1.5-1.92,2.23-3.17C32.23,48.04,33.02,46.6,33.87,44.99z
			 M37.69,47.9c0.47,1.03,1,2.03,1.61,3c0.61,0.97,1.3,1.83,2.08,2.59c0.78,0.76,1.65,1.36,2.62,1.82c0.97,0.45,2.05,0.68,3.24,0.68
			c1.15,0,2.18-0.25,3.09-0.74c0.91-0.5,1.68-1.18,2.32-2.06c0.64-0.88,1.12-1.91,1.46-3.11c0.33-1.19,0.5-2.5,0.5-3.91
			c0-1.11-0.14-2.16-0.42-3.14c-0.28-0.98-0.72-1.83-1.3-2.55c-0.59-0.72-1.33-1.28-2.23-1.7c-0.9-0.41-1.97-0.62-3.2-0.62
			c-1.09,0-2.1,0.24-3.03,0.73c-0.93,0.49-1.79,1.16-2.59,2.02c-0.8,0.86-1.54,1.89-2.21,3.08C38.94,45.18,38.3,46.48,37.69,47.9z"
			/>
	</g>
	<g>
		<path class="st0" d="M34.61,216.66c-2.67,3.53-5.75,5.15-7.22,5.15c-1.36,0-2.07-1.21-1.11-5.35c0.91-3.58,1.77-7.17,2.52-10.35
			c0.81-3.28,0.61-4.39-0.66-4.39c-1.67,0-5.55,2.83-8.98,8.07c-0.91,1.36-1.31,2.68-1.72,4.24c-0.5,1.97-1.16,4.69-1.56,6.76
			c-1.26,0.25-2.62,0.66-3.58,1.01l-0.35-0.35c1.41-5.5,2.88-11.66,4.14-17.26c0.35-1.56,0.15-2.02-0.25-2.02
			c-0.55,0-1.82,1.11-3.08,2.32l-0.71-1.31c2.32-2.93,4.95-4.74,6.61-4.74c1.46,0,1.87,1.77,0.81,6.16l-0.71,2.98
			c4.49-5.85,9.03-9.13,12.06-9.13c1.66,0,3.23,1.16,1.61,7.92c-0.66,2.77-1.61,6.66-2.37,9.84c-0.3,1.36-0.3,1.97,0.05,1.97
			c0.45,0,1.92-0.81,3.73-2.72L34.61,216.66z"/>
		<path class="st0" d="M39.51,204.6v-2.57h24.27v2.57H39.51z M39.51,214.39v-2.57h24.27v2.57H39.51z"/>
		<path class="st0" d="M69.46,221.2v-1.17c4.65-0.29,4.9-0.5,4.9-3.64v-16.08c0-2.14-0.29-2.22-2.14-2.39l-2.05-0.21v-1.05
			c2.76-0.46,5.53-1.13,7.66-2.05v21.78c0,3.18,0.25,3.35,4.94,3.64v1.17H69.46z"/>
	</g>
	<g>
		<path class="st0" d="M171.93,169.47c-2.67,3.53-5.75,5.15-7.22,5.15c-1.36,0-2.07-1.21-1.11-5.35c0.91-3.58,1.77-7.17,2.52-10.35
			c0.81-3.28,0.61-4.39-0.66-4.39c-1.67,0-5.55,2.83-8.98,8.07c-0.91,1.36-1.31,2.68-1.72,4.24c-0.5,1.97-1.16,4.69-1.56,6.76
			c-1.26,0.25-2.62,0.66-3.58,1.01l-0.35-0.35c1.41-5.5,2.88-11.66,4.14-17.26c0.35-1.56,0.15-2.02-0.25-2.02
			c-0.55,0-1.82,1.11-3.08,2.32l-0.71-1.31c2.32-2.93,4.95-4.74,6.61-4.74c1.46,0,1.87,1.77,0.81,6.16l-0.71,2.98
			c4.49-5.85,9.03-9.13,12.06-9.13c1.66,0,3.23,1.16,1.61,7.92c-0.66,2.77-1.61,6.66-2.37,9.84c-0.3,1.36-0.3,1.97,0.05,1.97
			c0.45,0,1.92-0.81,3.73-2.72L171.93,169.47z"/>
	</g>
	<g>
		<g>
			<path class="st0" d="M17.89,82.6l26.8,40.67v4.18l-30.05,41.27h36.21c2.27,0,3.99-0.15,5.15-0.44c1.16-0.29,2.15-0.74,2.97-1.35
				s1.58-1.45,2.26-2.53c0.68-1.08,1.33-2.58,1.95-4.48c0.62-1.91,1.21-4.4,1.76-7.49h6.44l-1.6,26.86H0v-3.08l34.01-46.72
				L2.09,80.01v-3.14h67.97v24.49h-5.94c-0.92-3.49-1.79-6.33-2.61-8.53c-0.83-2.2-1.67-3.94-2.53-5.23
				c-0.86-1.28-1.74-2.26-2.64-2.94c-0.9-0.68-1.94-1.19-3.11-1.54c-1.17-0.35-2.73-0.52-4.68-0.52H17.89z"/>
		</g>
	</g>
	<g>
		<path class="st0" d="M101.9,87.54c5.41-0.56,10.6-1.69,13.86-2.82c1.69-0.68,2.48-0.9,3.16-0.9c0.9,0,1.13,1.13,0.56,3.72
			c-3.16,14.43-7.21,32.35-10.37,46.78c9.02-12.51,20.4-20.29,27.39-20.29c3.83,0,7.44,1.8,3.95,16.12
			c-1.58,6.99-3.72,16.46-5.52,23.56c-0.79,3.04-0.68,4.28,0.23,4.28c1.01,0,3.72-1.35,7.78-5.64l1.69,2.71
			c-5.52,7.55-12.85,11.16-16.12,11.16c-3.16,0-4.17-3.49-2.25-11.5c2.03-7.78,4.4-17.81,6.2-25.36c1.58-6.42,0.68-8.12-1.58-8.12
			c-4.17,0-12.62,5.41-20.18,17.81c-2.14,3.27-3.16,5.86-4.06,9.47c-1.01,4.51-2.48,11.16-3.38,15.56
			c-2.59,0.45-5.64,1.35-8.12,2.14l-0.79-0.79c4.85-21.75,10.71-49.26,14.65-69.43c0.9-4.62,0.22-4.74-3.16-5.07
			c-1.24-0.11-3.72-0.34-4.62-0.34L101.9,87.54z"/>
		<path class="st0" d="M209.17,105.72c-13.32,9.55-21.45,26.14-21.45,44.74c0,10.22,2.43,19.86,7.71,28.65l-2.09,1.76
			c-7.88-8.38-12.32-20.44-12.32-31.5c0-20.52,11.73-37.45,26.81-45.91L209.17,105.72z"/>
		<path class="st0" d="M230.45,131.02c-1.68,0.17-5.95,0.5-8.46,0.5c-3.77,17.43-4.94,22.79-5.36,25.3
			c-0.42,2.6,0.08,3.35,0.84,3.35c1.68,0,4.44-2.18,7.54-5.28l1.09,2.09c-2.68,4.11-9.22,8.88-12.82,8.88
			c-2.93,0-4.36-2.26-2.18-12.15l4.86-22.2h-6.7v-0.75l2.43-2.68h5.03l1.93-8.96c1.34-0.75,4.86-3.02,6.62-4.61l0.75,0.42
			c-1.01,3.35-2.35,8.8-3.27,13.15h9.3L230.45,131.02z"/>
		<path class="st0" d="M227.85,178.69c13.4-9.55,21.45-26.22,21.45-44.82c0-10.22-2.43-19.77-7.71-28.57l2.09-1.84
			c7.88,8.38,12.32,20.44,12.32,31.5c0,20.61-11.73,37.53-26.81,45.91L227.85,178.69z"/>
	</g>
</g>
</svg>
