<?xml version="1.0" encoding="utf-8"?>
<!-- Generator: Adobe Illustrator 26.0.1, SVG Export Plug-In . SVG Version: 6.00 Build 0)  -->
<svg version="1.1" id="Layer_1" xmlns="http://www.w3.org/2000/svg" xmlns:xlink="http://www.w3.org/1999/xlink" x="0px" y="0px"
	 viewBox="0 0 256 256" style="enable-background:new 0 0 256 256;" xml:space="preserve">
<style type="text/css">
	.st0{fill:#4259C3;}
</style>
<g>
	<g>
		<path class="st0" d="M62.6,34.66c-5.13,0.48-5.43,0.66-6.2,5.61c-1.25,8.53-2.09,15.57-3.1,23.38c-0.78,5.79-0.24,6.03,4.77,6.44
			l-0.42,1.67H42.02l0.42-1.67c4.77-0.48,5.13-0.66,6.03-6.44c1.25-8.65,2.39-16.58,3.7-25.05h-0.18
			c-6.56,10.98-16.52,27.62-19.51,33.17H31.1c-0.95-6.14-4.71-21.18-7.04-32.57h-0.12l-3.94,16.34c-1.43,6.02-2.09,8.77-2.39,10.8
			c-0.42,2.62,0.18,3.34,4.77,3.76l-0.42,1.67H7.96l0.42-1.67c4.06-0.3,5.07-1.13,5.91-3.64c1.07-3.1,2.33-7.22,3.94-13.54
			l2.86-11.45c1.49-5.85,1.43-6.08-4.35-6.8l0.48-1.67h10.02c1.97,9.19,5.13,20.28,7.4,30.3l18.49-30.3h9.9L62.6,34.66z"/>
	</g>
	<g>
		<path class="st0" d="M34.36,200.56c1.55,0,3.1,0.73,1.6,6.93c-0.68,3.01-1.7,7.13-2.42,10.18c-0.29,1.26-0.29,1.79,0.05,1.79
			c0.44,0,1.84-0.73,3.64-2.62l0.73,1.21c-2.47,3.3-5.72,4.94-7.13,4.94c-1.21,0-1.89-1.16-0.87-5.24
			c0.82-3.34,1.79-7.42,2.57-10.67c0.63-2.67,0.24-3.39-0.58-3.39c-1.55,0-5.62,2.72-8.92,8.05c-0.87,1.36-1.31,2.43-1.7,4.02
			c-0.44,1.89-1.02,4.32-1.41,6.3c-1.26,0.15-2.52,0.58-3.49,0.92l-0.34-0.34c1.21-4.94,2.42-9.6,3.44-14.54
			c0.68-3.01,0.58-4.41-0.53-4.41c-1.6,0-5.48,2.91-8.68,8.05c-0.82,1.31-1.26,2.57-1.65,4.07c-0.44,1.89-1.02,4.27-1.41,6.25
			c-1.26,0.19-2.57,0.58-3.49,0.92l-0.29-0.34c1.26-4.94,2.81-11.25,3.97-16.53c0.34-1.6,0.19-1.99-0.19-1.99
			c-0.58,0-1.89,1.02-3.1,2.18l-0.63-1.26c2.23-2.67,4.75-4.51,6.35-4.51c1.36,0,1.75,1.94,0.87,5.67l-0.73,3.3
			c4.46-6.11,8.97-8.97,11.39-8.97c1.7,0,2.86,1.31,1.5,7.47l-0.34,1.65C26.9,203.62,31.84,200.56,34.36,200.56z"/>
		<path class="st0" d="M42.65,206.48V204h23.32v2.47H42.65z M42.65,215.88v-2.47h23.32v2.47H42.65z"/>
		<path class="st0" d="M77.58,196.88c6.03,0,8.29,6.76,8.29,12.99c0,5.87-2.25,13.03-8.29,13.03c-6.15,0-8.41-6.64-8.41-12.99
			C69.18,204.04,71.47,196.88,77.58,196.88z M77.58,198.29c-3.74,0-4.67,5.91-4.67,11.54c0,5.63,1.13,11.67,4.67,11.67
			c3.62,0,4.59-5.99,4.59-11.62C82.17,204.2,81.16,198.29,77.58,198.29z"/>
	</g>
	<g>
		<path class="st0" d="M175.93,155.23c1.55,0,3.1,0.73,1.6,6.93c-0.68,3.01-1.7,7.13-2.42,10.18c-0.29,1.26-0.29,1.79,0.05,1.79
			c0.44,0,1.84-0.73,3.64-2.62l0.73,1.21c-2.47,3.3-5.72,4.94-7.13,4.94c-1.21,0-1.89-1.16-0.87-5.24
			c0.82-3.34,1.79-7.42,2.57-10.67c0.63-2.67,0.24-3.39-0.58-3.39c-1.55,0-5.62,2.72-8.92,8.05c-0.87,1.36-1.31,2.43-1.7,4.02
			c-0.44,1.89-1.02,4.32-1.41,6.3c-1.26,0.15-2.52,0.58-3.49,0.92l-0.34-0.34c1.21-4.94,2.42-9.6,3.44-14.54
			c0.68-3.01,0.58-4.41-0.53-4.41c-1.6,0-5.48,2.91-8.68,8.05c-0.82,1.31-1.26,2.57-1.65,4.07c-0.44,1.89-1.02,4.27-1.41,6.25
			c-1.26,0.19-2.57,0.58-3.49,0.92l-0.29-0.34c1.26-4.94,2.81-11.25,3.97-16.53c0.34-1.6,0.19-1.99-0.19-1.99
			c-0.58,0-1.89,1.02-3.1,2.18l-0.63-1.26c2.23-2.67,4.75-4.51,6.35-4.51c1.36,0,1.75,1.94,0.87,5.67l-0.73,3.3
			c4.46-6.11,8.97-8.97,11.39-8.97c1.7,0,2.86,1.31,1.5,7.47l-0.34,1.65C168.46,158.29,173.41,155.23,175.93,155.23z"/>
	</g>
	<g>
		<g>
			<path class="st0" d="M17.18,89.29l25.74,39.07v4.02l-28.86,39.65h34.78c2.18,0,3.83-0.14,4.94-0.42c1.11-0.28,2.06-0.71,2.85-1.3
				c0.79-0.58,1.52-1.39,2.17-2.43c0.65-1.04,1.28-2.48,1.88-4.31c0.6-1.83,1.16-4.23,1.69-7.19h6.18l-1.53,25.8H0v-2.96
				l32.67-44.88L2.01,86.8v-3.01H67.3v23.53h-5.71c-0.88-3.35-1.72-6.08-2.51-8.19c-0.79-2.11-1.6-3.79-2.43-5.02
				c-0.83-1.23-1.67-2.18-2.54-2.83c-0.86-0.65-1.86-1.15-2.99-1.48c-1.13-0.33-2.63-0.5-4.49-0.5H17.18z"/>
		</g>
	</g>
	<g>
		<path class="st0" d="M141.2,158.32c-5.54,7.56-12.6,11.2-15.94,11.2c-3.01,0-4.31-2.77-2.58-11.62c0.79-3.74,1.29-5.97,1.81-8.27
			c-4.32,5.87-9.15,11.11-14.47,15.31c-3.12,2.35-7.1,4.59-10.58,4.59c-3.6,0-7.6-2.33-4.56-15.61c1.6-6.67,3.51-14.45,5.35-22.13
			c0.83-3.15,0.74-4.14-0.15-4.14c-1.17,0-4.37,2.31-6.98,4.92l-1.54-2.84c5.43-5.97,12.66-10.33,16.18-10.33
			c3.17,0,3.49,3.3,1.46,11.97c-1.78,7.01-3.71,14.59-5.25,21.41c-1.55,6.91-0.88,8.93,1.19,8.93c3.65,0,9.71-5.42,14.92-12.16
			c3.07-3.98,5.93-8.9,7.57-15.31c0.71-2.72,1.77-7.24,2.7-12.07c2.42-0.71,6.03-1.9,8.56-2.85h1.25
			c-3.15,12.25-7.12,28.55-8.74,37.92c-0.34,2.64-0.08,3.74,0.7,3.74c0.95,0,3.48-1.22,7.4-5.37L141.2,158.32z"/>
		<path class="st0" d="M210.55,111.61c-12.8,9.17-20.47,25.08-20.47,42.97c0,9.69,2.17,18.96,7.22,27.32l-2.11,1.76
			c-7.64-7.98-12.06-19.49-12.06-30.4c0-19.8,11.5-35.9,26.11-43.91L210.55,111.61z"/>
		<path class="st0" d="M231.2,135.85c-1.54,0.16-5.66,0.47-8.04,0.48c-3.65,17-4.54,21.05-5.02,23.86
			c-0.43,2.58,0.04,3.29,0.76,3.29c1.6,0,4.25-2.04,7.14-4.98l1.09,2.1c-2.68,4-8.97,8.67-12.7,8.67c-2.99,0-4.4-2.29-2.34-11.64
			l4.64-21.3h-6.41l-0.03-0.72l2.36-2.7h4.83l1.84-8.57c1.55-0.84,5.16-3.06,6.95-4.63l0.81,0.46c-0.95,3.16-2.28,8.55-3.17,12.74
			h8.86L231.2,135.85z"/>
		<path class="st0" d="M228.56,181.47c12.88-9.19,20.49-25.15,20.49-43.05c0-9.69-2.17-18.89-7.22-27.25l2.11-1.81
			c7.62,7.97,12.06,19.49,12.06,30.39c0,19.88-11.5,35.98-26.11,43.93L228.56,181.47z"/>
	</g>
</g>
</svg>
