<?xml version="1.0" encoding="utf-8"?>
<!-- Generator: Adobe Illustrator 26.0.1, SVG Export Plug-In . SVG Version: 6.00 Build 0)  -->
<svg version="1.1" id="Layer_1" xmlns="http://www.w3.org/2000/svg" xmlns:xlink="http://www.w3.org/1999/xlink" x="0px" y="0px"
	 viewBox="0 0 256 256" style="enable-background:new 0 0 256 256;" xml:space="preserve">
<style type="text/css">
	.st0{fill:#4259C3;}
</style>
<g>
	<g>
		<path class="st0" d="M5.89,93.05c4.22-0.44,8.27-1.32,10.82-2.2c1.32-0.53,1.94-0.7,2.46-0.7c0.7,0,0.88,0.88,0.44,2.9
			c-2.46,11.26-5.63,25.24-8.09,36.49c7.03-9.76,15.92-15.83,21.37-15.83c2.99,0,5.8,1.41,3.08,12.58
			c-1.23,5.45-2.9,12.84-4.31,18.38c-0.62,2.37-0.53,3.34,0.18,3.34c0.79,0,2.9-1.06,6.07-4.4l1.32,2.11
			c-4.31,5.89-10.02,8.71-12.57,8.71c-2.46,0-3.25-2.73-1.76-8.97c1.58-6.07,3.43-13.89,4.84-19.79c1.23-5.01,0.53-6.33-1.23-6.33
			c-3.25,0-9.85,4.22-15.74,13.89c-1.67,2.55-2.46,4.57-3.17,7.39c-0.79,3.52-1.93,8.71-2.64,12.13c-2.02,0.35-4.4,1.05-6.33,1.67
			L0,153.81c3.78-16.97,8.35-38.43,11.43-54.17c0.7-3.61,0.18-3.69-2.46-3.96C8,95.6,6.07,95.42,5.36,95.42L5.89,93.05z"/>
		<path class="st0" d="M68.87,107.23c-10.39,7.45-16.73,20.39-16.73,34.9c0,7.97,1.9,15.49,6.01,22.35l-1.63,1.37
			c-6.14-6.54-9.61-15.95-9.61-24.57c0-16.01,9.15-29.21,20.91-35.81L68.87,107.23z"/>
		<path class="st0" d="M85.47,126.97c-1.31,0.13-4.64,0.39-6.6,0.39c-2.94,13.59-3.86,17.78-4.18,19.74
			c-0.33,2.03,0.07,2.61,0.65,2.61c1.31,0,3.46-1.7,5.88-4.12l0.85,1.63c-2.09,3.2-7.19,6.93-10,6.93c-2.29,0-3.4-1.76-1.7-9.48
			l3.79-17.32h-5.23v-0.59l1.9-2.09h3.92l1.5-6.99c1.05-0.59,3.79-2.35,5.16-3.59l0.59,0.33c-0.78,2.61-1.83,6.86-2.55,10.26h7.26
			L85.47,126.97z"/>
		<path class="st0" d="M83.44,164.15c10.46-7.45,16.73-20.46,16.73-34.97c0-7.97-1.89-15.42-6.01-22.29l1.63-1.44
			c6.14,6.54,9.61,15.95,9.61,24.57c0,16.08-9.15,29.28-20.91,35.82L83.44,164.15z"/>
		<path class="st0" d="M129.32,138.27v15.1h-3.92v-15.1h-13.79v-3.33h13.79v-13.73h3.92v13.73h13.79v3.33H129.32z"/>
		<path class="st0" d="M190,145.37c-4.31,5.98-10.02,8.97-12.49,8.97c-2.29,0-3.34-2.11-1.94-9.41c0.7-3.34,1.14-5.28,1.58-7.21
			c-3.61,4.92-7.83,9.5-12.22,12.93c-2.73,2.02-5.89,3.69-8.53,3.69c-2.81,0-5.98-1.85-3.52-12.66c1.32-5.45,2.9-11.96,4.4-18.11
			c0.7-2.64,0.62-3.43-0.09-3.43c-0.97,0-3.52,1.85-5.72,4.04l-1.23-2.2c4.22-4.66,9.94-8.27,12.66-8.27c2.46,0,2.55,2.73,0.97,9.5
			c-1.49,5.8-3.08,12.13-4.31,17.5c-1.32,5.98-0.79,7.65,0.97,7.65c3.08,0,8.27-4.57,12.75-10.29c2.64-3.34,5.1-7.56,6.42-12.75
			c0.53-2.02,1.41-5.63,2.11-9.41c1.76-0.53,4.48-1.5,6.33-2.29h0.97c-2.64,10.2-5.89,23.57-7.21,31.13c-0.26,2.11,0,2.99,0.62,2.99
			c0.79,0,2.9-1.06,6.16-4.48L190,145.37z"/>
		<path class="st0" d="M219.47,107.23c-10.39,7.45-16.73,20.39-16.73,34.9c0,7.97,1.9,15.49,6.01,22.35l-1.63,1.37
			c-6.14-6.54-9.61-15.95-9.61-24.57c0-16.01,9.15-29.21,20.91-35.81L219.47,107.23z"/>
		<path class="st0" d="M236.07,126.97c-1.31,0.13-4.64,0.39-6.6,0.39c-2.94,13.59-3.86,17.78-4.18,19.74
			c-0.33,2.03,0.07,2.61,0.65,2.61c1.31,0,3.46-1.7,5.88-4.12l0.85,1.63c-2.09,3.2-7.19,6.93-10,6.93c-2.29,0-3.4-1.76-1.7-9.48
			l3.79-17.32h-5.23v-0.59l1.9-2.09h3.92l1.5-6.99c1.05-0.59,3.79-2.35,5.16-3.59l0.59,0.33c-0.78,2.61-1.83,6.86-2.55,10.26h7.26
			L236.07,126.97z"/>
		<path class="st0" d="M234.04,164.15c10.46-7.45,16.73-20.46,16.73-34.97c0-7.97-1.89-15.42-6.01-22.29l1.63-1.44
			c6.14,6.54,9.61,15.95,9.61,24.57c0,16.08-9.15,29.28-20.91,35.82L234.04,164.15z"/>
	</g>
</g>
</svg>
