<?xml version="1.0" encoding="utf-8"?>
<!-- Generator: Adobe Illustrator 26.0.1, SVG Export Plug-In . SVG Version: 6.00 Build 0)  -->
<svg version="1.1" id="Layer_1" xmlns="http://www.w3.org/2000/svg" xmlns:xlink="http://www.w3.org/1999/xlink" x="0px" y="0px"
	 viewBox="0 0 256 256" style="enable-background:new 0 0 256 256;" xml:space="preserve">
<style type="text/css">
	.st0{fill:#4259C3;}
</style>
<g>
	<g>
		<g>
			<g>
				<polygon class="st0" points="127.59,198.31 117.11,198.31 117.11,195.32 124.6,195.32 124.6,187.83 127.59,187.83 				"/>
			</g>
		</g>
		<g>
			<g>
				<polygon class="st0" points="102.82,198.31 92.35,198.31 92.35,187.83 95.34,187.83 95.34,195.32 102.82,195.32 				"/>
			</g>
		</g>
		<g>
			<g>
				<rect x="92.35" y="165.51" class="st0" width="2.99" height="11.16"/>
			</g>
		</g>
		<g>
			<g>
				<polygon class="st0" points="95.34,154.35 92.35,154.35 92.35,143.87 102.82,143.87 102.82,146.86 95.34,146.86 				"/>
			</g>
		</g>
		<g>
			<g>
				<polygon class="st0" points="127.59,154.35 124.6,154.35 124.6,146.86 117.11,146.86 117.11,143.87 127.59,143.87 				"/>
			</g>
		</g>
		<g>
			<g>
				<rect x="124.6" y="165.51" class="st0" width="2.99" height="11.16"/>
			</g>
		</g>
	</g>
	<g>
		<path class="st0" d="M80.6,141.26c-8.74,12.13-20.33,18.19-25.32,18.19c-4.64,0-6.78-4.28-3.92-19.08
			c1.43-6.78,2.32-10.7,3.21-14.63c-7.31,9.99-15.87,19.26-24.79,26.21c-5.53,4.1-11.95,7.49-17.3,7.49
			c-5.71,0-12.13-3.75-7.13-25.68c2.68-11.06,5.88-24.25,8.92-36.74c1.43-5.35,1.25-6.96-0.18-6.96c-1.96,0-7.13,3.75-11.59,8.2
			L0,93.82c8.56-9.45,20.15-16.76,25.68-16.76c4.99,0,5.17,5.53,1.96,19.26c-3.03,11.77-6.24,24.61-8.74,35.49
			c-2.67,12.12-1.6,15.51,1.96,15.51c6.24,0,16.76-9.27,25.86-20.86c5.35-6.78,10.34-15.34,13.02-25.86
			c1.07-4.1,2.85-11.41,4.28-19.08c3.57-1.07,9.09-3.03,12.84-4.64h1.96c-5.35,20.69-11.95,47.79-14.62,63.13
			c-0.54,4.28,0,6.06,1.25,6.06c1.6,0,5.88-2.14,12.48-9.09L80.6,141.26z"/>
		<path class="st0" d="M181.92,63.91c-21.07,15.11-33.93,41.35-33.93,70.77c0,16.17,3.84,31.41,12.19,45.33l-3.31,2.78
			c-12.46-13.26-19.48-32.34-19.48-49.84c0-32.47,18.56-59.24,42.41-72.63L181.92,63.91z"/>
		<path class="st0" d="M215.58,103.94c-2.65,0.26-9.41,0.79-13.39,0.79c-5.97,27.57-7.82,36.05-8.48,40.03
			c-0.66,4.11,0.13,5.3,1.33,5.3c2.65,0,7.02-3.45,11.93-8.35l1.72,3.31c-4.24,6.49-14.58,14.05-20.28,14.05
			c-4.64,0-6.89-3.58-3.45-19.22l7.69-35.12h-10.6v-1.19l3.84-4.24h7.95l3.05-14.18c2.12-1.19,7.69-4.77,10.47-7.29l1.19,0.66
			c-1.59,5.3-3.71,13.92-5.17,20.81h14.71L215.58,103.94z"/>
		<path class="st0" d="M211.47,179.35c21.21-15.11,33.93-41.49,33.93-70.91c0-16.17-3.84-31.28-12.19-45.2l3.31-2.92
			C248.97,73.59,256,92.67,256,110.17c0,32.6-18.56,59.38-42.41,72.63L211.47,179.35z"/>
	</g>
	<g>
		<g>
			<path class="st0" d="M80.8,62.99H4.72c-1.46,0-2.65-1.19-2.65-2.65c0-1.47,1.19-2.65,2.65-2.65H80.8c1.46,0,2.65,1.19,2.65,2.65
				C83.45,61.8,82.26,62.99,80.8,62.99z"/>
		</g>
	</g>
</g>
</svg>
