<?xml version="1.0" encoding="utf-8"?>
<!-- Generator: Adobe Illustrator 26.0.1, SVG Export Plug-In . SVG Version: 6.00 Build 0)  -->
<svg version="1.1" id="Layer_1" xmlns="http://www.w3.org/2000/svg" xmlns:xlink="http://www.w3.org/1999/xlink" x="0px" y="0px"
	 viewBox="0 0 64 64" style="enable-background:new 0 0 64 64;" xml:space="preserve">
<g>
	<g>
		<path d="M63.22,53.31H0.78C0.35,53.31,0,52.96,0,52.53V11.47c0-0.43,0.35-0.78,0.78-0.78h62.44c0.43,0,0.78,0.35,0.78,0.78v41.06
			C64,52.96,63.65,53.31,63.22,53.31z M1.56,51.75h60.88v-39.5H1.56V51.75z"/>
	</g>
	<g>
		<g>
			<polygon points="22.67,20.91 21.41,20.91 21.41,39.23 24.42,39.23 24.42,31.73 31.81,31.73 31.81,28.86 24.42,28.86 24.42,23.79 
				33.19,23.79 33.19,20.91 24.42,20.91 			"/>
		</g>
		<g>
			<path d="M42.26,35.07c-0.35-0.52-0.96-0.79-1.83-0.79c-0.72,0-1.34,0.19-1.86,0.55c-0.52,0.37-0.86,0.89-1.04,1.57h-0.16
				l0.05-1.97h-1.44l-1.53,8.65h1.75l0.57-3.27c0.21-0.97,0.46-1.76,0.75-2.33c0.3-0.6,0.64-1.02,1.02-1.28
				c0.38-0.26,0.78-0.38,1.22-0.38c0.41,0,0.7,0.13,0.86,0.38c0.16,0.25,0.2,0.63,0.11,1.13l-1,5.75h1.75l1-5.69
				C42.68,36.37,42.6,35.6,42.26,35.07z"/>
		</g>
	</g>
</g>
</svg>
