<?xml version="1.0" encoding="utf-8"?>
<!-- Generator: Adobe Illustrator 26.0.1, SVG Export Plug-In . SVG Version: 6.00 Build 0)  -->
<svg version="1.1" id="Layer_1" xmlns="http://www.w3.org/2000/svg" xmlns:xlink="http://www.w3.org/1999/xlink" x="0px" y="0px"
	 viewBox="0 0 64 64" style="enable-background:new 0 0 64 64;" xml:space="preserve">
<g id="Horizontal_Line_00000139997509395479638170000007975586533868407946_">
	<g>
		<g>
			<g>
				<g>
					<g>
						<g>
							<g>
								<path d="M11.74,41.25c0.15,0.94,0.91,2.14,2.16,2.56c0.51,0.17,1.07,0.17,1.58,0c1.23-0.43,2.01-1.62,2.16-2.56
									c0.16-0.01,0.38-0.23,0.61-1.03c0.32-1.08-0.02-1.25-0.31-1.22c0.05-0.15,0.1-0.3,0.12-0.44c0.49-2.81-0.95-2.91-0.95-2.91
									s-0.24-0.44-0.87-0.77c-0.42-0.24-1.01-0.43-1.78-0.36c-0.25,0.01-0.49,0.06-0.71,0.13c-0.28,0.09-0.55,0.23-0.78,0.39
									c-0.29,0.17-0.56,0.39-0.8,0.64c-0.38,0.38-0.72,0.86-0.87,1.46c-0.12,0.45-0.1,0.92,0.01,1.43
									c0.03,0.15,0.07,0.3,0.12,0.44c-0.29-0.03-0.63,0.13-0.31,1.22C11.36,41.02,11.58,41.24,11.74,41.25L11.74,41.25z
									 M11.74,41.25"/>
							</g>
						</g>
						<g>
							<g>
								<path d="M20.36,44.94c-1.75-0.43-3.18-1.39-3.18-1.39l-1.11,3.38l-0.21,0.64l0-0.01l-0.18,0.54l-0.59-1.6
									c1.44-1.93-0.29-1.91-0.39-1.91c-0.1,0-1.83-0.02-0.39,1.91l-0.59,1.6l-0.18-0.54l0,0.01l-0.21-0.64l-1.12-3.38
									c0,0-1.42,0.96-3.18,1.39c-1.31,0.32-1.37,1.77-1.32,2.48c0,0,0.08,0.97,0.15,1.4c0,0,2.55,1.59,6.83,1.59
									c4.28,0,6.83-1.59,6.83-1.59c0.08-0.43,0.15-1.4,0.15-1.4C21.73,46.71,21.66,45.26,20.36,44.94L20.36,44.94z M20.36,44.94"
									/>
							</g>
						</g>
					</g>
				</g>
			</g>
		</g>
		<g>
			<g>
				<g>
					<g>
						<g>
							<g>
								<path d="M29.05,41.25c0.15,0.94,0.91,2.14,2.16,2.56c0.51,0.17,1.07,0.17,1.58,0c1.23-0.43,2.01-1.62,2.16-2.56
									c0.16-0.01,0.38-0.23,0.61-1.03c0.32-1.08-0.02-1.25-0.31-1.22c0.05-0.15,0.1-0.3,0.12-0.44c0.49-2.81-0.95-2.91-0.95-2.91
									s-0.24-0.44-0.87-0.77c-0.42-0.24-1.01-0.43-1.78-0.36c-0.25,0.01-0.49,0.06-0.71,0.13c-0.28,0.09-0.55,0.23-0.78,0.39
									c-0.29,0.17-0.56,0.39-0.8,0.64c-0.38,0.38-0.72,0.86-0.87,1.46c-0.12,0.45-0.1,0.92,0.01,1.43
									c0.03,0.15,0.07,0.3,0.12,0.44c-0.29-0.03-0.63,0.13-0.31,1.22C28.67,41.02,28.88,41.24,29.05,41.25L29.05,41.25z
									 M29.05,41.25"/>
							</g>
						</g>
						<g>
							<g>
								<path d="M37.66,44.94c-1.75-0.43-3.18-1.39-3.18-1.39l-1.11,3.38l-0.21,0.64l0-0.01l-0.18,0.54l-0.59-1.6
									c1.44-1.93-0.29-1.91-0.39-1.91c-0.1,0-1.83-0.02-0.39,1.91l-0.59,1.6l-0.18-0.54l0,0.01l-0.21-0.64l-1.12-3.38
									c0,0-1.42,0.96-3.18,1.39c-1.31,0.32-1.37,1.77-1.32,2.48c0,0,0.08,0.97,0.15,1.4c0,0,2.55,1.59,6.83,1.59
									c4.28,0,6.83-1.59,6.83-1.59c0.08-0.43,0.15-1.4,0.15-1.4C39.03,46.71,38.97,45.26,37.66,44.94L37.66,44.94z M37.66,44.94"
									/>
							</g>
						</g>
					</g>
				</g>
			</g>
		</g>
		<g>
			<g>
				<g>
					<g>
						<g>
							<g>
								<path d="M46.35,41.25c0.15,0.94,0.91,2.14,2.16,2.56c0.51,0.17,1.07,0.17,1.58,0c1.23-0.43,2.01-1.62,2.16-2.56
									c0.16-0.01,0.38-0.23,0.61-1.03c0.32-1.08-0.02-1.25-0.31-1.22c0.05-0.15,0.1-0.3,0.12-0.44c0.49-2.81-0.95-2.91-0.95-2.91
									s-0.24-0.44-0.87-0.77c-0.42-0.24-1.01-0.43-1.78-0.36c-0.25,0.01-0.49,0.06-0.71,0.13c-0.28,0.09-0.55,0.23-0.78,0.39
									c-0.29,0.17-0.56,0.39-0.8,0.64c-0.38,0.38-0.72,0.86-0.87,1.46c-0.12,0.45-0.1,0.92,0.01,1.43
									c0.03,0.15,0.07,0.3,0.12,0.44c-0.29-0.03-0.63,0.13-0.31,1.22C45.97,41.02,46.19,41.24,46.35,41.25L46.35,41.25z
									 M46.35,41.25"/>
							</g>
						</g>
						<g>
							<g>
								<path d="M54.97,44.94c-1.75-0.43-3.18-1.39-3.18-1.39l-1.11,3.38l-0.21,0.64l0-0.01l-0.18,0.54l-0.59-1.6
									c1.44-1.93-0.29-1.91-0.39-1.91c-0.1,0-1.83-0.02-0.39,1.91l-0.59,1.6l-0.18-0.54l0,0.01l-0.21-0.64l-1.12-3.38
									c0,0-1.42,0.96-3.18,1.39c-1.31,0.32-1.37,1.77-1.32,2.48c0,0,0.08,0.97,0.15,1.4c0,0,2.55,1.59,6.83,1.59
									c4.28,0,6.83-1.59,6.83-1.59c0.08-0.43,0.15-1.4,0.15-1.4C56.34,46.71,56.28,45.26,54.97,44.94L54.97,44.94z M54.97,44.94"
									/>
							</g>
						</g>
					</g>
				</g>
			</g>
		</g>
	</g>
	<g>
		<g>
			<rect y="31.75" width="64" height="1.89"/>
		</g>
	</g>
	<g>
		<path d="M33.39,14.52c-1.27,0.07-1.56,0.47-1.72,1.16c-0.19,0.67-0.47,1.85-1.14,5.34c-0.67,3.58-1.99,5.45-5.32,5.43
			c-2.55-0.02-4.57-1.27-3.8-5.23l0.99-5.06c0.26-1.42,0.09-1.5-1.44-1.65l0.11-0.52h4.93l-0.09,0.52c-1.5,0.15-1.67,0.19-1.95,1.65
			l-0.97,5c-0.62,3.13,0.67,4.29,2.66,4.29c2.29,0,3.41-1.16,4.05-4.4c0.69-3.58,0.9-4.76,0.96-5.47c0.06-0.79-0.28-0.97-1.69-1.07
			l0.13-0.52h4.44L33.39,14.52z"/>
		<path d="M45.02,13.58c-0.21,0.86-0.43,2.23-0.6,3.24l-0.58,0.04c0-0.3,0-0.71-0.07-1.03c-0.09-0.82-0.32-1.12-2.02-1.12H40.6
			l-1.76,9.2c-0.28,1.52-0.13,1.61,1.57,1.74l-0.11,0.52h-5.15l0.13-0.52c1.59-0.13,1.72-0.24,2-1.74l1.76-9.2h-1.12
			c-1.5,0-1.82,0.24-2.15,0.73c-0.26,0.34-0.56,0.82-0.84,1.44l-0.6-0.06c0.3-1.09,0.6-2.21,0.77-3.24h0.43
			c0.19,0.43,0.39,0.41,0.9,0.41h7.19c0.49,0,0.62-0.06,0.97-0.41H45.02z"/>
	</g>
</g>
</svg>
