<?xml version="1.0" encoding="utf-8"?>
<!-- Generator: Adobe Illustrator 26.0.1, SVG Export Plug-In . SVG Version: 6.00 Build 0)  -->
<svg version="1.1" id="Layer_1" xmlns="http://www.w3.org/2000/svg" xmlns:xlink="http://www.w3.org/1999/xlink" x="0px" y="0px"
	 viewBox="0 0 64 64" style="enable-background:new 0 0 64 64;" xml:space="preserve">
<g id="Horizontal_Line_00000139975119301879784280000015376104176851190915_">
	<g>
		<g>
			<g>
				<g>
					<g>
						<g>
							<g>
								<path d="M11.74,49.61c0.15,0.94,0.91,2.14,2.16,2.56c0.51,0.17,1.07,0.17,1.58,0c1.23-0.43,2.01-1.62,2.16-2.56
									c0.16-0.01,0.38-0.23,0.61-1.03c0.32-1.08-0.02-1.25-0.31-1.22c0.05-0.15,0.1-0.3,0.12-0.44c0.49-2.81-0.95-2.91-0.95-2.91
									s-0.24-0.44-0.87-0.77c-0.42-0.24-1.01-0.43-1.78-0.36c-0.25,0.01-0.49,0.06-0.71,0.13c-0.28,0.09-0.55,0.23-0.78,0.39
									c-0.29,0.17-0.56,0.39-0.8,0.64c-0.38,0.38-0.72,0.86-0.87,1.46c-0.12,0.45-0.1,0.92,0.01,1.43
									c0.03,0.15,0.07,0.3,0.12,0.44c-0.29-0.03-0.63,0.13-0.31,1.22C11.36,49.37,11.58,49.59,11.74,49.61L11.74,49.61z
									 M11.74,49.61"/>
							</g>
						</g>
						<g>
							<g>
								<path d="M20.36,53.29c-1.75-0.43-3.18-1.39-3.18-1.39l-1.11,3.38l-0.21,0.64l0-0.01l-0.18,0.54l-0.59-1.6
									c1.44-1.93-0.29-1.91-0.39-1.91c-0.1,0-1.83-0.02-0.39,1.91l-0.59,1.6l-0.18-0.54l0,0.01l-0.21-0.64l-1.12-3.38
									c0,0-1.42,0.96-3.18,1.39c-1.31,0.32-1.37,1.77-1.32,2.48c0,0,0.08,0.97,0.15,1.4c0,0,2.55,1.59,6.83,1.59
									c4.28,0,6.83-1.59,6.83-1.59c0.08-0.43,0.15-1.4,0.15-1.4C21.73,55.06,21.66,53.61,20.36,53.29L20.36,53.29z M20.36,53.29"
									/>
							</g>
						</g>
					</g>
				</g>
			</g>
		</g>
		<g>
			<g>
				<g>
					<g>
						<g>
							<g>
								<path d="M29.05,49.61c0.15,0.94,0.91,2.14,2.16,2.56c0.51,0.17,1.07,0.17,1.58,0c1.23-0.43,2.01-1.62,2.16-2.56
									c0.16-0.01,0.38-0.23,0.61-1.03c0.32-1.08-0.02-1.25-0.31-1.22c0.05-0.15,0.1-0.3,0.12-0.44c0.49-2.81-0.95-2.91-0.95-2.91
									s-0.24-0.44-0.87-0.77c-0.42-0.24-1.01-0.43-1.78-0.36c-0.25,0.01-0.49,0.06-0.71,0.13c-0.28,0.09-0.55,0.23-0.78,0.39
									c-0.29,0.17-0.56,0.39-0.8,0.64c-0.38,0.38-0.72,0.86-0.87,1.46c-0.12,0.45-0.1,0.92,0.01,1.43
									c0.03,0.15,0.07,0.3,0.12,0.44c-0.29-0.03-0.63,0.13-0.31,1.22C28.67,49.37,28.88,49.59,29.05,49.61L29.05,49.61z
									 M29.05,49.61"/>
							</g>
						</g>
						<g>
							<g>
								<path d="M37.66,53.29c-1.75-0.43-3.18-1.39-3.18-1.39l-1.11,3.38l-0.21,0.64l0-0.01l-0.18,0.54l-0.59-1.6
									c1.44-1.93-0.29-1.91-0.39-1.91c-0.1,0-1.83-0.02-0.39,1.91l-0.59,1.6l-0.18-0.54l0,0.01l-0.21-0.64l-1.12-3.38
									c0,0-1.42,0.96-3.18,1.39c-1.31,0.32-1.37,1.77-1.32,2.48c0,0,0.08,0.97,0.15,1.4c0,0,2.55,1.59,6.83,1.59
									c4.28,0,6.83-1.59,6.83-1.59c0.08-0.43,0.15-1.4,0.15-1.4C39.03,55.06,38.97,53.61,37.66,53.29L37.66,53.29z M37.66,53.29"
									/>
							</g>
						</g>
					</g>
				</g>
			</g>
		</g>
		<g>
			<g>
				<g>
					<g>
						<g>
							<g>
								<path d="M46.35,49.61c0.15,0.94,0.91,2.14,2.16,2.56c0.51,0.17,1.07,0.17,1.58,0c1.23-0.43,2.01-1.62,2.16-2.56
									c0.16-0.01,0.38-0.23,0.61-1.03c0.32-1.08-0.02-1.25-0.31-1.22c0.05-0.15,0.1-0.3,0.12-0.44c0.49-2.81-0.95-2.91-0.95-2.91
									s-0.24-0.44-0.87-0.77c-0.42-0.24-1.01-0.43-1.78-0.36c-0.25,0.01-0.49,0.06-0.71,0.13c-0.28,0.09-0.55,0.23-0.78,0.39
									c-0.29,0.17-0.56,0.39-0.8,0.64c-0.38,0.38-0.72,0.86-0.87,1.46c-0.12,0.45-0.1,0.92,0.01,1.43
									c0.03,0.15,0.07,0.3,0.12,0.44c-0.29-0.03-0.63,0.13-0.31,1.22C45.97,49.37,46.19,49.59,46.35,49.61L46.35,49.61z
									 M46.35,49.61"/>
							</g>
						</g>
						<g>
							<g>
								<path d="M54.97,53.29c-1.75-0.43-3.18-1.39-3.18-1.39l-1.11,3.38l-0.21,0.64l0-0.01l-0.18,0.54l-0.59-1.6
									c1.44-1.93-0.29-1.91-0.39-1.91c-0.1,0-1.83-0.02-0.39,1.91l-0.59,1.6l-0.18-0.54l0,0.01l-0.21-0.64l-1.12-3.38
									c0,0-1.42,0.96-3.18,1.39c-1.31,0.32-1.37,1.77-1.32,2.48c0,0,0.08,0.97,0.15,1.4c0,0,2.55,1.59,6.83,1.59
									c4.28,0,6.83-1.59,6.83-1.59c0.08-0.43,0.15-1.4,0.15-1.4C56.34,55.06,56.28,53.61,54.97,53.29L54.97,53.29z M54.97,53.29"
									/>
							</g>
						</g>
					</g>
				</g>
			</g>
		</g>
	</g>
	<g>
		<g>
			<rect x="0" y="40.11" width="64" height="1.89"/>
		</g>
	</g>
	<g>
		<g>
			<rect x="10.86" y="13.75" transform="matrix(0.7071 0.7071 -0.7071 0.7071 23.9728 -12.1692)" width="31.64" height="18.22"/>
		</g>
	</g>
</g>
</svg>
