<?xml version="1.0" encoding="utf-8"?>
<!-- Generator: Adobe Illustrator 26.0.1, SVG Export Plug-In . SVG Version: 6.00 Build 0)  -->
<svg version="1.1" id="Layer_1" xmlns="http://www.w3.org/2000/svg" xmlns:xlink="http://www.w3.org/1999/xlink" x="0px" y="0px"
	 viewBox="0 0 64 64" style="enable-background:new 0 0 64 64;" xml:space="preserve">
<g id="House_View_00000178883202065285034720000017079319479379097506_">
	<g id="House_View_00000136412822395727559310000009175897277204459455_">
		<path d="M55.42,63.84H42.39c-1.51,0-2.75-1.23-2.75-2.75V43.73c0-0.5-0.4-0.9-0.9-0.9H25.26c-0.49,0-0.9,0.41-0.9,0.9v17.36
			c0,1.51-1.23,2.75-2.75,2.75H8.58c-1.51,0-2.74-1.23-2.74-2.75V30.16H0.93c-0.38,0-0.73-0.24-0.87-0.59
			c-0.14-0.36-0.04-0.76,0.24-1.02L31.38,0.4c0.35-0.32,0.89-0.32,1.24,0L63.7,28.55c0.28,0.26,0.38,0.66,0.24,1.02
			c-0.14,0.36-0.48,0.59-0.87,0.59h-4.9v30.93C58.17,62.61,56.94,63.84,55.42,63.84z M25.26,40.98h13.49c1.52,0,2.76,1.24,2.76,2.76
			v17.36c0,0.49,0.4,0.89,0.89,0.89h13.03c0.49,0,0.9-0.4,0.9-0.89V29.24c0-0.51,0.42-0.93,0.93-0.93h3.42L32,2.34L3.33,28.31h3.43
			c0.51,0,0.93,0.42,0.93,0.93v31.86c0,0.49,0.4,0.89,0.89,0.89h13.03c0.49,0,0.9-0.4,0.9-0.89V43.73
			C22.5,42.21,23.74,40.98,25.26,40.98z"/>
	</g>
	<g>
		<path d="M43.42,63.84H18.02c-0.51,0-0.93-0.42-0.93-0.93s0.42-0.93,0.93-0.93h25.39c0.51,0,0.93,0.42,0.93,0.93
			S43.93,63.84,43.42,63.84z"/>
	</g>
</g>
</svg>
