<?xml version="1.0" encoding="utf-8"?>
<!-- Generator: Adobe Illustrator 26.0.1, SVG Export Plug-In . SVG Version: 6.00 Build 0)  -->
<svg version="1.1" id="Layer_1" xmlns="http://www.w3.org/2000/svg" xmlns:xlink="http://www.w3.org/1999/xlink" x="0px" y="0px"
	 viewBox="0 0 64 64" style="enable-background:new 0 0 64 64;" xml:space="preserve">
<g id="House_View_00000037685994793902224920000014939290639663539079_">
	<g id="House_View_00000101821410400840862750000017712565524295818387_">
		<path d="M55.42,63.84H40.57c-0.51,0-0.93-0.42-0.93-0.93V43.73c0-0.5-0.4-0.9-0.9-0.9H25.25c-0.49,0-0.9,0.4-0.9,0.9v19.18
			c0,0.51-0.42,0.93-0.93,0.93H8.58c-1.51,0-2.74-1.23-2.74-2.75V30.16H0.93c-0.38,0-0.73-0.24-0.87-0.59
			c-0.14-0.36-0.04-0.76,0.24-1.02L31.38,0.4c0.35-0.32,0.89-0.32,1.24,0L63.7,28.55c0.28,0.26,0.38,0.66,0.24,1.02
			c-0.14,0.36-0.48,0.59-0.87,0.59h-4.9v30.93C58.17,62.61,56.94,63.84,55.42,63.84z M41.5,61.98h13.92c0.49,0,0.9-0.4,0.9-0.89
			V29.24c0-0.51,0.42-0.93,0.93-0.93h3.43L32,2.34L3.33,28.31h3.43c0.51,0,0.93,0.42,0.93,0.93v31.86c0,0.49,0.4,0.89,0.89,0.89
			H22.5V43.73c0-1.52,1.23-2.75,2.75-2.75h13.49c1.52,0,2.76,1.24,2.76,2.76V61.98z"/>
	</g>
	<g>
		<path d="M43.42,63.84H18.02c-0.51,0-0.93-0.42-0.93-0.93s0.42-0.93,0.93-0.93h25.39c0.51,0,0.93,0.42,0.93,0.93
			S43.93,63.84,43.42,63.84z"/>
	</g>
</g>
</svg>
