<?xml version="1.0" encoding="utf-8"?>
<!-- Generator: Adobe Illustrator 26.0.1, SVG Export Plug-In . SVG Version: 6.00 Build 0)  -->
<svg version="1.1" id="Layer_1" xmlns="http://www.w3.org/2000/svg" xmlns:xlink="http://www.w3.org/1999/xlink" x="0px" y="0px"
	 viewBox="0 0 64 64" style="enable-background:new 0 0 64 64;" xml:space="preserve">
<style type="text/css">
	.st0{fill:#FF0000;}
	.st1{fill:#FFFFFF;}
</style>
<g id="Philosophy_00000140014892168100184210000015234789611302917308_">
	<g>
		<circle class="st0" cx="32" cy="32" r="32"/>
	</g>
	<g>
		<g>
			<path class="st1" d="M28.77,23.2c-0.87-0.49-1.9-0.73-3.08-0.73h-4.38h-1.63h-1.51v19.06h3.13v-7.39h4.38
				c1.17,0,2.2-0.24,3.07-0.72c0.88-0.48,1.56-1.16,2.05-2.03c0.49-0.87,0.73-1.9,0.73-3.07c0-1.18-0.24-2.21-0.73-3.08
				C30.32,24.36,29.64,23.68,28.77,23.2z M27.62,30.35c-0.47,0.52-1.08,0.78-1.84,0.78h-4.47v-5.66h4.47c0.77,0,1.39,0.26,1.85,0.77
				c0.46,0.52,0.69,1.21,0.69,2.07C28.32,29.15,28.09,29.83,27.62,30.35z"/>
		</g>
		<g>
			<path class="st1" d="M44.63,29.17c-0.8-0.97-1.92-1.45-3.38-1.45c-0.87,0-1.61,0.22-2.23,0.66c-0.49,0.35-0.91,0.81-1.26,1.39
				v-7.31h-3.13v19.06h3.13v-8.44c0-0.75,0.21-1.33,0.63-1.74c0.42-0.41,1.01-0.62,1.78-0.62c0.8,0,1.42,0.22,1.86,0.66
				c0.44,0.44,0.66,1.07,0.66,1.89v8.25h3.13v-8.26C45.83,31.51,45.43,30.14,44.63,29.17z"/>
		</g>
	</g>
</g>
</svg>
