<?xml version="1.0" encoding="utf-8"?>
<!-- Generator: Adobe Illustrator 26.0.1, SVG Export Plug-In . SVG Version: 6.00 Build 0)  -->
<svg version="1.1" id="Layer_1" xmlns="http://www.w3.org/2000/svg" xmlns:xlink="http://www.w3.org/1999/xlink" x="0px" y="0px"
	 viewBox="0 0 64 64" style="enable-background:new 0 0 64 64;" xml:space="preserve">
<style type="text/css">
	.st0{fill:#FFFFFF;}
</style>
<g id="Relate_00000148640418968615964400000004399175626756678799_">
	<g>
		<circle cx="32" cy="32" r="32"/>
	</g>
	<g>
		<path class="st0" d="M37.38,45.58h4.52l-6.27-11.89c0.49-0.15,0.95-0.33,1.38-0.57c1.18-0.65,2.09-1.57,2.75-2.74
			c0.66-1.18,0.99-2.55,0.99-4.12c0-1.58-0.33-2.96-0.98-4.13c-0.65-1.17-1.57-2.08-2.75-2.74c-1.18-0.65-2.57-0.98-4.15-0.98h-6.97
			h-2.15H22.1v27.17h3.81V34.1h5.67L37.38,45.58z M25.91,22.04h7.11c1.11,0,2,0.39,2.67,1.16c0.67,0.77,1.01,1.79,1.01,3.06
			c0,1.27-0.34,2.29-1.01,3.06c-0.67,0.77-1.56,1.16-2.67,1.16h-7.11V22.04z"/>
	</g>
</g>
</svg>
