<?xml version="1.0" encoding="utf-8"?>
<!-- Generator: Adobe Illustrator 26.0.1, SVG Export Plug-In . SVG Version: 6.00 Build 0)  -->
<svg version="1.1" id="Layer_1" xmlns="http://www.w3.org/2000/svg" xmlns:xlink="http://www.w3.org/1999/xlink" x="0px" y="0px"
	 viewBox="0 0 64 64" style="enable-background:new 0 0 64 64;" xml:space="preserve">
<g id="Room_View_00000031895659219005941480000007274080147240462215_">
	<g>
		<path d="M1.02,51.44c-0.19,0-0.37-0.06-0.53-0.17c-0.25-0.17-0.4-0.46-0.4-0.76V12.39c0-0.39,0.24-0.74,0.61-0.87L31.68,0.06
			c0.29-0.11,0.61-0.06,0.86,0.11c0.25,0.17,0.4,0.46,0.4,0.76v38.12c0,0.42-0.28,0.77-0.66,0.89L1.34,51.38
			C1.24,51.42,1.13,51.44,1.02,51.44z M1.95,13.04v36.13L31.07,38.4V2.27L1.95,13.04z"/>
	</g>
	<g>
		<path d="M11.31,36.1c-0.19,0-0.37-0.06-0.53-0.17c-0.25-0.17-0.4-0.46-0.4-0.76V21.6c0-0.39,0.24-0.74,0.61-0.87l11.03-4.08
			c0.29-0.1,0.61-0.06,0.86,0.11c0.25,0.17,0.4,0.46,0.4,0.76v13.57c0,0.39-0.24,0.74-0.61,0.87l-11.03,4.08
			C11.53,36.08,11.42,36.1,11.31,36.1z M12.24,22.25v11.58l9.16-3.39l0-11.58L12.24,22.25z"/>
	</g>
	<g>
		<path d="M62.98,51.44c-0.11,0-0.22-0.02-0.32-0.06l-9.95-3.68c-0.37-0.14-0.61-0.48-0.61-0.87V21.94l-11-4.07v24.2
			c0,0.3-0.15,0.59-0.4,0.76c-0.25,0.17-0.57,0.22-0.86,0.11l-8.16-3.02c-0.37-0.14-0.61-0.48-0.61-0.87V0.93
			c0-0.3,0.15-0.59,0.4-0.76c0.25-0.17,0.57-0.22,0.86-0.11l30.98,11.45c0.37,0.14,0.61,0.48,0.61,0.87V50.5
			c0,0.3-0.15,0.59-0.4,0.76C63.36,51.38,63.17,51.44,62.98,51.44z M53.96,46.18l8.09,2.99V13.03L32.93,2.27V38.4l6.3,2.33v-24.2
			c0-0.31,0.15-0.59,0.4-0.76c0.25-0.17,0.57-0.21,0.86-0.11l12.87,4.76c0.37,0.14,0.61,0.48,0.61,0.87V46.18z"/>
	</g>
	<g>
		<path d="M53.03,47.76c-0.11,0-0.22-0.02-0.32-0.06l-12.87-4.76c-0.37-0.14-0.61-0.48-0.61-0.87V16.53c0-0.31,0.15-0.59,0.4-0.76
			c0.25-0.17,0.57-0.21,0.86-0.11l12.87,4.76c0.37,0.14,0.61,0.48,0.61,0.87v25.54c0,0.31-0.15,0.59-0.4,0.77
			C53.4,47.7,53.22,47.76,53.03,47.76z M41.1,41.42l11,4.07V21.94l-11-4.07V41.42z"/>
	</g>
	<g>
		<path d="M32,64c-0.12,0-0.24-0.02-0.35-0.07L0.67,51.37c-0.36-0.14-0.59-0.49-0.58-0.88c0.01-0.38,0.25-0.73,0.61-0.86
			l30.98-11.45c0.21-0.08,0.44-0.08,0.65,0l30.98,11.45c0.36,0.13,0.6,0.48,0.61,0.86c0.01,0.38-0.23,0.73-0.58,0.88L32.35,63.93
			C32.24,63.98,32.12,64,32,64z M3.6,50.54L32,62.06l28.4-11.52L32,40.04L3.6,50.54z"/>
	</g>
</g>
</svg>
