<?xml version="1.0" encoding="utf-8"?>
<!-- Generator: Adobe Illustrator 26.0.1, SVG Export Plug-In . SVG Version: 6.00 Build 0)  -->
<svg version="1.1" id="Layer_1" xmlns="http://www.w3.org/2000/svg" xmlns:xlink="http://www.w3.org/1999/xlink" x="0px" y="0px"
	 viewBox="0 0 64 64" style="enable-background:new 0 0 64 64;" xml:space="preserve">
<g id="Room_View_00000144317266554799869120000000795237167069076886_">
	<g>
		<path d="M33.15,64H1.39c-0.51,0-0.93-0.42-0.93-0.93V30.39c0-0.51,0.42-0.93,0.93-0.93h31.75c0.51,0,0.93,0.42,0.93,0.93v32.68
			C34.08,63.58,33.66,64,33.15,64z M2.33,62.14h29.89V31.32H2.33V62.14z"/>
	</g>
	<g>
		<path d="M29.4,45.75H5.14c-0.51,0-0.93-0.42-0.93-0.93V34.73c0-0.51,0.42-0.93,0.93-0.93H29.4c0.51,0,0.93,0.42,0.93,0.93v10.09
			C30.34,45.34,29.92,45.75,29.4,45.75z M6.07,43.89h22.4v-8.23H6.07V43.89z"/>
	</g>
	<g>
		<path d="M47.42,49.72H33.15c-0.51,0-0.93-0.42-0.93-0.93c0-0.51,0.42-0.93,0.93-0.93h13.34V17.05H16.6v13.34
			c0,0.51-0.42,0.93-0.93,0.93c-0.51,0-0.93-0.42-0.93-0.93V16.12c0-0.51,0.42-0.93,0.93-0.93h31.75c0.51,0,0.93,0.42,0.93,0.93
			v32.67C48.36,49.31,47.94,49.72,47.42,49.72z"/>
	</g>
	<g>
		<path d="M43.68,31.48c0,0-0.01,0-0.01,0l-10.53-0.15c-0.51-0.01-0.93-0.43-0.92-0.95c0.01-0.51,0.42-0.92,0.93-0.92
			c0,0,0.01,0,0.01,0l9.59,0.14v-8.21h-22.4v8.85c0,0.51-0.42,0.93-0.93,0.93s-0.93-0.42-0.93-0.93v-9.78
			c0-0.51,0.42-0.93,0.93-0.93h24.27c0.51,0,0.93,0.42,0.93,0.93v10.09c0,0.25-0.1,0.49-0.28,0.66
			C44.16,31.38,43.92,31.48,43.68,31.48z"/>
	</g>
	<g>
		<path d="M62.61,34.54H47.42c-0.51,0-0.93-0.42-0.93-0.93s0.42-0.93,0.93-0.93h14.25V1.86H31.79v14.25c0,0.51-0.42,0.93-0.93,0.93
			c-0.51,0-0.93-0.42-0.93-0.93V0.93c0-0.51,0.42-0.93,0.93-0.93h31.75c0.51,0,0.93,0.42,0.93,0.93v32.68
			C63.54,34.12,63.12,34.54,62.61,34.54z"/>
	</g>
	<g>
		<path d="M58.86,17.05H34.6c-0.51,0-0.93-0.42-0.93-0.93V5.27c0-0.51,0.42-0.93,0.93-0.93h24.27c0.51,0,0.93,0.42,0.93,0.93v10.85
			C59.8,16.63,59.38,17.05,58.86,17.05z M35.53,15.18h22.4V6.2h-22.4V15.18z"/>
	</g>
	<g>
		<path d="M1.39,31.32c-0.24,0-0.48-0.09-0.66-0.27c-0.36-0.36-0.36-0.95,0-1.32L30.19,0.27c0.36-0.36,0.95-0.36,1.32,0
			c0.36,0.36,0.36,0.95,0,1.32L2.05,31.05C1.87,31.23,1.63,31.32,1.39,31.32z"/>
	</g>
</g>
</svg>
