<?xml version="1.0" encoding="utf-8"?>
<!-- Generator: Adobe Illustrator 26.0.1, SVG Export Plug-In . SVG Version: 6.00 Build 0)  -->
<svg version="1.1" id="Layer_1" xmlns="http://www.w3.org/2000/svg" xmlns:xlink="http://www.w3.org/1999/xlink" x="0px" y="0px"
	 viewBox="0 0 64 64" style="enable-background:new 0 0 64 64;" xml:space="preserve">
<g>
	<g id="Person_00000060008222283539057990000005751225090276888488_">
		<g>
			<path d="M43.42,40.66c0.23,1.48,1.37,3.37,3.25,4.04c0.77,0.27,1.61,0.28,2.38-0.01c1.85-0.67,3.03-2.55,3.26-4.03
				c0.25-0.02,0.57-0.37,0.93-1.62c0.48-1.71-0.03-1.96-0.47-1.92c0.08-0.23,0.14-0.47,0.19-0.7c0.73-4.43-1.44-4.58-1.44-4.58
				s-0.36-0.7-1.31-1.22c-0.64-0.38-1.52-0.67-2.68-0.57c-0.38,0.02-0.73,0.09-1.07,0.2c-0.43,0.15-0.82,0.36-1.18,0.61
				c-0.43,0.28-0.85,0.62-1.21,1.01c-0.57,0.59-1.09,1.35-1.31,2.3c-0.19,0.71-0.14,1.45,0.01,2.25c0.04,0.23,0.1,0.47,0.19,0.7
				c-0.43-0.04-0.95,0.21-0.47,1.92C42.84,40.3,43.17,40.64,43.42,40.66L43.42,40.66z M43.42,40.66"/>
		</g>
		<g>
			<path d="M56.4,46.47c-2.64-0.67-4.79-2.19-4.79-2.19l-1.68,5.32l-0.32,1l-0.01-0.02l-0.27,0.85l-0.88-2.52
				c2.17-3.04-0.44-3.01-0.58-3c-0.14-0.01-2.76-0.04-0.58,3l-0.88,2.52l-0.27-0.85l-0.01,0.02l-0.32-1l-1.68-5.32
				c0,0-2.15,1.51-4.79,2.19c-1.97,0.5-2.06,2.79-1.99,3.91c0,0,0.11,1.53,0.23,2.21c0,0,3.85,2.51,10.29,2.51
				c6.45,0,10.29-2.51,10.29-2.51c0.11-0.67,0.23-2.21,0.23-2.21C58.46,49.26,58.37,46.97,56.4,46.47L56.4,46.47z M56.4,46.47"/>
		</g>
	</g>
	<g>
		<g>
			<path d="M8.14,59.35c-0.26,0-0.48-0.21-0.48-0.48V5.12c0-0.26,0.21-0.48,0.48-0.48c0.26,0,0.48,0.21,0.48,0.48v53.75
				C8.61,59.14,8.4,59.35,8.14,59.35z"/>
		</g>
		<g>
			<path d="M54.23,52.63H0.48C0.21,52.63,0,52.42,0,52.16s0.21-0.48,0.48-0.48h53.75c0.26,0,0.48,0.21,0.48,0.48
				S54.49,52.63,54.23,52.63z"/>
		</g>
		<g>
			<path d="M58.33,52.63H0.48C0.21,52.63,0,52.42,0,52.15c0-0.26,0.21-0.48,0.48-0.48h57.86c0.26,0,0.48,0.21,0.48,0.48
				C58.81,52.42,58.6,52.63,58.33,52.63z"/>
		</g>
		<g>
			<path d="M18.35,52.63c-0.26,0-0.48-0.21-0.48-0.48v-17c0-0.26,0.21-0.48,0.48-0.48s0.48,0.21,0.48,0.48v17
				C18.82,52.42,18.61,52.63,18.35,52.63z"/>
		</g>
		<g>
			<path d="M28.56,52.63c-0.26,0-0.48-0.21-0.48-0.48V24.33c0-0.26,0.21-0.48,0.48-0.48s0.48,0.21,0.48,0.48v27.83
				C29.03,52.42,28.82,52.63,28.56,52.63z"/>
		</g>
		<g>
			<path d="M38.77,52.63c-0.26,0-0.48-0.21-0.48-0.48V31.15c0-0.26,0.21-0.48,0.48-0.48c0.26,0,0.48,0.21,0.48,0.48v21.01
				C39.24,52.42,39.03,52.63,38.77,52.63z"/>
		</g>
		<g>
			<path d="M48.98,44.13c-0.26,0-0.48-0.21-0.48-0.48V17.11c0-0.26,0.21-0.48,0.48-0.48c0.26,0,0.48,0.21,0.48,0.48v26.55
				C49.45,43.92,49.24,44.13,48.98,44.13z"/>
		</g>
		<g>
			<circle cx="18.35" cy="35.16" r="1.11"/>
			<path d="M18.35,36.75c-0.88,0-1.59-0.71-1.59-1.59s0.71-1.59,1.59-1.59c0.88,0,1.59,0.71,1.59,1.59S19.22,36.75,18.35,36.75z
				 M18.35,34.52c-0.35,0-0.64,0.29-0.64,0.64s0.29,0.64,0.64,0.64c0.35,0,0.64-0.29,0.64-0.64S18.7,34.52,18.35,34.52z"/>
		</g>
		<g>
			<circle cx="28.56" cy="24.33" r="1.11"/>
			<path d="M28.56,25.91c-0.88,0-1.59-0.71-1.59-1.59c0-0.88,0.71-1.59,1.59-1.59s1.59,0.71,1.59,1.59
				C30.14,25.2,29.43,25.91,28.56,25.91z M28.56,23.69c-0.35,0-0.64,0.29-0.64,0.64c0,0.35,0.29,0.64,0.64,0.64
				c0.35,0,0.64-0.29,0.64-0.64C29.19,23.98,28.91,23.69,28.56,23.69z"/>
		</g>
		<g>
			<circle cx="38.77" cy="31.15" r="1.11"/>
			<path d="M38.77,32.74c-0.88,0-1.59-0.71-1.59-1.59s0.71-1.59,1.59-1.59c0.88,0,1.59,0.71,1.59,1.59S39.64,32.74,38.77,32.74z
				 M38.77,30.52c-0.35,0-0.64,0.29-0.64,0.64c0,0.35,0.29,0.64,0.64,0.64c0.35,0,0.64-0.29,0.64-0.64
				C39.4,30.8,39.12,30.52,38.77,30.52z"/>
		</g>
		<g>
			<circle cx="48.98" cy="17.1" r="1.11"/>
			<path d="M48.98,18.69c-0.88,0-1.59-0.71-1.59-1.59c0-0.88,0.71-1.59,1.59-1.59s1.59,0.71,1.59,1.59
				C50.56,17.98,49.85,18.69,48.98,18.69z M48.98,16.47c-0.35,0-0.64,0.29-0.64,0.64c0,0.35,0.29,0.64,0.64,0.64
				s0.64-0.29,0.64-0.64C49.61,16.75,49.33,16.47,48.98,16.47z"/>
		</g>
		<g>
			<g>
				<path d="M9.72,38.56H8.14c-0.18,0-0.32-0.14-0.32-0.32s0.14-0.32,0.32-0.32h1.59c0.18,0,0.32,0.14,0.32,0.32
					S9.9,38.56,9.72,38.56z"/>
			</g>
			<g>
				<path d="M51.62,38.56h-2.99c-0.18,0-0.32-0.14-0.32-0.32s0.14-0.32,0.32-0.32h2.99c0.18,0,0.32,0.14,0.32,0.32
					S51.8,38.56,51.62,38.56z M45.64,38.56h-2.99c-0.18,0-0.32-0.14-0.32-0.32s0.14-0.32,0.32-0.32h2.99c0.18,0,0.32,0.14,0.32,0.32
					S45.81,38.56,45.64,38.56z M39.65,38.56h-2.99c-0.18,0-0.32-0.14-0.32-0.32s0.14-0.32,0.32-0.32h2.99
					c0.18,0,0.32,0.14,0.32,0.32S39.83,38.56,39.65,38.56z M33.67,38.56h-2.99c-0.18,0-0.32-0.14-0.32-0.32s0.14-0.32,0.32-0.32
					h2.99c0.18,0,0.32,0.14,0.32,0.32S33.84,38.56,33.67,38.56z M27.68,38.56h-2.99c-0.18,0-0.32-0.14-0.32-0.32
					s0.14-0.32,0.32-0.32h2.99c0.18,0,0.32,0.14,0.32,0.32S27.86,38.56,27.68,38.56z M21.7,38.56H18.7c-0.18,0-0.32-0.14-0.32-0.32
					s0.14-0.32,0.32-0.32h2.99c0.18,0,0.32,0.14,0.32,0.32S21.87,38.56,21.7,38.56z M15.71,38.56h-2.99c-0.18,0-0.32-0.14-0.32-0.32
					s0.14-0.32,0.32-0.32h2.99c0.18,0,0.32,0.14,0.32,0.32S15.89,38.56,15.71,38.56z"/>
			</g>
			<g>
				<path d="M56.21,38.56h-1.59c-0.18,0-0.32-0.14-0.32-0.32s0.14-0.32,0.32-0.32h1.59c0.18,0,0.32,0.14,0.32,0.32
					S56.38,38.56,56.21,38.56z"/>
			</g>
		</g>
		<g>
			<path d="M58.89,38.95l0.86-2.3h0.27l0.86,2.3h-0.41l-0.59-1.71l-0.59,1.71H58.89z M59.3,38.51v-0.36h1.21v0.36H59.3z"/>
			<path d="M61.71,38.41l0.37-1.1h0.38l-0.62,1.64h-0.27l-0.62-1.64h0.38L61.71,38.41z"/>
			<path d="M63.23,38.97c-0.18,0-0.32-0.06-0.41-0.18c-0.1-0.12-0.15-0.29-0.15-0.51v-0.31c0-0.22,0.05-0.39,0.14-0.51
				c0.1-0.12,0.23-0.18,0.41-0.18c0.09,0,0.18,0.03,0.25,0.08c0.08,0.05,0.14,0.12,0.18,0.22l-0.03,0.35c0-0.06-0.01-0.12-0.03-0.16
				c-0.02-0.04-0.05-0.08-0.1-0.1c-0.04-0.02-0.09-0.03-0.15-0.03c-0.09,0-0.17,0.03-0.22,0.09c-0.05,0.06-0.08,0.15-0.08,0.26v0.31
				c0,0.11,0.03,0.19,0.08,0.25c0.05,0.06,0.12,0.09,0.22,0.09c0.06,0,0.11-0.01,0.15-0.04c0.04-0.02,0.07-0.06,0.1-0.1
				c0.02-0.04,0.03-0.1,0.03-0.16l0.02,0.36c-0.03,0.08-0.08,0.15-0.15,0.2C63.42,38.95,63.33,38.97,63.23,38.97z M63.28,39.61
				c-0.13,0-0.24-0.02-0.34-0.07c-0.1-0.05-0.18-0.11-0.23-0.19l0.25-0.23c0.04,0.05,0.09,0.09,0.14,0.11s0.11,0.04,0.17,0.04
				c0.11,0,0.19-0.03,0.25-0.09c0.06-0.06,0.09-0.14,0.09-0.25v-1.63H64v1.59c0,0.23-0.06,0.4-0.19,0.53
				C63.69,39.55,63.51,39.61,63.28,39.61z"/>
		</g>
	</g>
</g>
</svg>
