<?xml version="1.0" encoding="utf-8"?>
<!-- Generator: Adobe Illustrator 26.0.1, SVG Export Plug-In . SVG Version: 6.00 Build 0)  -->
<svg version="1.1" id="Layer_1" xmlns="http://www.w3.org/2000/svg" xmlns:xlink="http://www.w3.org/1999/xlink" x="0px" y="0px"
	 viewBox="0 0 64 64" style="enable-background:new 0 0 64 64;" xml:space="preserve">
<g id="Simulation_Setting_00000064342523527196570470000006405642880684608681_">
	<g>
		<g>
			<g>
				<path d="M44.96,54.12c-5.57,0-9.81-9.78-15.18-23.6l-0.59-1.51c-4.31-11.1-9.2-23.68-13.71-23.68c-4.38,0-7.08,12.51-9.46,23.55
					l-0.16,0.74c-0.13,0.59-0.72,0.97-1.31,0.84c-0.59-0.13-0.97-0.71-0.84-1.31l0.16-0.74C6.67,15.41,9.32,3.13,15.48,3.13
					c6.02,0,10.75,12.19,15.76,25.09l0.59,1.51c3.65,9.37,8.64,22.19,13.13,22.19c4.5,0,9.49-12.83,13.14-22.19
					c0.22-0.57,0.86-0.85,1.43-0.63c0.57,0.22,0.85,0.86,0.63,1.43C54.77,44.34,50.53,54.12,44.96,54.12z"/>
			</g>
		</g>
		<g>
			<g>
				<rect x="33.8" y="29.5" width="30.2" height="1.26"/>
			</g>
		</g>
		<g>
			<g>
				<rect x="4.78" y="29.5" width="23.03" height="1.26"/>
			</g>
		</g>
		<g>
			<g>
				<rect x="3.4" y="4.23" width="1.26" height="48.79"/>
			</g>
		</g>
	</g>
	<g id="application_setting_00000135653935495094390060000012971918277850262693_">
		<g>
			<path d="M5.07,58.38c-0.19-0.01-0.36-0.12-0.53-0.22c-0.54-0.33-1.1-0.67-1.52-1.15s-0.7-1.12-0.59-1.75
				c0.1-0.56,0.48-1.02,0.78-1.5c0.29-0.49,0.5-1.11,0.22-1.61c-0.55-0.98-2.27-0.48-2.97-1.36c-0.16-0.2-0.24-0.44-0.3-0.69
				c-0.24-0.95-0.2-1.97,0.11-2.89c0.06-0.17,0.13-0.34,0.25-0.46c0.18-0.17,0.43-0.23,0.68-0.27c0.49-0.08,0.98-0.1,1.45-0.26
				c0.46-0.16,0.91-0.5,1.03-0.97c0.18-0.67-0.3-1.32-0.67-1.9c-0.84-1.3-0.01-2.43,1.07-3.29c0.48-0.38,1.11-0.61,1.7-0.47
				c0.5,0.12,0.9,0.48,1.32,0.76c0.42,0.29,0.96,0.52,1.44,0.35c0.57-0.21,0.81-0.87,0.94-1.46c0.12-0.59,0.24-1.26,0.71-1.63
				c0.34-0.26,0.79-0.32,1.21-0.37c0.97-0.11,2.12-0.14,2.71,0.63c0.34,0.45,0.39,1.05,0.5,1.6s0.36,1.16,0.89,1.35
				c0.98,0.37,1.83-0.91,2.87-1.05c0.9-0.12,1.66,0.63,2.26,1.31c0.35,0.41,0.72,0.86,0.75,1.4c0.03,0.6-0.39,1.12-0.74,1.62
				c-0.35,0.49-0.67,1.12-0.43,1.68c0.43,1.03,2.09,0.68,2.91,1.44c0.51,0.47,0.57,1.24,0.56,1.93c0,0.88-0.13,1.91-0.9,2.33
				c-0.6,0.33-1.37,0.14-1.99,0.43c-0.6,0.28-0.93,1.03-0.73,1.66c0.18,0.59,0.73,1,0.94,1.57c0.22,0.61,0.02,1.32-0.37,1.84
				c-0.39,0.53-0.93,0.91-1.47,1.28c-0.19,0.14-0.4,0.28-0.63,0.31c-0.27,0.04-0.53-0.05-0.77-0.17c-0.48-0.25-0.89-0.61-1.37-0.84
				c-0.48-0.24-1.09-0.32-1.53-0.02c-0.84,0.59-0.42,2.05-1.12,2.8c-0.35,0.37-0.89,0.48-1.39,0.51c-0.7,0.05-1.41,0.01-2.1-0.13
				c-0.2-0.04-0.42-0.09-0.57-0.24c-0.12-0.11-0.18-0.26-0.23-0.41c-0.18-0.53-0.2-1.1-0.36-1.64c-0.16-0.54-0.51-1.08-1.05-1.22
				c-0.91-0.24-1.67,0.7-2.54,1.07C5.37,58.34,5.22,58.39,5.07,58.38z M7.82,48.96c-0.03,2.27,1.77,4.09,4.05,4.1
				c2.21,0.01,4.01-1.79,4.01-4.02C15.89,46.81,14.11,45,11.9,45C9.66,44.99,7.85,46.75,7.82,48.96z"/>
		</g>
	</g>
</g>
</svg>
