<?xml version="1.0" encoding="utf-8"?>
<!-- Generator: Adobe Illustrator 26.0.1, SVG Export Plug-In . SVG Version: 6.00 Build 0)  -->
<svg version="1.1" id="Layer_1" xmlns="http://www.w3.org/2000/svg" xmlns:xlink="http://www.w3.org/1999/xlink" x="0px" y="0px"
	 viewBox="0 0 64 64" style="enable-background:new 0 0 64 64;" xml:space="preserve">
<g id="Table_Viw_00000071554054918337401960000007588586579484637374_">
	<g>
		<path d="M32,59.36c-7.66,0-13.43-2.5-13.43-5.81c0-2.89,4.36-5.19,10.85-5.71c0.22-0.01,0.44,0.06,0.6,0.21
			c0.16,0.15,0.26,0.36,0.26,0.59v4.12h3.44v-4.12c0-0.22,0.09-0.43,0.26-0.59c0.16-0.15,0.39-0.22,0.6-0.21
			c6.49,0.52,10.85,2.81,10.85,5.71C45.43,56.87,39.65,59.36,32,59.36z M28.69,49.51c-5.35,0.59-8.52,2.47-8.52,4.04
			c0,2,4.86,4.22,11.83,4.22c6.97,0,11.83-2.22,11.83-4.22c0-1.57-3.17-3.45-8.52-4.04v4.04c0,0.44-0.36,0.8-0.8,0.8h-5.03
			c-0.44,0-0.8-0.36-0.8-0.8V49.51z"/>
	</g>
	<g>
		<g>
			<path d="M32,26.21c-14.66,0-27.39-3.26-30.95-7.93C0.35,17.37,0,16.41,0,15.42C0,8.67,16.27,4.64,32,4.64s32,4.04,32,10.79
				c0,0.98-0.35,1.95-1.05,2.86C59.39,22.95,46.66,26.21,32,26.21z M32,6.23c-18.19,0-30.41,4.75-30.41,9.19
				c0,0.63,0.24,1.27,0.73,1.89c3.23,4.23,15.71,7.3,29.68,7.3s26.45-3.07,29.68-7.3c0.48-0.63,0.73-1.27,0.73-1.9
				C62.41,10.98,50.19,6.23,32,6.23z"/>
		</g>
		<g>
			<path d="M32,30.97c-0.85,0-1.7-0.01-2.54-0.03C14.82,30.57,0,26.75,0,20.18v-4.76c0-0.44,0.36-0.8,0.8-0.8s0.8,0.36,0.8,0.8
				c0,0.63,0.24,1.27,0.73,1.89c3.23,4.23,15.71,7.3,29.68,7.3s26.45-3.07,29.68-7.3c0.48-0.63,0.73-1.27,0.73-1.9
				c0-0.44,0.36-0.8,0.8-0.8c0.44,0,0.8,0.36,0.8,0.8v4.76c0,6.57-14.82,10.38-29.46,10.76C33.7,30.96,32.85,30.97,32,30.97z
				 M1.59,18.91v1.27c0,4.06,10.67,8.72,27.91,9.16c1.65,0.04,3.35,0.04,4.99,0c17.24-0.44,27.91-5.1,27.91-9.16v-1.27
				C58.23,23.24,46,26.21,32,26.21S5.77,23.24,1.59,18.91z"/>
		</g>
	</g>
	<g>
		<path d="M34.52,54.35h-5.03c-0.44,0-0.8-0.36-0.8-0.8V30.14c0-0.21,0.09-0.42,0.24-0.57c0.15-0.15,0.35-0.24,0.58-0.23
			c1.65,0.04,3.35,0.04,4.99,0c0.21-0.02,0.42,0.08,0.58,0.23c0.15,0.15,0.24,0.36,0.24,0.57v23.41
			C35.31,53.99,34.96,54.35,34.52,54.35z M30.28,52.75h3.44v-21.8c-1.14,0.02-2.3,0.02-3.44,0V52.75z"/>
	</g>
</g>
</svg>
