<?xml version="1.0" encoding="utf-8"?>
<!-- Generator: Adobe Illustrator 26.0.1, SVG Export Plug-In . SVG Version: 6.00 Build 0)  -->
<svg version="1.1" id="Layer_1" xmlns="http://www.w3.org/2000/svg" xmlns:xlink="http://www.w3.org/1999/xlink" x="0px" y="0px"
	 viewBox="0 0 64 64" style="enable-background:new 0 0 64 64;" xml:space="preserve">
<style type="text/css">
	.st0{fill:#FFFFFF;}
</style>
<g id="Welcome_Sign_00000005981493485650544450000014869299441533168016_">
	<g>
		<g>
			<g>
				<path d="M4.22,63.54c-2.18,0-3.95-1.77-3.95-3.95V21.2c0-2.18,1.77-3.95,3.95-3.95h55.56c2.18,0,3.95,1.77,3.95,3.95v38.4
					c0,2.18-1.77,3.95-3.95,3.95H4.22z"/>
			</g>
			<g>
				<path d="M59.78,17.53c2.02,0,3.67,1.65,3.67,3.67v38.4c0,2.02-1.65,3.67-3.67,3.67H4.22c-2.02,0-3.67-1.65-3.67-3.67V21.2
					c0-2.02,1.65-3.67,3.67-3.67H59.78 M59.78,16.98H4.22C1.89,16.98,0,18.87,0,21.2v38.4c0,2.33,1.89,4.22,4.22,4.22h55.56
					c2.33,0,4.22-1.89,4.22-4.22V21.2C64,18.87,62.11,16.98,59.78,16.98L59.78,16.98z"/>
			</g>
		</g>
		<g>
			<path d="M32,9.73c-2.63,0-4.77-2.14-4.77-4.77c0-2.63,2.14-4.77,4.77-4.77s4.77,2.14,4.77,4.77C36.77,7.59,34.63,9.73,32,9.73z
				 M32,1.83c-1.72,0-3.12,1.4-3.12,3.12c0,1.72,1.4,3.12,3.12,3.12c1.72,0,3.12-1.4,3.12-3.12C35.12,3.23,33.72,1.83,32,1.83z"/>
		</g>
		<g>
			<path d="M6.42,18.35c-0.28,0-0.56-0.15-0.71-0.41c-0.23-0.39-0.1-0.9,0.3-1.13L27.64,4.24c0.4-0.23,0.9-0.09,1.13,0.3
				c0.23,0.39,0.1,0.9-0.3,1.13L6.84,18.24C6.71,18.32,6.56,18.35,6.42,18.35z"/>
		</g>
		<g>
			<path d="M57.58,18.35c-0.14,0-0.28-0.04-0.41-0.11L35.53,5.67c-0.39-0.23-0.53-0.73-0.3-1.13c0.23-0.39,0.73-0.53,1.13-0.3
				l21.63,12.57c0.39,0.23,0.53,0.73,0.3,1.13C58.14,18.21,57.86,18.35,57.58,18.35z"/>
		</g>
	</g>
	<g>
		<g>
			<polygon class="st0" points="25.81,36.97 27.51,36.97 29.72,27.39 27.86,27.39 26.63,33.78 24.8,27.39 23.35,27.39 21.52,33.78 
				20.29,27.39 18.43,27.39 20.64,36.97 22.33,36.97 24.11,30.28 			"/>
		</g>
		<g>
			<polygon class="st0" points="37.31,36.97 37.31,35.23 32.7,35.23 32.7,33.08 36.59,33.08 36.59,31.34 32.7,31.34 32.7,29.13 
				37.31,29.13 37.31,27.39 32.7,27.39 31.55,27.39 30.9,27.39 30.9,36.97 31.55,36.97 32.7,36.97 			"/>
		</g>
		<g>
			<polygon class="st0" points="45.37,35.23 40.76,35.23 40.76,27.39 38.96,27.39 38.96,36.97 39.76,36.97 40.76,36.97 45.37,36.97 
							"/>
		</g>
		<g>
			<path class="st0" d="M17.53,45.74c0.28-0.31,0.67-0.46,1.18-0.46c0.26,0,0.49,0.06,0.7,0.18c0.21,0.12,0.39,0.29,0.53,0.51
				c0.15,0.22,0.26,0.49,0.33,0.81h1.87c-0.12-0.7-0.33-1.3-0.64-1.79c-0.31-0.49-0.7-0.87-1.17-1.13
				c-0.47-0.26-1.01-0.39-1.62-0.39c-0.73,0-1.36,0.14-1.87,0.42c-0.52,0.28-0.91,0.69-1.18,1.22c-0.27,0.53-0.41,1.18-0.41,1.94
				v2.63c0,0.76,0.14,1.4,0.41,1.93c0.27,0.53,0.67,0.94,1.18,1.22c0.52,0.28,1.14,0.42,1.87,0.42c0.61,0,1.14-0.13,1.61-0.39
				s0.86-0.64,1.17-1.13c0.31-0.49,0.53-1.09,0.65-1.79h-1.87c-0.1,0.48-0.29,0.85-0.56,1.11c-0.27,0.26-0.61,0.39-1,0.39
				c-0.5,0-0.9-0.15-1.18-0.46c-0.28-0.31-0.42-0.74-0.42-1.3v-2.63C17.12,46.49,17.25,46.05,17.53,45.74z"/>
		</g>
		<g>
			<path class="st0" d="M28.66,43.91c-0.52-0.29-1.14-0.44-1.84-0.44c-0.7,0-1.32,0.15-1.84,0.44c-0.52,0.29-0.93,0.7-1.22,1.23
				c-0.29,0.53-0.43,1.15-0.43,1.86v2.71c0,0.71,0.15,1.33,0.43,1.86c0.29,0.53,0.7,0.94,1.22,1.23s1.14,0.44,1.84,0.44
				c0.7,0,1.32-0.15,1.84-0.44c0.52-0.29,0.93-0.7,1.22-1.23s0.43-1.15,0.43-1.86v-2.71c0-0.71-0.14-1.33-0.43-1.86
				C29.59,44.62,29.19,44.21,28.66,43.91z M28.45,49.77c0,0.5-0.15,0.91-0.44,1.22c-0.3,0.31-0.69,0.46-1.18,0.46
				c-0.49,0-0.89-0.15-1.18-0.46c-0.3-0.31-0.44-0.71-0.44-1.22v-2.81c0-0.51,0.15-0.92,0.44-1.22c0.3-0.31,0.69-0.46,1.18-0.46
				c0.49,0,0.89,0.15,1.18,0.46s0.44,0.71,0.44,1.22V49.77z"/>
		</g>
		<g>
			<polygon class="st0" points="36.3,50.03 34.47,43.58 32.1,43.58 32.1,53.15 33.74,53.15 33.74,46.48 35.5,52.08 37.09,52.08 
				38.86,46.35 38.86,53.15 40.5,53.15 40.5,43.58 38.12,43.58 			"/>
		</g>
		<g>
			<polygon class="st0" points="49.02,45.31 49.02,43.58 44.41,43.58 43.26,43.58 42.6,43.58 42.6,53.15 43.26,53.15 44.41,53.15 
				49.02,53.15 49.02,51.41 44.41,51.41 44.41,49.26 48.29,49.26 48.29,47.53 44.41,47.53 44.41,45.31 			"/>
		</g>
	</g>
</g>
</svg>
