<?xml version="1.0" encoding="utf-8"?>
<!-- Generator: Adobe Illustrator 26.0.1, SVG Export Plug-In . SVG Version: 6.00 Build 0)  -->
<svg version="1.1" id="Layer_1" xmlns="http://www.w3.org/2000/svg" xmlns:xlink="http://www.w3.org/1999/xlink" x="0px" y="0px"
	 viewBox="0 0 256 256" style="enable-background:new 0 0 256 256;" xml:space="preserve">
<style type="text/css">
	.st0{fill:#4259C3;}
</style>
<g>
	<g>
		<path class="st0" d="M157.64,53.42c-14.8,1.37-15.66,1.89-17.9,16.18c-3.61,24.61-6.02,44.91-8.95,67.46
			c-2.24,16.69-0.69,17.38,13.77,18.59l-1.21,4.82H98.26l1.2-4.82c13.77-1.37,14.8-1.89,17.38-18.59
			c3.61-24.95,6.88-47.84,10.67-72.28H127c-18.93,31.66-47.67,79.68-56.27,95.68h-3.96c-2.75-17.73-13.6-61.09-20.31-93.96h-0.34
			l-11.36,47.15c-4.13,17.38-6.02,25.29-6.88,31.15c-1.2,7.57,0.52,9.64,13.77,10.84l-1.21,4.82H0l1.21-4.82
			c11.7-0.86,14.63-3.27,17.04-10.5c3.1-8.95,6.71-20.82,11.36-39.06l8.26-33.04c4.3-16.87,4.13-17.56-12.56-19.62l1.38-4.82h28.91
			c5.68,26.5,14.8,58.51,21.34,87.43l53.35-87.43h28.57L157.64,53.42z"/>
	</g>
	<g>
		<path class="st0" d="M208.35,133.48c-1.19,4.97-2.49,12.86-3.46,18.7l-3.35,0.22c0-1.73,0-4.11-0.43-5.94
			c-0.54-4.76-1.84-6.48-11.67-6.48h-6.59l-10.16,53.07c-1.62,8.76-0.76,9.3,9.08,10.05l-0.65,3.03h-29.72l0.76-3.03
			c9.19-0.75,9.94-1.4,11.56-10.05l10.16-53.07h-6.48c-8.65,0-10.48,1.4-12.43,4.21c-1.51,1.95-3.24,4.75-4.86,8.32l-3.46-0.32
			c1.73-6.27,3.46-12.75,4.43-18.7h2.49c1.08,2.48,2.27,2.38,5.19,2.38h41.5c2.81,0,3.57-0.32,5.62-2.38H208.35z"/>
		<path class="st0" d="M215.04,131.96c5.19-0.54,10.16-1.62,13.29-2.7c1.62-0.65,2.38-0.86,3.03-0.86c0.86,0,1.08,1.08,0.54,3.57
			c-3.03,13.83-6.92,31.02-9.94,44.85c8.65-12,19.56-19.45,26.26-19.45c3.68,0,7.13,1.73,3.78,15.46c-1.51,6.7-3.57,15.78-5.3,22.59
			c-0.76,2.92-0.65,4.11,0.22,4.11c0.97,0,3.57-1.3,7.46-5.4l1.62,2.59c-5.3,7.24-12.32,10.7-15.46,10.7c-3.03,0-4-3.35-2.16-11.02
			c1.95-7.46,4.22-17.08,5.94-24.32c1.51-6.16,0.65-7.78-1.51-7.78c-4,0-12.11,5.19-19.35,17.08c-2.05,3.14-3.03,5.62-3.89,9.08
			c-0.97,4.32-2.38,10.7-3.24,14.92c-2.49,0.43-5.4,1.3-7.78,2.05l-0.76-0.76c4.65-20.86,10.27-47.23,14.05-66.58
			c0.86-4.43,0.22-4.54-3.03-4.86c-1.19-0.11-3.57-0.32-4.43-0.32L215.04,131.96z"/>
	</g>
</g>
</svg>
