<?xml version="1.0" encoding="utf-8"?>
<!-- Generator: Adobe Illustrator 26.0.1, SVG Export Plug-In . SVG Version: 6.00 Build 0)  -->
<svg version="1.1" id="Layer_1" xmlns="http://www.w3.org/2000/svg" xmlns:xlink="http://www.w3.org/1999/xlink" x="0px" y="0px"
	 viewBox="0 0 256 256" style="enable-background:new 0 0 256 256;" xml:space="preserve">
<style type="text/css">
	.st0{fill:#4259C3;}
</style>
<g>
	<g>
		<path class="st0" d="M73.69,52.35c7.88,0,15.26,0,21.34-0.16c-0.99,3.94-2.79,15.26-4.27,24.95l-5.09,0.16
			c-0.66-17.07-3.45-18.71-14.12-18.71H55.31c-5.42,0-6.89,0.33-8.04,6.57l-6.89,35.29h16.9c13.46,0,14.12-1.97,18.71-13.46h4.92
			l-6.73,33.97h-4.92c0-12.64,0.49-14.28-13.46-14.28H39.23l-5.74,29.21c-2.46,11.65-2.13,16.91,9.52,16.91h12.15
			c9.68,0,13.95-0.99,18.55-5.25c3.94-3.61,7.71-9.19,10.83-15.1l4.76,1.64c-1.64,4.6-7.22,19.86-9.36,24.95H0l1.15-4.6
			c14.44-1.48,15.76-1.97,18.22-15.1l12.97-67.13c2.46-12.64,1.64-14.11-12.64-15.26l0.98-4.6H73.69z"/>
		<path class="st0" d="M150.82,93.88c0,2.79-2.3,6.57-5.09,7.88c-1.48,0.66-2.46,0.33-3.77-1.15c-4.43-5.09-8.54-7.39-12.31-7.39
			c-4.27,0-8.86,3.45-8.86,9.36c0,5.41,4.92,9.35,10.83,13.95c9.85,7.71,14.12,11.98,14.12,19.21c0,13.46-17.07,25.27-30.36,25.27
			c-7.88,0-15.43-5.42-15.43-11.16c0-3.61,3.94-8.04,6.73-8.37c1.15-0.16,1.8,0.49,2.79,1.64c4.1,5.91,9.03,9.52,14.44,9.52
			c6.73,0,10.83-4.92,10.83-10.17c0-3.94-1.8-7.88-9.52-14.28c-7.71-6.07-14.44-10.67-14.28-19.2c0-4.92,1.97-10.34,8.54-15.92
			c5.25-4.76,12.8-8.04,18.38-8.04C145.08,85.02,150.82,89.28,150.82,93.88z"/>
	</g>
	<g>
		<path class="st0" d="M210.55,133.3c-1.13,4.74-2.37,12.26-3.3,17.83l-3.2,0.21c0-1.65,0-3.92-0.41-5.67
			c-0.51-4.54-1.75-6.18-11.13-6.18h-6.29l-9.69,50.61c-1.54,8.35-0.72,8.87,8.66,9.58l-0.62,2.89h-28.35l0.72-2.89
			c8.76-0.72,9.48-1.34,11.03-9.58l9.69-50.61h-6.18c-8.25,0-10,1.34-11.85,4.02c-1.44,1.86-3.09,4.53-4.64,7.94l-3.3-0.31
			c1.65-5.98,3.3-12.16,4.23-17.83h2.37c1.03,2.37,2.17,2.27,4.95,2.27h39.58c2.68,0,3.4-0.31,5.36-2.27H210.55z"/>
		<path class="st0" d="M216.93,131.86c4.95-0.51,9.69-1.55,12.68-2.58c1.55-0.62,2.27-0.82,2.89-0.82c0.82,0,1.03,1.03,0.51,3.4
			c-2.89,13.19-6.6,29.58-9.48,42.78c8.25-11.44,18.66-18.55,25.05-18.55c3.51,0,6.8,1.65,3.61,14.74
			c-1.44,6.39-3.4,15.05-5.05,21.54c-0.72,2.79-0.62,3.92,0.21,3.92c0.93,0,3.4-1.24,7.11-5.15l1.55,2.47
			c-5.05,6.9-11.75,10.2-14.74,10.2c-2.89,0-3.81-3.19-2.06-10.51c1.86-7.11,4.02-16.29,5.67-23.19c1.44-5.88,0.62-7.42-1.44-7.42
			c-3.81,0-11.55,4.95-18.45,16.29c-1.96,2.99-2.89,5.36-3.71,8.66c-0.93,4.12-2.27,10.21-3.09,14.23
			c-2.37,0.41-5.15,1.24-7.42,1.96l-0.72-0.72c4.43-19.89,9.79-45.04,13.4-63.5c0.82-4.22,0.21-4.33-2.89-4.64
			c-1.13-0.1-3.4-0.31-4.23-0.31L216.93,131.86z"/>
	</g>
</g>
</svg>
