<?xml version="1.0" encoding="utf-8"?>
<!-- Generator: Adobe Illustrator 26.0.1, SVG Export Plug-In . SVG Version: 6.00 Build 0)  -->
<svg version="1.1" id="Layer_1" xmlns="http://www.w3.org/2000/svg" xmlns:xlink="http://www.w3.org/1999/xlink" x="0px" y="0px"
	 viewBox="0 0 256 256" style="enable-background:new 0 0 256 256;" xml:space="preserve">
<style type="text/css">
	.st0{fill:#4259C3;}
</style>
<g>
	<g>
		<path class="st0" d="M136,44.63c-14.43,2.12-17.89,3.46-30.2,14.62C94.84,69.06,79.83,82.14,64.63,95.8
			c9.81,15.58,26.16,39.05,34.82,50.78c7.31,9.81,10.58,10.97,22.89,12.31l-1.54,5.39H91.57c-11.93-17.7-25.39-38.47-35.78-54.25
			c-4.23-6.54-6.35-7.5-11.54-7.12l-6.73,36.55c-2.89,17.12-2.5,17.89,14.81,19.43l-1.15,5.39H0l1.35-5.39
			c15.39-1.35,17.31-2.31,20.39-19.43L36.55,63.1c3.08-15.77,1.92-16.93-14.62-18.47l1.15-5.39h50.78l-1.15,5.39
			c-15.77,1.35-17.7,2.5-20.78,18.47L45.4,97.34c4.42-0.39,8.08-1.92,12.31-5.19c10.96-9.04,31.74-27.89,41.36-38.47
			c4.81-5.39,3.85-7.31-2.69-8.27l-5.96-0.77l1.35-5.39h45.78L136,44.63z"/>
	</g>
	<g>
		<path class="st0" d="M202.73,134.12c-1.33,5.56-2.78,14.37-3.87,20.9l-3.75,0.24c0-1.93,0-4.59-0.48-6.64
			c-0.6-5.32-2.05-7.25-13.05-7.25h-7.37l-11.36,59.32c-1.81,9.79-0.84,10.39,10.15,11.24l-0.72,3.38h-33.22l0.85-3.38
			c10.27-0.85,11.11-1.57,12.93-11.24l11.36-59.32h-7.25c-9.66,0-11.72,1.57-13.89,4.71c-1.69,2.18-3.62,5.32-5.44,9.3l-3.87-0.36
			c1.93-7.01,3.87-14.26,4.95-20.9h2.78c1.21,2.78,2.54,2.66,5.8,2.66h46.39c3.14,0,3.99-0.36,6.28-2.66H202.73z"/>
		<path class="st0" d="M210.21,132.43c5.8-0.6,11.36-1.81,14.86-3.02c1.81-0.72,2.66-0.97,3.38-0.97c0.97,0,1.21,1.21,0.6,3.99
			c-3.38,15.46-7.73,34.67-11.11,50.14c9.67-13.41,21.87-21.75,29.36-21.75c4.11,0,7.97,1.94,4.23,17.28
			c-1.69,7.49-3.99,17.64-5.92,25.25c-0.85,3.26-0.72,4.59,0.24,4.59c1.09,0,3.99-1.45,8.34-6.04l1.81,2.9
			c-5.92,8.09-13.77,11.96-17.28,11.96c-3.38,0-4.47-3.74-2.42-12.32c2.18-8.34,4.71-19.09,6.64-27.18c1.69-6.89,0.73-8.7-1.69-8.7
			c-4.47,0-13.53,5.8-21.63,19.09c-2.3,3.5-3.38,6.28-4.35,10.15c-1.09,4.83-2.66,11.96-3.62,16.67c-2.78,0.48-6.04,1.45-8.7,2.3
			l-0.85-0.84c5.2-23.32,11.48-52.8,15.71-74.42c0.97-4.95,0.24-5.07-3.38-5.44c-1.33-0.12-3.99-0.36-4.95-0.36L210.21,132.43z"/>
	</g>
</g>
</svg>
