<?xml version="1.0" encoding="utf-8"?>
<!-- Generator: Adobe Illustrator 26.0.1, SVG Export Plug-In . SVG Version: 6.00 Build 0)  -->
<svg version="1.1" id="Layer_1" xmlns="http://www.w3.org/2000/svg" xmlns:xlink="http://www.w3.org/1999/xlink" x="0px" y="0px"
	 viewBox="0 0 256 256" style="enable-background:new 0 0 256 256;" xml:space="preserve">
<style type="text/css">
	.st0{fill:#4259C3;}
</style>
<g>
	<g>
		<path class="st0" d="M144.45,47.42c-2.78,11.64-5.82,30.1-8.1,43.77l-7.84,0.5c0-4.05,0-9.61-1.01-13.91
			c-1.27-11.13-4.3-15.18-27.32-15.18H84.75L60.97,186.82c-3.8,20.49-1.77,21.76,21.25,23.53l-1.52,7.08H11.13l1.77-7.08
			c21.5-1.77,23.27-3.29,27.07-23.53L63.75,62.6H48.57c-20.24,0-24.54,3.29-29.09,9.87C15.94,77.02,11.89,83.6,8.1,91.95L0,91.19
			c4.05-14.67,8.1-29.86,10.37-43.77h5.82c2.53,5.82,5.31,5.57,12.14,5.57h97.15c6.58,0,8.35-0.76,13.16-5.57H144.45z"/>
		<path class="st0" d="M160.12,43.88c12.14-1.26,23.78-3.79,31.12-6.32c3.8-1.52,5.57-2.02,7.08-2.02c2.03,0,2.53,2.53,1.27,8.35
			c-7.08,32.38-16.19,72.61-23.27,104.99c20.24-28.08,45.79-45.54,61.47-45.54c8.6,0,16.7,4.05,8.86,36.18
			c-3.54,15.68-8.35,36.94-12.4,52.87c-1.77,6.83-1.52,9.61,0.51,9.61c2.28,0,8.35-3.04,17.46-12.65l3.79,6.07
			c-12.4,16.95-28.84,25.04-36.18,25.04c-7.08,0-9.36-7.84-5.06-25.8c4.55-17.46,9.87-39.97,13.91-56.92
			c3.54-14.42,1.52-18.21-3.54-18.21c-9.36,0-28.33,12.14-45.28,39.97c-4.81,7.34-7.08,13.15-9.11,21.25
			c-2.28,10.12-5.57,25.04-7.59,34.91c-5.82,1.01-12.65,3.03-18.21,4.81l-1.77-1.77c10.88-48.82,24.03-110.55,32.89-155.83
			c2.02-10.37,0.5-10.63-7.08-11.38c-2.78-0.25-8.35-0.76-10.37-0.76L160.12,43.88z"/>
	</g>
</g>
</svg>
