<?xml version="1.0" encoding="utf-8"?>
<!-- Generator: Adobe Illustrator 26.0.1, SVG Export Plug-In . SVG Version: 6.00 Build 0)  -->
<svg version="1.1" id="Layer_1" xmlns="http://www.w3.org/2000/svg" xmlns:xlink="http://www.w3.org/1999/xlink" x="0px" y="0px"
	 viewBox="0 0 256 256" style="enable-background:new 0 0 256 256;" xml:space="preserve">
<style type="text/css">
	.st0{fill:#4259C3;}
</style>
<g>
	<g>
		<path class="st0" d="M63.68,50.08c6.81,0,13.19,0,18.44-0.14c-0.85,3.41-2.41,13.19-3.69,21.56l-4.4,0.14
			c-0.57-14.75-2.98-16.17-12.2-16.17H47.8c-4.68,0-5.96,0.28-6.95,5.67l-5.96,30.49H49.5c11.63,0,12.2-1.7,16.17-11.63h4.25
			l-5.82,29.36h-4.26c0-10.92,0.43-12.34-11.63-12.34H33.9l-4.96,25.24c-2.13,10.07-1.84,14.61,8.23,14.61h10.5
			c8.37,0,12.06-0.85,16.03-4.54c3.4-3.12,6.67-7.94,9.36-13.05l4.11,1.42c-1.42,3.97-6.24,17.16-8.08,21.56H0l0.99-3.97
			c12.48-1.28,13.62-1.7,15.74-13.05l11.2-58.01c2.13-10.92,1.42-12.2-10.92-13.19l0.85-3.97H63.68z"/>
		<path class="st0" d="M130.33,85.96c0,2.41-1.99,5.67-4.4,6.81c-1.28,0.57-2.13,0.28-3.26-0.99c-3.83-4.4-7.38-6.38-10.64-6.38
			c-3.69,0-7.66,2.98-7.66,8.08c0,4.68,4.25,8.08,9.36,12.05c8.51,6.67,12.2,10.35,12.2,16.6c0,11.63-14.75,21.84-26.24,21.84
			c-6.81,0-13.33-4.68-13.33-9.65c0-3.12,3.4-6.95,5.82-7.23c0.99-0.14,1.56,0.42,2.41,1.42c3.55,5.11,7.8,8.22,12.48,8.22
			c5.82,0,9.36-4.25,9.36-8.79c0-3.4-1.56-6.81-8.23-12.34c-6.67-5.25-12.48-9.22-12.34-16.6c0-4.25,1.7-8.94,7.38-13.76
			c4.54-4.11,11.06-6.95,15.88-6.95C125.37,78.3,130.33,81.99,130.33,85.96z"/>
	</g>
	<g>
		<path class="st0" d="M181.95,120.03c-0.98,4.1-2.05,10.6-2.85,15.41l-2.76,0.18c0-1.43,0-3.38-0.36-4.9
			c-0.44-3.92-1.51-5.34-9.62-5.34h-5.43l-8.37,43.74c-1.34,7.21-0.62,7.66,7.48,8.28l-0.53,2.5h-24.5l0.62-2.5
			c7.57-0.62,8.19-1.16,9.53-8.28l8.37-43.74h-5.34c-7.13,0-8.64,1.16-10.24,3.48c-1.25,1.6-2.67,3.92-4.01,6.86l-2.85-0.27
			c1.43-5.17,2.85-10.51,3.65-15.41h2.05c0.89,2.05,1.87,1.96,4.28,1.96h34.2c2.32,0,2.94-0.27,4.63-1.96H181.95z"/>
		<path class="st0" d="M187.46,118.79c4.28-0.45,8.37-1.34,10.96-2.23c1.34-0.54,1.96-0.71,2.49-0.71c0.71,0,0.89,0.89,0.44,2.94
			c-2.49,11.4-5.7,25.56-8.19,36.97c7.13-9.89,16.12-16.03,21.64-16.03c3.03,0,5.88,1.42,3.12,12.74
			c-1.25,5.52-2.94,13.01-4.36,18.62c-0.62,2.41-0.53,3.39,0.18,3.39c0.8,0,2.94-1.07,6.15-4.46l1.34,2.14
			c-4.36,5.97-10.15,8.82-12.74,8.82c-2.49,0-3.3-2.76-1.78-9.09c1.6-6.15,3.47-14.07,4.9-20.04c1.25-5.08,0.54-6.41-1.25-6.41
			c-3.3,0-9.98,4.28-15.94,14.07c-1.69,2.58-2.49,4.63-3.21,7.48c-0.8,3.56-1.96,8.82-2.67,12.29c-2.05,0.36-4.45,1.07-6.41,1.69
			l-0.62-0.62c3.83-17.19,8.46-38.93,11.58-54.87c0.71-3.65,0.18-3.74-2.49-4.01c-0.98-0.09-2.94-0.27-3.65-0.27L187.46,118.79z"/>
	</g>
	<g>
		<g>
			<g>
				<polygon class="st0" points="256,206.06 248.37,206.06 248.37,203.88 253.82,203.88 253.82,198.44 256,198.44 				"/>
			</g>
		</g>
		<g>
			<g>
				<polygon class="st0" points="237.97,206.06 230.35,206.06 230.35,198.44 232.53,198.44 232.53,203.88 237.97,203.88 				"/>
			</g>
		</g>
		<g>
			<g>
				<rect x="230.35" y="182.19" class="st0" width="2.18" height="8.12"/>
			</g>
		</g>
		<g>
			<g>
				<polygon class="st0" points="232.53,174.06 230.35,174.06 230.35,166.44 237.97,166.44 237.97,168.62 232.53,168.62 				"/>
			</g>
		</g>
		<g>
			<g>
				<polygon class="st0" points="256,174.06 253.82,174.06 253.82,168.62 248.37,168.62 248.37,166.44 256,166.44 				"/>
			</g>
		</g>
		<g>
			<g>
				<rect x="253.82" y="182.19" class="st0" width="2.18" height="8.12"/>
			</g>
		</g>
	</g>
</g>
</svg>
