<?xml version="1.0" encoding="utf-8"?>
<!-- Generator: Adobe Illustrator 26.0.1, SVG Export Plug-In . SVG Version: 6.00 Build 0)  -->
<svg version="1.1" id="Layer_1" xmlns="http://www.w3.org/2000/svg" xmlns:xlink="http://www.w3.org/1999/xlink" x="0px" y="0px"
	 viewBox="0 0 256 256" style="enable-background:new 0 0 256 256;" xml:space="preserve">
<style type="text/css">
	.st0{fill:#4259C3;}
</style>
<g>
	<g>
		<path class="st0" d="M46.85,155.36c-13.01,17.44-29.41,25.77-37.22,25.77c-6.77,0-9.63-6.77-4.69-27.59
			c4.17-17.18,11.45-45.03,16.4-66.11c1.04-4.95,0.78-7.29-0.78-7.29c-2.6,0-10.41,5.21-17.18,11.71L0,85.08
			c12.23-13.27,29.93-24.47,38.26-24.47c6.51,0,6.77,8.85,2.08,28.11c-4.95,18.74-11.19,45.03-15.88,63.51
			c-1.82,7.03-1.82,9.89,0,9.89c2.6,0,9.63-3.65,18.74-13.28L46.85,155.36z M54.14,18.97c0,8.07-5.73,15.09-13.79,15.09
			c-6.51,0-11.45-4.69-11.45-11.71C28.89,15.58,34.1,7,43.47,7C50.49,7,54.14,12.46,54.14,18.97z"/>
	</g>
	<g>
		<path class="st0" d="M183.93,137.19c-1.8,7.52-3.76,19.45-5.23,28.28l-5.07,0.32c0-2.61,0-6.21-0.65-8.99
			c-0.82-7.19-2.78-9.81-17.65-9.81h-9.97l-15.37,80.26c-2.45,13.24-1.14,14.06,13.73,15.2l-0.98,4.58H97.78l1.14-4.58
			c13.89-1.14,15.04-2.13,17.49-15.2L131.78,147h-9.81c-13.08,0-15.86,2.12-18.8,6.37c-2.29,2.94-4.9,7.19-7.36,12.59l-5.23-0.49
			c2.62-9.48,5.23-19.29,6.7-28.28h3.76c1.64,3.76,3.43,3.6,7.85,3.6h62.77c4.25,0,5.39-0.49,8.5-3.6H183.93z"/>
		<path class="st0" d="M194.04,134.9c7.85-0.82,15.37-2.45,20.11-4.09c2.45-0.98,3.6-1.31,4.58-1.31c1.31,0,1.63,1.64,0.82,5.4
			c-4.58,20.92-10.46,46.92-15.04,67.84c13.08-18.14,29.59-29.43,39.72-29.43c5.56,0,10.79,2.62,5.72,23.38
			c-2.29,10.14-5.39,23.87-8.01,34.17c-1.14,4.41-0.98,6.21,0.33,6.21c1.47,0,5.4-1.96,11.28-8.17l2.45,3.92
			c-8.01,10.95-18.64,16.18-23.38,16.18c-4.58,0-6.05-5.07-3.27-16.67c2.94-11.28,6.38-25.83,8.99-36.78
			c2.29-9.32,0.98-11.77-2.29-11.77c-6.05,0-18.31,7.85-29.26,25.83c-3.11,4.74-4.58,8.5-5.88,13.73c-1.47,6.54-3.6,16.18-4.9,22.56
			c-3.76,0.65-8.17,1.96-11.77,3.11l-1.14-1.14c7.03-31.55,15.53-71.44,21.25-100.7c1.31-6.7,0.33-6.87-4.58-7.36
			c-1.8-0.16-5.4-0.49-6.7-0.49L194.04,134.9z"/>
	</g>
</g>
</svg>
