<?xml version="1.0" encoding="utf-8"?>
<!-- Generator: Adobe Illustrator 26.0.1, SVG Export Plug-In . SVG Version: 6.00 Build 0)  -->
<svg version="1.1" id="Layer_1" xmlns="http://www.w3.org/2000/svg" xmlns:xlink="http://www.w3.org/1999/xlink" x="0px" y="0px"
	 viewBox="0 0 256 256" style="enable-background:new 0 0 256 256;" xml:space="preserve">
<style type="text/css">
	.st0{fill:#4259C3;}
</style>
<g>
	<g>
		<path class="st0" d="M135.33,50.9c-12.71,1.18-13.44,1.63-15.36,13.89c-3.1,21.13-5.17,38.56-7.68,57.91
			c-1.92,14.33-0.59,14.92,11.82,15.96l-1.03,4.14H84.36l1.03-4.14c11.82-1.18,12.71-1.63,14.92-15.96
			c3.1-21.42,5.91-41.07,9.16-62.05h-0.44c-16.25,27.18-40.92,68.4-48.31,82.14h-3.4c-2.36-15.22-11.67-52.45-17.43-80.66h-0.29
			l-9.75,40.48c-3.54,14.92-5.17,21.72-5.91,26.74c-1.03,6.5,0.44,8.27,11.82,9.31l-1.03,4.14H0l1.03-4.14
			c10.05-0.74,12.56-2.81,14.63-9.01c2.66-7.68,5.76-17.88,9.75-33.54l7.09-28.37c3.69-14.48,3.55-15.07-10.78-16.84l1.18-4.14
			h24.82c4.88,22.75,12.71,50.23,18.32,75.05l45.8-75.05h24.52L135.33,50.9z"/>
	</g>
	<g>
		<path class="st0" d="M178.86,119.63c-1.02,4.27-2.13,11.04-2.97,16.05l-2.88,0.19c0-1.49,0-3.53-0.37-5.1
			c-0.46-4.08-1.58-5.57-10.02-5.57h-5.66l-8.72,45.56c-1.39,7.51-0.65,7.98,7.79,8.63l-0.56,2.6h-25.52l0.65-2.6
			c7.89-0.65,8.54-1.21,9.93-8.63l8.72-45.56h-5.57c-7.42,0-9,1.21-10.67,3.62c-1.3,1.67-2.78,4.08-4.18,7.14l-2.97-0.28
			c1.49-5.38,2.97-10.95,3.8-16.05h2.13c0.93,2.13,1.95,2.04,4.45,2.04h35.63c2.41,0,3.06-0.28,4.83-2.04H178.86z"/>
		<path class="st0" d="M184.61,118.33c4.45-0.47,8.72-1.39,11.41-2.32c1.39-0.56,2.04-0.74,2.6-0.74c0.74,0,0.93,0.93,0.46,3.06
			c-2.6,11.88-5.94,26.63-8.54,38.51c7.42-10.3,16.79-16.7,22.55-16.7c3.16,0,6.12,1.48,3.25,13.27c-1.3,5.75-3.06,13.55-4.55,19.39
			c-0.65,2.51-0.56,3.53,0.19,3.53c0.84,0,3.06-1.12,6.4-4.64l1.39,2.23c-4.55,6.21-10.58,9.19-13.27,9.19
			c-2.6,0-3.43-2.88-1.86-9.46c1.67-6.4,3.62-14.66,5.1-20.88c1.3-5.29,0.56-6.68-1.3-6.68c-3.43,0-10.39,4.45-16.61,14.66
			c-1.76,2.69-2.6,4.83-3.34,7.79c-0.84,3.71-2.04,9.19-2.78,12.81c-2.13,0.37-4.64,1.11-6.68,1.76l-0.65-0.65
			c3.99-17.91,8.81-40.55,12.06-57.16c0.74-3.8,0.19-3.9-2.6-4.17c-1.02-0.09-3.06-0.28-3.8-0.28L184.61,118.33z"/>
	</g>
	<g>
		<g>
			<g>
				<polygon class="st0" points="256,209.24 248.06,209.24 248.06,206.97 253.73,206.97 253.73,201.3 256,201.3 				"/>
			</g>
		</g>
		<g>
			<g>
				<polygon class="st0" points="237.22,209.24 229.28,209.24 229.28,201.3 231.55,201.3 231.55,206.97 237.22,206.97 				"/>
			</g>
		</g>
		<g>
			<g>
				<rect x="229.28" y="184.37" class="st0" width="2.27" height="8.46"/>
			</g>
		</g>
		<g>
			<g>
				<polygon class="st0" points="231.55,175.91 229.28,175.91 229.28,167.97 237.22,167.97 237.22,170.23 231.55,170.23 				"/>
			</g>
		</g>
		<g>
			<g>
				<polygon class="st0" points="256,175.91 253.73,175.91 253.73,170.23 248.06,170.23 248.06,167.97 256,167.97 				"/>
			</g>
		</g>
		<g>
			<g>
				<rect x="253.73" y="184.37" class="st0" width="2.27" height="8.46"/>
			</g>
		</g>
	</g>
</g>
</svg>
