<?xml version="1.0" encoding="utf-8"?>
<!-- Generator: Adobe Illustrator 26.0.1, SVG Export Plug-In . SVG Version: 6.00 Build 0)  -->
<svg version="1.1" id="Layer_1" xmlns="http://www.w3.org/2000/svg" xmlns:xlink="http://www.w3.org/1999/xlink" x="0px" y="0px"
	 viewBox="0 0 256 256" style="enable-background:new 0 0 256 256;" xml:space="preserve">
<style type="text/css">
	.st0{fill:#4259C3;}
</style>
<g>
	<g>
		<path class="st0" d="M81.78,53.48c-1.58,6.59-3.29,17.04-4.58,24.78l-4.44,0.29c0-2.29,0-5.44-0.57-7.88
			c-0.72-6.3-2.44-8.59-15.47-8.59h-8.74l-13.46,70.32c-2.15,11.6-1,12.32,12.03,13.32l-0.86,4.01H6.3l1-4.01
			c12.17-1,13.18-1.86,15.32-13.32l13.46-70.32H27.5c-11.46,0-13.89,1.86-16.47,5.58c-2.01,2.58-4.3,6.3-6.44,11.03L0,78.26
			c2.29-8.31,4.58-16.9,5.87-24.78h3.29c1.43,3.29,3.01,3.15,6.87,3.15h55c3.72,0,4.73-0.43,7.45-3.15H81.78z"/>
		<path class="st0" d="M90.65,51.48c6.88-0.72,13.46-2.15,17.62-3.58c2.15-0.86,3.15-1.15,4.01-1.15c1.15,0,1.43,1.43,0.72,4.73
			c-4.01,18.33-9.17,41.11-13.18,59.44c11.46-15.9,25.92-25.78,34.8-25.78c4.87,0,9.45,2.3,5.01,20.48
			c-2.01,8.88-4.73,20.91-7.02,29.93c-1,3.87-0.86,5.44,0.29,5.44c1.29,0,4.73-1.72,9.88-7.16l2.15,3.44
			c-7.02,9.59-16.33,14.18-20.48,14.18c-4.01,0-5.3-4.44-2.86-14.61c2.58-9.88,5.59-22.63,7.88-32.22
			c2.01-8.16,0.86-10.31-2.01-10.31c-5.3,0-16.04,6.87-25.64,22.63c-2.72,4.15-4.01,7.45-5.16,12.03
			c-1.29,5.73-3.15,14.18-4.3,19.76c-3.29,0.57-7.16,1.72-10.31,2.72l-1-1.01c6.16-27.64,13.61-62.58,18.62-88.22
			c1.15-5.87,0.29-6.02-4.01-6.44c-1.58-0.14-4.73-0.43-5.87-0.43L90.65,51.48z"/>
	</g>
	<g>
		<path class="st0" d="M154.3,176.83c-1.44,1.35-2.34,2.25-2.34,3.33c0,1.44,1.8,3.06,7.2,5.67c9.89,4.59,12.59,7.55,12.59,11.51
			c0,7.55-12.68,14.03-21.77,14.03c-9.08,0-16.82-4.68-16.82-10.43c0.09-3.78,5.31-7.74,15.29-13.49c-2.34-1.44-3.15-3.06-3.06-4.32
			c0-1.53,2.16-3.96,6.21-6.48L154.3,176.83z M165,200.31c0-1.89-0.81-3.96-4.32-6.12c-3.51-2.16-7.73-4.23-9.8-5.13
			c-7.11,3.96-10.16,7.29-10.16,10.43c0,4.68,6.03,8.01,12.77,8.01C160.59,207.5,165,203.99,165,200.31z M143.23,166.58
			c0-7.02,3.96-13.22,8.91-16.19c3.33-2.07,7.38-3.24,9.89-3.24c2.88,0,5.58,0.72,7.65,2.43c5.13,0,8.36-0.99,10.07-2.07l0.63,2.07
			c-2.61,3.15-5.58,4.05-8.37,4.41c0.27,1.26,0.54,2.52,0.54,4.14c0,6.48-3.15,11.42-6.3,13.94c-3.78,3.15-8.81,5.31-13.58,5.22
			C146.47,177.19,143.23,172.24,143.23,166.58z M165.81,159.2c0-5.58-2.25-8.73-6.21-8.73c-5.31,0-9.53,6.93-9.53,14.93
			c0,5.4,2.61,8.28,5.94,8.28C161.49,173.68,165.81,167.3,165.81,159.2z"/>
	</g>
	<g>
		<path class="st0" d="M228.39,146.4c-1.8,0.18-6.39,0.54-9.08,0.54c-4.05,18.71-5.31,24.47-5.76,27.16c-0.45,2.79,0.09,3.6,0.9,3.6
			c1.8,0,4.77-2.34,8.1-5.67l1.17,2.25c-2.88,4.41-9.89,9.53-13.76,9.53c-3.15,0-4.68-2.43-2.34-13.04l5.22-23.84h-7.2v-0.81
			l2.61-2.88h5.4l2.07-9.62c1.44-0.81,5.22-3.24,7.1-4.95l0.81,0.45c-1.08,3.6-2.52,9.44-3.51,14.12h9.98L228.39,146.4z"/>
	</g>
	<g>
		<g>
			<g>
				<polygon class="st0" points="256,202.94 248.3,202.94 248.3,200.74 253.8,200.74 253.8,195.24 256,195.24 				"/>
			</g>
		</g>
		<g>
			<g>
				<polygon class="st0" points="237.8,202.94 230.1,202.94 230.1,195.24 232.3,195.24 232.3,200.74 237.8,200.74 				"/>
			</g>
		</g>
		<g>
			<g>
				<rect x="230.1" y="178.84" class="st0" width="2.2" height="8.2"/>
			</g>
		</g>
		<g>
			<g>
				<polygon class="st0" points="232.3,170.63 230.1,170.63 230.1,162.93 237.8,162.93 237.8,165.13 232.3,165.13 				"/>
			</g>
		</g>
		<g>
			<g>
				<polygon class="st0" points="256,170.63 253.8,170.63 253.8,165.13 248.3,165.13 248.3,162.93 256,162.93 				"/>
			</g>
		</g>
		<g>
			<g>
				<rect x="253.8" y="178.84" class="st0" width="2.2" height="8.2"/>
			</g>
		</g>
	</g>
	<g>
		<g>
			<path class="st0" d="M193.67,151.85c-1.18,0-2.13-0.95-2.13-2.13V46.76c0-1.18,0.95-2.13,2.13-2.13c1.18,0,2.13,0.95,2.13,2.13
				v102.97C195.8,150.9,194.84,151.85,193.67,151.85z"/>
		</g>
	</g>
</g>
</svg>
