<?xml version="1.0" encoding="utf-8"?>
<!-- Generator: Adobe Illustrator 26.0.1, SVG Export Plug-In . SVG Version: 6.00 Build 0)  -->
<svg version="1.1" id="Layer_1" xmlns="http://www.w3.org/2000/svg" xmlns:xlink="http://www.w3.org/1999/xlink" x="0px" y="0px"
	 viewBox="0 0 256 256" style="enable-background:new 0 0 256 256;" xml:space="preserve">
<style type="text/css">
	.st0{fill:#4259C3;}
</style>
<g>
	<g>
		<path class="st0" d="M114.81,49.91c-2.21,9.25-4.62,23.93-6.43,34.79l-6.23,0.4c0-3.22,0-7.64-0.8-11.06
			c-1.01-8.85-3.42-12.06-21.72-12.06H67.36l-18.9,98.73c-3.02,16.29-1.41,17.29,16.89,18.7l-1.21,5.63H8.85l1.41-5.63
			c17.09-1.41,18.5-2.62,21.51-18.7l18.9-98.73H38.61c-16.09,0-19.5,2.62-23.12,7.84c-2.82,3.62-6.03,8.85-9.05,15.48L0,84.7
			c3.22-11.66,6.43-23.73,8.24-34.79h4.62c2.01,4.63,4.22,4.42,9.65,4.42h77.21c5.23,0,6.64-0.6,10.46-4.42H114.81z"/>
		<path class="st0" d="M127.27,47.1c9.65-1,18.9-3.02,24.73-5.03c3.02-1.21,4.42-1.61,5.63-1.61c1.61,0,2.01,2.01,1.01,6.63
			c-5.63,25.74-12.87,57.71-18.5,83.45c16.09-22.32,36.4-36.2,48.86-36.2c6.84,0,13.27,3.22,7.04,28.76
			c-2.82,12.47-6.64,29.36-9.85,42.02c-1.41,5.43-1.21,7.64,0.4,7.64c1.81,0,6.64-2.41,13.87-10.06l3.02,4.83
			c-9.85,13.47-22.92,19.91-28.75,19.91c-5.63,0-7.44-6.23-4.02-20.51c3.62-13.88,7.84-31.77,11.06-45.24
			c2.82-11.46,1.21-14.48-2.82-14.48c-7.44,0-22.52,9.65-35.99,31.77c-3.82,5.83-5.63,10.46-7.24,16.89
			c-1.81,8.04-4.42,19.91-6.03,27.75c-4.62,0.8-10.05,2.41-14.48,3.82l-1.41-1.41c8.65-38.8,19.1-87.87,26.14-123.86
			c1.61-8.25,0.4-8.45-5.63-9.05c-2.21-0.2-6.64-0.6-8.24-0.6L127.27,47.1z"/>
	</g>
	<g>
		<g>
			<g>
				<polygon class="st0" points="256,215.53 245.19,215.53 245.19,212.45 252.91,212.45 252.91,204.72 256,204.72 				"/>
			</g>
		</g>
		<g>
			<g>
				<polygon class="st0" points="230.44,215.53 219.63,215.53 219.63,204.72 222.72,204.72 222.72,212.45 230.44,212.45 				"/>
			</g>
		</g>
		<g>
			<g>
				<rect x="219.63" y="181.69" class="st0" width="3.09" height="11.52"/>
			</g>
		</g>
		<g>
			<g>
				<polygon class="st0" points="222.72,170.17 219.63,170.17 219.63,159.36 230.44,159.36 230.44,162.45 222.72,162.45 				"/>
			</g>
		</g>
		<g>
			<g>
				<polygon class="st0" points="256,170.17 252.91,170.17 252.91,162.45 245.19,162.45 245.19,159.36 256,159.36 				"/>
			</g>
		</g>
		<g>
			<g>
				<rect x="252.91" y="181.69" class="st0" width="3.09" height="11.52"/>
			</g>
		</g>
	</g>
</g>
</svg>
