<?xml version="1.0" encoding="utf-8"?>
<!-- Generator: Adobe Illustrator 26.0.1, SVG Export Plug-In . SVG Version: 6.00 Build 0)  -->
<svg version="1.1" id="Layer_1" xmlns="http://www.w3.org/2000/svg" xmlns:xlink="http://www.w3.org/1999/xlink" x="0px" y="0px"
	 viewBox="0 0 256 256" style="enable-background:new 0 0 256 256;" xml:space="preserve">
<style type="text/css">
	.st0{fill:#4259C3;}
</style>
<g>
	<g>
		<path class="st0" d="M110.83,25.57c-2.14,8.93-4.46,23.1-6.21,33.58l-6.02,0.39c0-3.1,0-7.38-0.78-10.68
			c-0.97-8.54-3.3-11.64-20.96-11.64H65.02l-18.25,95.3c-2.91,15.72-1.36,16.7,16.3,18.05l-1.17,5.43H8.54l1.36-5.43
			c16.5-1.36,17.86-2.52,20.77-18.05l18.25-95.3H37.27c-15.53,0-18.83,2.52-22.32,7.57c-2.72,3.49-5.82,8.54-8.73,14.94L0,59.15
			c3.1-11.26,6.21-22.91,7.96-33.58h4.46c1.94,4.46,4.08,4.27,9.32,4.27h74.53c5.05,0,6.41-0.59,10.09-4.27H110.83z"/>
		<path class="st0" d="M122.85,22.86c9.32-0.97,18.25-2.91,23.87-4.85c2.91-1.17,4.27-1.56,5.43-1.56c1.55,0,1.94,1.94,0.97,6.41
			c-5.43,24.84-12.42,55.71-17.86,80.55c15.53-21.55,35.13-34.94,47.17-34.94c6.6,0,12.81,3.11,6.79,27.76
			c-2.72,12.04-6.41,28.34-9.51,40.57c-1.36,5.24-1.16,7.38,0.39,7.38c1.75,0,6.41-2.33,13.39-9.7l2.91,4.66
			c-9.51,13-22.13,19.22-27.75,19.22c-5.43,0-7.18-6.02-3.88-19.8c3.49-13.39,7.57-30.67,10.68-43.67
			c2.72-11.06,1.17-13.97-2.72-13.97c-7.18,0-21.74,9.31-34.74,30.67c-3.69,5.63-5.43,10.09-6.99,16.31
			c-1.75,7.76-4.27,19.22-5.82,26.78c-4.46,0.78-9.7,2.33-13.97,3.69l-1.36-1.36c8.35-37.46,18.44-84.82,25.23-119.56
			c1.55-7.96,0.39-8.15-5.43-8.73c-2.14-0.19-6.41-0.58-7.96-0.58L122.85,22.86z"/>
	</g>
	<g>
		<path class="st0" d="M220.65,192.74c-1.95,1.83-3.17,3.05-3.17,4.51c0,1.95,2.44,4.14,9.75,7.68
			c13.41,6.22,17.07,10.24,17.07,15.6c0,10.24-17.19,19.02-29.5,19.02c-12.31,0-22.79-6.34-22.79-14.14
			c0.12-5.12,7.19-10.48,20.72-18.29c-3.17-1.95-4.27-4.14-4.14-5.85c0-2.07,2.93-5.36,8.41-8.78L220.65,192.74z M235.15,224.55
			c0-2.56-1.1-5.36-5.85-8.29c-4.75-2.92-10.48-5.73-13.29-6.95c-9.63,5.36-13.77,9.88-13.77,14.14c0,6.34,8.17,10.85,17.31,10.85
			C229.18,234.31,235.15,229.55,235.15,224.55z M205.65,178.84c0-9.51,5.36-17.92,12.07-21.94c4.51-2.8,10-4.39,13.41-4.39
			c3.9,0,7.56,0.98,10.36,3.29c6.95,0,11.34-1.34,13.65-2.8l0.85,2.8c-3.54,4.27-7.56,5.49-11.34,5.97c0.37,1.7,0.73,3.41,0.73,5.61
			c0,8.78-4.27,15.48-8.53,18.89c-5.12,4.27-11.95,7.19-18.41,7.07C210.04,193.23,205.65,186.52,205.65,178.84z M236.25,168.85
			c0-7.56-3.05-11.82-8.41-11.82c-7.19,0-12.92,9.39-12.92,20.24c0,7.31,3.53,11.22,8.05,11.22
			C230.4,188.47,236.25,179.82,236.25,168.85z"/>
	</g>
</g>
</svg>
