<?xml version="1.0" encoding="utf-8"?>
<!-- Generator: Adobe Illustrator 26.0.1, SVG Export Plug-In . SVG Version: 6.00 Build 0)  -->
<svg version="1.1" id="Layer_1" xmlns="http://www.w3.org/2000/svg" xmlns:xlink="http://www.w3.org/1999/xlink" x="0px" y="0px"
	 viewBox="0 0 256 256" style="enable-background:new 0 0 256 256;" xml:space="preserve">
<style type="text/css">
	.st0{fill:#4259C3;}
</style>
<g>
	<g>
		<path class="st0" d="M167.39,47.66c-11.12,1.48-13.9,2.23-21.5,17.24c-7.97,15.57-25.21,50.79-49.12,100.1h-6.12L77.12,71.76
			L30.77,165h-6.12l-9.27-99.73C13.9,49.7,12.98,48.96,0,47.66l1.11-5.19h42.82l-1.48,5.19l-3.89,0.56
			c-7.78,1.3-9.45,2.22-8.53,12.23l6.3,77.49l46.16-93.43h5.75l13.16,93.61c11.86-23.54,29.47-60.25,36.89-77.67
			c3.89-9.27,1.85-10.94-7.6-12.05l-4.26-0.74l1.11-5.19h41.15L167.39,47.66z"/>
	</g>
	<g>
		<path class="st0" d="M204.67,133.9c-1.28,5.35-2.68,13.86-3.73,20.14l-3.61,0.23c0-1.86,0-4.42-0.47-6.4
			c-0.58-5.12-1.98-6.99-12.57-6.99h-7.1l-10.94,57.16c-1.75,9.43-0.81,10.01,9.78,10.83l-0.7,3.26h-32.02l0.82-3.26
			c9.9-0.82,10.71-1.51,12.46-10.83l10.94-57.16h-6.99c-9.31,0-11.29,1.51-13.39,4.54c-1.63,2.09-3.49,5.12-5.24,8.96l-3.73-0.35
			c1.86-6.75,3.73-13.74,4.77-20.14h2.68c1.17,2.68,2.45,2.56,5.59,2.56h44.71c3.03,0,3.84-0.35,6.05-2.56H204.67z"/>
		<path class="st0" d="M211.88,132.27c5.59-0.58,10.94-1.75,14.32-2.91c1.75-0.7,2.56-0.93,3.26-0.93c0.93,0,1.16,1.16,0.58,3.84
			c-3.26,14.9-7.45,33.41-10.71,48.31c9.31-12.92,21.07-20.96,28.29-20.96c3.96,0,7.69,1.86,4.08,16.65
			c-1.63,7.22-3.84,17-5.7,24.33c-0.82,3.15-0.7,4.43,0.23,4.43c1.05,0,3.84-1.4,8.03-5.82l1.75,2.8
			c-5.7,7.8-13.27,11.52-16.65,11.52c-3.26,0-4.31-3.61-2.33-11.87c2.1-8.03,4.54-18.39,6.4-26.2c1.63-6.64,0.7-8.38-1.63-8.38
			c-4.31,0-13.04,5.59-20.84,18.39c-2.21,3.38-3.26,6.05-4.19,9.78c-1.05,4.66-2.56,11.53-3.49,16.07c-2.68,0.47-5.82,1.4-8.38,2.21
			l-0.82-0.82c5.01-22.47,11.06-50.88,15.13-71.72c0.93-4.77,0.23-4.89-3.26-5.24c-1.28-0.12-3.84-0.35-4.77-0.35L211.88,132.27z"/>
	</g>
</g>
</svg>
