<?xml version="1.0" encoding="utf-8"?>
<!-- Generator: Adobe Illustrator 26.0.1, SVG Export Plug-In . SVG Version: 6.00 Build 0)  -->
<svg version="1.1" id="Layer_1" xmlns="http://www.w3.org/2000/svg" xmlns:xlink="http://www.w3.org/1999/xlink" x="0px" y="0px"
	 viewBox="0 0 256 256" style="enable-background:new 0 0 256 256;" xml:space="preserve">
<style type="text/css">
	.st0{fill:#4259C3;}
</style>
<g>
	<g>
		<path class="st0" d="M94.12,20.65c-20.81,1.73-22.79,3.22-26.25,21.3L48.05,145.74c-3.72,18.82-1.49,20.56,19.32,22.04l-1.24,6.94
			H0l1.49-6.94c20.06-1.73,22.29-3.47,26.01-22.04L47.56,41.96c3.47-18.33,1.49-19.57-19.32-21.3l1.48-6.94h65.89L94.12,20.65z"/>
	</g>
	<g>
		<path class="st0" d="M187.41,135.88c-1.71,7.16-3.58,18.51-4.98,26.91l-4.82,0.31c0-2.49,0-5.91-0.62-8.55
			c-0.78-6.85-2.64-9.33-16.8-9.33h-9.49l-14.62,76.38c-2.33,12.6-1.09,13.38,13.07,14.47l-0.93,4.35h-42.78l1.09-4.35
			c13.22-1.09,14.31-2.02,16.64-14.47l14.62-76.38h-9.33c-12.44,0-15.09,2.02-17.89,6.07c-2.18,2.8-4.67,6.85-7,11.98l-4.98-0.46
			c2.49-9.02,4.98-18.36,6.38-26.91h3.58c1.56,3.58,3.27,3.42,7.47,3.42h59.74c4.04,0,5.13-0.47,8.09-3.42H187.41z"/>
		<path class="st0" d="M197.04,133.7c7.47-0.78,14.62-2.33,19.14-3.89c2.33-0.93,3.42-1.24,4.36-1.24c1.24,0,1.56,1.56,0.78,5.13
			c-4.36,19.91-9.96,44.65-14.31,64.56c12.45-17.27,28.16-28,37.8-28c5.29,0,10.27,2.49,5.45,22.25
			c-2.18,9.65-5.13,22.71-7.62,32.51c-1.09,4.2-0.93,5.91,0.31,5.91c1.4,0,5.13-1.87,10.73-7.78l2.33,3.73
			c-7.62,10.42-17.73,15.4-22.25,15.4c-4.36,0-5.76-4.82-3.11-15.87c2.8-10.73,6.07-24.58,8.56-35c2.18-8.87,0.93-11.2-2.18-11.2
			c-5.76,0-17.42,7.47-27.85,24.58c-2.96,4.51-4.36,8.09-5.6,13.07c-1.4,6.22-3.42,15.4-4.67,21.47c-3.58,0.62-7.78,1.87-11.2,2.96
			l-1.09-1.09c6.69-30.03,14.78-67.98,20.22-95.83c1.24-6.38,0.31-6.53-4.36-7c-1.71-0.15-5.13-0.47-6.38-0.47L197.04,133.7z"/>
	</g>
</g>
</svg>
