<?xml version="1.0" encoding="utf-8"?>
<!-- Generator: Adobe Illustrator 26.0.1, SVG Export Plug-In . SVG Version: 6.00 Build 0)  -->
<svg version="1.1" id="Layer_1" xmlns="http://www.w3.org/2000/svg" xmlns:xlink="http://www.w3.org/1999/xlink" x="0px" y="0px"
	 viewBox="0 0 256 256" style="enable-background:new 0 0 256 256;" xml:space="preserve">
<style type="text/css">
	.st0{fill:#4259C3;}
</style>
<g>
	<g>
		<path class="st0" d="M76.07,22.33c-16.81,1.4-18.42,2.6-21.22,17.22l-16.02,83.88c-3,15.21-1.2,16.62,15.61,17.82l-1,5.61H0
			l1.2-5.61c16.21-1.4,18.02-2.8,21.02-17.82l16.21-83.88c2.8-14.81,1.2-15.82-15.61-17.22l1.2-5.61h53.25L76.07,22.33z"/>
	</g>
	<g>
		<path class="st0" d="M151.47,115.45c-1.38,5.78-2.89,14.96-4.02,21.75l-3.9,0.25c0-2.01,0-4.78-0.5-6.91
			c-0.63-5.53-2.14-7.54-13.58-7.54h-7.67l-11.82,61.73c-1.88,10.19-0.88,10.81,10.56,11.69l-0.75,3.52H85.21l0.88-3.52
			c10.69-0.88,11.57-1.64,13.45-11.69L111.36,123h-7.54c-10.06,0-12.19,1.63-14.46,4.9c-1.76,2.26-3.77,5.53-5.66,9.68l-4.02-0.37
			c2.01-7.29,4.02-14.84,5.16-21.75h2.89c1.26,2.89,2.64,2.77,6.04,2.77h48.28c3.27,0,4.15-0.38,6.54-2.77H151.47z"/>
		<path class="st0" d="M159.25,113.69c6.04-0.63,11.82-1.89,15.47-3.14c1.89-0.75,2.76-1.01,3.52-1.01c1.01,0,1.26,1.26,0.63,4.15
			c-3.52,16.09-8.05,36.08-11.57,52.18c10.06-13.95,22.76-22.63,30.55-22.63c4.28,0,8.3,2.01,4.4,17.98
			c-1.76,7.8-4.15,18.36-6.16,26.28c-0.88,3.39-0.75,4.78,0.25,4.78c1.13,0,4.15-1.51,8.68-6.29l1.89,3.02
			c-6.16,8.42-14.33,12.45-17.98,12.45c-3.52,0-4.65-3.9-2.52-12.82c2.26-8.67,4.9-19.86,6.91-28.29c1.76-7.17,0.76-9.05-1.76-9.05
			c-4.65,0-14.08,6.04-22.5,19.86c-2.39,3.65-3.52,6.54-4.53,10.56c-1.13,5.03-2.77,12.45-3.77,17.35c-2.89,0.5-6.29,1.51-9.05,2.39
			l-0.88-0.88c5.41-24.27,11.94-54.94,16.34-77.45c1.01-5.16,0.25-5.28-3.52-5.66c-1.38-0.12-4.15-0.38-5.16-0.38L159.25,113.69z"/>
	</g>
	<g>
		<g>
			<g>
				<polygon class="st0" points="256,239.28 245.24,239.28 245.24,236.2 252.92,236.2 252.92,228.51 256,228.51 				"/>
			</g>
		</g>
		<g>
			<g>
				<polygon class="st0" points="230.56,239.28 219.79,239.28 219.79,228.51 222.87,228.51 222.87,236.2 230.56,236.2 				"/>
			</g>
		</g>
		<g>
			<g>
				<rect x="219.79" y="205.58" class="st0" width="3.08" height="11.47"/>
			</g>
		</g>
		<g>
			<g>
				<polygon class="st0" points="222.87,194.12 219.79,194.12 219.79,183.35 230.56,183.35 230.56,186.43 222.87,186.43 				"/>
			</g>
		</g>
		<g>
			<g>
				<polygon class="st0" points="256,194.12 252.92,194.12 252.92,186.43 245.24,186.43 245.24,183.35 256,183.35 				"/>
			</g>
		</g>
		<g>
			<g>
				<rect x="252.92" y="205.58" class="st0" width="3.08" height="11.47"/>
			</g>
		</g>
	</g>
</g>
</svg>
