<?xml version="1.0" encoding="utf-8"?>
<!-- Generator: Adobe Illustrator 26.0.1, SVG Export Plug-In . SVG Version: 6.00 Build 0)  -->
<svg version="1.1" id="Layer_1" xmlns="http://www.w3.org/2000/svg" xmlns:xlink="http://www.w3.org/1999/xlink" x="0px" y="0px"
	 viewBox="0 0 256 256" style="enable-background:new 0 0 256 256;" xml:space="preserve">
<style type="text/css">
	.st0{fill:#4259C3;}
</style>
<g>
	<g>
		<path class="st0" d="M256,207.9c-3.83,5.06-8.24,7.38-10.34,7.38c-1.95,0-2.97-1.74-1.59-7.67c1.3-5.13,2.53-10.27,3.62-14.82
			c1.16-4.7,0.87-6.29-0.94-6.29c-2.39,0-7.95,4.05-12.87,11.57c-1.3,1.95-1.88,3.83-2.46,6.07c-0.72,2.82-1.66,6.73-2.24,9.69
			c-1.81,0.36-3.76,0.94-5.13,1.45l-0.51-0.51c2.02-7.88,4.12-16.7,5.93-24.73c0.51-2.24,0.22-2.89-0.36-2.89
			c-0.8,0-2.6,1.59-4.41,3.33l-1.01-1.88c3.33-4.19,7.09-6.79,9.47-6.79c2.1,0,2.67,2.53,1.16,8.82l-1.01,4.26
			c6.43-8.39,12.94-13.09,17.28-13.09c2.39,0,4.63,1.66,2.31,11.35c-0.94,3.98-2.31,9.55-3.4,14.1c-0.43,1.95-0.43,2.82,0.07,2.82
			c0.65,0,2.75-1.16,5.35-3.9L256,207.9z"/>
	</g>
	<g>
		<path class="st0" d="M93.21,73.04c1.2-20.35-7.35-26.34-25.31-26.34c-31.98,0-51.48,28.73-51.48,59.52
			c0,27.71,13.51,44.46,37.11,44.46c9.24,0,17.44-3.25,19.5-12.14l3.08-15.56c2.57-12.48,1.03-13.17-15.22-14.71l1.03-4.79h43.44
			l-1.2,4.62c-10.26,1.71-11.46,2.05-14.02,14.88l-2.57,14.02c-1.03,5.3-1.71,10.43-1.2,14.02c-10.6,2.4-21.72,5.81-35.23,5.81
			c-29.93,0-51.14-18.3-51.14-49.6c0-38.48,29.25-66.53,71.83-66.53c14.2,0,25.48,3.25,31.3,4.27c-1.2,5.3-3.08,15.73-4.62,27.71
			L93.21,73.04z"/>
	</g>
	<g>
		<path class="st0" d="M172.35,127.46c-1.18,4.94-2.47,12.78-3.44,18.58l-3.33,0.22c0-1.72,0-4.08-0.43-5.91
			c-0.54-4.73-1.83-6.44-11.6-6.44H147l-10.1,52.74c-1.61,8.7-0.75,9.24,9.02,9.99l-0.64,3.01h-29.54l0.75-3.01
			c9.13-0.75,9.88-1.4,11.49-9.99l10.1-52.74h-6.44c-8.59,0-10.42,1.4-12.35,4.19c-1.5,1.93-3.22,4.72-4.83,8.27l-3.44-0.32
			c1.72-6.23,3.44-12.67,4.4-18.58h2.47c1.07,2.47,2.26,2.36,5.16,2.36h41.24c2.79,0,3.54-0.32,5.59-2.36H172.35z"/>
		<path class="st0" d="M179,125.96c5.16-0.54,10.1-1.61,13.21-2.69c1.61-0.65,2.36-0.86,3.01-0.86c0.86,0,1.07,1.07,0.54,3.55
			c-3.01,13.75-6.87,30.83-9.88,44.57c8.59-11.92,19.44-19.33,26.1-19.33c3.65,0,7.09,1.72,3.76,15.36
			c-1.5,6.66-3.54,15.68-5.26,22.45c-0.75,2.9-0.64,4.08,0.21,4.08c0.97,0,3.55-1.29,7.41-5.37l1.61,2.58
			c-5.26,7.19-12.25,10.63-15.36,10.63c-3.01,0-3.97-3.33-2.15-10.96c1.93-7.41,4.19-16.97,5.91-24.17c1.5-6.12,0.65-7.73-1.5-7.73
			c-3.97,0-12.03,5.16-19.23,16.97c-2.04,3.12-3.01,5.59-3.87,9.02c-0.97,4.3-2.36,10.64-3.22,14.82c-2.47,0.43-5.37,1.29-7.73,2.04
			l-0.75-0.75c4.62-20.73,10.2-46.94,13.96-66.16c0.86-4.4,0.21-4.51-3.01-4.83c-1.18-0.11-3.55-0.32-4.4-0.32L179,125.96z"/>
	</g>
</g>
</svg>
