<?xml version="1.0" encoding="utf-8"?>
<!-- Generator: Adobe Illustrator 26.0.1, SVG Export Plug-In . SVG Version: 6.00 Build 0)  -->
<svg version="1.1" id="Layer_1" xmlns="http://www.w3.org/2000/svg" xmlns:xlink="http://www.w3.org/1999/xlink" x="0px" y="0px"
	 viewBox="0 0 256 256" style="enable-background:new 0 0 256 256;" xml:space="preserve">
<style type="text/css">
	.st0{fill:#4259C3;}
</style>
<g>
	<g>
		<path class="st0" d="M108.6,72.32c1.39-23.71-8.57-30.69-29.49-30.69c-37.26,0-59.98,33.48-59.98,69.35
			c0,32.28,15.74,51.81,43.24,51.81c10.76,0,20.32-3.79,22.72-14.15l3.59-18.13c2.99-14.55,1.19-15.35-17.74-17.14l1.2-5.58h50.61
			l-1.39,5.38c-11.96,1.99-13.35,2.39-16.34,17.34l-2.99,16.34c-1.2,6.18-1.99,12.15-1.39,16.34c-12.36,2.79-25.31,6.77-41.05,6.77
			C24.71,169.97,0,148.65,0,112.18c0-44.84,34.08-77.52,83.69-77.52c16.54,0,29.69,3.79,36.47,4.98
			c-1.39,6.18-3.59,18.33-5.38,32.28L108.6,72.32z"/>
	</g>
	<g>
		<path class="st0" d="M200.82,135.73c-1.38,5.76-2.88,14.89-4,21.65l-3.88,0.25c0-2,0-4.76-0.5-6.88
			c-0.62-5.51-2.13-7.51-13.52-7.51h-7.64l-11.76,61.45c-1.88,10.14-0.88,10.76,10.51,11.64l-0.75,3.51h-34.42l0.88-3.51
			c10.64-0.88,11.51-1.63,13.39-11.64l11.76-61.45h-7.51c-10.01,0-12.14,1.63-14.39,4.88c-1.75,2.25-3.75,5.5-5.63,9.64l-4-0.38
			c2-7.26,4-14.77,5.13-21.65h2.88c1.25,2.88,2.63,2.75,6.01,2.75h48.06c3.25,0,4.13-0.38,6.51-2.75H200.82z"/>
		<path class="st0" d="M208.57,133.98c6.01-0.63,11.76-1.88,15.39-3.13c1.88-0.75,2.75-1,3.5-1c1,0,1.25,1.25,0.62,4.13
			c-3.5,16.02-8.01,35.92-11.51,51.94c10.01-13.89,22.65-22.53,30.41-22.53c4.26,0,8.26,2,4.38,17.9
			c-1.75,7.76-4.13,18.27-6.13,26.15c-0.88,3.38-0.75,4.76,0.25,4.76c1.13,0,4.13-1.5,8.64-6.26l1.88,3.01
			c-6.13,8.38-14.27,12.39-17.9,12.39c-3.5,0-4.63-3.88-2.5-12.77c2.25-8.63,4.88-19.77,6.88-28.16c1.75-7.13,0.75-9.01-1.75-9.01
			c-4.63,0-14.02,6.01-22.4,19.77c-2.38,3.63-3.5,6.51-4.51,10.51c-1.13,5.01-2.75,12.39-3.75,17.27c-2.88,0.5-6.26,1.5-9.01,2.38
			l-0.88-0.88c5.38-24.15,11.89-54.69,16.27-77.09c1-5.13,0.25-5.26-3.5-5.63c-1.38-0.13-4.13-0.38-5.13-0.38L208.57,133.98z"/>
	</g>
</g>
</svg>
