<?xml version="1.0" encoding="utf-8"?>
<!-- Generator: Adobe Illustrator 26.0.1, SVG Export Plug-In . SVG Version: 6.00 Build 0)  -->
<svg version="1.1" id="Layer_1" xmlns="http://www.w3.org/2000/svg" xmlns:xlink="http://www.w3.org/1999/xlink" x="0px" y="0px"
	 viewBox="0 0 256 256" style="enable-background:new 0 0 256 256;" xml:space="preserve">
<style type="text/css">
	.st0{fill:#4259C3;}
</style>
<g>
	<g>
		<path class="st0" d="M95.41,41.83c-1.84,7.69-3.84,19.89-5.35,28.91l-5.18,0.33c0-2.67,0-6.35-0.67-9.19
			c-0.84-7.35-2.84-10.03-18.05-10.03H55.98l-15.71,82.05c-2.51,13.53-1.17,14.37,14.04,15.54l-1,4.68H7.35l1.17-4.68
			c14.2-1.17,15.37-2.17,17.88-15.54l15.71-82.05H32.08c-13.37,0-16.21,2.17-19.22,6.52c-2.34,3.01-5.01,7.35-7.52,12.87L0,70.74
			c2.67-9.69,5.35-19.72,6.85-28.91h3.84c1.67,3.84,3.51,3.68,8.02,3.68h64.17c4.35,0,5.51-0.5,8.69-3.68H95.41z"/>
		<path class="st0" d="M105.76,39.49c8.02-0.83,15.71-2.51,20.55-4.18c2.51-1,3.68-1.34,4.68-1.34c1.34,0,1.67,1.67,0.84,5.51
			c-4.68,21.39-10.69,47.96-15.37,69.35c13.37-18.55,30.25-30.08,40.61-30.08c5.68,0,11.03,2.68,5.85,23.9
			c-2.34,10.36-5.51,24.4-8.19,34.92c-1.17,4.51-1,6.35,0.33,6.35c1.5,0,5.51-2.01,11.53-8.36l2.51,4.01
			c-8.19,11.19-19.05,16.54-23.89,16.54c-4.68,0-6.18-5.18-3.34-17.04c3.01-11.53,6.52-26.4,9.19-37.6c2.34-9.52,1-12.03-2.34-12.03
			c-6.18,0-18.71,8.02-29.91,26.4c-3.18,4.85-4.68,8.69-6.02,14.04c-1.5,6.68-3.68,16.54-5.01,23.06c-3.84,0.67-8.35,2-12.03,3.18
			l-1.17-1.17c7.19-32.25,15.87-73.02,21.72-102.93c1.34-6.85,0.33-7.02-4.68-7.52c-1.84-0.17-5.51-0.5-6.85-0.5L105.76,39.49z"/>
	</g>
	<g>
		<path class="st0" d="M223.79,156.05c-2.1,0.21-7.45,0.63-10.6,0.63c-4.72,21.83-6.19,28.54-6.72,31.69
			c-0.53,3.25,0.1,4.2,1.05,4.2c2.1,0,5.56-2.73,9.45-6.61l1.36,2.62c-3.36,5.14-11.54,11.12-16.06,11.12
			c-3.67,0-5.46-2.83-2.73-15.22l6.09-27.81h-8.4v-0.94l3.04-3.36h6.3l2.41-11.23c1.68-0.95,6.09-3.78,8.29-5.77l0.94,0.52
			c-1.26,4.2-2.94,11.02-4.09,16.48h11.65L223.79,156.05z"/>
	</g>
	<g>
		<g>
			<g>
				<polygon class="st0" points="256,222.02 247.02,222.02 247.02,219.45 253.43,219.45 253.43,213.03 256,213.03 				"/>
			</g>
		</g>
		<g>
			<g>
				<polygon class="st0" points="234.76,222.02 225.78,222.02 225.78,213.03 228.34,213.03 228.34,219.45 234.76,219.45 				"/>
			</g>
		</g>
		<g>
			<g>
				<rect x="225.78" y="193.89" class="st0" width="2.57" height="9.57"/>
			</g>
		</g>
		<g>
			<g>
				<polygon class="st0" points="228.34,184.32 225.78,184.32 225.78,175.34 234.76,175.34 234.76,177.9 228.34,177.9 				"/>
			</g>
		</g>
		<g>
			<g>
				<polygon class="st0" points="256,184.32 253.43,184.32 253.43,177.9 247.02,177.9 247.02,175.34 256,175.34 				"/>
			</g>
		</g>
		<g>
			<g>
				<rect x="253.43" y="193.89" class="st0" width="2.57" height="9.57"/>
			</g>
		</g>
	</g>
	<g>
		<g>
			<path class="st0" d="M183.27,162.41c-1.37,0-2.48-1.11-2.48-2.48V39.79c0-1.37,1.11-2.48,2.48-2.48c1.37,0,2.48,1.11,2.48,2.48
				v120.14C185.76,161.3,184.65,162.41,183.27,162.41z"/>
		</g>
	</g>
</g>
</svg>
