<?xml version="1.0" encoding="utf-8"?>
<!-- Generator: Adobe Illustrator 26.0.1, SVG Export Plug-In . SVG Version: 6.00 Build 0)  -->
<svg version="1.1" id="Layer_1" xmlns="http://www.w3.org/2000/svg" xmlns:xlink="http://www.w3.org/1999/xlink" x="0px" y="0px"
	 viewBox="0 0 256 256" style="enable-background:new 0 0 256 256;" xml:space="preserve">
<style type="text/css">
	.st0{fill:#4259C3;}
</style>
<g>
	<g>
		<path class="st0" d="M256,201.95c-3.6,4.76-7.74,6.93-9.71,6.93c-1.83,0-2.79-1.63-1.5-7.2c1.22-4.82,2.38-9.65,3.4-13.92
			c1.09-4.42,0.82-5.91-0.88-5.91c-2.24,0-7.47,3.8-12.09,10.87c-1.22,1.83-1.77,3.6-2.31,5.71c-0.68,2.65-1.56,6.32-2.11,9.1
			c-1.7,0.34-3.53,0.88-4.82,1.36l-0.48-0.48c1.9-7.41,3.87-15.69,5.57-23.23c0.47-2.11,0.2-2.72-0.34-2.72
			c-0.75,0-2.45,1.5-4.14,3.13l-0.95-1.77c3.12-3.94,6.66-6.38,8.9-6.38c1.97,0,2.51,2.38,1.09,8.29l-0.95,4.01
			c6.05-7.88,12.16-12.29,16.24-12.29c2.24,0,4.35,1.56,2.17,10.66c-0.88,3.74-2.17,8.97-3.19,13.25c-0.41,1.83-0.41,2.65,0.07,2.65
			c0.61,0,2.58-1.09,5.03-3.67L256,201.95z"/>
	</g>
	<g>
		<path class="st0" d="M145.1,51.62c-9.64,1.29-12.05,1.93-18.64,14.94c-6.91,13.5-21.85,44.03-42.58,86.77h-5.3L66.84,72.51
			l-40.17,80.82h-5.3l-8.03-86.45C12.05,53.39,11.25,52.75,0,51.62l0.96-4.5h37.12l-1.29,4.5l-3.38,0.48
			c-6.75,1.12-8.19,1.93-7.39,10.6l5.46,67.17L71.5,48.89h4.98l11.41,81.15c10.28-20.41,25.55-52.22,31.98-67.33
			c3.37-8.03,1.61-9.48-6.59-10.44l-3.7-0.64l0.96-4.5h35.67L145.1,51.62z"/>
	</g>
	<g>
		<path class="st0" d="M177.41,126.37c-1.11,4.64-2.32,12.01-3.23,17.46l-3.13,0.2c0-1.62,0-3.83-0.4-5.55
			c-0.5-4.44-1.72-6.06-10.9-6.06h-6.16l-9.49,49.55c-1.51,8.17-0.71,8.68,8.48,9.38l-0.61,2.83h-27.75l0.71-2.83
			c8.58-0.71,9.28-1.31,10.8-9.38l9.49-49.55h-6.06c-8.07,0-9.79,1.31-11.61,3.94c-1.41,1.81-3.03,4.44-4.54,7.77l-3.23-0.3
			c1.62-5.85,3.23-11.91,4.14-17.46h2.32c1.01,2.32,2.12,2.22,4.84,2.22h38.75c2.62,0,3.33-0.3,5.25-2.22H177.41z"/>
		<path class="st0" d="M183.66,124.96c4.84-0.51,9.49-1.51,12.41-2.52c1.51-0.61,2.22-0.81,2.83-0.81c0.81,0,1.01,1.01,0.5,3.33
			c-2.83,12.92-6.46,28.96-9.28,41.88c8.07-11.2,18.27-18.17,24.52-18.17c3.43,0,6.66,1.61,3.53,14.43
			c-1.41,6.26-3.33,14.73-4.94,21.09c-0.71,2.73-0.61,3.84,0.2,3.84c0.91,0,3.33-1.21,6.96-5.05l1.51,2.42
			c-4.94,6.76-11.5,9.99-14.43,9.99c-2.83,0-3.73-3.13-2.02-10.29c1.82-6.96,3.94-15.94,5.55-22.71c1.41-5.75,0.61-7.27-1.41-7.27
			c-3.73,0-11.3,4.84-18.06,15.94c-1.92,2.93-2.83,5.25-3.63,8.48c-0.91,4.04-2.22,9.99-3.03,13.93c-2.32,0.4-5.05,1.21-7.27,1.92
			l-0.71-0.71c4.34-19.48,9.59-44.1,13.12-62.16c0.81-4.14,0.2-4.24-2.83-4.54c-1.11-0.1-3.33-0.3-4.14-0.3L183.66,124.96z"/>
	</g>
</g>
</svg>
