<?xml version="1.0" encoding="utf-8"?>
<!-- Generator: Adobe Illustrator 26.0.1, SVG Export Plug-In . SVG Version: 6.00 Build 0)  -->
<svg version="1.1" id="Layer_1" xmlns="http://www.w3.org/2000/svg" xmlns:xlink="http://www.w3.org/1999/xlink" x="0px" y="0px"
	 viewBox="0 0 256 256" style="enable-background:new 0 0 256 256;" xml:space="preserve">
<style type="text/css">
	.st0{fill:#4259C3;}
</style>
<g>
	<g>
		<path class="st0" d="M109.37,42.02c-2.11,8.81-4.41,22.79-6.13,33.14l-5.94,0.38c0-3.06,0-7.28-0.77-10.53
			c-0.96-8.43-3.26-11.49-20.69-11.49H64.17l-18.01,94.05c-2.87,15.51-1.34,16.47,16.09,17.81l-1.15,5.36H8.43l1.34-5.36
			c16.28-1.34,17.62-2.49,20.49-17.81l18.01-94.05H36.78c-15.32,0-18.58,2.49-22.03,7.47C12.07,64.43,9,69.41,6.13,75.73L0,75.16
			c3.06-11.11,6.13-22.6,7.85-33.14h4.41c1.92,4.41,4.02,4.22,9.19,4.22H95c4.98,0,6.32-0.58,9.96-4.22H109.37z"/>
		<path class="st0" d="M121.23,39.34c9.19-0.96,18.01-2.87,23.56-4.79c2.87-1.15,4.22-1.53,5.36-1.53c1.53,0,1.92,1.92,0.96,6.32
			c-5.36,24.52-12.26,54.97-17.62,79.49c15.32-21.26,34.67-34.48,46.55-34.48c6.51,0,12.64,3.07,6.7,27.39
			c-2.68,11.88-6.32,27.97-9.39,40.03c-1.34,5.17-1.15,7.28,0.38,7.28c1.72,0,6.32-2.3,13.22-9.58l2.87,4.6
			c-9.39,12.83-21.84,18.96-27.39,18.96c-5.36,0-7.09-5.94-3.83-19.54c3.45-13.22,7.47-30.26,10.53-43.1
			c2.68-10.92,1.15-13.79-2.68-13.79c-7.09,0-21.45,9.19-34.29,30.26c-3.64,5.56-5.36,9.96-6.9,16.09
			c-1.72,7.66-4.21,18.96-5.75,26.43c-4.41,0.76-9.58,2.3-13.79,3.64l-1.34-1.34c8.24-36.97,18.2-83.7,24.9-117.99
			c1.53-7.85,0.38-8.05-5.36-8.62c-2.11-0.19-6.32-0.58-7.85-0.58L121.23,39.34z"/>
	</g>
	<g>
		<path class="st0" d="M256,210.71c-6.38,8.42-13.71,12.27-17.2,12.27c-3.25,0-4.93-2.89-2.65-12.75
			c2.17-8.54,4.21-17.08,6.02-24.66c1.92-7.82,1.44-10.47-1.56-10.47c-3.97,0-13.23,6.74-21.41,19.25
			c-2.16,3.25-3.13,6.38-4.09,10.1c-1.2,4.69-2.77,11.19-3.73,16.12c-3.01,0.6-6.26,1.56-8.54,2.41l-0.84-0.84
			c3.37-13.11,6.86-27.79,9.86-41.14c0.84-3.73,0.36-4.81-0.6-4.81c-1.32,0-4.33,2.64-7.34,5.53l-1.68-3.13
			c5.53-6.98,11.79-11.31,15.76-11.31c3.49,0,4.45,4.21,1.92,14.67l-1.68,7.1c10.71-13.95,21.53-21.77,28.75-21.77
			c3.97,0,7.7,2.77,3.85,18.89c-1.56,6.61-3.85,15.88-5.65,23.46c-0.72,3.25-0.72,4.69,0.12,4.69c1.08,0,4.57-1.92,8.9-6.5
			L256,210.71z"/>
	</g>
</g>
</svg>
