<?xml version="1.0" encoding="utf-8"?>
<!-- Generator: Adobe Illustrator 26.0.1, SVG Export Plug-In . SVG Version: 6.00 Build 0)  -->
<svg version="1.1" id="Layer_1" xmlns="http://www.w3.org/2000/svg" xmlns:xlink="http://www.w3.org/1999/xlink" x="0px" y="0px"
	 viewBox="0 0 256 256" style="enable-background:new 0 0 256 256;" xml:space="preserve">
<style type="text/css">
	.st0{fill:#4259C3;}
</style>
<g>
	<g>
		<path class="st0" d="M114.84,43.23c-12.18,1.79-15.11,2.92-25.5,12.35c-9.26,8.28-21.93,19.33-34.76,30.86
			c8.28,13.16,22.09,32.97,29.4,42.88c6.17,8.28,8.93,9.26,19.33,10.4l-1.3,4.55H77.32c-10.07-14.94-21.44-32.49-30.21-45.81
			c-3.57-5.52-5.36-6.34-9.75-6.01l-5.68,30.86c-2.44,14.46-2.11,15.11,12.51,16.41l-0.97,4.55H0l1.14-4.55
			c12.99-1.14,14.62-1.95,17.22-16.41l12.51-64.49c2.6-13.32,1.62-14.3-12.34-15.59l0.97-4.55h42.88l-0.97,4.55
			c-13.32,1.14-14.94,2.11-17.54,15.59l-5.52,28.91c3.74-0.33,6.82-1.62,10.4-4.39c9.26-7.63,26.8-23.55,34.92-32.49
			c4.06-4.55,3.25-6.17-2.27-6.98l-5.04-0.65l1.14-4.55h38.66L114.84,43.23z"/>
	</g>
	<g>
		<path class="st0" d="M171.19,118.79c-1.12,4.69-2.35,12.14-3.26,17.65l-3.16,0.21c0-1.63,0-3.88-0.41-5.61
			c-0.51-4.49-1.73-6.12-11.02-6.12h-6.22L137.53,175c-1.53,8.26-0.71,8.77,8.57,9.49l-0.61,2.86h-28.05l0.71-2.86
			c8.67-0.71,9.38-1.33,10.91-9.49l9.59-50.09h-6.12c-8.16,0-9.89,1.33-11.73,3.98c-1.43,1.83-3.06,4.49-4.59,7.85l-3.26-0.31
			c1.63-5.92,3.26-12.04,4.18-17.65h2.35c1.02,2.35,2.14,2.24,4.9,2.24h39.17c2.65,0,3.37-0.31,5.31-2.24H171.19z"/>
		<path class="st0" d="M177.51,117.37c4.9-0.51,9.59-1.53,12.55-2.55c1.53-0.61,2.24-0.82,2.86-0.82c0.82,0,1.02,1.02,0.51,3.37
			c-2.86,13.06-6.53,29.28-9.39,42.34c8.16-11.32,18.47-18.36,24.79-18.36c3.47,0,6.73,1.63,3.57,14.59
			c-1.43,6.32-3.37,14.89-5,21.32c-0.71,2.76-0.61,3.88,0.2,3.88c0.92,0,3.37-1.23,7.04-5.1l1.53,2.45
			c-5,6.83-11.63,10.1-14.59,10.1c-2.86,0-3.77-3.16-2.04-10.41c1.84-7.04,3.98-16.12,5.61-22.95c1.43-5.81,0.61-7.34-1.43-7.34
			c-3.77,0-11.43,4.9-18.26,16.12c-1.94,2.96-2.86,5.31-3.67,8.57c-0.92,4.08-2.24,10.1-3.06,14.08c-2.35,0.41-5.1,1.22-7.34,1.94
			l-0.71-0.71c4.39-19.69,9.69-44.58,13.26-62.84c0.82-4.18,0.2-4.28-2.86-4.59c-1.12-0.1-3.37-0.31-4.18-0.31L177.51,117.37z"/>
	</g>
	<g>
		<g>
			<g>
				<polygon class="st0" points="256,217.32 247.27,217.32 247.27,214.82 253.5,214.82 253.5,208.59 256,208.59 				"/>
			</g>
		</g>
		<g>
			<g>
				<polygon class="st0" points="235.36,217.32 226.62,217.32 226.62,208.59 229.12,208.59 229.12,214.82 235.36,214.82 				"/>
			</g>
		</g>
		<g>
			<g>
				<rect x="226.62" y="189.98" class="st0" width="2.5" height="9.3"/>
			</g>
		</g>
		<g>
			<g>
				<polygon class="st0" points="229.12,180.67 226.62,180.67 226.62,171.94 235.36,171.94 235.36,174.44 229.12,174.44 				"/>
			</g>
		</g>
		<g>
			<g>
				<polygon class="st0" points="256,180.67 253.5,180.67 253.5,174.44 247.27,174.44 247.27,171.94 256,171.94 				"/>
			</g>
		</g>
		<g>
			<g>
				<rect x="253.5" y="189.98" class="st0" width="2.5" height="9.3"/>
			</g>
		</g>
	</g>
</g>
</svg>
