<?xml version="1.0" encoding="utf-8"?>
<!-- Generator: Adobe Illustrator 26.0.1, SVG Export Plug-In . SVG Version: 6.00 Build 0)  -->
<svg version="1.1" id="Layer_1" xmlns="http://www.w3.org/2000/svg" xmlns:xlink="http://www.w3.org/1999/xlink" x="0px" y="0px"
	 viewBox="0 0 48 48" style="enable-background:new 0 0 48 48;" xml:space="preserve">
<style type="text/css">
	.st0{fill:#999999;}
</style>
<g id="Boat_View">
	<g>
		<path class="st0" d="M24.61,41.78c-2.06,0-3.14-0.63-4.09-1.19c-0.91-0.53-1.76-1.03-3.51-1.03c-1.74,0-2.6,0.5-3.5,1.03
			c-0.29,0.17-0.59,0.34-0.92,0.51l-0.23,0.11l-0.24-0.09c-8.14-3.09-11.41-7.52-11.54-7.7L0,32.6l47.36-5.28l-0.12,0.76
			c-0.06,0.36-1.53,8.87-9.27,13.31l-0.23,0.13l-0.25-0.08c-0.71-0.23-1.25-0.55-1.77-0.85c-0.91-0.53-1.76-1.03-3.51-1.03
			c-1.74,0-2.6,0.5-3.5,1.03C27.75,41.15,26.67,41.78,24.61,41.78z M17.01,38.39c2.06,0,3.14,0.63,4.1,1.19
			c0.91,0.53,1.76,1.03,3.5,1.03c1.74,0,2.6-0.5,3.5-1.03c0.95-0.56,2.04-1.19,4.09-1.19c2.06,0,3.14,0.63,4.1,1.19
			c0.42,0.25,0.82,0.48,1.3,0.66c5.77-3.43,7.76-9.46,8.3-11.59L2.23,33.53c1.29,1.37,4.47,4.23,10.08,6.4
			c0.21-0.11,0.41-0.23,0.62-0.35C13.88,39.02,14.96,38.39,17.01,38.39z"/>
	</g>
	<g>
		<path class="st0" d="M39.81,44.67c-2.06,0-3.14-0.63-4.1-1.19c-0.91-0.53-1.76-1.03-3.51-1.03s-2.6,0.5-3.51,1.03
			c-0.95,0.56-2.04,1.19-4.1,1.19c-2.06,0-3.14-0.63-4.09-1.19c-0.91-0.53-1.76-1.03-3.5-1.03s-2.6,0.5-3.5,1.03
			c-0.95,0.56-2.04,1.19-4.09,1.19s-3.14-0.63-4.09-1.19c-0.91-0.53-1.76-1.03-3.5-1.03c-0.32,0-0.58-0.26-0.58-0.58
			c0-0.32,0.26-0.58,0.58-0.58c2.06,0,3.14,0.63,4.09,1.19C6.82,43,7.67,43.5,9.41,43.5s2.6-0.5,3.5-1.03
			c0.95-0.56,2.04-1.19,4.09-1.19s3.14,0.63,4.09,1.19c0.91,0.53,1.76,1.03,3.5,1.03s2.6-0.5,3.51-1.03
			c0.95-0.56,2.04-1.19,4.1-1.19s3.14,0.63,4.1,1.19c0.91,0.53,1.76,1.03,3.51,1.03c1.74,0,2.6-0.5,3.51-1.03
			c0.95-0.56,2.04-1.19,4.1-1.19c0.32,0,0.58,0.26,0.58,0.58c0,0.32-0.26,0.58-0.58,0.58c-1.74,0-2.6,0.5-3.51,1.03
			C42.96,44.04,41.87,44.67,39.81,44.67z"/>
	</g>
	<g>
		<path class="st0" d="M23.17,28.32l0.11-0.71c0.02-0.13,1.93-13.12-3.13-22.19l-1.17-2.1l2,1.33c0.14,0.09,13.62,9.12,18.93,22.07
			l0.31,0.76L23.17,28.32z M22.23,7.01c3.42,7.94,2.62,17.42,2.31,20.08L38.5,26.4C34.39,17.05,25.98,9.88,22.23,7.01z"/>
	</g>
	<g>
		<path class="st0" d="M9.98,29.64l2.28-1.15c6.71-3.4,8.52-13.6,8.53-13.7l0.91-5.34l0.92,19.95L9.98,29.64z M20.96,18.71
			c-1.01,2.99-2.93,7.11-6.34,9.68l6.79-0.13L20.96,18.71z"/>
	</g>
</g>
</svg>
