<?xml version="1.0" encoding="utf-8"?>
<!-- Generator: Adobe Illustrator 26.0.1, SVG Export Plug-In . SVG Version: 6.00 Build 0)  -->
<svg version="1.1" id="Layer_1" xmlns="http://www.w3.org/2000/svg" xmlns:xlink="http://www.w3.org/1999/xlink" x="0px" y="0px"
	 viewBox="0 0 48 48" style="enable-background:new 0 0 48 48;" xml:space="preserve">
<style type="text/css">
	.st0{fill:#999999;}
</style>
<g id="Distance">
	<g>
		<path class="st0" d="M7.29,34.03c-1.61,0-2.92-1.31-2.92-2.92c0-1.61,1.31-2.92,2.92-2.92c1.61,0,2.92,1.31,2.92,2.92
			C10.21,32.72,8.9,34.03,7.29,34.03z M7.29,29.2c-1.05,0-1.91,0.86-1.91,1.91s0.86,1.91,1.91,1.91c1.05,0,1.91-0.86,1.91-1.91
			S8.34,29.2,7.29,29.2z"/>
	</g>
	<g>
		<path class="st0" d="M36.04,15.93L36.04,15.93c-0.18,0-0.35-0.1-0.44-0.25l-3.48-6.03c-0.82-1.42-0.82-3.11,0-4.53
			c0.82-1.42,2.29-2.27,3.92-2.27h0c1.64,0,3.1,0.85,3.92,2.27c0.82,1.42,0.82,3.11,0,4.53l-3.48,6.03
			C36.39,15.83,36.23,15.93,36.04,15.93z M36.05,3.86c-1.27,0-2.41,0.66-3.05,1.76c-0.64,1.1-0.64,2.42,0,3.52l3.05,5.27l3.05-5.27
			c0.64-1.1,0.64-2.42,0-3.52C38.45,4.52,37.32,3.86,36.05,3.86z"/>
	</g>
	<g>
		<path class="st0" d="M36.04,9.32c-1.07,0-1.94-0.87-1.94-1.94s0.87-1.94,1.94-1.94c1.07,0,1.94,0.87,1.94,1.94
			S37.12,9.32,36.04,9.32z M36.04,6.45c-0.51,0-0.93,0.42-0.93,0.93s0.42,0.93,0.93,0.93c0.51,0,0.93-0.42,0.93-0.93
			S36.56,6.45,36.04,6.45z"/>
	</g>
	<g>
		<path class="st0" d="M11.12,45.1c-1.67,0-2.66-0.04-2.7-0.05c-0.28-0.01-0.5-0.25-0.48-0.53c0.01-0.28,0.25-0.49,0.53-0.48
			c0.01,0,1.01,0.05,2.65,0.05c0.28,0,0.51,0.23,0.51,0.51C11.62,44.87,11.4,45.1,11.12,45.1z M15.18,45.01
			c-0.27,0-0.49-0.21-0.51-0.49c-0.01-0.28,0.21-0.52,0.49-0.53c1.36-0.06,2.71-0.14,4.03-0.24c0.28-0.02,0.52,0.19,0.55,0.46
			s-0.19,0.52-0.46,0.55c-1.33,0.11-2.7,0.19-4.07,0.25C15.19,45.01,15.18,45.01,15.18,45.01z M23.27,44.35
			c-0.25,0-0.47-0.19-0.5-0.44c-0.03-0.28,0.16-0.53,0.44-0.57c1.37-0.17,2.71-0.38,3.99-0.61c0.28-0.05,0.54,0.13,0.59,0.41
			c0.05,0.28-0.13,0.54-0.41,0.59c-1.29,0.23-2.65,0.44-4.04,0.61C23.31,44.35,23.29,44.35,23.27,44.35z M31.25,42.9
			c-0.23,0-0.43-0.15-0.49-0.39c-0.07-0.27,0.1-0.55,0.37-0.61c1.35-0.33,2.65-0.71,3.85-1.12c0.26-0.09,0.55,0.05,0.64,0.32
			c0.09,0.27-0.05,0.55-0.32,0.64c-1.23,0.42-2.56,0.8-3.94,1.14C31.33,42.9,31.29,42.9,31.25,42.9z M38.91,40.26
			c-0.19,0-0.37-0.11-0.46-0.29c-0.12-0.25-0.01-0.56,0.24-0.67c1.27-0.6,2.43-1.26,3.45-1.96c0.23-0.16,0.55-0.1,0.7,0.13
			c0.16,0.23,0.1,0.55-0.13,0.7c-1.07,0.73-2.28,1.42-3.6,2.04C39.06,40.25,38.98,40.26,38.91,40.26z M45.5,35.64
			c-0.12,0-0.24-0.04-0.34-0.13c-0.21-0.19-0.22-0.51-0.03-0.72c1.1-1.2,1.72-2.27,1.86-3.2c0.04-0.28,0.3-0.47,0.58-0.43
			c0.28,0.04,0.47,0.3,0.43,0.58c-0.17,1.15-0.86,2.37-2.12,3.74C45.78,35.58,45.64,35.64,45.5,35.64z M45.71,28.82
			c-0.1,0-0.2-0.03-0.29-0.09c-0.85-0.58-2.01-1.11-3.55-1.61c-0.27-0.09-0.41-0.37-0.33-0.64c0.09-0.27,0.37-0.41,0.64-0.33
			c1.64,0.53,2.88,1.1,3.81,1.74c0.23,0.16,0.29,0.47,0.13,0.7C46.03,28.74,45.87,28.82,45.71,28.82z M38.1,26.09
			c-0.04,0-0.07,0-0.11-0.01c-1.28-0.29-2.61-0.56-3.96-0.83c-0.27-0.05-0.45-0.32-0.4-0.6c0.06-0.27,0.32-0.45,0.6-0.4
			c1.36,0.27,2.69,0.54,3.99,0.84c0.27,0.06,0.44,0.33,0.38,0.61C38.54,25.93,38.34,26.09,38.1,26.09z M30.15,24.43
			c-0.04,0-0.07,0-0.11-0.01c-1.72-0.38-2.98-0.73-3.98-1.1c-0.26-0.1-0.4-0.39-0.3-0.65c0.1-0.26,0.39-0.4,0.65-0.3
			c0.95,0.35,2.18,0.69,3.85,1.06c0.27,0.06,0.45,0.33,0.38,0.61C30.59,24.27,30.38,24.43,30.15,24.43z M23.19,20.91
			c-0.23,0-0.44-0.16-0.49-0.4c-0.03-0.14-0.05-0.28-0.05-0.42c0-1.1,0.93-2.07,2.83-2.96c0.25-0.12,0.56-0.01,0.67,0.25
			c0.12,0.25,0.01,0.56-0.25,0.67c-1.45,0.68-2.25,1.4-2.25,2.04c0,0.06,0.01,0.13,0.02,0.19c0.06,0.27-0.11,0.54-0.38,0.61
			C23.26,20.91,23.23,20.91,23.19,20.91z M29.53,16.79c-0.22,0-0.43-0.15-0.49-0.38c-0.07-0.27,0.09-0.55,0.36-0.62
			c2.13-0.56,3.95-0.85,4.03-0.87c0.28-0.04,0.54,0.15,0.58,0.42c0.04,0.28-0.15,0.54-0.42,0.58c-0.02,0-1.85,0.29-3.93,0.84
			C29.62,16.78,29.58,16.79,29.53,16.79z"/>
	</g>
	<g>
		<path class="st0" d="M7.29,45.15L7.29,45.15c-0.18,0-0.35-0.1-0.44-0.25L0.99,34.75c-1.32-2.28-1.32-5,0-7.27
			c1.32-2.28,3.67-3.64,6.3-3.64h0c2.63,0,4.98,1.36,6.3,3.64c1.32,2.28,1.32,5,0,7.27L7.73,44.9C7.63,45.06,7.47,45.15,7.29,45.15z
			 M7.29,24.85c-2.26,0-4.29,1.17-5.42,3.13c-1.13,1.96-1.13,4.3,0,6.26l5.42,9.39l5.42-9.39c1.13-1.96,1.13-4.3,0-6.26
			C11.58,26.02,9.55,24.85,7.29,24.85z"/>
	</g>
</g>
</svg>
