<?xml version="1.0" encoding="utf-8"?>
<!-- Generator: Adobe Illustrator 26.0.1, SVG Export Plug-In . SVG Version: 6.00 Build 0)  -->
<svg version="1.1" id="Layer_1" xmlns="http://www.w3.org/2000/svg" xmlns:xlink="http://www.w3.org/1999/xlink" x="0px" y="0px"
	 viewBox="0 0 48 48" style="enable-background:new 0 0 48 48;" xml:space="preserve">
<style type="text/css">
	.st0{fill:#999999;}
</style>
<g>
	<g>
		<path class="st0" d="M47.41,39.98H0.59C0.26,39.98,0,39.72,0,39.4V8.6c0-0.32,0.26-0.59,0.59-0.59h46.83
			C47.74,8.02,48,8.28,48,8.6v30.8C48,39.72,47.74,39.98,47.41,39.98z M1.17,38.81h45.66V9.19H1.17V38.81z"/>
	</g>
	<g>
		<g>
			<polygon class="st0" points="17,15.68 16.05,15.68 16.05,29.42 18.31,29.42 18.31,23.8 23.85,23.8 23.85,21.65 18.31,21.65 
				18.31,17.84 24.89,17.84 24.89,15.68 18.31,15.68 			"/>
		</g>
		<g>
			<path class="st0" d="M31.69,26.3c-0.26-0.39-0.72-0.59-1.37-0.59c-0.54,0-1.01,0.14-1.4,0.42c-0.39,0.28-0.65,0.67-0.78,1.18
				h-0.12l0.04-1.47h-1.08l-1.14,6.49h1.32l0.43-2.45c0.16-0.73,0.34-1.32,0.56-1.75c0.23-0.45,0.48-0.77,0.76-0.96
				c0.28-0.19,0.59-0.29,0.92-0.29c0.31,0,0.53,0.09,0.65,0.28c0.12,0.19,0.15,0.47,0.08,0.85l-0.75,4.31h1.32l0.75-4.26
				C32.01,27.28,31.95,26.7,31.69,26.3z"/>
		</g>
	</g>
</g>
</svg>
