<?xml version="1.0" encoding="utf-8"?>
<!-- Generator: Adobe Illustrator 26.0.1, SVG Export Plug-In . SVG Version: 6.00 Build 0)  -->
<svg version="1.1" id="Layer_1" xmlns="http://www.w3.org/2000/svg" xmlns:xlink="http://www.w3.org/1999/xlink" x="0px" y="0px"
	 viewBox="0 0 48 48" style="enable-background:new 0 0 48 48;" xml:space="preserve">
<style type="text/css">
	.st0{fill:#999999;}
</style>
<g>
	<g>
		<path class="st0" d="M47.41,39.98H0.59C0.26,39.98,0,39.72,0,39.4V8.6c0-0.32,0.26-0.59,0.59-0.59h46.83
			C47.74,8.02,48,8.28,48,8.6v30.8C48,39.72,47.74,39.98,47.41,39.98z M1.17,38.81h45.66V9.19H1.17V38.81z"/>
	</g>
	<g>
		<g>
			<polygon class="st0" points="17.92,17.13 16.98,17.13 16.98,30.87 19.24,30.87 19.24,25.25 24.78,25.25 24.78,23.09 19.24,23.09 
				19.24,19.29 25.81,19.29 25.81,17.13 19.24,17.13 			"/>
		</g>
		<g>
			<polygon class="st0" points="26.95,18.24 26.95,20.62 28.76,19.7 28.76,30.87 31.02,30.87 31.02,17.13 28.95,17.13 			"/>
		</g>
	</g>
</g>
</svg>
