<?xml version="1.0" encoding="utf-8"?>
<!-- Generator: Adobe Illustrator 26.0.1, SVG Export Plug-In . SVG Version: 6.00 Build 0)  -->
<svg version="1.1" id="Layer_1" xmlns="http://www.w3.org/2000/svg" xmlns:xlink="http://www.w3.org/1999/xlink" x="0px" y="0px"
	 viewBox="0 0 48 48" style="enable-background:new 0 0 48 48;" xml:space="preserve">
<style type="text/css">
	.st0{fill:#999999;}
</style>
<g id="General_Setting">
	<path class="st0" d="M10.26,42.94c-0.39-0.03-0.73-0.24-1.06-0.44c-1.1-0.67-2.22-1.36-3.08-2.32c-0.85-0.97-1.42-2.28-1.19-3.55
		c0.2-1.13,0.98-2.06,1.57-3.05s1.01-2.26,0.45-3.26c-1.1-1.99-4.6-0.97-6.03-2.75c-0.32-0.4-0.49-0.9-0.61-1.39
		c-0.49-1.92-0.41-3.98,0.23-5.86c0.12-0.34,0.26-0.69,0.51-0.94c0.36-0.35,0.88-0.47,1.37-0.55c0.98-0.15,1.99-0.2,2.94-0.53
		c0.94-0.33,1.83-1,2.09-1.97c0.36-1.36-0.6-2.67-1.36-3.85C4.4,9.86,6.07,7.56,8.27,5.82c0.97-0.77,2.25-1.24,3.45-0.95
		c1.01,0.24,1.82,0.96,2.68,1.55c0.86,0.58,1.94,1.05,2.92,0.7c1.15-0.42,1.65-1.76,1.9-2.96s0.48-2.54,1.45-3.3
		c0.68-0.53,1.59-0.65,2.45-0.74c1.96-0.22,4.3-0.28,5.5,1.28c0.69,0.91,0.79,2.12,1.01,3.24s0.73,2.34,1.8,2.74
		c1.99,0.75,3.7-1.84,5.81-2.12c1.83-0.25,3.37,1.27,4.58,2.66c0.72,0.82,1.47,1.74,1.52,2.83c0.05,1.22-0.78,2.28-1.49,3.27
		c-0.71,1-1.35,2.27-0.88,3.4c0.87,2.09,4.24,1.37,5.9,2.91c1.03,0.95,1.15,2.52,1.14,3.92c0,1.77-0.26,3.87-1.82,4.72
		c-1.22,0.66-2.78,0.27-4.04,0.86c-1.21,0.57-1.88,2.09-1.49,3.37c0.37,1.19,1.48,2.02,1.91,3.19c0.45,1.24,0.04,2.67-0.75,3.74
		c-0.78,1.07-1.89,1.84-2.97,2.6c-0.39,0.27-0.81,0.56-1.28,0.63c-0.54,0.09-1.08-0.1-1.57-0.35c-0.97-0.5-1.8-1.23-2.78-1.71
		s-2.22-0.66-3.11-0.03c-1.7,1.2-0.85,4.14-2.27,5.67c-0.7,0.75-1.8,0.96-2.82,1.04c-1.42,0.1-2.85,0.01-4.25-0.27
		c-0.41-0.08-0.84-0.19-1.15-0.48c-0.24-0.22-0.37-0.53-0.47-0.84c-0.36-1.08-0.41-2.23-0.73-3.32c-0.32-1.09-1.02-2.18-2.12-2.47
		c-1.85-0.49-3.38,1.43-5.14,2.18C10.88,42.88,10.57,42.97,10.26,42.94z M15.84,23.87c-0.06,4.6,3.58,8.29,8.21,8.3
		c4.48,0.01,8.12-3.63,8.13-8.14c0.01-4.52-3.6-8.18-8.08-8.19C19.56,15.82,15.91,19.38,15.84,23.87z"/>
</g>
</svg>
