<?xml version="1.0" encoding="utf-8"?>
<!-- Generator: Adobe Illustrator 26.0.1, SVG Export Plug-In . SVG Version: 6.00 Build 0)  -->
<svg version="1.1" id="Layer_1" xmlns="http://www.w3.org/2000/svg" xmlns:xlink="http://www.w3.org/1999/xlink" x="0px" y="0px"
	 viewBox="0 0 48 48" style="enable-background:new 0 0 48 48;" xml:space="preserve">
<style type="text/css">
	.st0{fill:#999999;}
</style>
<g id="Horizontal_Line_00000065040062985932414220000016321246969726036894_">
	<g>
		<g>
			<g>
				<g>
					<g>
						<g>
							<g>
								<path class="st0" d="M8.81,30.94c0.11,0.71,0.68,1.61,1.62,1.92c0.38,0.13,0.8,0.13,1.19,0c0.92-0.32,1.51-1.22,1.62-1.92
									c0.12-0.01,0.29-0.18,0.46-0.77c0.24-0.81-0.02-0.93-0.23-0.91c0.04-0.11,0.07-0.22,0.09-0.33
									c0.37-2.11-0.72-2.18-0.72-2.18s-0.18-0.33-0.65-0.58c-0.32-0.18-0.76-0.32-1.34-0.27c-0.19,0.01-0.37,0.04-0.53,0.1
									c-0.21,0.07-0.41,0.17-0.59,0.29c-0.22,0.13-0.42,0.29-0.6,0.48c-0.29,0.28-0.54,0.64-0.65,1.1
									c-0.09,0.34-0.07,0.69,0.01,1.07c0.02,0.11,0.05,0.22,0.09,0.33c-0.22-0.02-0.47,0.1-0.23,0.91
									C8.52,30.76,8.68,30.93,8.81,30.94L8.81,30.94z M8.81,30.94"/>
							</g>
						</g>
						<g>
							<g>
								<path class="st0" d="M15.27,33.7c-1.32-0.32-2.38-1.04-2.38-1.04l-0.83,2.53l-0.16,0.48l0-0.01l-0.14,0.41l-0.44-1.2
									c1.08-1.45-0.22-1.43-0.29-1.43c-0.07,0-1.37-0.02-0.29,1.43l-0.44,1.2l-0.14-0.41l0,0.01l-0.16-0.48l-0.84-2.53
									c0,0-1.07,0.72-2.38,1.04c-0.98,0.24-1.03,1.33-0.99,1.86c0,0,0.06,0.73,0.11,1.05c0,0,1.92,1.19,5.12,1.2
									c3.21,0,5.12-1.2,5.12-1.2c0.06-0.32,0.11-1.05,0.11-1.05C16.29,35.03,16.25,33.94,15.27,33.7L15.27,33.7z M15.27,33.7"/>
							</g>
						</g>
					</g>
				</g>
			</g>
		</g>
		<g>
			<g>
				<g>
					<g>
						<g>
							<g>
								<path class="st0" d="M21.79,30.94c0.11,0.71,0.68,1.61,1.62,1.92c0.38,0.13,0.8,0.13,1.19,0c0.92-0.32,1.51-1.22,1.62-1.92
									c0.12-0.01,0.29-0.18,0.46-0.77c0.24-0.81-0.02-0.93-0.23-0.91c0.04-0.11,0.07-0.22,0.09-0.33
									c0.37-2.11-0.72-2.18-0.72-2.18s-0.18-0.33-0.65-0.58c-0.32-0.18-0.76-0.32-1.34-0.27c-0.19,0.01-0.37,0.04-0.53,0.1
									c-0.21,0.07-0.41,0.17-0.59,0.29c-0.22,0.13-0.42,0.29-0.6,0.48c-0.29,0.28-0.54,0.64-0.65,1.1
									c-0.09,0.34-0.07,0.69,0.01,1.07c0.02,0.11,0.05,0.22,0.09,0.33c-0.22-0.02-0.47,0.1-0.23,0.91
									C21.5,30.76,21.66,30.93,21.79,30.94L21.79,30.94z M21.79,30.94"/>
							</g>
						</g>
						<g>
							<g>
								<path class="st0" d="M28.25,33.7c-1.32-0.32-2.38-1.04-2.38-1.04l-0.83,2.53l-0.16,0.48l0-0.01l-0.14,0.41l-0.44-1.2
									c1.08-1.45-0.22-1.43-0.29-1.43c-0.07,0-1.37-0.02-0.29,1.43l-0.44,1.2l-0.14-0.41l0,0.01l-0.16-0.48l-0.84-2.53
									c0,0-1.07,0.72-2.38,1.04c-0.98,0.24-1.03,1.33-0.99,1.86c0,0,0.06,0.73,0.11,1.05c0,0,1.92,1.19,5.12,1.2
									c3.21,0,5.12-1.2,5.12-1.2c0.06-0.32,0.11-1.05,0.11-1.05C29.27,35.03,29.23,33.94,28.25,33.7L28.25,33.7z M28.25,33.7"/>
							</g>
						</g>
					</g>
				</g>
			</g>
		</g>
		<g>
			<g>
				<g>
					<g>
						<g>
							<g>
								<path class="st0" d="M34.77,30.94c0.11,0.71,0.68,1.61,1.62,1.92c0.38,0.13,0.8,0.13,1.19,0c0.92-0.32,1.51-1.22,1.62-1.92
									c0.12-0.01,0.29-0.18,0.46-0.77c0.24-0.81-0.02-0.93-0.23-0.91c0.04-0.11,0.07-0.22,0.09-0.33
									c0.37-2.11-0.72-2.18-0.72-2.18s-0.18-0.33-0.65-0.58c-0.32-0.18-0.76-0.32-1.34-0.27c-0.19,0.01-0.37,0.04-0.53,0.1
									c-0.21,0.07-0.41,0.17-0.59,0.29c-0.22,0.13-0.42,0.29-0.6,0.48c-0.29,0.28-0.54,0.64-0.65,1.1
									c-0.09,0.34-0.07,0.69,0.01,1.07c0.02,0.11,0.05,0.22,0.09,0.33c-0.22-0.02-0.47,0.1-0.23,0.91
									C34.48,30.76,34.64,30.93,34.77,30.94L34.77,30.94z M34.77,30.94"/>
							</g>
						</g>
						<g>
							<g>
								<path class="st0" d="M41.23,33.7c-1.32-0.32-2.38-1.04-2.38-1.04l-0.83,2.53l-0.16,0.48l0-0.01l-0.14,0.41l-0.44-1.2
									c1.08-1.45-0.22-1.43-0.29-1.43c-0.07,0-1.37-0.02-0.29,1.43l-0.44,1.2l-0.14-0.41l0,0.01l-0.16-0.48l-0.84-2.53
									c0,0-1.07,0.72-2.38,1.04c-0.98,0.24-1.03,1.33-0.99,1.86c0,0,0.06,0.73,0.11,1.05c0,0,1.92,1.19,5.12,1.2
									c3.21,0,5.12-1.2,5.12-1.2c0.06-0.32,0.11-1.05,0.11-1.05C42.25,35.03,42.21,33.94,41.23,33.7L41.23,33.7z M41.23,33.7"/>
							</g>
						</g>
					</g>
				</g>
			</g>
		</g>
	</g>
	<g>
		<g>
			<rect y="23.81" class="st0" width="48" height="1.42"/>
		</g>
	</g>
	<g>
		<path class="st0" d="M25.04,10.89c-0.96,0.06-1.17,0.35-1.29,0.87c-0.14,0.51-0.35,1.39-0.86,4c-0.51,2.68-1.49,4.09-3.99,4.07
			c-1.91-0.01-3.43-0.96-2.85-3.92l0.74-3.79c0.2-1.07,0.07-1.12-1.08-1.24l0.08-0.39h3.7l-0.07,0.39
			c-1.12,0.11-1.25,0.14-1.46,1.24l-0.73,3.75c-0.46,2.35,0.51,3.22,2,3.22c1.71,0,2.56-0.87,3.04-3.3c0.52-2.68,0.67-3.57,0.72-4.1
			c0.04-0.59-0.21-0.73-1.26-0.8l0.1-0.39h3.33L25.04,10.89z"/>
		<path class="st0" d="M33.77,10.19c-0.15,0.65-0.32,1.67-0.45,2.43l-0.44,0.03c0-0.22,0-0.53-0.06-0.77
			c-0.07-0.62-0.24-0.84-1.52-0.84h-0.86l-1.32,6.9c-0.21,1.14-0.1,1.21,1.18,1.31l-0.08,0.39h-3.86l0.1-0.39
			c1.19-0.1,1.29-0.18,1.5-1.31l1.32-6.9h-0.84c-1.12,0-1.36,0.18-1.62,0.55c-0.2,0.25-0.42,0.62-0.63,1.08l-0.45-0.04
			c0.22-0.82,0.45-1.66,0.58-2.43h0.32c0.14,0.32,0.29,0.31,0.67,0.31h5.4c0.37,0,0.46-0.04,0.73-0.31H33.77z"/>
	</g>
</g>
</svg>
