<?xml version="1.0" encoding="utf-8"?>
<!-- Generator: Adobe Illustrator 26.0.1, SVG Export Plug-In . SVG Version: 6.00 Build 0)  -->
<svg version="1.1" id="Layer_1" xmlns="http://www.w3.org/2000/svg" xmlns:xlink="http://www.w3.org/1999/xlink" x="0px" y="0px"
	 viewBox="0 0 48 48" style="enable-background:new 0 0 48 48;" xml:space="preserve">
<style type="text/css">
	.st0{fill:#999999;}
</style>
<g id="House_View_00000039850828555566972790000016775056601633483904_">
	<g id="House_View">
		<path class="st0" d="M41.56,47.88h-9.77c-1.14,0-2.06-0.92-2.06-2.06V32.8c0-0.37-0.3-0.68-0.68-0.68H18.94
			c-0.37,0-0.67,0.3-0.67,0.68v13.02c0,1.14-0.93,2.06-2.06,2.06H6.44c-1.14,0-2.06-0.92-2.06-2.06v-23.2H0.7
			c-0.29,0-0.55-0.18-0.65-0.45c-0.1-0.27-0.03-0.57,0.18-0.77L23.53,0.3c0.26-0.24,0.67-0.24,0.93,0l23.3,21.11
			c0.21,0.19,0.29,0.5,0.18,0.77c-0.1,0.27-0.36,0.45-0.65,0.45h-3.68v23.2C43.63,46.96,42.7,47.88,41.56,47.88z M18.94,30.73h10.12
			c1.14,0,2.07,0.93,2.07,2.07v13.02c0,0.37,0.3,0.67,0.67,0.67h9.77c0.37,0,0.67-0.3,0.67-0.67V21.93c0-0.38,0.31-0.7,0.7-0.7h2.57
			L24,1.75L2.5,21.23h2.57c0.38,0,0.7,0.31,0.7,0.7v23.89c0,0.37,0.3,0.67,0.67,0.67h9.77c0.37,0,0.67-0.3,0.67-0.67V32.8
			C16.88,31.66,17.8,30.73,18.94,30.73z"/>
	</g>
	<g>
		<path class="st0" d="M32.56,47.88H13.52c-0.38,0-0.7-0.31-0.7-0.7c0-0.38,0.31-0.7,0.7-0.7h19.04c0.38,0,0.7,0.31,0.7,0.7
			C33.26,47.57,32.95,47.88,32.56,47.88z"/>
	</g>
</g>
</svg>
