<?xml version="1.0" encoding="utf-8"?>
<!-- Generator: Adobe Illustrator 26.0.1, SVG Export Plug-In . SVG Version: 6.00 Build 0)  -->
<svg version="1.1" id="Layer_1" xmlns="http://www.w3.org/2000/svg" xmlns:xlink="http://www.w3.org/1999/xlink" x="0px" y="0px"
	 viewBox="0 0 48 48" style="enable-background:new 0 0 48 48;" xml:space="preserve">
<style type="text/css">
	.st0{fill:#999999;}
</style>
<g>
	<g id="Person_00000089535693728130985740000003184174006451869570_">
		<g>
			<path class="st0" d="M18,14.32c0.31,2,1.85,4.55,4.38,5.44c1.04,0.36,2.18,0.37,3.21-0.01c2.49-0.9,4.08-3.44,4.39-5.43
				c0.34-0.03,0.77-0.5,1.25-2.18c0.65-2.3-0.04-2.64-0.63-2.59c0.11-0.31,0.2-0.64,0.25-0.94c0.99-5.97-1.94-6.17-1.94-6.17
				S28.44,1.5,27.16,0.8c-0.86-0.51-2.05-0.9-3.62-0.77c-0.51,0.02-0.99,0.13-1.44,0.27c-0.58,0.2-1.11,0.48-1.59,0.82
				c-0.59,0.37-1.14,0.83-1.63,1.36c-0.77,0.8-1.46,1.83-1.76,3.11c-0.25,0.96-0.2,1.96,0.01,3.04c0.06,0.31,0.14,0.63,0.25,0.94
				c-0.59-0.06-1.28,0.29-0.63,2.59C17.23,13.82,17.67,14.29,18,14.32L18,14.32z M18,14.32"/>
		</g>
		<g>
			<path class="st0" d="M35.5,22.15c-3.56-0.91-6.46-2.95-6.46-2.95l-2.26,7.17l-0.43,1.35l-0.01-0.02l-0.37,1.15l-1.19-3.39
				c2.93-4.1-0.59-4.06-0.79-4.05c-0.2-0.01-3.72-0.05-0.79,4.05l-1.19,3.39l-0.37-1.15l-0.01,0.02l-0.43-1.35l-2.27-7.17
				c0,0-2.89,2.04-6.46,2.95c-2.66,0.68-2.78,3.76-2.68,5.27c0,0,0.15,2.06,0.31,2.97c0,0,5.19,3.38,13.88,3.38
				c8.69,0,13.88-3.38,13.88-3.38c0.15-0.91,0.31-2.97,0.31-2.97C38.28,25.9,38.16,22.83,35.5,22.15L35.5,22.15z M35.5,22.15"/>
		</g>
	</g>
	<g>
		<path class="st0" d="M31.55,48c-3.89,0-5.86-0.78-7.77-1.53c-1.89-0.74-3.67-1.45-7.34-1.45c-3.66,0-5.44,0.7-7.33,1.44
			c-0.19,0.07-0.38,0.15-0.57,0.22c-0.3,0.12-0.64-0.03-0.76-0.33c-0.12-0.3,0.03-0.64,0.33-0.76c0.19-0.07,0.37-0.15,0.56-0.22
			c1.91-0.75,3.88-1.53,7.76-1.53c3.89,0,5.86,0.78,7.77,1.53c1.89,0.74,3.67,1.45,7.34,1.45c3.66,0,5.45-0.7,7.34-1.45
			c0.19-0.07,0.37-0.15,0.56-0.22c0.3-0.12,0.64,0.03,0.76,0.33c0.12,0.3-0.03,0.64-0.33,0.76c-0.19,0.07-0.37,0.14-0.55,0.22
			C37.41,47.22,35.44,48,31.55,48z"/>
	</g>
	<g>
		<path class="st0" d="M31.55,42.36c-3.89,0-5.86-0.78-7.77-1.53c-1.89-0.74-3.67-1.45-7.34-1.45c-3.66,0-5.44,0.7-7.33,1.44
			c-0.19,0.07-0.38,0.15-0.57,0.22c-0.3,0.12-0.64-0.03-0.76-0.33c-0.12-0.3,0.03-0.64,0.33-0.76c0.19-0.07,0.37-0.15,0.56-0.22
			c1.91-0.75,3.88-1.53,7.76-1.53c3.89,0,5.86,0.78,7.77,1.53c1.89,0.74,3.67,1.45,7.34,1.45c3.66,0,5.45-0.7,7.34-1.45
			c0.19-0.07,0.37-0.15,0.56-0.22c0.3-0.12,0.64,0.03,0.76,0.33c0.12,0.3-0.03,0.64-0.33,0.76c-0.19,0.07-0.37,0.14-0.55,0.22
			C37.41,41.59,35.44,42.36,31.55,42.36z"/>
	</g>
</g>
</svg>
