<?xml version="1.0" encoding="utf-8"?>
<!-- Generator: Adobe Illustrator 26.0.1, SVG Export Plug-In . SVG Version: 6.00 Build 0)  -->
<svg version="1.1" id="Layer_1" xmlns="http://www.w3.org/2000/svg" xmlns:xlink="http://www.w3.org/1999/xlink" x="0px" y="0px"
	 viewBox="0 0 48 48" style="enable-background:new 0 0 48 48;" xml:space="preserve">
<style type="text/css">
	.st0{fill:#999999;}
	.st1{fill:#FFFFFF;}
</style>
<g id="Philosophy">
	<g>
		<circle class="st0" cx="24" cy="24" r="24"/>
	</g>
	<g>
		<g>
			<path class="st1" d="M21.58,17.4c-0.66-0.36-1.43-0.55-2.31-0.55h-3.28h-1.22h-1.13v14.3h2.35V25.6h3.28
				c0.88,0,1.65-0.18,2.31-0.54c0.66-0.36,1.17-0.87,1.54-1.52s0.55-1.42,0.55-2.3c0-0.89-0.18-1.65-0.55-2.31
				C22.74,18.27,22.23,17.76,21.58,17.4z M20.72,22.77c-0.35,0.39-0.81,0.59-1.38,0.59h-3.35V19.1h3.35c0.58,0,1.04,0.19,1.39,0.58
				c0.35,0.39,0.52,0.9,0.52,1.55C21.24,21.87,21.07,22.38,20.72,22.77z"/>
		</g>
		<g>
			<path class="st1" d="M33.47,21.88c-0.6-0.72-1.44-1.09-2.54-1.09c-0.65,0-1.21,0.17-1.67,0.5c-0.37,0.26-0.68,0.61-0.94,1.04
				v-5.48h-2.35v14.3h2.35v-6.33c0-0.56,0.16-1,0.47-1.31c0.31-0.31,0.76-0.46,1.34-0.46c0.6,0,1.07,0.17,1.4,0.5
				c0.33,0.33,0.49,0.8,0.49,1.42v6.19h2.35v-6.2C34.37,23.63,34.07,22.61,33.47,21.88z"/>
		</g>
	</g>
</g>
</svg>
