<?xml version="1.0" encoding="utf-8"?>
<!-- Generator: Adobe Illustrator 26.0.1, SVG Export Plug-In . SVG Version: 6.00 Build 0)  -->
<svg version="1.1" id="Layer_1" xmlns="http://www.w3.org/2000/svg" xmlns:xlink="http://www.w3.org/1999/xlink" x="0px" y="0px"
	 viewBox="0 0 48 48" style="enable-background:new 0 0 48 48;" xml:space="preserve">
<style type="text/css">
	.st0{fill:#999999;}
</style>
<g id="Rectangular_View">
	<g>
		<path class="st0" d="M47.6,37.63H0.4c-0.22,0-0.4-0.18-0.4-0.4V10.77c0-0.22,0.18-0.4,0.4-0.4H47.6c0.22,0,0.4,0.18,0.4,0.4v26.46
			C48,37.45,47.82,37.63,47.6,37.63z M0.79,36.83h46.41V11.17H0.79V36.83z"/>
	</g>
	<g>
		<g>
			<g>
				<path class="st0" d="M20.7,31.75H5.38c-0.22,0-0.4-0.18-0.4-0.4V16.64c0-0.22,0.18-0.4,0.4-0.4H20.7c0.22,0,0.4,0.18,0.4,0.4
					v14.71C21.1,31.57,20.92,31.75,20.7,31.75z M5.78,30.96H20.3V17.04H5.78V30.96z"/>
			</g>
			<g>
				<g>
					<polygon class="st0" points="11.15,21.87 10.86,21.87 10.86,26.13 11.56,26.13 11.56,24.39 13.28,24.39 13.28,23.72 
						11.56,23.72 11.56,22.54 13.6,22.54 13.6,21.87 11.56,21.87 					"/>
				</g>
				<g>
					<polygon class="st0" points="13.95,22.22 13.95,22.95 14.52,22.67 14.52,26.13 15.22,26.13 15.22,21.87 14.57,21.87 					"/>
				</g>
			</g>
		</g>
		<g>
			<g>
				<path class="st0" d="M42.62,31.75H27.3c-0.22,0-0.4-0.18-0.4-0.4V16.64c0-0.22,0.18-0.4,0.4-0.4h15.32c0.22,0,0.4,0.18,0.4,0.4
					v14.71C43.02,31.57,42.84,31.75,42.62,31.75z M27.7,30.96h14.53V17.04H27.7V30.96z"/>
			</g>
			<g>
				<g>
					<polygon class="st0" points="32.42,21.89 32.13,21.89 32.13,26.15 32.83,26.15 32.83,24.41 34.55,24.41 34.55,23.74 
						32.83,23.74 32.83,22.56 34.87,22.56 34.87,21.89 32.83,21.89 					"/>
				</g>
				<g>
					<path class="st0" d="M36.26,25.48l1.14-1.5c0.12-0.15,0.21-0.32,0.27-0.5c0.07-0.18,0.1-0.35,0.1-0.52v0
						c0-0.35-0.11-0.63-0.32-0.82s-0.52-0.29-0.91-0.29c-0.35,0-0.64,0.11-0.86,0.32c-0.22,0.21-0.35,0.51-0.4,0.9v0H36v0
						c0.02-0.17,0.08-0.31,0.17-0.4c0.1-0.09,0.22-0.14,0.37-0.14c0.16,0,0.28,0.04,0.37,0.12c0.09,0.08,0.13,0.19,0.13,0.33v0.01
						c0,0.09-0.02,0.19-0.06,0.3c-0.04,0.11-0.1,0.21-0.18,0.31l-1.47,1.95v0.62h2.46v-0.67H36.26z"/>
				</g>
			</g>
		</g>
	</g>
</g>
</svg>
