<?xml version="1.0" encoding="utf-8"?>
<!-- Generator: Adobe Illustrator 26.0.1, SVG Export Plug-In . SVG Version: 6.00 Build 0)  -->
<svg version="1.1" id="Layer_1" xmlns="http://www.w3.org/2000/svg" xmlns:xlink="http://www.w3.org/1999/xlink" x="0px" y="0px"
	 viewBox="0 0 48 48" style="enable-background:new 0 0 48 48;" xml:space="preserve">
<style type="text/css">
	.st0{fill:#999999;}
</style>
<g id="Relate_00000170965393386549376150000005340970839716565648_">
	<g>
		<path class="st0" d="M5.79,14.5C2.6,14.5,0,11.91,0,8.72s2.6-5.79,5.79-5.79s5.79,2.6,5.79,5.79S8.98,14.5,5.79,14.5z M5.79,3.89
			c-2.66,0-4.83,2.17-4.83,4.83s2.17,4.83,4.83,4.83s4.83-2.17,4.83-4.83S8.45,3.89,5.79,3.89z"/>
	</g>
	<g>
		<g>
			<path class="st0" d="M30.12,15.14c-0.26,0-0.48-0.21-0.48-0.48V9.19H11.1c-0.26,0-0.48-0.21-0.48-0.48
				c0-0.26,0.21-0.48,0.48-0.48h19.03c0.26,0,0.48,0.21,0.48,0.48v5.94C30.6,14.92,30.39,15.14,30.12,15.14z"/>
		</g>
		<g>
			<g>
				<polygon class="st0" points="30.12,18.71 27.79,13 30.12,14.36 32.45,13 				"/>
			</g>
		</g>
	</g>
	<g>
		<path class="st0" d="M5.79,45.07C2.6,45.07,0,42.47,0,39.28c0-3.19,2.6-5.79,5.79-5.79s5.79,2.6,5.79,5.79
			C11.57,42.47,8.98,45.07,5.79,45.07z M5.79,34.45c-2.66,0-4.83,2.17-4.83,4.83c0,2.66,2.17,4.83,4.83,4.83s4.83-2.17,4.83-4.83
			C10.62,36.62,8.45,34.45,5.79,34.45z"/>
	</g>
	<g>
		<g>
			<path class="st0" d="M30.12,39.76H11.1c-0.26,0-0.48-0.21-0.48-0.48s0.21-0.48,0.48-0.48h18.55v-5.46c0-0.26,0.21-0.48,0.48-0.48
				c0.26,0,0.48,0.21,0.48,0.48v5.94C30.6,39.55,30.39,39.76,30.12,39.76z"/>
		</g>
		<g>
			<g>
				<polygon class="st0" points="30.12,29.29 32.45,35 30.12,33.64 27.79,35 				"/>
			</g>
		</g>
	</g>
	<g>
		<path class="st0" d="M30.12,29.81c-3.19,0-5.79-2.6-5.79-5.79c0-3.19,2.6-5.79,5.79-5.79s5.79,2.6,5.79,5.79
			C35.91,27.21,33.31,29.81,30.12,29.81z M30.12,19.19c-2.66,0-4.83,2.17-4.83,4.83c0,2.66,2.17,4.83,4.83,4.83s4.83-2.17,4.83-4.83
			C34.95,21.35,32.79,19.19,30.12,19.19z"/>
	</g>
	<g>
		<g>
			<path class="st0" d="M44.54,24.5h-9.11c-0.26,0-0.48-0.21-0.48-0.48c0-0.26,0.21-0.48,0.48-0.48h9.11c0.26,0,0.48,0.21,0.48,0.48
				C45.02,24.28,44.8,24.5,44.54,24.5z"/>
		</g>
		<g>
			<g>
				<path class="st0" d="M48,24.02c-1.63,0.6-3.65,1.64-4.9,2.73l0.99-2.73l-0.99-2.73C44.35,22.38,46.37,23.41,48,24.02z"/>
			</g>
		</g>
	</g>
</g>
</svg>
