<?xml version="1.0" encoding="utf-8"?>
<!-- Generator: Adobe Illustrator 26.0.1, SVG Export Plug-In . SVG Version: 6.00 Build 0)  -->
<svg version="1.1" id="Layer_1" xmlns="http://www.w3.org/2000/svg" xmlns:xlink="http://www.w3.org/1999/xlink" x="0px" y="0px"
	 viewBox="0 0 48 48" style="enable-background:new 0 0 48 48;" xml:space="preserve">
<style type="text/css">
	.st0{fill:#999999;}
	.st1{fill:#FFFFFF;}
</style>
<g id="Relate">
	<g>
		<circle class="st0" cx="24" cy="24" r="24"/>
	</g>
	<g>
		<path class="st1" d="M28.03,34.19h3.39l-4.7-8.92c0.36-0.11,0.71-0.25,1.04-0.43c0.88-0.49,1.57-1.18,2.07-2.06
			c0.49-0.88,0.74-1.91,0.74-3.09c0-1.19-0.25-2.22-0.73-3.1c-0.49-0.88-1.18-1.56-2.07-2.05c-0.89-0.49-1.92-0.74-3.11-0.74h-5.22
			h-1.61h-1.25v20.38h2.86v-8.61h4.25L28.03,34.19z M19.43,16.53h5.34c0.83,0,1.5,0.29,2,0.87s0.76,1.34,0.76,2.3
			c0,0.95-0.25,1.72-0.76,2.3c-0.5,0.58-1.17,0.87-2,0.87h-5.34V16.53z"/>
	</g>
</g>
</svg>
