<?xml version="1.0" encoding="utf-8"?>
<!-- Generator: Adobe Illustrator 26.0.1, SVG Export Plug-In . SVG Version: 6.00 Build 0)  -->
<svg version="1.1" id="Layer_1" xmlns="http://www.w3.org/2000/svg" xmlns:xlink="http://www.w3.org/1999/xlink" x="0px" y="0px"
	 viewBox="0 0 48 48" style="enable-background:new 0 0 48 48;" xml:space="preserve">
<style type="text/css">
	.st0{fill:#999999;}
</style>
<g id="Room_View_00000110470887205069050760000017329086422004821649_">
	<g>
		<path class="st0" d="M0.76,38.58c-0.14,0-0.28-0.04-0.4-0.13c-0.19-0.13-0.3-0.34-0.3-0.57V9.29c0-0.29,0.18-0.55,0.46-0.66
			l23.24-8.59c0.21-0.08,0.45-0.05,0.64,0.08c0.19,0.13,0.3,0.34,0.3,0.57v28.59c0,0.31-0.21,0.58-0.49,0.67l-23.2,8.58
			C0.93,38.56,0.85,38.58,0.76,38.58z M1.46,9.78v27.1L23.3,28.8V1.7L1.46,9.78z"/>
	</g>
	<g>
		<path class="st0" d="M8.48,27.07c-0.14,0-0.28-0.04-0.4-0.13c-0.19-0.13-0.3-0.34-0.3-0.57V16.2c0-0.29,0.18-0.55,0.46-0.66
			l8.27-3.06c0.21-0.08,0.45-0.05,0.64,0.08s0.3,0.34,0.3,0.57v10.18c0,0.29-0.18,0.55-0.46,0.66l-8.27,3.06
			C8.64,27.06,8.56,27.07,8.48,27.07z M9.18,16.68v8.69l6.87-2.54l0-8.69L9.18,16.68z"/>
	</g>
	<g>
		<path class="st0" d="M47.24,38.58c-0.08,0-0.16-0.01-0.24-0.04l-7.46-2.76c-0.27-0.1-0.46-0.36-0.46-0.66V16.45l-8.25-3.05v18.15
			c0,0.23-0.11,0.44-0.3,0.57c-0.19,0.13-0.43,0.16-0.64,0.08l-6.12-2.26c-0.27-0.1-0.46-0.36-0.46-0.66V0.7
			c0-0.23,0.11-0.44,0.3-0.57c0.19-0.13,0.43-0.16,0.64-0.08l23.24,8.59c0.27,0.1,0.46,0.36,0.46,0.66v28.59
			c0,0.23-0.11,0.44-0.3,0.57C47.52,38.54,47.38,38.58,47.24,38.58z M40.47,34.63l6.07,2.24V9.77L24.7,1.7v27.1l4.72,1.75V12.4
			c0-0.23,0.11-0.44,0.3-0.57c0.19-0.13,0.43-0.16,0.64-0.08l9.65,3.57c0.27,0.1,0.46,0.36,0.46,0.66V34.63z"/>
	</g>
	<g>
		<path class="st0" d="M39.77,35.82c-0.08,0-0.16-0.01-0.24-0.04l-9.65-3.57c-0.27-0.1-0.46-0.36-0.46-0.66V12.4
			c0-0.23,0.11-0.44,0.3-0.57c0.19-0.13,0.43-0.16,0.64-0.08l9.65,3.57c0.27,0.1,0.46,0.36,0.46,0.66v19.16
			c0,0.23-0.11,0.44-0.3,0.57C40.05,35.78,39.91,35.82,39.77,35.82z M30.82,31.06l8.25,3.05V16.45l-8.25-3.05V31.06z"/>
	</g>
	<g>
		<path class="st0" d="M24,48c-0.09,0-0.18-0.02-0.26-0.05L0.5,38.53c-0.27-0.11-0.44-0.37-0.44-0.66c0-0.29,0.19-0.54,0.46-0.64
			l23.24-8.59c0.16-0.06,0.33-0.06,0.49,0l23.24,8.59c0.27,0.1,0.45,0.36,0.46,0.64c0,0.29-0.17,0.55-0.44,0.66l-23.24,9.42
			C24.18,47.98,24.09,48,24,48z M2.7,37.91L24,46.55l21.3-8.64L24,30.03L2.7,37.91z"/>
	</g>
</g>
</svg>
