<?xml version="1.0" encoding="utf-8"?>
<!-- Generator: Adobe Illustrator 26.0.1, SVG Export Plug-In . SVG Version: 6.00 Build 0)  -->
<svg version="1.1" id="Layer_1" xmlns="http://www.w3.org/2000/svg" xmlns:xlink="http://www.w3.org/1999/xlink" x="0px" y="0px"
	 viewBox="0 0 48 48" style="enable-background:new 0 0 48 48;" xml:space="preserve">
<style type="text/css">
	.st0{fill:#999999;}
	.st1{fill:#666666;}
</style>
<g id="Scoll_Feature_00000077299021192529157880000001477657573171642278_">
	<g id="grpahical_change_00000147205507100127360290000002375167419202327741_">
		<g>
			<g>
				<path class="st0" d="M15.64,48h-4.3c-0.63,0-1.15-0.51-1.15-1.15V36.42c0-0.63,0.51-1.15,1.15-1.15h4.3
					c0.63,0,1.15,0.51,1.15,1.15v10.43C16.78,47.49,16.27,48,15.64,48z"/>
			</g>
			<g>
				<path class="st0" d="M24.12,48h-4.3c-0.63,0-1.15-0.51-1.15-1.15V30.51c0-0.63,0.51-1.15,1.15-1.15h4.3
					c0.63,0,1.15,0.51,1.15,1.15v16.34C25.27,47.49,24.75,48,24.12,48z"/>
			</g>
			<g>
				<path class="st0" d="M32.6,48h-4.3c-0.63,0-1.15-0.51-1.15-1.15V23.7c0-0.63,0.51-1.15,1.15-1.15h4.3
					c0.63,0,1.15,0.51,1.15,1.15v23.16C33.75,47.49,33.24,48,32.6,48z"/>
			</g>
			<g>
				<path class="st0" d="M41.09,48h-4.3c-0.63,0-1.15-0.51-1.15-1.15v-30.2c0-0.63,0.51-1.15,1.15-1.15h4.3
					c0.63,0,1.15,0.51,1.15,1.15v30.2C42.24,47.49,41.72,48,41.09,48z"/>
			</g>
		</g>
		<g>
			<path class="st0" d="M41.21,0l-5.6,4.54l1.3,0.84c-0.35,0.43-0.69,0.86-1.03,1.3l-1.41,1.69C34,8.94,33.53,9.5,33.04,10.05
				l-1.44,1.67c-0.48,0.55-0.98,1.09-1.47,1.64l-0.74,0.82l-0.76,0.8c-0.51,0.53-1.01,1.07-1.52,1.59
				c-2.03,2.12-4.18,4.12-6.39,6.04c-2.22,1.91-4.54,3.72-7.01,5.29c-1.23,0.8-2.5,1.53-3.82,2.17c-0.66,0.31-1.33,0.62-2.02,0.87
				c-0.69,0.26-1.39,0.5-2.11,0.62c1.48-0.14,2.9-0.62,4.28-1.16c1.38-0.55,2.71-1.22,4.01-1.94c2.6-1.46,5.03-3.18,7.35-5.04
				c1.16-0.92,2.29-1.89,3.39-2.89c0.55-0.5,1.1-1,1.64-1.51l1.6-1.55c0.53-0.52,1.04-1.06,1.55-1.59l0.77-0.8l0.75-0.82
				c0.5-0.55,1.01-1.09,1.5-1.64l1.46-1.67c1.36-1.58,2.67-3.2,3.96-4.84l1.36,0.88L41.21,0z"/>
		</g>
	</g>
	<g>
		<path class="st0" d="M10.3,15.5l2.12-5.63h0.67l2.12,5.63h-1l-1.46-4.2l-1.46,4.2H10.3z M11.3,14.43v-0.89h2.96v0.89H11.3z"/>
		<path class="st0" d="M17.21,14.18l0.91-2.7h0.94l-1.51,4.02h-0.67l-1.51-4.02h0.94L17.21,14.18z"/>
		<path class="st0" d="M20.94,15.57c-0.44,0-0.77-0.15-1.01-0.44c-0.24-0.29-0.36-0.71-0.36-1.25v-0.77c0-0.54,0.12-0.96,0.36-1.25
			c0.24-0.3,0.57-0.44,1-0.44c0.23,0,0.43,0.06,0.62,0.19c0.19,0.13,0.34,0.3,0.45,0.53L21.91,13c0-0.16-0.03-0.29-0.08-0.4
			c-0.05-0.11-0.13-0.19-0.24-0.25c-0.1-0.06-0.23-0.08-0.38-0.08c-0.23,0-0.41,0.07-0.53,0.22s-0.19,0.36-0.19,0.63v0.76
			c0,0.27,0.06,0.47,0.19,0.62c0.13,0.15,0.3,0.22,0.53,0.22c0.15,0,0.27-0.03,0.38-0.09c0.1-0.06,0.18-0.14,0.24-0.25
			c0.05-0.11,0.08-0.24,0.08-0.39l0.05,0.88c-0.08,0.2-0.2,0.37-0.37,0.5C21.42,15.5,21.2,15.57,20.94,15.57z M21.07,17.14
			c-0.31,0-0.59-0.06-0.84-0.17c-0.25-0.11-0.44-0.27-0.57-0.47l0.62-0.57c0.1,0.12,0.21,0.21,0.35,0.28
			c0.14,0.07,0.28,0.1,0.42,0.1c0.26,0,0.47-0.07,0.62-0.22c0.16-0.14,0.23-0.35,0.23-0.61v-4h0.93v3.9c0,0.56-0.15,0.99-0.46,1.3
			C22.07,16.99,21.63,17.14,21.07,17.14z"/>
	</g>
</g>
</svg>
