<?xml version="1.0" encoding="utf-8"?>
<!-- Generator: Adobe Illustrator 26.0.1, SVG Export Plug-In . SVG Version: 6.00 Build 0)  -->
<svg version="1.1" id="Layer_1" xmlns="http://www.w3.org/2000/svg" xmlns:xlink="http://www.w3.org/1999/xlink" x="0px" y="0px"
	 viewBox="0 0 48 48" style="enable-background:new 0 0 48 48;" xml:space="preserve">
<style type="text/css">
	.st0{fill:#999999;}
</style>
<g>
	<g>
		<path class="st0" d="M47.41,39.98H0.59C0.26,39.98,0,39.72,0,39.4V8.6c0-0.32,0.26-0.59,0.59-0.59h46.83
			C47.74,8.02,48,8.28,48,8.6v30.8C48,39.72,47.74,39.98,47.41,39.98z M1.17,38.81h45.66V9.19H1.17V38.81z"/>
	</g>
	<g>
		<g>
			<g>
				<path class="st0" d="M31.28,24.53c-0.1,0.43-0.22,1.12-0.3,1.63l-0.29,0.02c0-0.15,0-0.36-0.04-0.52
					c-0.05-0.42-0.16-0.57-1.02-0.57h-0.58l-0.89,4.63c-0.14,0.76-0.07,0.81,0.79,0.88l-0.06,0.26h-2.59l0.07-0.26
					c0.8-0.07,0.87-0.12,1.01-0.88l0.89-4.63h-0.57c-0.75,0-0.91,0.12-1.08,0.37c-0.13,0.17-0.28,0.41-0.42,0.73l-0.3-0.03
					c0.15-0.55,0.3-1.11,0.39-1.63h0.22c0.09,0.22,0.2,0.21,0.45,0.21h3.62c0.25,0,0.31-0.03,0.49-0.21H31.28z"/>
			</g>
		</g>
		<g>
			<g>
				<path class="st0" d="M26.69,17.55c-1.02,0.06-1.25,0.38-1.38,0.93c-0.15,0.54-0.38,1.49-0.92,4.28
					c-0.54,2.87-1.59,4.37-4.27,4.36c-2.04-0.02-3.66-1.02-3.05-4.19l0.8-4.05c0.21-1.14,0.08-1.2-1.16-1.32l0.09-0.42h3.95
					l-0.08,0.42c-1.2,0.12-1.34,0.15-1.56,1.32l-0.78,4.01c-0.5,2.51,0.54,3.44,2.13,3.44c1.83,0,2.73-0.93,3.24-3.53
					c0.56-2.87,0.72-3.81,0.77-4.39c0.05-0.63-0.23-0.78-1.35-0.86l0.11-0.42h3.56L26.69,17.55z"/>
			</g>
		</g>
	</g>
</g>
</svg>
