<?xml version="1.0" encoding="utf-8"?>
<!-- Generator: Adobe Illustrator 26.0.1, SVG Export Plug-In . SVG Version: 6.00 Build 0)  -->
<svg version="1.1" id="Layer_1" xmlns="http://www.w3.org/2000/svg" xmlns:xlink="http://www.w3.org/1999/xlink" x="0px" y="0px"
	 viewBox="0 0 48 48" style="enable-background:new 0 0 48 48;" xml:space="preserve">
<style type="text/css">
	.st0{fill:#999999;}
	.st1{fill:#FFFFFF;}
</style>
<g id="Welcome_Sign">
	<g>
		<g>
			<g>
				<path class="st0" d="M3.17,47.66c-1.63,0-2.96-1.33-2.96-2.96V15.9c0-1.63,1.33-2.96,2.96-2.96h41.67
					c1.63,0,2.96,1.33,2.96,2.96v28.8c0,1.63-1.33,2.96-2.96,2.96H3.17z"/>
			</g>
			<g>
				<path class="st0" d="M44.83,13.15c1.52,0,2.75,1.24,2.75,2.75v28.8c0,1.52-1.24,2.75-2.75,2.75H3.17
					c-1.52,0-2.75-1.24-2.75-2.75V15.9c0-1.52,1.24-2.75,2.75-2.75H44.83 M44.83,12.73H3.17C1.42,12.73,0,14.15,0,15.9v28.8
					c0,1.75,1.42,3.17,3.17,3.17h41.67c1.75,0,3.17-1.42,3.17-3.17V15.9C48,14.15,46.58,12.73,44.83,12.73L44.83,12.73z"/>
			</g>
		</g>
		<g>
			<path class="st0" d="M24,7.3c-1.97,0-3.58-1.61-3.58-3.58c0-1.97,1.61-3.58,3.58-3.58c1.97,0,3.58,1.61,3.58,3.58
				C27.58,5.69,25.97,7.3,24,7.3z M24,1.37c-1.29,0-2.34,1.05-2.34,2.34c0,1.29,1.05,2.34,2.34,2.34c1.29,0,2.34-1.05,2.34-2.34
				C26.34,2.42,25.29,1.37,24,1.37z"/>
		</g>
		<g>
			<path class="st0" d="M4.82,13.77c-0.21,0-0.42-0.11-0.54-0.31c-0.17-0.3-0.07-0.67,0.22-0.85l16.22-9.43
				c0.3-0.17,0.67-0.07,0.85,0.22c0.17,0.3,0.07,0.67-0.22,0.85L5.13,13.68C5.03,13.74,4.92,13.77,4.82,13.77z"/>
		</g>
		<g>
			<path class="st0" d="M43.18,13.77c-0.11,0-0.21-0.03-0.31-0.08L26.65,4.25c-0.3-0.17-0.4-0.55-0.22-0.85
				c0.17-0.3,0.55-0.4,0.85-0.22l16.22,9.43c0.3,0.17,0.4,0.55,0.22,0.85C43.6,13.65,43.4,13.77,43.18,13.77z"/>
		</g>
	</g>
	<g>
		<g>
			<polygon class="st1" points="19.36,27.72 20.63,27.72 22.29,20.54 20.89,20.54 19.97,25.33 18.6,20.54 17.51,20.54 16.14,25.33 
				15.21,20.54 13.82,20.54 15.48,27.72 16.75,27.72 18.08,22.71 			"/>
		</g>
		<g>
			<polygon class="st1" points="27.99,27.72 27.99,26.42 24.53,26.42 24.53,24.81 27.44,24.81 27.44,23.51 24.53,23.51 24.53,21.85 
				27.99,21.85 27.99,20.54 24.53,20.54 23.66,20.54 23.18,20.54 23.18,27.72 23.66,27.72 24.53,27.72 			"/>
		</g>
		<g>
			<polygon class="st1" points="34.03,26.42 30.57,26.42 30.57,20.54 29.22,20.54 29.22,27.72 29.82,27.72 30.57,27.72 34.03,27.72 
							"/>
		</g>
		<g>
			<path class="st1" d="M13.15,34.31c0.21-0.23,0.5-0.35,0.88-0.35c0.19,0,0.37,0.04,0.53,0.13c0.16,0.09,0.29,0.22,0.4,0.38
				c0.11,0.17,0.19,0.37,0.24,0.61h1.4c-0.09-0.53-0.25-0.97-0.48-1.34c-0.23-0.37-0.53-0.65-0.88-0.84
				c-0.35-0.19-0.76-0.29-1.21-0.29c-0.55,0-1.02,0.11-1.4,0.32c-0.39,0.21-0.68,0.52-0.89,0.91c-0.2,0.4-0.31,0.88-0.31,1.45v1.97
				c0,0.57,0.1,1.05,0.31,1.45c0.2,0.4,0.5,0.7,0.89,0.91c0.39,0.21,0.86,0.31,1.4,0.31c0.45,0,0.86-0.1,1.21-0.29
				s0.64-0.48,0.88-0.85c0.23-0.37,0.39-0.82,0.49-1.34h-1.4c-0.08,0.36-0.22,0.64-0.42,0.83c-0.2,0.2-0.45,0.29-0.75,0.29
				c-0.38,0-0.67-0.12-0.88-0.35c-0.21-0.23-0.31-0.56-0.31-0.98v-1.97C12.84,34.87,12.94,34.54,13.15,34.31z"/>
		</g>
		<g>
			<path class="st1" d="M21.5,32.94c-0.39-0.22-0.85-0.33-1.38-0.33c-0.53,0-0.99,0.11-1.38,0.33c-0.39,0.22-0.7,0.53-0.92,0.92
				c-0.22,0.4-0.33,0.86-0.33,1.4v2.03c0,0.53,0.11,0.99,0.33,1.39c0.22,0.4,0.52,0.71,0.92,0.93s0.85,0.33,1.38,0.33
				c0.53,0,0.99-0.11,1.38-0.33s0.7-0.53,0.92-0.93c0.22-0.4,0.33-0.86,0.33-1.39v-2.03c0-0.53-0.11-1-0.33-1.4
				C22.2,33.46,21.89,33.15,21.5,32.94z M21.34,37.32c0,0.38-0.11,0.68-0.33,0.91c-0.22,0.23-0.52,0.35-0.89,0.35
				c-0.37,0-0.66-0.12-0.89-0.35c-0.22-0.23-0.33-0.53-0.33-0.91v-2.1c0-0.38,0.11-0.69,0.33-0.92c0.22-0.23,0.52-0.34,0.89-0.34
				c0.37,0,0.66,0.11,0.89,0.34c0.22,0.23,0.33,0.53,0.33,0.92V37.32z"/>
		</g>
		<g>
			<polygon class="st1" points="27.22,37.52 25.85,32.68 24.07,32.68 24.07,39.86 25.3,39.86 25.3,34.86 26.62,39.06 27.82,39.06 
				29.14,34.76 29.14,39.86 30.37,39.86 30.37,32.68 28.59,32.68 			"/>
		</g>
		<g>
			<polygon class="st1" points="36.76,33.99 36.76,32.68 33.31,32.68 32.44,32.68 31.95,32.68 31.95,39.86 32.44,39.86 33.31,39.86 
				36.76,39.86 36.76,38.56 33.31,38.56 33.31,36.95 36.22,36.95 36.22,35.64 33.31,35.64 33.31,33.99 			"/>
		</g>
	</g>
</g>
</svg>
