<?xml version="1.0" encoding="utf-8"?>
<!-- Generator: Adobe Illustrator 26.0.1, SVG Export Plug-In . SVG Version: 6.00 Build 0)  -->
<svg version="1.1" id="Layer_1" xmlns="http://www.w3.org/2000/svg" xmlns:xlink="http://www.w3.org/1999/xlink" x="0px" y="0px"
	 viewBox="0 0 256 256" style="enable-background:new 0 0 256 256;" xml:space="preserve">
<style type="text/css">
	.st0{fill:#4259C3;}
</style>
<g>
	<g>
		<g>
			<path class="st0" d="M188.94,0c-2.98,12.44-6.22,32.18-8.65,46.79l-8.38,0.54c0-4.33,0-10.27-1.08-14.87
				c-1.35-11.9-4.6-16.22-29.21-16.22h-16.49L99.7,149c-4.06,21.9-1.89,23.26,22.72,25.15l-1.62,7.57H46.43l1.89-7.57
				c22.99-1.89,24.88-3.52,28.93-25.15l25.42-132.78H86.45c-21.63,0-26.23,3.52-31.1,10.55c-3.79,4.87-8.11,11.9-12.17,20.82
				l-8.65-0.81C38.86,31.1,43.19,14.87,45.62,0h6.22c2.7,6.22,5.68,5.95,12.98,5.95h103.84c7.03,0,8.92-0.81,14.06-5.95H188.94z"/>
		</g>
	</g>
	<g>
		<g>
			<path class="st0" d="M204.66,204.2l-11.38,5.77c-3.74,1.87-6.96,2.55-10.19,2.55c-18.17,0-30.57-13.93-30.57-31.76
				c0-16.64,12.91-35.16,34.82-35.16c21.91,0,34.14,19.36,34.14,42.46c0,31.25-19.7,54.52-42.97,63.52
				c-6.96,2.72-15.79,4.08-20.21,4.42l-1.36-4.92C181.05,246.66,199.05,230.52,204.66,204.2z M185.29,151.55
				c-13.25,0-17.83,12.57-17.83,24.46c0,14.94,8.32,27.34,22.59,27.34c6.11,0,11.72-2.21,15.29-4.92c0.51-3.74,0.68-7.81,0.68-11.04
				C206.01,172.27,201.77,151.55,185.29,151.55z"/>
		</g>
	</g>
</g>
</svg>
