<?xml version="1.0" encoding="utf-8"?>
<!-- Generator: Adobe Illustrator 26.0.1, SVG Export Plug-In . SVG Version: 6.00 Build 0)  -->
<svg version="1.1" id="Layer_1" xmlns="http://www.w3.org/2000/svg" xmlns:xlink="http://www.w3.org/1999/xlink" x="0px" y="0px"
	 viewBox="0 0 256 256" style="enable-background:new 0 0 256 256;" xml:space="preserve">
<style type="text/css">
	.st0{fill:#4259C3;}
</style>
<g>
	<g>
		<g>
			<path class="st0" d="M188.1,0c-3.01,12.56-6.28,32.5-8.74,47.26l-8.47,0.54c0-4.37,0-10.38-1.09-15.02
				c-1.37-12.02-4.64-16.39-29.5-16.39h-16.66L97.96,150.5c-4.1,22.12-1.91,23.49,22.94,25.4l-1.64,7.65H44.15l1.91-7.65
				c23.22-1.91,25.13-3.55,29.23-25.4l25.68-134.11H84.58c-21.85,0-26.5,3.55-31.41,10.65c-3.82,4.92-8.19,12.02-12.29,21.03
				l-8.74-0.82C36.5,31.41,40.87,15.02,43.33,0h6.28c2.73,6.28,5.74,6.01,13.11,6.01h104.89c7.1,0,9.01-0.82,14.2-6.01H188.1z"/>
		</g>
	</g>
	<g>
		<g>
			<path class="st0" d="M207.06,224.78v13.04c0,11.32,0.69,12.18,12.87,13.38v4.8h-40.14v-4.8c12.87-1.2,13.72-2.23,13.72-13.55
				v-12.87h-45.29v-5.15c16.3-23.16,33.97-48.2,51.12-72.05h7.72v68.96h16.81v8.23H207.06z M193.5,165.6
				c-10.81,15.78-22.81,33.28-34.65,50.95h34.65V165.6z"/>
		</g>
	</g>
</g>
</svg>
