<?xml version="1.0" encoding="utf-8"?>
<!-- Generator: Adobe Illustrator 26.0.1, SVG Export Plug-In . SVG Version: 6.00 Build 0)  -->
<svg version="1.1" id="Layer_1" xmlns="http://www.w3.org/2000/svg" xmlns:xlink="http://www.w3.org/1999/xlink" x="0px" y="0px"
	 viewBox="0 0 256 256" style="enable-background:new 0 0 256 256;" xml:space="preserve">
<style type="text/css">
	.st0{fill:#4259C3;}
</style>
<g>
	<g>
		<g>
			<path class="st0" d="M225.91,256h-53.53v-82.69h53.53V256z M176.92,251.45h44.44v-73.59h-44.44V251.45z"/>
		</g>
	</g>
	<g>
		<g>
			<path class="st0" d="M204.76,0c-3.37,14.07-7.04,36.4-9.79,52.92l-9.48,0.61c0-4.89,0-11.62-1.22-16.82
				c-1.53-13.46-5.2-18.35-33.04-18.35h-18.66l-28.76,150.19c-4.59,24.78-2.14,26.31,25.7,28.45l-1.84,8.57H43.55l2.14-8.57
				c26-2.14,28.14-3.98,32.73-28.45l28.76-150.19H88.82c-24.47,0-29.67,3.98-35.18,11.93c-4.28,5.51-9.18,13.46-13.76,23.55
				l-9.79-0.91C34.99,35.18,39.88,16.82,42.63,0h7.04c3.06,7.04,6.42,6.73,14.68,6.73h117.46c7.95,0,10.09-0.92,15.91-6.73H204.76z"
				/>
		</g>
	</g>
</g>
</svg>
