<?xml version="1.0" encoding="utf-8"?>
<!-- Generator: Adobe Illustrator 26.0.1, SVG Export Plug-In . SVG Version: 6.00 Build 0)  -->
<svg version="1.1" id="Layer_1" xmlns="http://www.w3.org/2000/svg" xmlns:xlink="http://www.w3.org/1999/xlink" x="0px" y="0px"
	 viewBox="0 0 48 48" style="enable-background:new 0 0 48 48;" xml:space="preserve">
<g id="Floor_Plan_View_00000021815896257860458780000002607573348314186153_">
	<g>
		<path d="M47.3,48H27.82c-0.39,0-0.7-0.31-0.7-0.7s0.31-0.7,0.7-0.7H46.6V1.4H1.4v45.2h18.78c0.39,0,0.7,0.31,0.7,0.7
			s-0.31,0.7-0.7,0.7H0.7C0.31,48,0,47.69,0,47.3V0.7C0,0.31,0.31,0,0.7,0h46.6C47.69,0,48,0.31,48,0.7v46.6
			C48,47.69,47.69,48,47.3,48z"/>
	</g>
	<g>
		<g>
			<path d="M17.1,48c-0.39,0-0.7-0.31-0.7-0.7V36.34c0-0.39,0.31-0.7,0.7-0.7c0.39,0,0.7,0.31,0.7,0.7V47.3
				C17.8,47.69,17.49,48,17.1,48z"/>
		</g>
		<g>
			<path d="M17.1,7.93c-0.39,0-0.7-0.31-0.7-0.7V0.7c0-0.39,0.31-0.7,0.7-0.7c0.39,0,0.7,0.31,0.7,0.7v6.53
				C17.8,7.62,17.49,7.93,17.1,7.93z"/>
		</g>
		<g>
			<path d="M17.1,29.66c-0.39,0-0.7-0.31-0.7-0.7V14.85c0-0.39,0.31-0.7,0.7-0.7c0.39,0,0.7,0.31,0.7,0.7v14.11
				C17.8,29.35,17.49,29.66,17.1,29.66z"/>
		</g>
		<g>
			<path d="M30.89,48c-0.39,0-0.7-0.31-0.7-0.7V36.34c0-0.39,0.31-0.7,0.7-0.7c0.39,0,0.7,0.31,0.7,0.7V47.3
				C31.59,47.69,31.28,48,30.89,48z"/>
		</g>
		<g>
			<path d="M30.89,7.93c-0.39,0-0.7-0.31-0.7-0.7V0.7c0-0.39,0.31-0.7,0.7-0.7c0.39,0,0.7,0.31,0.7,0.7v6.53
				C31.59,7.62,31.28,7.93,30.89,7.93z"/>
		</g>
		<g>
			<path d="M30.89,29.66c-0.39,0-0.7-0.31-0.7-0.7V14.85c0-0.39,0.31-0.7,0.7-0.7c0.39,0,0.7,0.31,0.7,0.7v14.11
				C31.59,29.35,31.28,29.66,30.89,29.66z"/>
		</g>
	</g>
	<g>
		<path d="M17.1,29.66H1.3c-0.39,0-0.7-0.31-0.7-0.7c0-0.39,0.31-0.7,0.7-0.7h15.8c0.39,0,0.7,0.31,0.7,0.7
			C17.8,29.35,17.49,29.66,17.1,29.66z"/>
	</g>
	<g>
		<path d="M47.3,21.14H30.9c-0.39,0-0.7-0.31-0.7-0.7c0-0.39,0.31-0.7,0.7-0.7H47.3c0.39,0,0.7,0.31,0.7,0.7
			C48,20.83,47.69,21.14,47.3,21.14z"/>
	</g>
</g>
</svg>
