<?xml version="1.0" encoding="utf-8"?>
<!-- Generator: Adobe Illustrator 26.0.1, SVG Export Plug-In . SVG Version: 6.00 Build 0)  -->
<svg version="1.1" id="Layer_1" xmlns="http://www.w3.org/2000/svg" xmlns:xlink="http://www.w3.org/1999/xlink" x="0px" y="0px"
	 viewBox="0 0 48 48" style="enable-background:new 0 0 48 48;" xml:space="preserve">
<g>
	<g>
		<path d="M47.41,39.98H0.59C0.26,39.98,0,39.72,0,39.4V8.6c0-0.32,0.26-0.59,0.59-0.59h46.83C47.74,8.02,48,8.28,48,8.6v30.8
			C48,39.72,47.74,39.98,47.41,39.98z M1.17,38.81h45.66V9.19H1.17V38.81z"/>
	</g>
	<g>
		<g>
			<polygon points="15.81,17.2 14.86,17.2 14.86,30.94 17.12,30.94 17.12,25.32 22.66,25.32 22.66,23.16 17.12,23.16 17.12,19.36 
				23.7,19.36 23.7,17.2 17.12,17.2 			"/>
		</g>
		<g>
			<path d="M31.87,23.94c0.37-0.49,0.66-1.02,0.87-1.6c0.21-0.57,0.32-1.14,0.32-1.69v-0.01c0-1.14-0.35-2.02-1.04-2.65
				c-0.69-0.62-1.67-0.94-2.93-0.94c-1.14,0-2.07,0.34-2.79,1.03c-0.72,0.68-1.14,1.65-1.28,2.9v0.01h2.33v-0.01
				c0.06-0.56,0.25-0.99,0.56-1.3c0.31-0.31,0.71-0.46,1.2-0.46c0.52,0,0.92,0.13,1.2,0.38c0.28,0.25,0.42,0.61,0.42,1.07v0.02
				c0,0.3-0.07,0.62-0.2,0.96c-0.14,0.34-0.33,0.67-0.57,0.99l-4.76,6.3v2h7.94v-2.16h-4.95L31.87,23.94z"/>
		</g>
	</g>
</g>
</svg>
