<?xml version="1.0" encoding="utf-8"?>
<!-- Generator: Adobe Illustrator 26.0.1, SVG Export Plug-In . SVG Version: 6.00 Build 0)  -->
<svg version="1.1" id="Layer_1" xmlns="http://www.w3.org/2000/svg" xmlns:xlink="http://www.w3.org/1999/xlink" x="0px" y="0px"
	 viewBox="0 0 48 48" style="enable-background:new 0 0 48 48;" xml:space="preserve">
<g>
	<g>
		<path d="M47.41,39.98H0.59C0.26,39.98,0,39.72,0,39.4V8.6c0-0.32,0.26-0.59,0.59-0.59h46.83C47.74,8.02,48,8.28,48,8.6v30.8
			C48,39.72,47.74,39.98,47.41,39.98z M1.17,38.81h45.66V9.19H1.17V38.81z"/>
	</g>
	<g>
		<path d="M25.24,20.43c0.64,0,1.25,0,1.9,0c-0.1,0.19-0.18,0.35-0.26,0.52c-0.04,0.1-0.13,0.08-0.2,0.08
			c-0.5,0.03-1.01,0.06-1.54,0.09c-0.12,0.69-0.24,1.4-0.37,2.1c-0.33,1.81-0.58,3.64-1.15,5.39c-0.42,1.31-1.12,2.43-2.27,3.24
			c-0.26,0.19-0.56,0.32-0.87,0.41c-0.34,0.1-0.66,0.05-0.97-0.1c-0.42-0.2-0.54-0.55-0.34-0.97c0.09-0.19,0.2-0.37,0.36-0.51
			c0.16-0.14,0.3-0.14,0.46,0c0.14,0.12,0.28,0.24,0.44,0.33c0.58,0.36,1.15,0.2,1.47-0.41c0.27-0.52,0.4-1.1,0.51-1.67
			c0.45-2.24,0.83-4.5,1.21-6.76c0.06-0.35,0.12-0.7,0.18-1.06c-0.49,0-0.95,0-1.41,0c-0.02-0.27,0.35-0.69,0.6-0.69
			c0.3-0.01,0.61,0,0.93,0c0.14-0.58,0.27-1.15,0.48-1.71c0.48-1.26,1.25-2.25,2.5-2.81c0.4-0.18,0.82-0.3,1.27-0.19
			c0.33,0.09,0.65,0.2,0.74,0.57c0.07,0.26-0.29,0.83-0.57,0.97c-0.14,0.07-0.25,0.01-0.35-0.09c-0.22-0.2-0.44-0.4-0.72-0.51
			c-0.49-0.19-0.84-0.08-1.11,0.38c-0.4,0.69-0.55,1.46-0.71,2.23C25.37,19.65,25.31,20.03,25.24,20.43z"/>
	</g>
</g>
</svg>
