<?xml version="1.0" encoding="utf-8"?>
<!-- Generator: Adobe Illustrator 26.0.1, SVG Export Plug-In . SVG Version: 6.00 Build 0)  -->
<svg version="1.1" id="Layer_1" xmlns="http://www.w3.org/2000/svg" xmlns:xlink="http://www.w3.org/1999/xlink" x="0px" y="0px"
	 viewBox="0 0 48 48" style="enable-background:new 0 0 48 48;" xml:space="preserve">
<g>
	<g>
		<path d="M47.41,39.98H0.59C0.26,39.98,0,39.72,0,39.4V8.6c0-0.32,0.26-0.59,0.59-0.59h46.83C47.74,8.02,48,8.28,48,8.6v30.8
			C48,39.72,47.74,39.98,47.41,39.98z M1.17,38.81h45.66V9.19H1.17V38.81z"/>
	</g>
	<g>
		<polygon points="20.53,17.13 19.58,17.13 19.58,30.87 21.84,30.87 21.84,25.25 27.38,25.25 27.38,23.09 21.84,23.09 21.84,19.29 
			28.42,19.29 28.42,17.13 21.84,17.13 		"/>
	</g>
</g>
</svg>
