<?xml version="1.0" encoding="utf-8"?>
<!-- Generator: Adobe Illustrator 26.0.1, SVG Export Plug-In . SVG Version: 6.00 Build 0)  -->
<svg version="1.1" id="Layer_1" xmlns="http://www.w3.org/2000/svg" xmlns:xlink="http://www.w3.org/1999/xlink" x="0px" y="0px"
	 viewBox="0 0 48 48" style="enable-background:new 0 0 48 48;" xml:space="preserve">
<g id="Horizontal_Line_00000173119822144771563490000003769938870716761485_">
	<g>
		<g>
			<g>
				<g>
					<g>
						<g>
							<g>
								<path d="M8.81,35.9c0.11,0.71,0.68,1.61,1.62,1.92c0.38,0.13,0.8,0.13,1.19,0c0.92-0.32,1.51-1.22,1.62-1.92
									c0.12-0.01,0.29-0.18,0.46-0.77c0.24-0.81-0.02-0.93-0.23-0.91c0.04-0.11,0.07-0.22,0.09-0.33
									c0.37-2.11-0.72-2.18-0.72-2.18s-0.18-0.33-0.65-0.58c-0.32-0.18-0.76-0.32-1.34-0.27c-0.19,0.01-0.37,0.04-0.53,0.1
									c-0.21,0.07-0.41,0.17-0.59,0.29c-0.22,0.13-0.42,0.29-0.6,0.48c-0.29,0.28-0.54,0.64-0.65,1.1
									c-0.09,0.34-0.07,0.69,0.01,1.07c0.02,0.11,0.05,0.22,0.09,0.33c-0.22-0.02-0.47,0.1-0.23,0.91
									C8.52,35.72,8.68,35.89,8.81,35.9L8.81,35.9z M8.81,35.9"/>
							</g>
						</g>
						<g>
							<g>
								<path d="M15.27,38.66c-1.32-0.32-2.38-1.04-2.38-1.04l-0.83,2.53l-0.16,0.48l0-0.01l-0.14,0.41l-0.44-1.2
									c1.08-1.45-0.22-1.43-0.29-1.43c-0.07,0-1.37-0.02-0.29,1.43l-0.44,1.2l-0.14-0.41l0,0.01l-0.16-0.48l-0.84-2.53
									c0,0-1.07,0.72-2.38,1.04c-0.98,0.24-1.03,1.33-0.99,1.86c0,0,0.06,0.73,0.11,1.05c0,0,1.92,1.19,5.12,1.2
									c3.21,0,5.12-1.2,5.12-1.2c0.06-0.32,0.11-1.05,0.11-1.05C16.29,39.99,16.25,38.9,15.27,38.66L15.27,38.66z M15.27,38.66"/>
							</g>
						</g>
					</g>
				</g>
			</g>
		</g>
		<g>
			<g>
				<g>
					<g>
						<g>
							<g>
								<path d="M21.79,35.9c0.11,0.71,0.68,1.61,1.62,1.92c0.38,0.13,0.8,0.13,1.19,0c0.92-0.32,1.51-1.22,1.62-1.92
									c0.12-0.01,0.29-0.18,0.46-0.77c0.24-0.81-0.02-0.93-0.23-0.91c0.04-0.11,0.07-0.22,0.09-0.33
									c0.37-2.11-0.72-2.18-0.72-2.18s-0.18-0.33-0.65-0.58c-0.32-0.18-0.76-0.32-1.34-0.27c-0.19,0.01-0.37,0.04-0.53,0.1
									c-0.21,0.07-0.41,0.17-0.59,0.29c-0.22,0.13-0.42,0.29-0.6,0.48c-0.29,0.28-0.54,0.64-0.65,1.1
									c-0.09,0.34-0.07,0.69,0.01,1.07c0.02,0.11,0.05,0.22,0.09,0.33c-0.22-0.02-0.47,0.1-0.23,0.91
									C21.5,35.72,21.66,35.89,21.79,35.9L21.79,35.9z M21.79,35.9"/>
							</g>
						</g>
						<g>
							<g>
								<path d="M28.25,38.66c-1.32-0.32-2.38-1.04-2.38-1.04l-0.83,2.53l-0.16,0.48l0-0.01l-0.14,0.41l-0.44-1.2
									c1.08-1.45-0.22-1.43-0.29-1.43c-0.07,0-1.37-0.02-0.29,1.43l-0.44,1.2l-0.14-0.41l0,0.01l-0.16-0.48l-0.84-2.53
									c0,0-1.07,0.72-2.38,1.04c-0.98,0.24-1.03,1.33-0.99,1.86c0,0,0.06,0.73,0.11,1.05c0,0,1.92,1.19,5.12,1.2
									c3.21,0,5.12-1.2,5.12-1.2c0.06-0.32,0.11-1.05,0.11-1.05C29.27,39.99,29.23,38.9,28.25,38.66L28.25,38.66z M28.25,38.66"/>
							</g>
						</g>
					</g>
				</g>
			</g>
		</g>
		<g>
			<g>
				<g>
					<g>
						<g>
							<g>
								<path d="M34.77,35.9c0.11,0.71,0.68,1.61,1.62,1.92c0.38,0.13,0.8,0.13,1.19,0c0.92-0.32,1.51-1.22,1.62-1.92
									c0.12-0.01,0.29-0.18,0.46-0.77c0.24-0.81-0.02-0.93-0.23-0.91c0.04-0.11,0.07-0.22,0.09-0.33
									c0.37-2.11-0.72-2.18-0.72-2.18s-0.18-0.33-0.65-0.58c-0.32-0.18-0.76-0.32-1.34-0.27c-0.19,0.01-0.37,0.04-0.53,0.1
									c-0.21,0.07-0.41,0.17-0.59,0.29c-0.22,0.13-0.42,0.29-0.6,0.48c-0.29,0.28-0.54,0.64-0.65,1.1
									c-0.09,0.34-0.07,0.69,0.01,1.07c0.02,0.11,0.05,0.22,0.09,0.33c-0.22-0.02-0.47,0.1-0.23,0.91
									C34.48,35.72,34.64,35.89,34.77,35.9L34.77,35.9z M34.77,35.9"/>
							</g>
						</g>
						<g>
							<g>
								<path d="M41.23,38.66c-1.32-0.32-2.38-1.04-2.38-1.04l-0.83,2.53l-0.16,0.48l0-0.01l-0.14,0.41l-0.44-1.2
									c1.08-1.45-0.22-1.43-0.29-1.43c-0.07,0-1.37-0.02-0.29,1.43l-0.44,1.2l-0.14-0.41l0,0.01l-0.16-0.48l-0.84-2.53
									c0,0-1.07,0.72-2.38,1.04c-0.98,0.24-1.03,1.33-0.99,1.86c0,0,0.06,0.73,0.11,1.05c0,0,1.92,1.19,5.12,1.2
									c3.21,0,5.12-1.2,5.12-1.2c0.06-0.32,0.11-1.05,0.11-1.05C42.25,39.99,42.21,38.9,41.23,38.66L41.23,38.66z M41.23,38.66"/>
							</g>
						</g>
					</g>
				</g>
			</g>
		</g>
	</g>
	<g>
		<g>
			<rect y="28.77" width="48" height="1.42"/>
		</g>
	</g>
	<g>
		<g>
			<g>
				<g>
					<path d="M35.16,19.29c-0.01-0.03-0.03-0.07-0.06-0.09c-0.01-0.01-0.02-0.02-0.03-0.02c-0.01-0.01-0.02-0.01-0.04-0.01
						c-0.01-0.01-0.03-0.01-0.04-0.01h-0.01c0,0-0.01,0-0.01,0c-0.04,0-0.08,0.02-0.12,0.05l-0.3,0.26l0,0l-6.34,5.63l-1.85,1.64
						l-0.59,0.53c-0.28,0.26-0.66,0.39-1.04,0.36c-0.39-0.03-0.75-0.2-1.01-0.5c-0.15-0.16-0.25-0.35-0.31-0.56
						c-0.05-0.16-0.07-0.33-0.06-0.5c0.02-0.39,0.2-0.74,0.48-0.99l0.62-0.55l3.76-3.34l4.4-3.91l0,0l0.3-0.26
						c0.04-0.04,0.06-0.09,0.06-0.14c0-0.03,0-0.05-0.01-0.07c-0.01-0.01-0.01-0.02-0.01-0.03c0-0.01-0.01-0.02-0.02-0.03
						c-0.01-0.01-0.01-0.01-0.02-0.02l-4.71-5.31l-1.44-1.62L22.76,5.3c-0.07-0.08-0.19-0.09-0.27-0.02l-5.12,4.54l-3.35,2.97
						l-0.61,0.54c-0.74,0.66-0.79,1.82-0.12,2.58l9.43,10.62l0.74,0.83c0.68,0.76,1.83,0.85,2.57,0.19l0.88-0.78l1.3-1.15l6.9-6.13
						v0C35.19,19.43,35.19,19.36,35.16,19.29z M13.58,15.67c-0.53-0.6-0.49-1.52,0.09-2.04l0.47-0.42l0.28-0.25l3.53-3.14l4.65-4.13
						l3.67,4.13l1.94,2.19l4.3,4.85l-4.3,3.82l-3.88,3.44l-0.28,0.25l-0.47,0.42c-0.42,0.37-0.63,0.92-0.59,1.48L13.58,15.67z"/>
				</g>
			</g>
			<g>
				<g>
					<path d="M35.11,19.5c-0.04,0.03-0.09,0.05-0.14,0.05c-0.66-0.05-1.28-0.36-1.73-0.86s-0.68-1.16-0.65-1.82
						c0.02-0.25,0.39-0.22,0.38,0.03c-0.03,0.56,0.17,1.11,0.55,1.54c0.38,0.43,0.9,0.69,1.46,0.73
						C35.16,19.17,35.24,19.38,35.11,19.5L35.11,19.5z M35.11,19.5"/>
				</g>
			</g>
			<g>
				<g>
					<path d="M24.47,24.27l-0.13-0.15l-9.91-11.16l-0.13-0.15c-0.09-0.1-0.2-0.08-0.27-0.02c-0.07,0.06-0.1,0.17-0.01,0.27
						l0.13,0.14l9.91,11.16l0.13,0.15c0.07,0.08,0.19,0.09,0.27,0.02S24.54,24.35,24.47,24.27z"/>
				</g>
			</g>
		</g>
		<g>
			<g>
				<rect x="18" y="7.44" transform="matrix(0.7478 -0.6639 0.6639 0.7478 -3.9773 19.3445)" width="10.94" height="14.93"/>
			</g>
		</g>
		<g>
			<g>
				<path d="M24.05,24.37l-0.47,0.42c-0.42,0.37-0.63,0.92-0.59,1.48l-9.42-10.61c-0.53-0.6-0.49-1.52,0.09-2.04l0.47-0.42
					L24.05,24.37z"/>
			</g>
		</g>
	</g>
</g>
</svg>
