<?xml version="1.0" encoding="utf-8"?>
<!-- Generator: Adobe Illustrator 26.0.1, SVG Export Plug-In . SVG Version: 6.00 Build 0)  -->
<svg version="1.1" id="Layer_1" xmlns="http://www.w3.org/2000/svg" xmlns:xlink="http://www.w3.org/1999/xlink" x="0px" y="0px"
	 viewBox="0 0 48 48" style="enable-background:new 0 0 48 48;" xml:space="preserve">
<g id="Horizontal_Line_00000139975119301879784280000015376104176851190915_">
	<g>
		<g>
			<g>
				<g>
					<g>
						<g>
							<g>
								<path d="M8.81,37.2c0.11,0.71,0.68,1.61,1.62,1.92c0.38,0.13,0.8,0.13,1.19,0c0.92-0.32,1.51-1.22,1.62-1.92
									c0.12-0.01,0.29-0.18,0.46-0.77c0.24-0.81-0.02-0.93-0.23-0.91c0.04-0.11,0.07-0.22,0.09-0.33
									c0.37-2.11-0.72-2.18-0.72-2.18s-0.18-0.33-0.65-0.58c-0.32-0.18-0.76-0.32-1.34-0.27c-0.19,0.01-0.37,0.04-0.53,0.1
									c-0.21,0.07-0.41,0.17-0.59,0.29c-0.22,0.13-0.42,0.29-0.6,0.48c-0.29,0.28-0.54,0.64-0.65,1.1
									c-0.09,0.34-0.07,0.69,0.01,1.07c0.02,0.11,0.05,0.22,0.09,0.33c-0.22-0.02-0.47,0.1-0.23,0.91
									C8.52,37.03,8.68,37.19,8.81,37.2L8.81,37.2z M8.81,37.2"/>
							</g>
						</g>
						<g>
							<g>
								<path d="M15.27,39.97c-1.32-0.32-2.38-1.04-2.38-1.04l-0.83,2.53l-0.16,0.48l0-0.01l-0.14,0.41l-0.44-1.2
									c1.08-1.45-0.22-1.43-0.29-1.43c-0.07,0-1.37-0.02-0.29,1.43l-0.44,1.2l-0.14-0.41l0,0.01l-0.16-0.48l-0.84-2.53
									c0,0-1.07,0.72-2.38,1.04c-0.98,0.24-1.03,1.33-0.99,1.86c0,0,0.06,0.73,0.11,1.05c0,0,1.92,1.19,5.12,1.2
									c3.21,0,5.12-1.2,5.12-1.2c0.06-0.32,0.11-1.05,0.11-1.05C16.29,41.3,16.25,40.21,15.27,39.97L15.27,39.97z M15.27,39.97"/>
							</g>
						</g>
					</g>
				</g>
			</g>
		</g>
		<g>
			<g>
				<g>
					<g>
						<g>
							<g>
								<path d="M21.79,37.2c0.11,0.71,0.68,1.61,1.62,1.92c0.38,0.13,0.8,0.13,1.19,0c0.92-0.32,1.51-1.22,1.62-1.92
									c0.12-0.01,0.29-0.18,0.46-0.77c0.24-0.81-0.02-0.93-0.23-0.91c0.04-0.11,0.07-0.22,0.09-0.33
									c0.37-2.11-0.72-2.18-0.72-2.18s-0.18-0.33-0.65-0.58c-0.32-0.18-0.76-0.32-1.34-0.27c-0.19,0.01-0.37,0.04-0.53,0.1
									c-0.21,0.07-0.41,0.17-0.59,0.29c-0.22,0.13-0.42,0.29-0.6,0.48c-0.29,0.28-0.54,0.64-0.65,1.1
									c-0.09,0.34-0.07,0.69,0.01,1.07c0.02,0.11,0.05,0.22,0.09,0.33c-0.22-0.02-0.47,0.1-0.23,0.91
									C21.5,37.03,21.66,37.19,21.79,37.2L21.79,37.2z M21.79,37.2"/>
							</g>
						</g>
						<g>
							<g>
								<path d="M28.25,39.97c-1.32-0.32-2.38-1.04-2.38-1.04l-0.83,2.53l-0.16,0.48l0-0.01l-0.14,0.41l-0.44-1.2
									c1.08-1.45-0.22-1.43-0.29-1.43c-0.07,0-1.37-0.02-0.29,1.43l-0.44,1.2l-0.14-0.41l0,0.01l-0.16-0.48l-0.84-2.53
									c0,0-1.07,0.72-2.38,1.04c-0.98,0.24-1.03,1.33-0.99,1.86c0,0,0.06,0.73,0.11,1.05c0,0,1.92,1.19,5.12,1.2
									c3.21,0,5.12-1.2,5.12-1.2c0.06-0.32,0.11-1.05,0.11-1.05C29.27,41.3,29.23,40.21,28.25,39.97L28.25,39.97z M28.25,39.97"/>
							</g>
						</g>
					</g>
				</g>
			</g>
		</g>
		<g>
			<g>
				<g>
					<g>
						<g>
							<g>
								<path d="M34.77,37.2c0.11,0.71,0.68,1.61,1.62,1.92c0.38,0.13,0.8,0.13,1.19,0c0.92-0.32,1.51-1.22,1.62-1.92
									c0.12-0.01,0.29-0.18,0.46-0.77c0.24-0.81-0.02-0.93-0.23-0.91c0.04-0.11,0.07-0.22,0.09-0.33
									c0.37-2.11-0.72-2.18-0.72-2.18s-0.18-0.33-0.65-0.58c-0.32-0.18-0.76-0.32-1.34-0.27c-0.19,0.01-0.37,0.04-0.53,0.1
									c-0.21,0.07-0.41,0.17-0.59,0.29c-0.22,0.13-0.42,0.29-0.6,0.48c-0.29,0.28-0.54,0.64-0.65,1.1
									c-0.09,0.34-0.07,0.69,0.01,1.07c0.02,0.11,0.05,0.22,0.09,0.33c-0.22-0.02-0.47,0.1-0.23,0.91
									C34.48,37.03,34.64,37.19,34.77,37.2L34.77,37.2z M34.77,37.2"/>
							</g>
						</g>
						<g>
							<g>
								<path d="M41.23,39.97c-1.32-0.32-2.38-1.04-2.38-1.04l-0.83,2.53l-0.16,0.48l0-0.01l-0.14,0.41l-0.44-1.2
									c1.08-1.45-0.22-1.43-0.29-1.43c-0.07,0-1.37-0.02-0.29,1.43l-0.44,1.2l-0.14-0.41l0,0.01l-0.16-0.48l-0.84-2.53
									c0,0-1.07,0.72-2.38,1.04c-0.98,0.24-1.03,1.33-0.99,1.86c0,0,0.06,0.73,0.11,1.05c0,0,1.92,1.19,5.12,1.2
									c3.21,0,5.12-1.2,5.12-1.2c0.06-0.32,0.11-1.05,0.11-1.05C42.25,41.3,42.21,40.21,41.23,39.97L41.23,39.97z M41.23,39.97"/>
							</g>
						</g>
					</g>
				</g>
			</g>
		</g>
	</g>
	<g>
		<g>
			<rect y="30.08" width="48" height="1.42"/>
		</g>
	</g>
	<g>
		<g>
			<rect x="8.14" y="10.31" transform="matrix(0.7071 0.7071 -0.7071 0.7071 17.9796 -9.1269)" width="23.73" height="13.66"/>
		</g>
	</g>
</g>
</svg>
