<?xml version="1.0" encoding="utf-8"?>
<!-- Generator: Adobe Illustrator 26.0.1, SVG Export Plug-In . SVG Version: 6.00 Build 0)  -->
<svg version="1.1" id="Layer_1" xmlns="http://www.w3.org/2000/svg" xmlns:xlink="http://www.w3.org/1999/xlink" x="0px" y="0px"
	 viewBox="0 0 48 48" style="enable-background:new 0 0 48 48;" xml:space="preserve">
<g id="Inter-Router_00000021835665864676562730000012482698646066045568_">
	<g>
		<path d="M39.58,25H8.42c-0.55,0-1-0.45-1-1c0-0.55,0.45-1,1-1h31.16c0.55,0,1,0.45,1,1C40.58,24.55,40.13,25,39.58,25z"/>
	</g>
	<g>
		<g>
			<path d="M0,24c3.96,1.47,8.88,3.98,11.92,6.63L9.52,24l2.4-6.63C8.88,20.02,3.96,22.53,0,24z"/>
		</g>
	</g>
	<g>
		<g>
			<path d="M48,24c-3.96,1.47-8.88,3.98-11.92,6.63l2.4-6.63l-2.4-6.63C39.12,20.02,44.04,22.53,48,24z"/>
		</g>
	</g>
</g>
</svg>
