<?xml version="1.0" encoding="utf-8"?>
<!-- Generator: Adobe Illustrator 26.0.1, SVG Export Plug-In . SVG Version: 6.00 Build 0)  -->
<svg version="1.1" id="Layer_1" xmlns="http://www.w3.org/2000/svg" xmlns:xlink="http://www.w3.org/1999/xlink" x="0px" y="0px"
	 viewBox="0 0 48 48" style="enable-background:new 0 0 48 48;" xml:space="preserve">
<g id="Map_View_00000014603374775135710020000001475259448052851111_">
	<g>
		<path d="M35.18,33.53c-0.22,0-0.43-0.1-0.56-0.28c-0.56-0.74-1.11-1.46-1.67-2.17c-0.9-1.16-1.74-2.25-2.58-3.4
			c-1.57-2.17-3.36-4.76-4.8-7.55c-1.59-3.1-2.29-5.82-2.2-8.55c0.1-2.89,1-5.32,2.68-7.23c3.14-3.58,7.12-4.99,11.51-4.08
			c5,1.04,8.75,5.15,9.32,10.23c0.34,3.01-0.3,5.99-2,9.35c-2.08,4.11-4.85,7.8-7.51,11.22c-0.36,0.46-0.71,0.94-1.08,1.43
			l-0.55,0.74C35.6,33.42,35.4,33.53,35.18,33.53C35.18,33.53,35.18,33.53,35.18,33.53z M34.98,1.39c-2.98,0-5.62,1.3-7.88,3.87
			c-1.46,1.66-2.24,3.8-2.33,6.36c-0.08,2.48,0.57,4.98,2.05,7.86c1.4,2.71,3.16,5.25,4.69,7.37c0.82,1.13,1.66,2.21,2.55,3.36
			c0.37,0.48,0.74,0.96,1.11,1.44c0.37-0.5,0.73-0.98,1.1-1.45c2.62-3.37,5.35-6.99,7.37-10.99c1.57-3.11,2.17-5.84,1.86-8.57
			c-0.5-4.48-3.8-8.11-8.21-9.02C36.5,1.48,35.73,1.39,34.98,1.39z M35.19,17.48c-0.02,0-0.03,0-0.05,0l0,0
			c-3.11-0.03-5.62-2.58-5.6-5.7c0.03-3.14,2.51-5.58,5.66-5.58c0.02,0,0.03,0,0.05,0c1.49,0.01,2.88,0.61,3.92,1.67
			c1.06,1.08,1.63,2.51,1.61,4.02C40.75,14.98,38.24,17.48,35.19,17.48z M35.21,7.59c-2.37,0-4.24,1.84-4.26,4.19
			c-0.02,2.35,1.87,4.27,4.21,4.29l0,0c0.01,0,0.02,0,0.04,0c2.29,0,4.17-1.88,4.2-4.2c0.01-1.14-0.42-2.22-1.21-3.03
			c-0.78-0.8-1.83-1.24-2.94-1.25C35.23,7.59,35.22,7.59,35.21,7.59z"/>
	</g>
	<g>
		<g>
			<path d="M38.99,48H6.54c-3.04,0-5.51-2.47-5.51-5.52V10.03c0-3.04,2.47-5.52,5.51-5.52h19.69c0.39,0,0.7,0.31,0.7,0.7
				s-0.31,0.7-0.7,0.7H6.54c-2.27,0-4.11,1.85-4.11,4.12v32.45c0,2.27,1.85,4.12,4.11,4.12h32.45c2.27,0,4.11-1.85,4.11-4.12V20.41
				c0-0.39,0.31-0.7,0.7-0.7c0.39,0,0.7,0.31,0.7,0.7v22.08C44.51,45.53,42.03,48,38.99,48z"/>
		</g>
		<g>
			<path d="M1.73,37.92c-0.18,0-0.36-0.07-0.49-0.2c-0.27-0.27-0.27-0.72,0-0.99l22.59-22.59c0.27-0.27,0.72-0.27,0.99,0
				s0.27,0.72,0,0.99L2.22,37.71C2.09,37.85,1.91,37.92,1.73,37.92z"/>
		</g>
		<g>
			<path d="M30.06,48c-0.18,0-0.36-0.07-0.49-0.2L10.3,28.65c-0.27-0.27-0.28-0.71,0-0.99c0.27-0.27,0.72-0.28,0.99,0L30.56,46.8
				c0.27,0.27,0.28,0.71,0,0.99C30.42,47.93,30.24,48,30.06,48z"/>
		</g>
	</g>
</g>
</svg>
