<?xml version="1.0" encoding="utf-8"?>
<!-- Generator: Adobe Illustrator 26.0.1, SVG Export Plug-In . SVG Version: 6.00 Build 0)  -->
<svg version="1.1" id="Layer_1" xmlns="http://www.w3.org/2000/svg" xmlns:xlink="http://www.w3.org/1999/xlink" x="0px" y="0px"
	 viewBox="0 0 48 48" style="enable-background:new 0 0 48 48;" xml:space="preserve">
<g id="Person_00000171695057818425588550000004524302293464523943_">
	<g>
		<path d="M15.48,20.35c0.44,2.84,2.63,6.46,6.22,7.73c1.48,0.52,3.09,0.53,4.57-0.01c3.54-1.28,5.8-4.89,6.24-7.72
			c0.48-0.04,1.1-0.71,1.77-3.1c0.92-3.27-0.06-3.76-0.89-3.68c0.16-0.45,0.28-0.9,0.36-1.34C35.16,3.75,31,3.47,31,3.47
			s-0.69-1.33-2.51-2.34c-1.22-0.73-2.91-1.28-5.14-1.09c-0.72,0.03-1.41,0.18-2.05,0.39c-0.82,0.28-1.58,0.69-2.26,1.16
			c-0.83,0.53-1.63,1.18-2.32,1.93c-1.1,1.13-2.08,2.59-2.51,4.41c-0.36,1.36-0.28,2.78,0.02,4.31c0.08,0.45,0.2,0.89,0.36,1.34
			c-0.83-0.08-1.81,0.41-0.89,3.68C14.38,19.65,15,20.31,15.48,20.35L15.48,20.35z M15.48,20.35"/>
	</g>
	<g>
		<path d="M40.34,31.47c-5.06-1.29-9.18-4.19-9.18-4.19l-3.21,10.19l-0.6,1.92l-0.01-0.03l-0.53,1.63l-1.69-4.82
			c4.16-5.82-0.84-5.76-1.12-5.75c-0.28-0.01-5.28-0.07-1.12,5.75l-1.69,4.82l-0.53-1.63l-0.01,0.03l-0.6-1.92l-3.22-10.19
			c0,0-4.11,2.9-9.18,4.19c-3.78,0.96-3.95,5.34-3.8,7.49c0,0,0.22,2.93,0.44,4.22c0,0,7.37,4.8,19.72,4.81
			c12.35,0,19.72-4.81,19.72-4.81c0.22-1.29,0.44-4.22,0.44-4.22C44.3,36.81,44.12,32.44,40.34,31.47L40.34,31.47z M40.34,31.47"/>
	</g>
</g>
</svg>
