<?xml version="1.0" encoding="utf-8"?>
<!-- Generator: Adobe Illustrator 26.0.1, SVG Export Plug-In . SVG Version: 6.00 Build 0)  -->
<svg version="1.1" id="Layer_1" xmlns="http://www.w3.org/2000/svg" xmlns:xlink="http://www.w3.org/1999/xlink" x="0px" y="0px"
	 viewBox="0 0 48 48" style="enable-background:new 0 0 48 48;" xml:space="preserve">
<g id="Principle_Line_00000072249041583836976370000012970480704635272589_">
	<g>
		<g>
			<g>
				<g>
					<g>
						<g>
							<g>
								<path d="M8.81,36.02c0.11,0.71,0.68,1.61,1.62,1.92c0.38,0.13,0.8,0.13,1.19,0c0.92-0.32,1.51-1.22,1.62-1.92
									c0.12-0.01,0.29-0.18,0.46-0.77c0.24-0.81-0.02-0.93-0.23-0.91c0.04-0.11,0.07-0.22,0.09-0.33
									c0.37-2.11-0.72-2.18-0.72-2.18s-0.18-0.33-0.65-0.58c-0.32-0.18-0.76-0.32-1.34-0.27c-0.19,0.01-0.37,0.04-0.53,0.1
									c-0.21,0.07-0.41,0.17-0.59,0.29c-0.22,0.13-0.42,0.29-0.6,0.48c-0.29,0.28-0.54,0.64-0.65,1.1
									C8.38,33.27,8.4,33.62,8.48,34c0.02,0.11,0.05,0.22,0.09,0.33c-0.22-0.02-0.47,0.1-0.23,0.91
									C8.52,35.84,8.68,36.01,8.81,36.02L8.81,36.02z M8.81,36.02"/>
							</g>
						</g>
						<g>
							<g>
								<path d="M15.27,38.78c-1.32-0.32-2.38-1.04-2.38-1.04l-0.83,2.53l-0.16,0.48l0-0.01l-0.14,0.41l-0.44-1.2
									c1.08-1.45-0.22-1.43-0.29-1.43c-0.07,0-1.37-0.02-0.29,1.43l-0.44,1.2l-0.14-0.41l0,0.01l-0.16-0.48l-0.84-2.53
									c0,0-1.07,0.72-2.38,1.04c-0.98,0.24-1.03,1.33-0.99,1.86c0,0,0.06,0.73,0.11,1.05c0,0,1.92,1.19,5.12,1.2
									c3.21,0,5.12-1.2,5.12-1.2c0.06-0.32,0.11-1.05,0.11-1.05C16.29,40.11,16.25,39.02,15.27,38.78L15.27,38.78z M15.27,38.78"
									/>
							</g>
						</g>
					</g>
				</g>
			</g>
		</g>
		<g>
			<g>
				<g>
					<g>
						<g>
							<g>
								<path d="M21.79,36.02c0.11,0.71,0.68,1.61,1.62,1.92c0.38,0.13,0.8,0.13,1.19,0c0.92-0.32,1.51-1.22,1.62-1.92
									c0.12-0.01,0.29-0.18,0.46-0.77c0.24-0.81-0.02-0.93-0.23-0.91c0.04-0.11,0.07-0.22,0.09-0.33
									c0.37-2.11-0.72-2.18-0.72-2.18s-0.18-0.33-0.65-0.58c-0.32-0.18-0.76-0.32-1.34-0.27c-0.19,0.01-0.37,0.04-0.53,0.1
									c-0.21,0.07-0.41,0.17-0.59,0.29c-0.22,0.13-0.42,0.29-0.6,0.48c-0.29,0.28-0.54,0.64-0.65,1.1
									c-0.09,0.34-0.07,0.69,0.01,1.07c0.02,0.11,0.05,0.22,0.09,0.33c-0.22-0.02-0.47,0.1-0.23,0.91
									C21.5,35.84,21.66,36.01,21.79,36.02L21.79,36.02z M21.79,36.02"/>
							</g>
						</g>
						<g>
							<g>
								<path d="M28.25,38.78c-1.32-0.32-2.38-1.04-2.38-1.04l-0.83,2.53l-0.16,0.48l0-0.01l-0.14,0.41l-0.44-1.2
									c1.08-1.45-0.22-1.43-0.29-1.43c-0.07,0-1.37-0.02-0.29,1.43l-0.44,1.2l-0.14-0.41l0,0.01l-0.16-0.48l-0.84-2.53
									c0,0-1.07,0.72-2.38,1.04c-0.98,0.24-1.03,1.33-0.99,1.86c0,0,0.06,0.73,0.11,1.05c0,0,1.92,1.19,5.12,1.2
									c3.21,0,5.12-1.2,5.12-1.2c0.06-0.32,0.11-1.05,0.11-1.05C29.27,40.11,29.23,39.02,28.25,38.78L28.25,38.78z M28.25,38.78"
									/>
							</g>
						</g>
					</g>
				</g>
			</g>
		</g>
		<g>
			<g>
				<g>
					<g>
						<g>
							<g>
								<path d="M34.77,36.02c0.11,0.71,0.68,1.61,1.62,1.92c0.38,0.13,0.8,0.13,1.19,0c0.92-0.32,1.51-1.22,1.62-1.92
									c0.12-0.01,0.29-0.18,0.46-0.77c0.24-0.81-0.02-0.93-0.23-0.91c0.04-0.11,0.07-0.22,0.09-0.33
									c0.37-2.11-0.72-2.18-0.72-2.18s-0.18-0.33-0.65-0.58c-0.32-0.18-0.76-0.32-1.34-0.27c-0.19,0.01-0.37,0.04-0.53,0.1
									c-0.21,0.07-0.41,0.17-0.59,0.29c-0.22,0.13-0.42,0.29-0.6,0.48c-0.29,0.28-0.54,0.64-0.65,1.1
									c-0.09,0.34-0.07,0.69,0.01,1.07c0.02,0.11,0.05,0.22,0.09,0.33c-0.22-0.02-0.47,0.1-0.23,0.91
									C34.48,35.84,34.64,36.01,34.77,36.02L34.77,36.02z M34.77,36.02"/>
							</g>
						</g>
						<g>
							<g>
								<path d="M41.23,38.78c-1.32-0.32-2.38-1.04-2.38-1.04l-0.83,2.53l-0.16,0.48l0-0.01l-0.14,0.41l-0.44-1.2
									c1.08-1.45-0.22-1.43-0.29-1.43c-0.07,0-1.37-0.02-0.29,1.43l-0.44,1.2l-0.14-0.41l0,0.01l-0.16-0.48l-0.84-2.53
									c0,0-1.07,0.72-2.38,1.04c-0.98,0.24-1.03,1.33-0.99,1.86c0,0,0.06,0.73,0.11,1.05c0,0,1.92,1.19,5.12,1.2
									c3.21,0,5.12-1.2,5.12-1.2c0.06-0.32,0.11-1.05,0.11-1.05C42.25,40.11,42.21,39.02,41.23,38.78L41.23,38.78z M41.23,38.78"
									/>
							</g>
						</g>
					</g>
				</g>
			</g>
		</g>
	</g>
	<g>
		<g>
			<rect y="28.89" width="48" height="1.42"/>
		</g>
	</g>
	<g>
		<g>
			<g>
				<path d="M24.19,9.9c-0.6,0.04-0.73,0.22-0.81,0.55c-0.09,0.32-0.22,0.88-0.54,2.52c-0.32,1.69-0.94,2.57-2.51,2.56
					c-1.2-0.01-2.16-0.6-1.79-2.47L19,10.68c0.12-0.67,0.04-0.71-0.68-0.78l0.05-0.25h2.33L20.65,9.9
					c-0.71,0.07-0.79,0.09-0.92,0.78l-0.46,2.36c-0.29,1.48,0.32,2.02,1.26,2.02c1.08,0,1.61-0.55,1.91-2.08
					c0.33-1.69,0.42-2.25,0.45-2.58c0.03-0.37-0.13-0.46-0.8-0.5l0.06-0.25h2.1L24.19,9.9z"/>
			</g>
			<g>
				<path d="M29.68,9.45c-0.1,0.41-0.2,1.05-0.28,1.53L29.12,11c0-0.14,0-0.34-0.04-0.49c-0.04-0.39-0.15-0.53-0.95-0.53H27.6
					l-0.83,4.34c-0.13,0.72-0.06,0.76,0.74,0.82l-0.05,0.25h-2.43l0.06-0.25c0.75-0.06,0.81-0.11,0.95-0.82l0.83-4.34h-0.53
					c-0.71,0-0.86,0.11-1.02,0.35c-0.12,0.16-0.27,0.39-0.4,0.68l-0.28-0.03c0.14-0.51,0.28-1.04,0.36-1.53h0.2
					c0.09,0.2,0.19,0.19,0.42,0.19h3.4c0.23,0,0.29-0.03,0.46-0.19H29.68z"/>
			</g>
		</g>
		<g>
			<path d="M33.6,19.88H14.4c-0.33,0-0.6-0.27-0.6-0.6V5.71c0-0.33,0.27-0.6,0.6-0.6H33.6c0.33,0,0.6,0.27,0.6,0.6v13.57
				C34.21,19.61,33.94,19.88,33.6,19.88z M15,18.67h18V6.31H15V18.67z"/>
		</g>
	</g>
	<g>
		<g>
			<path d="M24,26.59c-0.33,0-0.6-0.27-0.6-0.6v-6.71c0-0.33,0.27-0.6,0.6-0.6c0.33,0,0.6,0.27,0.6,0.6v6.71
				C24.6,26.32,24.33,26.59,24,26.59z"/>
		</g>
		<g>
			<g>
				<path d="M24,28.89c-0.51-1.37-1.37-3.07-2.29-4.12L24,25.6l2.29-0.83C25.37,25.83,24.51,27.53,24,28.89z"/>
			</g>
		</g>
	</g>
</g>
</svg>
