<?xml version="1.0" encoding="utf-8"?>
<!-- Generator: Adobe Illustrator 26.0.1, SVG Export Plug-In . SVG Version: 6.00 Build 0)  -->
<svg version="1.1" id="Layer_1" xmlns="http://www.w3.org/2000/svg" x="0px" y="0px" viewBox="0 0 48 48">
<g id="Room_View_00000144317266554799869120000000795237167069076886_">
	<g>
		<path d="M24.86,48H1.05c-0.39,0-0.7-0.31-0.7-0.7V22.79c0-0.39,0.31-0.7,0.7-0.7h23.81c0.39,0,0.7,0.31,0.7,0.7V47.3
			C25.56,47.69,25.25,48,24.86,48z M1.74,46.6h22.42V23.49H1.74V46.6z"/>
	</g>
	<g>
		<path d="M22.05,34.32H3.85c-0.39,0-0.7-0.31-0.7-0.7v-7.57c0-0.39,0.31-0.7,0.7-0.7h18.2c0.39,0,0.7,0.31,0.7,0.7v7.57
			C22.75,34,22.44,34.32,22.05,34.32z M4.55,32.92h16.8v-6.17H4.55V32.92z"/>
	</g>
	<g>
		<path d="M35.57,37.29H24.86c-0.39,0-0.7-0.31-0.7-0.7s0.31-0.7,0.7-0.7h10.01V12.79H12.45v10.01c0,0.39-0.31,0.7-0.7,0.7
			c-0.39,0-0.7-0.31-0.7-0.7V12.09c0-0.39,0.31-0.7,0.7-0.7h23.81c0.39,0,0.7,0.31,0.7,0.7v24.51
			C36.27,36.98,35.95,37.29,35.57,37.29z"/>
	</g>
	<g>
		<path d="M32.76,23.61c0,0-0.01,0-0.01,0l-7.9-0.11c-0.39-0.01-0.69-0.32-0.69-0.71c0.01-0.38,0.32-0.69,0.7-0.69
			c0,0,0.01,0,0.01,0l7.19,0.1v-6.16h-16.8v6.64c0,0.39-0.31,0.7-0.7,0.7c-0.39,0-0.7-0.31-0.7-0.7v-7.34c0-0.39,0.31-0.7,0.7-0.7
			h18.2c0.39,0,0.7,0.31,0.7,0.7v7.57c0,0.19-0.08,0.37-0.21,0.5C33.12,23.54,32.94,23.61,32.76,23.61z"/>
	</g>
	<g>
		<path d="M46.95,25.9H35.57c-0.39,0-0.7-0.31-0.7-0.7c0-0.39,0.31-0.7,0.7-0.7h10.69V1.4H23.84v10.69c0,0.39-0.31,0.7-0.7,0.7
			c-0.39,0-0.7-0.31-0.7-0.7V0.7c0-0.39,0.31-0.7,0.7-0.7h23.81c0.39,0,0.7,0.31,0.7,0.7v24.51C47.65,25.59,47.34,25.9,46.95,25.9z"
			/>
	</g>
	<g>
		<path d="M44.15,12.79h-18.2c-0.39,0-0.7-0.31-0.7-0.7V3.95c0-0.39,0.31-0.7,0.7-0.7h18.2c0.39,0,0.7,0.31,0.7,0.7v8.13
			C44.85,12.47,44.53,12.79,44.15,12.79z M26.65,11.39h16.8V4.65h-16.8V11.39z"/>
	</g>
	<g>
		<path d="M1.05,23.49c-0.18,0-0.36-0.07-0.49-0.2c-0.27-0.27-0.27-0.72,0-0.99l22.1-22.1c0.27-0.27,0.72-0.27,0.99,0
			s0.27,0.72,0,0.99l-22.1,22.1C1.4,23.43,1.22,23.49,1.05,23.49z"/>
	</g>
</g>
</svg>
