<?xml version="1.0" encoding="utf-8"?>
<!-- Generator: Adobe Illustrator 26.0.1, SVG Export Plug-In . SVG Version: 6.00 Build 0)  -->
<svg version="1.1" id="Layer_1" xmlns="http://www.w3.org/2000/svg" xmlns:xlink="http://www.w3.org/1999/xlink" x="0px" y="0px"
	 viewBox="0 0 48 48" style="enable-background:new 0 0 48 48;" xml:space="preserve">
<g id="Scoll_Feature_00000000930102752297731890000011697921559987609245_">
	<g>
		<g>
			<path d="M15.64,48h-4.3c-0.63,0-1.15-0.51-1.15-1.15V36.42c0-0.63,0.51-1.15,1.15-1.15h4.3c0.63,0,1.15,0.51,1.15,1.15v10.43
				C16.78,47.49,16.27,48,15.64,48z"/>
		</g>
		<g>
			<path d="M24.12,48h-4.3c-0.63,0-1.15-0.51-1.15-1.15V30.51c0-0.63,0.51-1.15,1.15-1.15h4.3c0.63,0,1.15,0.51,1.15,1.15v16.34
				C25.27,47.49,24.75,48,24.12,48z"/>
		</g>
		<g>
			<path d="M32.6,48h-4.3c-0.63,0-1.15-0.51-1.15-1.15V23.7c0-0.63,0.51-1.15,1.15-1.15h4.3c0.63,0,1.15,0.51,1.15,1.15v23.16
				C33.75,47.49,33.24,48,32.6,48z"/>
		</g>
		<g>
			<path d="M41.09,48h-4.3c-0.63,0-1.15-0.51-1.15-1.15v-30.2c0-0.63,0.51-1.15,1.15-1.15h4.3c0.63,0,1.15,0.51,1.15,1.15v30.2
				C42.24,47.49,41.72,48,41.09,48z"/>
		</g>
	</g>
	<g>
		<path d="M41.21,0l-5.6,4.54l1.3,0.84c-0.35,0.43-0.69,0.86-1.03,1.3l-1.41,1.69C34,8.94,33.53,9.5,33.04,10.05l-1.44,1.67
			c-0.48,0.55-0.98,1.09-1.47,1.64l-0.74,0.82l-0.76,0.8c-0.51,0.53-1.01,1.07-1.52,1.59c-2.03,2.12-4.18,4.12-6.39,6.04
			c-2.22,1.91-4.54,3.72-7.01,5.29c-1.23,0.8-2.5,1.53-3.82,2.17c-0.66,0.31-1.33,0.62-2.02,0.87c-0.69,0.26-1.39,0.5-2.11,0.62
			c1.48-0.14,2.9-0.62,4.28-1.16c1.38-0.55,2.71-1.22,4.01-1.94c2.6-1.46,5.03-3.18,7.35-5.04c1.16-0.92,2.29-1.89,3.39-2.89
			c0.55-0.5,1.1-1,1.64-1.51l1.6-1.55c0.53-0.52,1.04-1.06,1.55-1.59l0.77-0.8l0.75-0.82c0.5-0.55,1.01-1.09,1.5-1.64l1.46-1.67
			c1.36-1.58,2.67-3.2,3.96-4.84l1.36,0.88L41.21,0z"/>
	</g>
</g>
</svg>
