<?xml version="1.0" encoding="utf-8"?>
<!-- Generator: Adobe Illustrator 26.0.1, SVG Export Plug-In . SVG Version: 6.00 Build 0)  -->
<svg version="1.1" id="Layer_1" xmlns="http://www.w3.org/2000/svg" xmlns:xlink="http://www.w3.org/1999/xlink" x="0px" y="0px"
	 viewBox="0 0 48 48" style="enable-background:new 0 0 48 48;" xml:space="preserve">
<g>
	<g>
		<path d="M6.1,44.51c-0.2,0-0.36-0.16-0.36-0.36V3.84c0-0.2,0.16-0.36,0.36-0.36s0.36,0.16,0.36,0.36v40.31
			C6.46,44.35,6.3,44.51,6.1,44.51z"/>
	</g>
	<g>
		<path d="M40.67,39.47H0.36c-0.2,0-0.36-0.16-0.36-0.36s0.16-0.36,0.36-0.36h40.31c0.2,0,0.36,0.16,0.36,0.36
			S40.87,39.47,40.67,39.47z"/>
	</g>
	<g>
		<path d="M45.34,39.47H0.36c-0.2,0-0.36-0.16-0.36-0.36s0.16-0.36,0.36-0.36h44.98c0.2,0,0.36,0.16,0.36,0.36
			S45.53,39.47,45.34,39.47z"/>
	</g>
	<g>
		<path d="M13.76,39.47c-0.2,0-0.36-0.16-0.36-0.36V26.37c0-0.2,0.16-0.36,0.36-0.36s0.36,0.16,0.36,0.36v12.75
			C14.12,39.31,13.96,39.47,13.76,39.47z"/>
	</g>
	<g>
		<path d="M21.42,39.47c-0.2,0-0.36-0.16-0.36-0.36V18.24c0-0.2,0.16-0.36,0.36-0.36c0.2,0,0.36,0.16,0.36,0.36v20.87
			C21.77,39.31,21.61,39.47,21.42,39.47z"/>
	</g>
	<g>
		<path d="M29.08,39.47c-0.2,0-0.36-0.16-0.36-0.36V23.36c0-0.2,0.16-0.36,0.36-0.36c0.2,0,0.36,0.16,0.36,0.36v15.75
			C29.43,39.31,29.27,39.47,29.08,39.47z"/>
	</g>
	<g>
		<path d="M36.73,39.47c-0.2,0-0.36-0.16-0.36-0.36V12.83c0-0.2,0.16-0.36,0.36-0.36c0.2,0,0.36,0.16,0.36,0.36v26.29
			C37.09,39.31,36.93,39.47,36.73,39.47z"/>
	</g>
	<g>
		<circle cx="13.76" cy="26.37" r="0.83"/>
		<path d="M13.76,27.56c-0.66,0-1.19-0.53-1.19-1.19c0-0.66,0.53-1.19,1.19-1.19c0.66,0,1.19,0.53,1.19,1.19
			C14.95,27.03,14.42,27.56,13.76,27.56z M13.76,25.89c-0.26,0-0.48,0.21-0.48,0.48c0,0.26,0.21,0.48,0.48,0.48
			c0.26,0,0.48-0.21,0.48-0.48C14.24,26.11,14.02,25.89,13.76,25.89z"/>
	</g>
	<g>
		<circle cx="21.42" cy="18.24" r="0.83"/>
		<path d="M21.42,19.44c-0.66,0-1.19-0.53-1.19-1.19s0.53-1.19,1.19-1.19c0.66,0,1.19,0.53,1.19,1.19S22.07,19.44,21.42,19.44z
			 M21.42,17.77c-0.26,0-0.48,0.21-0.48,0.48s0.21,0.48,0.48,0.48c0.26,0,0.48-0.21,0.48-0.48S21.68,17.77,21.42,17.77z"/>
	</g>
	<g>
		<circle cx="29.08" cy="23.36" r="0.83"/>
		<path d="M29.08,24.55c-0.66,0-1.19-0.53-1.19-1.19c0-0.66,0.53-1.19,1.19-1.19c0.66,0,1.19,0.53,1.19,1.19
			C30.27,24.02,29.73,24.55,29.08,24.55z M29.08,22.89c-0.26,0-0.48,0.21-0.48,0.48c0,0.26,0.21,0.48,0.48,0.48
			c0.26,0,0.48-0.21,0.48-0.48C29.55,23.1,29.34,22.89,29.08,22.89z"/>
	</g>
	<g>
		<circle cx="36.73" cy="12.83" r="0.83"/>
		<path d="M36.73,14.02c-0.66,0-1.19-0.53-1.19-1.19s0.53-1.19,1.19-1.19c0.66,0,1.19,0.53,1.19,1.19S37.39,14.02,36.73,14.02z
			 M36.73,12.35c-0.26,0-0.48,0.21-0.48,0.48s0.21,0.48,0.48,0.48c0.26,0,0.48-0.21,0.48-0.48S37,12.35,36.73,12.35z"/>
	</g>
	<g>
		<g>
			<path d="M7.29,28.92H6.1c-0.13,0-0.24-0.11-0.24-0.24s0.11-0.24,0.24-0.24h1.19c0.13,0,0.24,0.11,0.24,0.24
				S7.43,28.92,7.29,28.92z"/>
		</g>
		<g>
			<path d="M38.72,28.92h-2.24c-0.13,0-0.24-0.11-0.24-0.24s0.11-0.24,0.24-0.24h2.24c0.13,0,0.24,0.11,0.24,0.24
				S38.85,28.92,38.72,28.92z M34.23,28.92h-2.24c-0.13,0-0.24-0.11-0.24-0.24s0.11-0.24,0.24-0.24h2.24c0.13,0,0.24,0.11,0.24,0.24
				S34.36,28.92,34.23,28.92z M29.74,28.92H27.5c-0.13,0-0.24-0.11-0.24-0.24s0.11-0.24,0.24-0.24h2.24c0.13,0,0.24,0.11,0.24,0.24
				S29.87,28.92,29.74,28.92z M25.25,28.92h-2.24c-0.13,0-0.24-0.11-0.24-0.24s0.11-0.24,0.24-0.24h2.24c0.13,0,0.24,0.11,0.24,0.24
				S25.38,28.92,25.25,28.92z M20.76,28.92h-2.24c-0.13,0-0.24-0.11-0.24-0.24s0.11-0.24,0.24-0.24h2.24c0.13,0,0.24,0.11,0.24,0.24
				S20.89,28.92,20.76,28.92z M16.27,28.92h-2.24c-0.13,0-0.24-0.11-0.24-0.24s0.11-0.24,0.24-0.24h2.24c0.13,0,0.24,0.11,0.24,0.24
				S16.4,28.92,16.27,28.92z M11.78,28.92H9.54c-0.13,0-0.24-0.11-0.24-0.24s0.11-0.24,0.24-0.24h2.24c0.13,0,0.24,0.11,0.24,0.24
				S11.91,28.92,11.78,28.92z"/>
		</g>
		<g>
			<path d="M42.15,28.92h-1.19c-0.13,0-0.24-0.11-0.24-0.24s0.11-0.24,0.24-0.24h1.19c0.13,0,0.24,0.11,0.24,0.24
				S42.29,28.92,42.15,28.92z"/>
		</g>
	</g>
	<g>
		<path d="M44.17,29.21l0.65-1.72h0.21l0.65,1.72h-0.3l-0.45-1.28l-0.45,1.28H44.17z M44.47,28.88v-0.27h0.91v0.27H44.47z"/>
		<path d="M46.28,28.81l0.28-0.82h0.29l-0.46,1.23h-0.21l-0.46-1.23H46L46.28,28.81z"/>
		<path d="M47.42,29.23c-0.13,0-0.24-0.05-0.31-0.14S47,28.88,47,28.71v-0.23c0-0.16,0.04-0.29,0.11-0.38
			c0.07-0.09,0.17-0.14,0.3-0.14c0.07,0,0.13,0.02,0.19,0.06c0.06,0.04,0.1,0.09,0.14,0.16l-0.02,0.26c0-0.05-0.01-0.09-0.02-0.12
			c-0.02-0.03-0.04-0.06-0.07-0.08c-0.03-0.02-0.07-0.03-0.11-0.03c-0.07,0-0.12,0.02-0.16,0.07c-0.04,0.05-0.06,0.11-0.06,0.19
			v0.23c0,0.08,0.02,0.14,0.06,0.19c0.04,0.04,0.09,0.07,0.16,0.07c0.05,0,0.08-0.01,0.11-0.03c0.03-0.02,0.06-0.04,0.07-0.08
			c0.02-0.03,0.02-0.07,0.02-0.12l0.02,0.27c-0.02,0.06-0.06,0.11-0.11,0.15C47.57,29.21,47.5,29.23,47.42,29.23z M47.46,29.71
			c-0.09,0-0.18-0.02-0.26-0.05c-0.08-0.03-0.13-0.08-0.17-0.15l0.19-0.17c0.03,0.04,0.06,0.06,0.11,0.08
			c0.04,0.02,0.08,0.03,0.13,0.03c0.08,0,0.14-0.02,0.19-0.07c0.05-0.04,0.07-0.11,0.07-0.19v-1.22H48v1.19
			c0,0.17-0.05,0.3-0.14,0.4C47.77,29.66,47.63,29.71,47.46,29.71z"/>
	</g>
</g>
</svg>
