<?xml version="1.0" encoding="utf-8"?>
<!-- Generator: Adobe Illustrator 26.0.1, SVG Export Plug-In . SVG Version: 6.00 Build 0)  -->
<svg version="1.1" id="Layer_1" xmlns="http://www.w3.org/2000/svg" xmlns:xlink="http://www.w3.org/1999/xlink" x="0px" y="0px"
	 viewBox="0 0 48 48" style="enable-background:new 0 0 48 48;" xml:space="preserve">
<g>
	<g id="grpahical_change_00000114035951729728743140000002083352330749811611_">
		<g>
			<g>
				<g>
					<g>
						<path d="M8.04,43.38H4.57c-0.51,0-0.93-0.41-0.93-0.93v-8.42c0-0.51,0.41-0.93,0.93-0.93h3.47c0.51,0,0.93,0.41,0.93,0.93
							v8.42C8.97,42.96,8.55,43.38,8.04,43.38z"/>
					</g>
				</g>
			</g>
			<g>
				<g>
					<g>
						<path d="M14.89,43.38h-3.47c-0.51,0-0.93-0.41-0.93-0.93V29.26c0-0.51,0.41-0.93,0.93-0.93h3.47c0.51,0,0.93,0.41,0.93,0.93
							v13.19C15.82,42.96,15.4,43.38,14.89,43.38z"/>
					</g>
				</g>
			</g>
			<g>
				<g>
					<g>
						<path d="M21.74,43.38h-3.47c-0.51,0-0.93-0.41-0.93-0.93v-18.7c0-0.51,0.41-0.93,0.93-0.93h3.47c0.51,0,0.93,0.41,0.93,0.93
							v18.7C22.67,42.96,22.25,43.38,21.74,43.38z"/>
					</g>
				</g>
			</g>
			<g>
				<g>
					<g>
						<path d="M28.59,43.38h-3.47c-0.51,0-0.93-0.41-0.93-0.93V18.07c0-0.51,0.41-0.93,0.93-0.93h3.47c0.51,0,0.93,0.41,0.93,0.93
							v24.39C29.52,42.96,29.11,43.38,28.59,43.38z"/>
					</g>
				</g>
			</g>
		</g>
		<g>
			<g>
				<g>
					<path d="M28.69,4.62l-4.52,3.67l1.05,0.68c-0.28,0.35-0.56,0.7-0.83,1.05l-1.14,1.37c-0.38,0.46-0.76,0.91-1.15,1.36
						l-1.16,1.35c-0.39,0.45-0.79,0.88-1.19,1.32l-0.6,0.66l-0.61,0.65c-0.41,0.43-0.81,0.86-1.23,1.29
						c-1.64,1.71-3.37,3.33-5.16,4.88c-1.8,1.54-3.66,3-5.66,4.27c-0.99,0.64-2.02,1.23-3.09,1.75c-0.53,0.25-1.07,0.5-1.63,0.71
						c-0.55,0.21-1.12,0.4-1.71,0.5c1.19-0.12,2.34-0.5,3.46-0.93c1.12-0.44,2.19-0.99,3.24-1.57c2.1-1.18,4.06-2.57,5.93-4.07
						c0.94-0.75,1.85-1.53,2.74-2.33c0.44-0.41,0.88-0.81,1.32-1.22l1.29-1.25c0.43-0.42,0.84-0.86,1.26-1.29l0.62-0.65l0.61-0.66
						c0.4-0.44,0.81-0.88,1.21-1.33l1.18-1.35c1.1-1.28,2.16-2.58,3.19-3.91l1.1,0.71L28.69,4.62z"/>
				</g>
			</g>
		</g>
	</g>
	<g>
		<g>
			<g>
				<path d="M38.63,35.8l1.58-4.21h0.5l1.58,4.21h-0.74l-1.09-3.14l-1.09,3.14H38.63z M39.37,35v-0.66h2.22V35H39.37z"/>
			</g>
		</g>
		<g>
			<g>
				<path d="M43.8,34.81l0.68-2.02h0.7l-1.13,3.01h-0.5l-1.13-3.01h0.7L43.8,34.81z"/>
			</g>
		</g>
		<g>
			<g>
				<path d="M46.58,35.85c-0.33,0-0.58-0.11-0.76-0.33s-0.27-0.53-0.27-0.93v-0.57c0-0.4,0.09-0.72,0.27-0.94
					c0.18-0.22,0.42-0.33,0.75-0.33c0.17,0,0.32,0.05,0.46,0.14c0.14,0.09,0.25,0.23,0.34,0.4l-0.06,0.64c0-0.12-0.02-0.21-0.06-0.3
					c-0.04-0.08-0.1-0.14-0.18-0.19c-0.08-0.04-0.17-0.06-0.28-0.06c-0.17,0-0.3,0.06-0.4,0.17c-0.09,0.11-0.14,0.27-0.14,0.47v0.57
					c0,0.2,0.05,0.35,0.14,0.46c0.09,0.11,0.23,0.16,0.4,0.16c0.11,0,0.2-0.02,0.28-0.07c0.08-0.04,0.14-0.11,0.18-0.19
					c0.04-0.08,0.06-0.18,0.06-0.29l0.04,0.66c-0.06,0.15-0.15,0.27-0.28,0.37S46.78,35.85,46.58,35.85z M46.68,37.02
					c-0.23,0-0.44-0.04-0.62-0.13c-0.18-0.08-0.33-0.2-0.43-0.36l0.47-0.43c0.07,0.09,0.16,0.16,0.26,0.21
					c0.1,0.05,0.21,0.07,0.32,0.07c0.19,0,0.35-0.05,0.46-0.16c0.12-0.11,0.17-0.26,0.17-0.45v-2.99H48v2.92
					c0,0.42-0.11,0.74-0.34,0.97C47.43,36.91,47.1,37.02,46.68,37.02z"/>
			</g>
		</g>
	</g>
	<g>
		<g>
			<g>
				<path d="M1.36,34.69H0.39C0.17,34.69,0,34.52,0,34.31s0.17-0.39,0.39-0.39h0.97c0.21,0,0.39,0.17,0.39,0.39
					S1.57,34.69,1.36,34.69z"/>
			</g>
		</g>
		<g>
			<g>
				<path d="M33.33,34.69h-2c-0.21,0-0.39-0.17-0.39-0.39s0.17-0.39,0.39-0.39h2c0.21,0,0.39,0.17,0.39,0.39
					S33.54,34.69,33.33,34.69z M29.33,34.69h-2c-0.21,0-0.39-0.17-0.39-0.39s0.17-0.39,0.39-0.39h2c0.21,0,0.39,0.17,0.39,0.39
					S29.55,34.69,29.33,34.69z M25.34,34.69h-2c-0.21,0-0.39-0.17-0.39-0.39s0.17-0.39,0.39-0.39h2c0.21,0,0.39,0.17,0.39,0.39
					S25.55,34.69,25.34,34.69z M21.34,34.69h-2c-0.21,0-0.39-0.17-0.39-0.39s0.17-0.39,0.39-0.39h2c0.21,0,0.39,0.17,0.39,0.39
					S21.55,34.69,21.34,34.69z M17.34,34.69h-2c-0.21,0-0.39-0.17-0.39-0.39s0.17-0.39,0.39-0.39h2c0.21,0,0.39,0.17,0.39,0.39
					S17.56,34.69,17.34,34.69z M13.35,34.69h-2c-0.21,0-0.39-0.17-0.39-0.39s0.17-0.39,0.39-0.39h2c0.21,0,0.39,0.17,0.39,0.39
					S13.56,34.69,13.35,34.69z M9.35,34.69h-2c-0.21,0-0.39-0.17-0.39-0.39s0.17-0.39,0.39-0.39h2c0.21,0,0.39,0.17,0.39,0.39
					S9.56,34.69,9.35,34.69z M5.35,34.69h-2c-0.21,0-0.39-0.17-0.39-0.39s0.17-0.39,0.39-0.39h2c0.21,0,0.39,0.17,0.39,0.39
					S5.57,34.69,5.35,34.69z"/>
			</g>
		</g>
		<g>
			<g>
				<path d="M36.3,34.69h-0.97c-0.21,0-0.39-0.17-0.39-0.39s0.17-0.39,0.39-0.39h0.97c0.21,0,0.39,0.17,0.39,0.39
					S36.51,34.69,36.3,34.69z"/>
			</g>
		</g>
	</g>
</g>
</svg>
