<?xml version="1.0" encoding="utf-8"?>
<!-- Generator: Adobe Illustrator 26.0.1, SVG Export Plug-In . SVG Version: 6.00 Build 0)  -->
<svg version="1.1" id="Layer_1" xmlns="http://www.w3.org/2000/svg" xmlns:xlink="http://www.w3.org/1999/xlink" x="0px" y="0px"
	 viewBox="0 0 48 48" style="enable-background:new 0 0 48 48;" xml:space="preserve">
<g id="Simulation_Setting_00000064342523527196570470000006405642880684608681_">
	<g>
		<g>
			<g>
				<path d="M33.72,40.59c-4.18,0-7.35-7.34-11.39-17.7l-0.44-1.14C18.65,13.43,14.99,4,11.61,4c-3.28,0-5.31,9.38-7.1,17.66
					l-0.12,0.55c-0.1,0.45-0.54,0.73-0.98,0.63c-0.45-0.1-0.73-0.54-0.63-0.98l0.12-0.55C5,11.56,6.99,2.34,11.61,2.34
					c4.51,0,8.06,9.14,11.82,18.82l0.44,1.13c2.73,7.02,6.48,16.65,9.85,16.65c3.37,0,7.12-9.62,9.85-16.65
					c0.17-0.43,0.64-0.64,1.07-0.47c0.43,0.17,0.64,0.64,0.47,1.07C41.08,33.26,37.9,40.59,33.72,40.59z"/>
			</g>
		</g>
		<g>
			<g>
				<rect x="25.35" y="22.12" width="22.65" height="0.94"/>
			</g>
		</g>
		<g>
			<g>
				<rect x="3.58" y="22.12" width="17.27" height="0.94"/>
			</g>
		</g>
		<g>
			<g>
				<rect x="2.55" y="3.17" width="0.94" height="36.6"/>
			</g>
		</g>
	</g>
	<g id="application_setting_00000135653935495094390060000012971918277850262693_">
		<g>
			<path d="M3.8,43.78c-0.14-0.01-0.27-0.09-0.39-0.16c-0.41-0.25-0.82-0.5-1.14-0.86c-0.32-0.36-0.53-0.84-0.44-1.31
				c0.07-0.42,0.36-0.76,0.58-1.13s0.37-0.83,0.17-1.21c-0.41-0.74-1.7-0.36-2.23-1.02c-0.12-0.15-0.18-0.33-0.23-0.51
				c-0.18-0.71-0.15-1.47,0.09-2.17c0.04-0.13,0.09-0.25,0.19-0.35c0.13-0.13,0.32-0.17,0.51-0.2c0.36-0.06,0.74-0.07,1.09-0.2
				c0.35-0.12,0.68-0.37,0.77-0.73c0.14-0.5-0.22-0.99-0.5-1.42c-0.63-0.97-0.01-1.82,0.8-2.47c0.36-0.28,0.83-0.46,1.28-0.35
				c0.37,0.09,0.67,0.36,0.99,0.57s0.72,0.39,1.08,0.26c0.43-0.15,0.61-0.65,0.7-1.1c0.09-0.44,0.18-0.94,0.54-1.22
				c0.25-0.2,0.59-0.24,0.91-0.27c0.73-0.08,1.59-0.11,2.04,0.48c0.26,0.34,0.29,0.79,0.37,1.2c0.08,0.42,0.27,0.87,0.66,1.02
				c0.74,0.28,1.37-0.68,2.15-0.79c0.68-0.09,1.25,0.47,1.69,0.98c0.27,0.3,0.54,0.64,0.56,1.05c0.02,0.45-0.29,0.84-0.55,1.21
				s-0.5,0.84-0.33,1.26c0.32,0.77,1.57,0.51,2.19,1.08c0.38,0.35,0.42,0.93,0.42,1.45c0,0.66-0.1,1.43-0.67,1.75
				c-0.45,0.25-1.03,0.1-1.5,0.32c-0.45,0.21-0.7,0.77-0.55,1.25c0.14,0.44,0.55,0.75,0.71,1.18c0.17,0.46,0.01,0.99-0.28,1.38
				s-0.7,0.68-1.1,0.96c-0.15,0.1-0.3,0.21-0.47,0.23c-0.2,0.03-0.4-0.04-0.58-0.13c-0.36-0.18-0.67-0.46-1.03-0.63
				c-0.36-0.18-0.82-0.24-1.15-0.01c-0.63,0.44-0.31,1.53-0.84,2.1c-0.26,0.28-0.67,0.36-1.05,0.38c-0.53,0.04-1.06,0-1.57-0.1
				c-0.15-0.03-0.31-0.07-0.42-0.18c-0.09-0.08-0.14-0.2-0.18-0.31c-0.13-0.4-0.15-0.83-0.27-1.23c-0.12-0.4-0.38-0.81-0.78-0.91
				c-0.68-0.18-1.25,0.53-1.9,0.81C4.03,43.76,3.91,43.79,3.8,43.78z M5.87,36.72c-0.02,1.7,1.33,3.07,3.04,3.07
				c1.66,0.01,3.01-1.34,3.01-3.01c0-1.67-1.33-3.03-2.99-3.03C7.24,33.74,5.89,35.06,5.87,36.72z"/>
		</g>
	</g>
</g>
</svg>
