<?xml version="1.0" encoding="utf-8"?>
<!-- Generator: Adobe Illustrator 26.0.1, SVG Export Plug-In . SVG Version: 6.00 Build 0)  -->
<svg version="1.1" id="Layer_1" xmlns="http://www.w3.org/2000/svg" xmlns:xlink="http://www.w3.org/1999/xlink" x="0px" y="0px"
	 viewBox="0 0 48 48" style="enable-background:new 0 0 48 48;" xml:space="preserve">
<g id="Table_Viw_00000071554054918337401960000007588586579484637374_">
	<g>
		<path d="M24,44.52c-5.74,0-10.07-1.87-10.07-4.36c0-2.17,3.27-3.89,8.13-4.28c0.17-0.01,0.33,0.04,0.45,0.16
			c0.12,0.11,0.19,0.27,0.19,0.44v3.09h2.58v-3.09c0-0.17,0.07-0.33,0.19-0.44c0.12-0.11,0.29-0.17,0.45-0.16
			c4.87,0.39,8.13,2.11,8.13,4.28C34.07,42.65,29.74,44.52,24,44.52z M21.51,37.14c-4.01,0.44-6.39,1.85-6.39,3.03
			c0,1.5,3.64,3.16,8.88,3.16c5.23,0,8.87-1.67,8.87-3.16c0-1.18-2.38-2.59-6.39-3.03v3.03c0,0.33-0.27,0.6-0.6,0.6h-3.78
			c-0.33,0-0.6-0.27-0.6-0.6V37.14z"/>
	</g>
	<g>
		<g>
			<path d="M24,19.66c-10.99,0-20.54-2.44-23.21-5.94C0.27,13.03,0,12.31,0,11.57C0,6.5,12.2,3.48,24,3.48s24,3.03,24,8.09
				c0,0.74-0.27,1.46-0.79,2.15C44.54,17.22,34.99,19.66,24,19.66z M24,4.67c-13.64,0-22.8,3.57-22.8,6.9
				c0,0.47,0.18,0.95,0.54,1.42c2.42,3.17,11.78,5.48,22.26,5.48s19.84-2.3,22.26-5.47c0.36-0.47,0.54-0.95,0.54-1.42
				C46.8,8.24,37.64,4.67,24,4.67z"/>
		</g>
		<g>
			<path d="M24,23.23c-0.64,0-1.28-0.01-1.9-0.02C11.12,22.92,0,20.06,0,15.14v-3.57c0-0.33,0.27-0.6,0.6-0.6s0.6,0.27,0.6,0.6
				c0,0.47,0.18,0.95,0.54,1.42c2.42,3.17,11.78,5.48,22.26,5.48s19.84-2.3,22.26-5.47c0.36-0.47,0.54-0.95,0.54-1.42
				c0-0.33,0.27-0.6,0.6-0.6c0.33,0,0.6,0.27,0.6,0.6v3.57c0,4.93-11.12,7.79-22.1,8.07C25.28,23.22,24.64,23.23,24,23.23z
				 M1.2,14.19v0.95c0,3.05,8,6.54,20.93,6.87c1.24,0.03,2.51,0.03,3.75,0c12.93-0.33,20.93-3.82,20.93-6.87v-0.95
				c-3.13,3.25-12.31,5.48-22.8,5.48S4.33,17.43,1.2,14.19z"/>
		</g>
	</g>
	<g>
		<path d="M25.89,40.76h-3.78c-0.33,0-0.6-0.27-0.6-0.6V22.61c0-0.16,0.06-0.32,0.18-0.43c0.12-0.11,0.26-0.18,0.43-0.17
			c1.23,0.03,2.51,0.03,3.74,0c0.15-0.01,0.32,0.06,0.43,0.17c0.12,0.11,0.18,0.27,0.18,0.43v17.56
			C26.49,40.49,26.22,40.76,25.89,40.76z M22.71,39.57h2.58V23.22c-0.85,0.01-1.73,0.01-2.58,0V39.57z"/>
	</g>
</g>
</svg>
