<?xml version="1.0" encoding="utf-8"?>
<!-- Generator: Adobe Illustrator 26.0.1, SVG Export Plug-In . SVG Version: 6.00 Build 0)  -->
<svg version="1.1" id="Layer_1" xmlns="http://www.w3.org/2000/svg" xmlns:xlink="http://www.w3.org/1999/xlink" x="0px" y="0px"
	 viewBox="0 0 48 48" style="enable-background:new 0 0 48 48;" xml:space="preserve">
<g>
	<g>
		<path d="M47.41,39.98H0.59C0.26,39.98,0,39.72,0,39.4V8.6c0-0.32,0.26-0.59,0.59-0.59h46.83C47.74,8.02,48,8.28,48,8.6v30.8
			C48,39.72,47.74,39.98,47.41,39.98z M1.17,38.81h45.66V9.19H1.17V38.81z"/>
	</g>
	<g>
		<g>
			<path d="M30.79,17.71c-1.41,0.08-1.72,0.52-1.9,1.28c-0.21,0.74-0.52,2.05-1.26,5.89c-0.74,3.95-2.19,6.01-5.87,5.99
				c-2.81-0.02-5.04-1.41-4.2-5.77l1.1-5.58c0.29-1.57,0.1-1.65-1.59-1.82l0.12-0.58h5.44l-0.1,0.58c-1.65,0.17-1.84,0.21-2.15,1.82
				l-1.07,5.52c-0.68,3.45,0.74,4.73,2.94,4.73c2.52,0,3.76-1.28,4.46-4.86c0.76-3.95,0.99-5.25,1.05-6.04
				c0.06-0.87-0.31-1.07-1.86-1.18l0.14-0.58h4.9L30.79,17.71z"/>
		</g>
	</g>
</g>
</svg>
