<?xml version="1.0" encoding="utf-8"?>
<!-- Generator: Adobe Illustrator 26.0.1, SVG Export Plug-In . SVG Version: 6.00 Build 0)  -->
<svg version="1.1" id="Layer_1" xmlns="http://www.w3.org/2000/svg" xmlns:xlink="http://www.w3.org/1999/xlink" x="0px" y="0px"
	 viewBox="0 0 48 48" style="enable-background:new 0 0 48 48;" xml:space="preserve">
<style type="text/css">
	.st0{fill:#FFFFFF;}
</style>
<g id="Welcome_Sign_00000175283197660749717410000014459008464881008281_">
	<g>
		<g>
			<path d="M8.21,26.46c-1.24,0-2.24-1.01-2.24-2.24V2.4c0-1.24,1.01-2.24,2.24-2.24h31.57c1.24,0,2.24,1.01,2.24,2.24v21.82
				c0,1.24-1.01,2.24-2.24,2.24H8.21z"/>
		</g>
		<g>
			<path d="M39.79,0.31c1.15,0,2.09,0.94,2.09,2.09v21.82c0,1.15-0.94,2.09-2.09,2.09H8.21c-1.15,0-2.09-0.94-2.09-2.09V2.4
				c0-1.15,0.94-2.09,2.09-2.09H39.79 M39.79,0H8.21c-1.32,0-2.4,1.07-2.4,2.4v21.82c0,1.32,1.07,2.4,2.4,2.4h31.57
				c1.32,0,2.4-1.07,2.4-2.4V2.4C42.18,1.07,41.11,0,39.79,0L39.79,0z"/>
		</g>
	</g>
	<g>
		<g>
			<polygon class="st0" points="20.48,11.4 21.45,11.4 22.7,5.96 21.65,5.96 20.95,9.59 19.91,5.96 19.08,5.96 18.04,9.59 
				17.34,5.96 16.29,5.96 17.54,11.4 18.51,11.4 19.52,7.6 			"/>
		</g>
		<g>
			<polygon class="st0" points="27.02,11.4 27.02,10.42 24.4,10.42 24.4,9.2 26.61,9.2 26.61,8.21 24.4,8.21 24.4,6.95 27.02,6.95 
				27.02,5.96 24.4,5.96 23.75,5.96 23.38,5.96 23.38,11.4 23.75,11.4 24.4,11.4 			"/>
		</g>
		<g>
			<polygon class="st0" points="31.6,10.42 28.98,10.42 28.98,5.96 27.96,5.96 27.96,11.4 28.41,11.4 28.98,11.4 31.6,11.4 			"/>
		</g>
		<g>
			<path class="st0" d="M15.78,16.39c0.16-0.18,0.38-0.26,0.67-0.26c0.15,0,0.28,0.03,0.4,0.1c0.12,0.07,0.22,0.16,0.3,0.29
				c0.08,0.13,0.15,0.28,0.19,0.46h1.06c-0.07-0.4-0.19-0.74-0.36-1.02c-0.18-0.28-0.4-0.49-0.67-0.64s-0.57-0.22-0.92-0.22
				c-0.42,0-0.77,0.08-1.06,0.24c-0.29,0.16-0.52,0.39-0.67,0.69c-0.15,0.3-0.23,0.67-0.23,1.1v1.49c0,0.43,0.08,0.8,0.23,1.1
				c0.15,0.3,0.38,0.53,0.67,0.69c0.29,0.16,0.65,0.24,1.06,0.24c0.34,0,0.65-0.07,0.92-0.22c0.27-0.15,0.49-0.36,0.66-0.64
				c0.18-0.28,0.3-0.62,0.37-1.02h-1.06c-0.06,0.27-0.16,0.48-0.32,0.63c-0.15,0.15-0.34,0.22-0.57,0.22
				c-0.29,0-0.51-0.09-0.67-0.26c-0.16-0.17-0.24-0.42-0.24-0.74v-1.49C15.54,16.82,15.62,16.57,15.78,16.39z"/>
		</g>
		<g>
			<path class="st0" d="M22.1,15.35c-0.3-0.17-0.65-0.25-1.05-0.25c-0.4,0-0.75,0.08-1.05,0.25c-0.3,0.17-0.53,0.4-0.69,0.7
				c-0.16,0.3-0.25,0.65-0.25,1.06v1.54c0,0.4,0.08,0.75,0.25,1.06s0.4,0.54,0.69,0.7c0.3,0.17,0.65,0.25,1.05,0.25
				c0.4,0,0.75-0.08,1.05-0.25c0.3-0.17,0.53-0.4,0.69-0.7s0.25-0.65,0.25-1.06v-1.54c0-0.4-0.08-0.76-0.25-1.06
				C22.63,15.75,22.4,15.52,22.1,15.35z M21.98,18.68c0,0.29-0.08,0.52-0.25,0.69c-0.17,0.17-0.39,0.26-0.67,0.26
				c-0.28,0-0.5-0.09-0.67-0.26c-0.17-0.17-0.25-0.41-0.25-0.69v-1.59c0-0.29,0.08-0.52,0.25-0.69c0.17-0.17,0.39-0.26,0.67-0.26
				c0.28,0,0.5,0.09,0.67,0.26c0.17,0.17,0.25,0.4,0.25,0.69V18.68z"/>
		</g>
		<g>
			<polygon class="st0" points="26.44,18.83 25.41,15.16 24.05,15.16 24.05,20.6 24.99,20.6 24.99,16.81 25.99,19.99 26.89,19.99 
				27.9,16.74 27.9,20.6 28.83,20.6 28.83,15.16 27.48,15.16 			"/>
		</g>
		<g>
			<polygon class="st0" points="33.67,16.15 33.67,15.16 31.05,15.16 30.4,15.16 30.03,15.16 30.03,20.6 30.4,20.6 31.05,20.6 
				33.67,20.6 33.67,19.61 31.05,19.61 31.05,18.39 33.26,18.39 33.26,17.4 31.05,17.4 31.05,16.15 			"/>
		</g>
	</g>
	<g>
		<g>
			<rect x="22.44" y="26.17" width="3.13" height="21.83"/>
		</g>
	</g>
</g>
</svg>
