<?xml version="1.0" encoding="utf-8"?>
<!-- Generator: Adobe Illustrator 26.0.1, SVG Export Plug-In . SVG Version: 6.00 Build 0)  -->
<svg version="1.1" id="Layer_1" xmlns="http://www.w3.org/2000/svg" xmlns:xlink="http://www.w3.org/1999/xlink" x="0px" y="0px"
	 viewBox="0 0 256 256" style="enable-background:new 0 0 256 256;" xml:space="preserve">
<style type="text/css">
	.st0{fill:#4259C3;}
</style>
<g>
	<g>
		<path class="st0" d="M105.11,72.99c3.91-19.55,9.91-38.58,22.42-52.4C139.52,7.04,154.91,0,165.33,0
			c9.13,0,16.69,5.21,16.69,10.69c0,3.91-4.44,10.43-7.83,13.04c-2.08,1.56-4.17,1.82-5.99,0c-5.99-6.52-12.51-9.91-17.99-9.91
			c-9.9,0-16.94,10.95-25.02,59.18h29.46l-4.95,9.38c-4.43,0.26-19.03,1.31-26.07,1.31c-4.95,28.67-7.82,45.36-13.55,76.12
			c-8.86,46.14-18.51,64.13-32.85,78.99C65.75,251.31,53.24,256,46.98,256c-9.65,0-16.68-4.95-16.68-11.47
			c0-4.43,3.65-11.21,8.08-14.34c1.83-1.3,3.91-1.3,4.96,0c5.21,4.43,10.43,8.86,16.95,8.86c14.86,0,19.29-18.25,28.15-70.12
			c6.26-35.45,10.43-59.44,14.6-85.25H80.87l0.26-3.13l7.3-7.56H105.11z"/>
	</g>
	<g>
		<path class="st0" d="M225.71,158.04c-1.49,6.24-3.12,16.13-4.34,23.46l-4.2,0.27c0-2.17,0-5.15-0.54-7.46
			c-0.68-5.97-2.3-8.14-14.64-8.14h-8.27l-12.75,66.57c-2.03,10.98-0.95,11.66,11.39,12.61l-0.81,3.8h-37.29l0.95-3.8
			c11.52-0.95,12.47-1.76,14.5-12.61l12.75-66.57h-8.13c-10.85,0-13.15,1.76-15.59,5.29c-1.9,2.44-4.06,5.97-6.1,10.44l-4.34-0.41
			c2.17-7.87,4.34-16,5.56-23.46h3.12c1.35,3.12,2.85,2.98,6.51,2.98h52.06c3.53,0,4.48-0.41,7.05-2.98H225.71z"/>
	</g>
</g>
</svg>
