<?xml version="1.0" encoding="utf-8"?>
<!-- Generator: Adobe Illustrator 26.0.1, SVG Export Plug-In . SVG Version: 6.00 Build 0)  -->
<svg version="1.1" id="Layer_1" xmlns="http://www.w3.org/2000/svg" xmlns:xlink="http://www.w3.org/1999/xlink" x="0px" y="0px"
	 viewBox="0 0 256 256" style="enable-background:new 0 0 256 256;" xml:space="preserve">
<style type="text/css">
	.st0{fill:#4259C3;}
</style>
<g>
	<g>
		<path class="st0" d="M99.17,65.31c3.5-17.49,8.86-34.52,20.06-46.88C129.96,6.3,143.72,0,153.05,0c8.16,0,14.93,4.66,14.93,9.56
			c0,3.5-3.97,9.33-7,11.66c-1.87,1.4-3.73,1.63-5.37,0c-5.36-5.83-11.19-8.86-16.09-8.86c-8.86,0-15.16,9.79-22.39,52.95h26.36
			l-4.43,8.4c-3.96,0.23-17.03,1.17-23.32,1.17c-4.43,25.65-7,40.58-12.13,68.11c-7.93,41.28-16.56,57.38-29.39,70.67
			c-10.27,11.2-21.46,15.39-27.06,15.39c-8.63,0-14.93-4.43-14.93-10.26c0-3.96,3.27-10.03,7.23-12.83c1.63-1.16,3.5-1.16,4.43,0
			c4.67,3.96,9.33,7.93,15.16,7.93c13.29,0,17.26-16.33,25.19-62.74c5.6-31.72,9.33-53.18,13.06-76.27H77.48l0.23-2.8l6.53-6.76
			H99.17z"/>
	</g>
	<g>
		<path class="st0" d="M207.07,141.4c-1.33,5.58-2.79,14.43-3.88,20.98l-3.76,0.24c0-1.94,0-4.61-0.48-6.67
			c-0.61-5.34-2.06-7.28-13.1-7.28h-7.4l-11.4,59.56c-1.82,9.83-0.85,10.43,10.19,11.28l-0.73,3.4h-33.36l0.85-3.4
			c10.31-0.85,11.16-1.58,12.98-11.28l11.4-59.56h-7.28c-9.71,0-11.77,1.58-13.95,4.73c-1.7,2.18-3.64,5.34-5.46,9.34l-3.88-0.37
			c1.94-7.04,3.88-14.31,4.97-20.98h2.79c1.21,2.79,2.55,2.67,5.82,2.67h46.58c3.16,0,4.01-0.37,6.31-2.67H207.07z"/>
	</g>
	<g>
		<path class="st0" d="M209.38,206.71c7.31,0,12.42,5.11,12.42,11.27c0,2.29-0.69,4.5-2.13,6.17c-0.69,0.76-2.97,2.44-6.32,4.88
			c5.25,2.89,10.43,6.55,10.43,13.18c0,8.91-8.07,13.79-15.31,13.79c-8.46,0-14.7-4.88-14.7-12.57c0-3.88,1.68-6.02,3.5-7.54
			c1.22-1.07,4.19-3.05,6.86-4.72c-4.95-2.89-8.45-6.55-8.45-11.96C195.66,212.58,201.07,206.71,209.38,206.71z M209.38,253.41
			c5.1,0,8.23-3.35,8.23-8.91c0-6.09-5.11-9.06-11.27-12.04c-4.12,2.36-6.4,5.94-6.4,10.44
			C199.93,249.91,204.34,253.41,209.38,253.41z M208.38,209.23c-4.57,0-6.93,3.58-6.93,7.84c0,5.56,3.73,7.62,9.67,10.74
			c2.97-2.29,5.03-4.95,5.03-9.45C216.15,211.97,212.35,209.23,208.38,209.23z"/>
	</g>
</g>
</svg>
