<?xml version="1.0" encoding="utf-8"?>
<!-- Generator: Adobe Illustrator 26.0.1, SVG Export Plug-In . SVG Version: 6.00 Build 0)  -->
<svg version="1.1" id="Layer_1" xmlns="http://www.w3.org/2000/svg" xmlns:xlink="http://www.w3.org/1999/xlink" x="0px" y="0px"
	 viewBox="0 0 256 256" style="enable-background:new 0 0 256 256;" xml:space="preserve">
<style type="text/css">
	.st0{fill:#4259C3;}
</style>
<g>
	<g>
		<path class="st0" d="M99,65.25c3.5-17.48,8.86-34.49,20.04-46.84C129.77,6.29,143.52,0,152.84,0c8.16,0,14.91,4.66,14.91,9.55
			c0,3.5-3.96,9.32-6.99,11.65c-1.86,1.4-3.73,1.63-5.36,0c-5.36-5.83-11.19-8.86-16.08-8.86c-8.85,0-15.14,9.79-22.37,52.9h26.33
			l-4.43,8.39c-3.96,0.23-17.01,1.17-23.3,1.17c-4.43,25.63-6.99,40.55-12.12,68.05c-7.92,41.25-16.54,57.33-29.36,70.61
			c-10.25,11.19-21.44,15.38-27.03,15.38c-8.62,0-14.91-4.43-14.91-10.25c0-3.96,3.26-10.02,7.22-12.82c1.63-1.16,3.5-1.16,4.43,0
			c4.66,3.96,9.32,7.92,15.15,7.92c13.28,0,17.25-16.31,25.17-62.68c5.6-31.69,9.32-53.13,13.05-76.2H77.33l0.23-2.8l6.53-6.76H99z"
			/>
	</g>
	<g>
		<path class="st0" d="M206.81,141.27c-1.33,5.57-2.79,14.42-3.88,20.97l-3.76,0.24c0-1.94,0-4.61-0.48-6.67
			c-0.61-5.33-2.06-7.27-13.09-7.27h-7.39l-11.39,59.51c-1.82,9.82-0.85,10.42,10.18,11.27l-0.73,3.39h-33.33l0.85-3.39
			c10.3-0.85,11.15-1.58,12.97-11.27l11.39-59.51h-7.27c-9.7,0-11.76,1.58-13.94,4.73c-1.69,2.18-3.63,5.33-5.45,9.33l-3.88-0.36
			c1.94-7.03,3.88-14.3,4.97-20.97h2.79c1.21,2.79,2.54,2.67,5.81,2.67h46.54c3.15,0,4-0.36,6.3-2.67H206.81z"/>
	</g>
	<g>
		<path class="st0" d="M216.34,232.79l-5.1,2.59c-1.68,0.84-3.12,1.14-4.57,1.14c-8.15,0-13.7-6.24-13.7-14.23
			c0-7.46,5.78-15.75,15.6-15.75s15.3,8.68,15.3,19.03c0,14-8.83,24.43-19.25,28.47c-3.12,1.22-7.08,1.83-9.06,1.98l-0.61-2.21
			C205.77,251.81,213.83,244.58,216.34,232.79z M207.67,209.19c-5.94,0-7.99,5.63-7.99,10.96c0,6.7,3.73,12.25,10.12,12.25
			c2.74,0,5.25-0.99,6.85-2.21c0.23-1.67,0.3-3.5,0.3-4.95C216.95,218.48,215.05,209.19,207.67,209.19z"/>
	</g>
</g>
</svg>
