<?xml version="1.0" encoding="utf-8"?>
<!-- Generator: Adobe Illustrator 26.0.1, SVG Export Plug-In . SVG Version: 6.00 Build 0)  -->
<svg version="1.1" id="Layer_1" xmlns="http://www.w3.org/2000/svg" xmlns:xlink="http://www.w3.org/1999/xlink" x="0px" y="0px"
	 viewBox="0 0 256 256" style="enable-background:new 0 0 256 256;" xml:space="preserve">
<style type="text/css">
	.st0{fill:#4259C3;}
</style>
<g>
	<g>
		<path class="st0" d="M80.32,65.31c3.5-17.49,8.86-34.52,20.06-46.88C111.11,6.3,124.87,0,134.2,0c8.16,0,14.93,4.66,14.93,9.56
			c0,3.5-3.96,9.33-7,11.66c-1.87,1.4-3.73,1.63-5.36,0c-5.37-5.83-11.2-8.86-16.1-8.86c-8.86,0-15.16,9.79-22.39,52.95h26.36
			l-4.43,8.4c-3.96,0.23-17.03,1.17-23.32,1.17c-4.43,25.65-7,40.58-12.13,68.11c-7.93,41.28-16.56,57.38-29.39,70.67
			c-10.26,11.2-21.46,15.39-27.06,15.39c-8.63,0-14.93-4.43-14.93-10.26c0-3.96,3.26-10.03,7.23-12.83c1.64-1.16,3.5-1.16,4.43,0
			c4.67,3.96,9.33,7.93,15.16,7.93c13.3,0,17.26-16.33,25.19-62.74c5.6-31.72,9.33-53.18,13.06-76.27H58.63l0.23-2.8l6.53-6.76
			H80.32z"/>
	</g>
	<g>
		<path class="st0" d="M188.22,141.4c-1.33,5.58-2.79,14.44-3.88,20.99l-3.76,0.24c0-1.94,0-4.61-0.48-6.67
			c-0.61-5.34-2.06-7.28-13.1-7.28h-7.4l-11.4,59.56c-1.82,9.83-0.85,10.43,10.19,11.28l-0.73,3.4h-33.36l0.85-3.4
			c10.31-0.85,11.16-1.58,12.98-11.28l11.4-59.56h-7.28c-9.71,0-11.77,1.58-13.95,4.73c-1.7,2.18-3.64,5.34-5.46,9.34l-3.88-0.36
			c1.94-7.04,3.88-14.31,4.97-20.99h2.79c1.21,2.79,2.55,2.67,5.82,2.67h46.58c3.16,0,4.01-0.36,6.31-2.67H188.22z"/>
	</g>
	<g>
		<path class="st0" d="M178.34,255.09v-2.13c8.45-0.53,8.91-0.91,8.91-6.63v-29.25c0-3.89-0.53-4.04-3.89-4.34l-3.73-0.38v-1.9
			c5.03-0.84,10.06-2.06,13.94-3.73v39.61c0,5.79,0.45,6.09,8.99,6.63v2.13H178.34z"/>
		<path class="st0" d="M226.93,206.71c11.43,0,15.69,12.8,15.69,24.61c0,11.12-4.27,24.68-15.69,24.68
			c-11.66,0-15.92-12.57-15.92-24.61C211.01,220.27,215.35,206.71,226.93,206.71z M226.93,209.38c-7.09,0-8.84,11.2-8.84,21.86
			c0,10.67,2.13,22.09,8.84,22.09c6.86,0,8.68-11.35,8.68-22.02C235.62,220.58,233.71,209.38,226.93,209.38z"/>
	</g>
</g>
</svg>
