<?xml version="1.0" encoding="utf-8"?>
<!-- Generator: Adobe Illustrator 26.0.1, SVG Export Plug-In . SVG Version: 6.00 Build 0)  -->
<svg version="1.1" id="Layer_1" xmlns="http://www.w3.org/2000/svg" xmlns:xlink="http://www.w3.org/1999/xlink" x="0px" y="0px"
	 viewBox="0 0 256 256" style="enable-background:new 0 0 256 256;" xml:space="preserve">
<style type="text/css">
	.st0{fill:#4259C3;}
</style>
<g>
	<g>
		<path class="st0" d="M98.68,65.35c3.5-17.51,8.87-34.55,20.07-46.92C129.49,6.3,143.26,0,152.6,0c8.17,0,14.94,4.67,14.94,9.57
			c0,3.5-3.97,9.34-7,11.67c-1.87,1.4-3.73,1.63-5.37,0c-5.37-5.84-11.2-8.87-16.1-8.87c-8.87,0-15.17,9.8-22.41,52.98h26.38
			l-4.44,8.4c-3.97,0.23-17.04,1.17-23.34,1.17c-4.44,25.67-7,40.61-12.14,68.16c-7.94,41.31-16.57,57.42-29.41,70.72
			c-10.27,11.2-21.47,15.41-27.08,15.41c-8.64,0-14.94-4.44-14.94-10.27c0-3.97,3.27-10.04,7.24-12.84c1.63-1.17,3.5-1.17,4.44,0
			c4.67,3.97,9.33,7.94,15.17,7.94c13.3,0,17.27-16.34,25.21-62.79c5.6-31.74,9.34-53.22,13.07-76.33H76.97l0.23-2.8l6.54-6.77
			H98.68z"/>
	</g>
	<g>
		<path class="st0" d="M206.66,141.5c-1.33,5.58-2.79,14.45-3.88,21l-3.76,0.24c0-1.94,0-4.61-0.48-6.68
			c-0.61-5.34-2.06-7.28-13.11-7.28h-7.41l-11.41,59.61c-1.82,9.83-0.85,10.44,10.2,11.29l-0.73,3.4h-33.38l0.85-3.4
			c10.32-0.85,11.17-1.58,12.99-11.29l11.41-59.61h-7.28c-9.71,0-11.78,1.58-13.96,4.74c-1.7,2.19-3.64,5.34-5.46,9.35l-3.88-0.36
			c1.94-7.04,3.88-14.33,4.98-21h2.79c1.21,2.79,2.55,2.67,5.82,2.67h46.61c3.16,0,4.01-0.36,6.31-2.67H206.66z"/>
	</g>
	<g>
		<g>
			<path class="st0" d="M224.31,256h-29.7v-45.87h29.7V256z M197.13,253.48h24.65v-40.83h-24.65V253.48z"/>
		</g>
	</g>
</g>
</svg>
