<?xml version="1.0" encoding="utf-8"?>
<!-- Generator: Adobe Illustrator 26.0.1, SVG Export Plug-In . SVG Version: 6.00 Build 0)  -->
<svg version="1.1" id="Layer_1" xmlns="http://www.w3.org/2000/svg" xmlns:xlink="http://www.w3.org/1999/xlink" x="0px" y="0px"
	 viewBox="0 0 256 256" style="enable-background:new 0 0 256 256;" xml:space="preserve">
<style type="text/css">
	.st0{fill:#4259C3;}
</style>
<g>
	<g>
		<path class="st0" d="M98.75,65.31c3.5-17.49,8.86-34.52,20.06-46.88C129.54,6.3,143.3,0,152.63,0c8.16,0,14.93,4.66,14.93,9.56
			c0,3.5-3.96,9.33-7,11.66c-1.87,1.4-3.73,1.63-5.36,0c-5.37-5.83-11.2-8.86-16.1-8.86c-8.86,0-15.16,9.79-22.39,52.95h26.36
			l-4.43,8.4c-3.96,0.23-17.03,1.17-23.32,1.17c-4.43,25.65-7,40.58-12.13,68.11c-7.93,41.28-16.56,57.38-29.39,70.67
			c-10.26,11.2-21.46,15.39-27.06,15.39c-8.63,0-14.93-4.43-14.93-10.26c0-3.96,3.26-10.03,7.23-12.83c1.64-1.16,3.5-1.16,4.43,0
			c4.67,3.96,9.33,7.93,15.16,7.93c13.3,0,17.26-16.33,25.19-62.74c5.6-31.72,9.33-53.18,13.06-76.27H77.06l0.23-2.8l6.53-6.76
			H98.75z"/>
	</g>
	<g>
		<path class="st0" d="M206.65,141.4c-1.33,5.58-2.79,14.43-3.88,20.98l-3.76,0.24c0-1.94,0-4.61-0.48-6.67
			c-0.61-5.34-2.06-7.28-13.1-7.28h-7.4l-11.4,59.56c-1.82,9.83-0.85,10.43,10.19,11.28l-0.73,3.4h-33.36l0.85-3.4
			c10.31-0.85,11.16-1.58,12.98-11.28l11.4-59.56h-7.28c-9.71,0-11.77,1.58-13.95,4.73c-1.7,2.18-3.64,5.34-5.46,9.34l-3.88-0.37
			c1.94-7.04,3.88-14.31,4.97-20.98h2.79c1.21,2.79,2.55,2.67,5.82,2.67h46.58c3.16,0,4.01-0.37,6.31-2.67H206.65z"/>
	</g>
	<g>
		<path class="st0" d="M205.68,226.36c1.6-0.84,3.35-1.29,4.88-1.29c8.07,0,13.64,6.32,13.64,14.09c0,9.14-6.55,16.84-15.7,16.84
			c-8.99,0-15.85-7.39-15.85-19.04c0-15.69,11.96-25.6,21.1-28.72c1.68-0.61,5.48-1.45,8.61-1.98l0.45,2.52
			c-2.44,0.53-6.02,1.52-8.3,2.59c-4.65,2.13-11.88,7.16-13.94,17.6L205.68,226.36z M207.51,229.41c-3.05,0-5.64,1.14-7.39,2.13
			c-0.3,1.37-0.46,3.28-0.46,5.18c0,9.52,3.58,16.53,10.06,16.53c5.95,0,7.77-6.25,7.77-11.35
			C217.49,235.58,214.44,229.41,207.51,229.41z"/>
	</g>
</g>
</svg>
