<?xml version="1.0" encoding="utf-8"?>
<!-- Generator: Adobe Illustrator 26.0.1, SVG Export Plug-In . SVG Version: 6.00 Build 0)  -->
<svg version="1.1" id="Layer_1" xmlns="http://www.w3.org/2000/svg" xmlns:xlink="http://www.w3.org/1999/xlink" x="0px" y="0px"
	 viewBox="0 0 256 256" style="enable-background:new 0 0 256 256;" xml:space="preserve">
<style type="text/css">
	.st0{fill:#4259C3;}
</style>
<g>
	<g>
		<path class="st0" d="M98.38,65.37c3.5-17.51,8.87-34.55,20.08-46.92C129.2,6.3,142.97,0,152.31,0c8.17,0,14.94,4.67,14.94,9.57
			c0,3.5-3.97,9.34-7.01,11.67c-1.86,1.4-3.73,1.63-5.37,0c-5.37-5.84-11.2-8.87-16.11-8.87c-8.87,0-15.17,9.8-22.41,52.99h26.38
			l-4.44,8.4c-3.97,0.23-17.04,1.17-23.35,1.17c-4.44,25.68-7,40.62-12.14,68.17c-7.94,41.32-16.58,57.43-29.41,70.73
			c-10.27,11.21-21.48,15.41-27.08,15.41c-8.64,0-14.94-4.44-14.94-10.27c0-3.97,3.27-10.04,7.24-12.84c1.64-1.17,3.5-1.17,4.44,0
			c4.67,3.97,9.34,7.94,15.17,7.94c13.3,0,17.28-16.34,25.21-62.8c5.6-31.75,9.34-53.23,13.07-76.34H76.67l0.23-2.8l6.54-6.77H98.38
			z"/>
	</g>
	<g>
		<path class="st0" d="M206.38,141.52c-1.34,5.58-2.79,14.45-3.88,21l-3.76,0.24c0-1.95,0-4.62-0.48-6.68
			c-0.61-5.34-2.06-7.29-13.11-7.29h-7.41l-11.41,59.62c-1.82,9.83-0.85,10.44,10.2,11.29l-0.73,3.4h-33.39l0.85-3.4
			c10.32-0.85,11.17-1.58,12.99-11.29l11.41-59.62h-7.28c-9.72,0-11.78,1.58-13.97,4.74c-1.7,2.19-3.64,5.34-5.46,9.35l-3.88-0.37
			c1.94-7.04,3.88-14.33,4.98-21h2.79c1.21,2.79,2.55,2.67,5.83,2.67h46.62c3.16,0,4.01-0.37,6.31-2.67H206.38z"/>
	</g>
	<g>
		<path class="st0" d="M224.62,208.8c-7.32,15.48-14.41,30.88-21.81,46.66l-5.49,0.53l-0.53-0.84
			c7.93-12.89,16.31-28.67,22.34-41.71h-16.32c-4.96,0-5.26,0.69-7.32,5.72h-2.36c0.76-4.27,1.06-8.08,1.45-11.36h29.58
			L224.62,208.8z"/>
	</g>
</g>
</svg>
