<?xml version="1.0" encoding="utf-8"?>
<!-- Generator: Adobe Illustrator 26.0.1, SVG Export Plug-In . SVG Version: 6.00 Build 0)  -->
<svg version="1.1" id="Layer_1" xmlns="http://www.w3.org/2000/svg" xmlns:xlink="http://www.w3.org/1999/xlink" x="0px" y="0px"
	 viewBox="0 0 256 256" style="enable-background:new 0 0 256 256;" xml:space="preserve">
<style type="text/css">
	.st0{fill:#4259C3;}
</style>
<g>
	<g>
		<path class="st0" d="M99.4,65.31c3.5-17.49,8.86-34.52,20.06-46.88C130.19,6.3,143.95,0,153.28,0c8.16,0,14.93,4.66,14.93,9.56
			c0,3.5-3.96,9.33-7,11.66c-1.87,1.4-3.73,1.63-5.36,0c-5.37-5.83-11.2-8.86-16.1-8.86c-8.86,0-15.16,9.79-22.39,52.95h26.36
			l-4.43,8.4c-3.96,0.23-17.03,1.17-23.32,1.17c-4.43,25.65-7,40.58-12.13,68.11c-7.93,41.28-16.56,57.38-29.39,70.67
			c-10.26,11.2-21.46,15.39-27.06,15.39c-8.63,0-14.93-4.43-14.93-10.26c0-3.96,3.26-10.03,7.23-12.83c1.64-1.16,3.5-1.16,4.43,0
			c4.67,3.96,9.33,7.93,15.16,7.93c13.3,0,17.26-16.33,25.19-62.74c5.6-31.72,9.33-53.18,13.06-76.27H77.71l0.23-2.8l6.53-6.76H99.4
			z"/>
	</g>
	<g>
		<path class="st0" d="M207.3,141.4c-1.33,5.58-2.79,14.43-3.88,20.98l-3.76,0.24c0-1.94,0-4.61-0.48-6.67
			c-0.61-5.34-2.06-7.28-13.1-7.28h-7.4l-11.4,59.56c-1.82,9.83-0.85,10.43,10.19,11.28l-0.73,3.4h-33.36l0.85-3.4
			c10.31-0.85,11.16-1.58,12.98-11.28l11.4-59.56h-7.28c-9.71,0-11.77,1.58-13.95,4.73c-1.7,2.18-3.64,5.34-5.46,9.34l-3.88-0.37
			c1.94-7.04,3.88-14.31,4.97-20.98h2.79c1.21,2.79,2.55,2.67,5.82,2.67h46.58c3.16,0,4.01-0.37,6.31-2.67H207.3z"/>
	</g>
	<g>
		<path class="st0" d="M221.64,207.62l0.46,0.61l-1.98,5.03H202.6c-0.69,4.19-1.68,10.13-2.36,13.86c2.89-1.07,7.08-2.21,8.99-2.21
			c9.37,0,14.32,6.63,14.32,12.95c0,4.57-1.91,8.99-6.55,12.8c-4.19,3.35-9.45,5.33-13.48,5.33c-3.58,0-6.4-1.45-7.92-2.97
			c-1.07-0.99-1.37-1.6-1.22-2.59c0-0.68,0.61-1.83,1.6-2.59c0.68-0.46,1.37-0.61,2.13,0c2.21,1.98,4.88,4.19,9.6,4.19
			c6.4,0,9.45-5.48,9.45-11.2c0-6.7-4.04-11.5-12.49-11.5c-3.13,0-5.64,0.68-7.62,1.37l-0.23-0.3c1.14-5.94,2.82-16.68,3.66-22.78
			H221.64z"/>
	</g>
</g>
</svg>
