<?xml version="1.0" encoding="utf-8"?>
<!-- Generator: Adobe Illustrator 26.0.1, SVG Export Plug-In . SVG Version: 6.00 Build 0)  -->
<svg version="1.1" id="Layer_1" xmlns="http://www.w3.org/2000/svg" xmlns:xlink="http://www.w3.org/1999/xlink" x="0px" y="0px"
	 viewBox="0 0 256 256" style="enable-background:new 0 0 256 256;" xml:space="preserve">
<style type="text/css">
	.st0{fill:#4259C3;}
</style>
<g>
	<g>
		<path class="st0" d="M99.62,65.31c3.5-17.49,8.86-34.52,20.06-46.88C130.41,6.3,144.18,0,153.5,0c8.17,0,14.93,4.66,14.93,9.56
			c0,3.5-3.97,9.33-7,11.66c-1.86,1.4-3.73,1.63-5.36,0c-5.36-5.83-11.19-8.86-16.1-8.86c-8.86,0-15.16,9.79-22.39,52.95h26.36
			l-4.43,8.4c-3.96,0.23-17.03,1.17-23.32,1.17c-4.43,25.65-7,40.58-12.13,68.11c-7.93,41.28-16.56,57.38-29.39,70.67
			c-10.27,11.2-21.46,15.39-27.06,15.39c-8.63,0-14.93-4.43-14.93-10.26c0-3.96,3.27-10.03,7.23-12.83c1.64-1.16,3.5-1.16,4.44,0
			c4.67,3.96,9.33,7.93,15.16,7.93c13.29,0,17.26-16.33,25.19-62.74c5.6-31.72,9.33-53.18,13.06-76.27H77.94l0.23-2.8l6.53-6.76
			H99.62z"/>
	</g>
	<g>
		<path class="st0" d="M207.52,141.4c-1.33,5.58-2.79,14.44-3.88,20.99l-3.76,0.24c0-1.94,0-4.61-0.48-6.67
			c-0.61-5.34-2.06-7.28-13.1-7.28h-7.4l-11.4,59.56c-1.82,9.83-0.85,10.43,10.19,11.28l-0.73,3.4H143.6l0.85-3.4
			c10.31-0.85,11.16-1.58,12.98-11.28l11.4-59.56h-7.28c-9.71,0-11.77,1.58-13.95,4.73c-1.7,2.18-3.64,5.34-5.46,9.34l-3.88-0.36
			c1.94-7.04,3.88-14.31,4.97-20.99h2.79c1.21,2.79,2.55,2.67,5.82,2.67h46.58c3.16,0,4.01-0.36,6.31-2.67H207.52z"/>
	</g>
	<g>
		<path class="st0" d="M194.9,215.85l3.58-4.8c2.21-2.44,5.71-4.34,9.83-4.34c6.93,0,11.5,4.34,11.5,10.13
			c0,2.29-0.99,4.11-2.36,5.64c-1.22,1.3-3.2,2.67-5.41,4.11c7.08,1.52,11.27,6.17,11.27,11.73c0,12.42-14.63,17.67-20.04,17.67
			c-3.58,0-6.85-1.52-7.92-2.67c-0.91-0.99-1.14-1.68-1.14-2.51c0.08-1.22,1.07-2.36,1.75-2.89c0.61-0.46,1.3-0.53,1.98,0.08
			c2.06,1.83,5.1,4.04,9.45,4.04c5.48,0,9.37-4.11,9.37-11.5c-0.08-7.01-5.18-9.75-10.06-9.75c-1.75,0-3.88,0.46-5.1,0.84
			l-0.53-2.29c6.78-2.21,12.26-5.26,12.26-10.89c0-4.49-2.89-7.08-7.31-7.08c-4.27,0-7.54,3.12-9.52,6.02L194.9,215.85z"/>
	</g>
</g>
</svg>
