<?xml version="1.0" encoding="utf-8"?>
<!-- Generator: Adobe Illustrator 26.0.1, SVG Export Plug-In . SVG Version: 6.00 Build 0)  -->
<svg version="1.1" id="Layer_1" xmlns="http://www.w3.org/2000/svg" xmlns:xlink="http://www.w3.org/1999/xlink" x="0px" y="0px"
	 viewBox="0 0 256 256" style="enable-background:new 0 0 256 256;" xml:space="preserve">
<style type="text/css">
	.st0{fill:#4259C3;}
</style>
<g>
	<g>
		<path class="st0" d="M100.25,65.54c3.51-17.56,8.9-34.64,20.13-47.05C131.15,6.32,144.96,0,154.32,0c8.19,0,14.98,4.68,14.98,9.6
			c0,3.51-3.98,9.36-7.02,11.71c-1.87,1.4-3.74,1.64-5.38,0c-5.39-5.85-11.24-8.9-16.15-8.9c-8.89,0-15.21,9.83-22.47,53.14h26.45
			l-4.45,8.43c-3.98,0.23-17.09,1.17-23.41,1.17c-4.45,25.75-7.02,40.73-12.17,68.35c-7.96,41.43-16.62,57.58-29.49,70.92
			c-10.3,11.24-21.54,15.45-27.15,15.45c-8.66,0-14.98-4.45-14.98-10.3c0-3.98,3.28-10.06,7.25-12.87c1.64-1.17,3.51-1.17,4.45,0
			c4.68,3.98,9.36,7.96,15.22,7.96c13.34,0,17.32-16.38,25.28-62.97c5.62-31.83,9.36-53.37,13.11-76.54H78.48l0.23-2.81l6.55-6.79
			H100.25z"/>
	</g>
	<g>
		<path class="st0" d="M208.54,141.9c-1.34,5.6-2.8,14.49-3.89,21.06l-3.78,0.24c0-1.95,0-4.63-0.49-6.7
			c-0.61-5.36-2.07-7.31-13.15-7.31h-7.43l-11.44,59.78c-1.82,9.86-0.85,10.47,10.23,11.32l-0.73,3.41h-33.48l0.85-3.41
			c10.35-0.85,11.2-1.58,13.02-11.32l11.44-59.78h-7.3c-9.74,0-11.81,1.58-14,4.75c-1.7,2.19-3.65,5.36-5.48,9.37l-3.89-0.37
			c1.95-7.06,3.89-14.37,4.99-21.06h2.8c1.22,2.8,2.56,2.68,5.84,2.68h46.75c3.17,0,4.02-0.37,6.33-2.68H208.54z"/>
	</g>
	<g>
		<path class="st0" d="M198.62,256v-2.14c8.48-0.54,8.94-0.92,8.94-6.65v-29.36c0-3.9-0.54-4.05-3.9-4.36l-3.74-0.38v-1.91
			c5.05-0.84,10.09-2.06,13.99-3.75v39.75c0,5.81,0.46,6.12,9.02,6.65V256H198.62z"/>
	</g>
</g>
</svg>
