<?xml version="1.0" encoding="utf-8"?>
<!-- Generator: Adobe Illustrator 26.0.1, SVG Export Plug-In . SVG Version: 6.00 Build 0)  -->
<svg version="1.1" id="Layer_1" xmlns="http://www.w3.org/2000/svg" xmlns:xlink="http://www.w3.org/1999/xlink" x="0px" y="0px"
	 viewBox="0 0 256 256" style="enable-background:new 0 0 256 256;" xml:space="preserve">
<style type="text/css">
	.st0{fill:#4259C3;}
</style>
<g>
	<g>
		<path class="st0" d="M109.04,72.99c3.91-19.55,9.91-38.58,22.42-52.4C143.45,7.04,158.84,0,169.26,0
			c9.12,0,16.68,5.21,16.68,10.69c0,3.91-4.43,10.43-7.82,13.04c-2.09,1.56-4.17,1.82-5.99,0c-6-6.52-12.51-9.91-17.99-9.91
			c-9.9,0-16.94,10.95-25.02,59.18h29.46l-4.95,9.38c-4.43,0.26-19.03,1.31-26.07,1.31c-4.95,28.67-7.82,45.36-13.56,76.12
			c-8.86,46.14-18.51,64.13-32.85,78.99C69.68,251.31,57.16,256,50.91,256c-9.65,0-16.68-4.95-16.68-11.47
			c0-4.43,3.65-11.21,8.08-14.34c1.83-1.3,3.91-1.3,4.95,0c5.21,4.43,10.43,8.86,16.95,8.86c14.86,0,19.29-18.25,28.15-70.12
			c6.26-35.45,10.43-59.44,14.6-85.25H84.8l0.26-3.13l7.3-7.56H109.04z"/>
	</g>
	<g>
		<path class="st0" d="M220.83,249.15h-33.08l0.68-3.8c9.76-1.09,10.85-2.3,10.17-8.14c-0.68-5.56-1.76-12.34-2.98-20.2h-28.47
			c-2.3,4.34-6.92,12.21-10.04,18.31c-4.2,8-2.17,8.95,8.27,10.03l-0.81,3.8h-31.05l0.95-3.8c8.68-1.09,10.44-1.9,17.08-13.01
			l41.63-72.4l4.47-0.68c5.96,39.86,8.95,58.03,11.66,74.43c1.49,9.49,2.58,10.71,12.47,11.66L220.83,249.15z M189.64,176.34h-0.27
			c-6.92,12.61-13.83,24.95-19.39,35.25h24.81L189.64,176.34z"/>
	</g>
</g>
</svg>
