<?xml version="1.0" encoding="utf-8"?>
<!-- Generator: Adobe Illustrator 26.0.1, SVG Export Plug-In . SVG Version: 6.00 Build 0)  -->
<svg version="1.1" id="Layer_1" xmlns="http://www.w3.org/2000/svg" xmlns:xlink="http://www.w3.org/1999/xlink" x="0px" y="0px"
	 viewBox="0 0 256 256" style="enable-background:new 0 0 256 256;" xml:space="preserve">
<style type="text/css">
	.st0{fill:#4259C3;}
</style>
<g>
	<g>
		<path class="st0" d="M98.23,65.54c3.51-17.56,8.9-34.64,20.13-47.05C129.12,6.32,142.94,0,152.3,0c8.19,0,14.98,4.68,14.98,9.6
			c0,3.51-3.98,9.36-7.02,11.71c-1.87,1.4-3.74,1.64-5.39,0c-5.38-5.85-11.23-8.9-16.15-8.9c-8.9,0-15.22,9.83-22.47,53.14h26.45
			l-4.45,8.43c-3.98,0.23-17.09,1.17-23.41,1.17c-4.45,25.75-7.02,40.73-12.17,68.35c-7.96,41.43-16.62,57.58-29.49,70.92
			c-10.3,11.24-21.54,15.45-27.16,15.45c-8.66,0-14.98-4.45-14.98-10.3c0-3.98,3.28-10.06,7.26-12.87c1.64-1.17,3.51-1.17,4.45,0
			c4.68,3.98,9.36,7.96,15.22,7.96c13.34,0,17.32-16.38,25.28-62.97c5.62-31.83,9.36-53.37,13.11-76.54h-19.9l0.23-2.81l6.55-6.79
			H98.23z"/>
	</g>
	<g>
		<path class="st0" d="M206.51,141.9c-1.34,5.6-2.8,14.49-3.89,21.06l-3.78,0.24c0-1.95,0-4.63-0.49-6.7
			c-0.61-5.36-2.07-7.31-13.15-7.31h-7.43l-11.44,59.78c-1.82,9.86-0.85,10.47,10.23,11.32l-0.73,3.41h-33.48l0.85-3.41
			c10.35-0.85,11.2-1.58,13.02-11.32l11.44-59.78h-7.3c-9.74,0-11.81,1.58-14,4.75c-1.7,2.19-3.65,5.36-5.48,9.37l-3.89-0.37
			c1.95-7.06,3.89-14.37,4.99-21.06h2.8c1.22,2.8,2.56,2.68,5.84,2.68h46.75c3.17,0,4.02-0.37,6.33-2.68H206.51z"/>
	</g>
	<g>
		<path class="st0" d="M217.46,242.09v5.81c0,5.05,0.31,5.43,5.74,5.96V256h-17.89v-2.14c5.74-0.54,6.12-0.99,6.12-6.04v-5.73
			h-20.18v-2.29c7.26-10.32,15.14-21.48,22.79-32.11h3.44v30.73h7.49v3.67H217.46z M211.42,215.71
			c-4.81,7.03-10.17,14.83-15.44,22.71h15.44V215.71z"/>
	</g>
</g>
</svg>
