<?xml version="1.0" encoding="utf-8"?>
<!-- Generator: Adobe Illustrator 26.0.1, SVG Export Plug-In . SVG Version: 6.00 Build 0)  -->
<svg version="1.1" id="Layer_1" xmlns="http://www.w3.org/2000/svg" xmlns:xlink="http://www.w3.org/1999/xlink" x="0px" y="0px"
	 viewBox="0 0 256 256" style="enable-background:new 0 0 256 256;" xml:space="preserve">
<style type="text/css">
	.st0{fill:#4259C3;}
</style>
<g>
	<g>
		<g>
			<g>
				<path class="st0" d="M211.69,88.59h-72.34c-0.9,0-1.63-0.87-1.63-1.95s0.73-1.95,1.63-1.95h72.34c0.9,0,1.63,0.87,1.63,1.95
					S212.59,88.59,211.69,88.59z"/>
			</g>
		</g>
		<g>
			<g>
				<path class="st0" d="M131.73,117.65c4.85-6.68,11.92-12.84,16.11-12.84c4.06,0,5.24,4.45,5.5,15.58
					c0.26,9.56,0.26,21.48,0.13,28.68c8.25-12.96,17.81-27.76,25.54-42.04h3.4c0.92,14.01,2.36,30.51,3.8,45.18
					c6.29-7.73,18.99-24.88,19.12-33c0-2.75-1.31-4.85-1.96-6.28c-0.52-1.05-0.79-1.83-0.39-2.88c1.05-2.75,5.11-5.24,7.46-5.24
					c3.27,0,4.98,3.01,4.98,7.47c0,3.54-1.05,7.2-3.4,11.52c-5.89,11-19.38,27.89-30.25,41.65h-3.8
					c-0.92-11.39-2.23-27.63-3.54-40.73c-8.51,14.27-18.86,29.33-25.93,40.73h-3.67c0-10.48,0-29.34-0.92-43.22
					c-0.39-5.37-0.92-7.86-2.09-7.86c-1.05,0-3.54,1.7-7.86,6.42L131.73,117.65z"/>
			</g>
		</g>
	</g>
	<g>
		<path class="st0" d="M71.37,101.29c0.92-15.58-5.63-20.17-19.38-20.17c-24.49,0-39.42,22-39.42,45.57
			c0,21.21,10.34,34.05,28.42,34.05c7.07,0,13.36-2.49,14.93-9.3l2.36-11.92c1.96-9.56,0.79-10.08-11.66-11.26l0.79-3.67h33.26
			l-0.92,3.54c-7.86,1.31-8.77,1.57-10.74,11.39l-1.97,10.74c-0.79,4.06-1.31,7.99-0.92,10.74c-8.12,1.83-16.63,4.45-26.98,4.45
			C16.24,165.45,0,151.44,0,127.48c0-29.46,22.4-50.94,55-50.94c10.87,0,19.51,2.49,23.97,3.27c-0.92,4.06-2.36,12.05-3.54,21.21
			L71.37,101.29z"/>
	</g>
	<g>
		<path class="st0" d="M134.49,71.03c-20.82,14.93-33.53,40.86-33.53,69.93c0,15.98,3.8,31.04,12.05,44.79l-3.28,2.75
			c-12.31-13.1-19.25-31.95-19.25-49.24c0-32.08,18.33-58.54,41.91-71.76L134.49,71.03z"/>
	</g>
	<g>
		<path class="st0" d="M212,185.1c20.95-14.93,33.53-40.99,33.53-70.06c0-15.98-3.8-30.91-12.05-44.66l3.27-2.88
			C249.06,80.59,256,99.45,256,116.74c0,32.22-18.33,58.67-41.91,71.76L212,185.1z"/>
	</g>
</g>
</svg>
