<?xml version="1.0" encoding="utf-8"?>
<!-- Generator: Adobe Illustrator 26.0.1, SVG Export Plug-In . SVG Version: 6.00 Build 0)  -->
<svg version="1.1" id="Layer_1" xmlns="http://www.w3.org/2000/svg" xmlns:xlink="http://www.w3.org/1999/xlink" x="0px" y="0px"
	 viewBox="0 0 256 256" style="enable-background:new 0 0 256 256;" xml:space="preserve">
<style type="text/css">
	.st0{fill:#4259C3;}
</style>
<g>
	<g>
		<g>
			<g>
				<polygon class="st0" points="255.08,256 237.66,256 237.66,251.02 250.11,251.02 250.11,238.57 255.08,238.57 				"/>
			</g>
		</g>
		<g>
			<g>
				<polygon class="st0" points="213.89,256 196.46,256 196.46,238.57 201.44,238.57 201.44,251.02 213.89,251.02 				"/>
			</g>
		</g>
		<g>
			<g>
				<rect x="196.46" y="201.44" class="st0" width="4.98" height="18.56"/>
			</g>
		</g>
		<g>
			<g>
				<polygon class="st0" points="201.44,182.88 196.46,182.88 196.46,165.45 213.89,165.45 213.89,170.43 201.44,170.43 				"/>
			</g>
		</g>
		<g>
			<g>
				<polygon class="st0" points="255.08,182.88 250.11,182.88 250.11,170.43 237.66,170.43 237.66,165.45 255.08,165.45 				"/>
			</g>
		</g>
		<g>
			<g>
				<rect x="250.11" y="201.44" class="st0" width="4.98" height="18.56"/>
			</g>
		</g>
	</g>
	<g>
		<g>
			<path class="st0" d="M0.92,87.41c12.48-17.2,30.69-33.05,41.48-33.05c10.45,0,13.49,11.47,14.17,40.13
				c0.67,24.62,0.67,55.31,0.34,73.86c21.25-33.39,45.87-71.49,65.77-108.26h8.77c2.36,36.09,6.07,78.58,9.78,116.36
				c16.18-19.9,48.9-64.08,49.24-84.99c0-7.08-3.37-12.48-5.06-16.18c-1.35-2.7-2.02-4.72-1.01-7.42
				c2.7-7.08,13.15-13.49,19.22-13.49c8.43,0,12.82,7.76,12.82,19.22c0,9.11-2.69,18.55-8.76,29.68
				c-15.18,28.33-49.91,71.84-77.91,107.25h-9.78c-2.36-29.34-5.74-71.16-9.11-104.89c-21.92,36.76-48.57,75.54-66.78,104.89h-9.44
				c0-26.98,0-75.55-2.36-111.29c-1.01-13.83-2.36-20.24-5.39-20.24c-2.7,0-9.11,4.39-20.24,16.53L0.92,87.41z"/>
		</g>
	</g>
	<g>
		<path class="st0" d="M91.93,28.86C102.2,18.2,114.05,9.97,126.47,2.24c10.77-6.49,18.65,2.42,25.06,10.19
			c17.73,20.97,16.9,22.09-5.34,5.71c-4.63-2.43-8.76-10.33-14.57-7.34C118.97,18.15,106.15,24.77,91.93,28.86L91.93,28.86z"/>
	</g>
</g>
</svg>
