<?xml version="1.0" encoding="utf-8"?>
<!-- Generator: Adobe Illustrator 26.0.1, SVG Export Plug-In . SVG Version: 6.00 Build 0)  -->
<svg version="1.1" id="Layer_1" xmlns="http://www.w3.org/2000/svg" xmlns:xlink="http://www.w3.org/1999/xlink" x="0px" y="0px"
	 viewBox="0 0 256 256" style="enable-background:new 0 0 256 256;" xml:space="preserve">
<style type="text/css">
	.st0{fill:#4259C3;}
</style>
<g>
	<g>
		<g>
			<path class="st0" d="M4.88,137.83c1.39,11.29,5.71,22.02,20.9,22.02c11.29,0,17.28-6.97,17.28-17.84
				c0-8.08-3.9-13.38-12.26-19.65l-4.88-3.62c-6.97-5.29-15.05-11.84-15.05-23.97c0-13.1,10.17-24.66,28.43-24.66
				c9.47,0,17.28,2.65,20.9,3.62c-1.11,5.57-1.81,13.79-2.51,19.93l-4.18,0.28c0.14-10.87-3.2-19.23-15.88-19.23
				c-11.01,0-16.03,7.52-16.03,16.72c0,8.22,4.74,12.82,12.26,18.25l5.02,3.76c9.61,7.11,15.74,14.35,15.74,24.66
				c0,14.91-12.96,26.61-30.52,26.61c-10.87,0-20.9-4.32-24.11-6.69c0.14-3.49,0.7-13.24,0.84-19.79L4.88,137.83z"/>
		</g>
		<g>
			<path class="st0" d="M126.7,64.26c-22.15,15.89-35.67,43.48-35.67,74.41c0,17,4.04,33.02,12.82,47.65l-3.48,2.93
				c-13.1-13.93-20.48-34-20.48-52.39c0-34.14,19.51-62.29,44.59-76.36L126.7,64.26z"/>
		</g>
		<g>
			<path class="st0" d="M123.77,113.45c5.16-7.11,12.68-13.66,17.14-13.66c4.32,0,5.57,4.74,5.85,16.58
				c0.28,10.17,0.28,22.85,0.14,30.52c8.78-13.79,18.95-29.54,27.17-44.73h3.62c0.97,14.91,2.51,32.47,4.04,48.08
				c6.69-8.22,20.2-26.48,20.34-35.12c0-2.92-1.39-5.16-2.09-6.69c-0.56-1.12-0.84-1.95-0.42-3.07c1.11-2.93,5.43-5.57,7.94-5.57
				c3.49,0,5.3,3.21,5.3,7.94c0,3.76-1.11,7.66-3.62,12.26c-6.27,11.71-20.62,29.68-32.19,44.31h-4.04
				c-0.98-12.12-2.37-29.4-3.76-43.34c-9.06,15.19-20.07,31.21-27.59,43.34h-3.9c0-11.15,0-31.21-0.97-45.98
				c-0.42-5.71-0.97-8.36-2.23-8.36c-1.11,0-3.76,1.81-8.36,6.83L123.77,113.45z"/>
		</g>
		<g>
			<path class="st0" d="M209.18,185.63c22.29-15.89,35.67-43.62,35.67-74.55c0-17-4.04-32.88-12.82-47.52l3.48-3.07
				c13.1,13.93,20.48,34,20.48,52.39c0,34.28-19.51,62.43-44.59,76.36L209.18,185.63z"/>
		</g>
	</g>
	<g>
		<path class="st0" d="M71.37,158.09h-1.03H53.32v6.55v0.65v23.01v7.2h17.02h1.03h6.17v-7.2v-23.01v-0.65v-6.55H71.37z
			 M75.48,165.29v23.01v5.14h-4.12h-1.03H55.38v-5.14v-23.01v-0.65v-4.5h14.96h1.03h4.12v4.5V165.29z"/>
	</g>
</g>
</svg>
