<?xml version="1.0" encoding="utf-8"?>
<!-- Generator: Adobe Illustrator 26.0.1, SVG Export Plug-In . SVG Version: 6.00 Build 0)  -->
<svg version="1.1" id="Layer_1" xmlns="http://www.w3.org/2000/svg" xmlns:xlink="http://www.w3.org/1999/xlink" x="0px" y="0px"
	 viewBox="0 0 256 256" style="enable-background:new 0 0 256 256;" xml:space="preserve">
<style type="text/css">
	.st0{fill:#4259C3;}
</style>
<g>
	<g>
		<path class="st0" d="M46.94,80.44c24.1,0,39.28,12.05,39.28,34.51c0,15.94-7.15,29.99-20.08,38.03
			c-10.67,6.78-19.45,9.04-34.76,9.04H0l0.88-3.51c10.17-0.88,11.29-2.01,13.05-11.67l9.91-51.08c1.88-9.92,1.51-10.92-9.66-11.8
			l0.88-3.51H46.94z M24.6,145.7c-2.01,10.54,4.52,11.67,11.8,11.67c25.73,0,38.15-20.2,38.15-43.05
			c0-19.45-10.17-29.49-28.61-29.49c-7.4,0-9.79,0.63-11.04,7.41L24.6,145.7z"/>
	</g>
	<g>
		<path class="st0" d="M139.55,73.41c-19.95,14.31-32.13,39.16-32.13,67.02c0,15.31,3.64,29.74,11.55,42.92l-3.14,2.64
			c-11.8-12.55-18.45-30.62-18.45-47.19c0-30.75,17.57-56.1,40.16-68.77L139.55,73.41z"/>
	</g>
	<g>
		<path class="st0" d="M213.83,182.72c20.08-14.31,32.13-39.28,32.13-67.14c0-15.31-3.64-29.62-11.55-42.79l3.14-2.76
			c11.8,12.55,18.45,30.62,18.45,47.19c0,30.87-17.57,56.22-40.16,68.77L213.83,182.72z"/>
	</g>
	<g>
		<g>
			<g>
				<path class="st0" d="M136.64,118.1c4.64-6.4,11.42-12.3,15.44-12.3c3.89,0,5.02,4.27,5.27,14.93
					c0.25,9.16,0.25,20.58,0.12,27.48c7.91-12.42,17.07-26.6,24.47-40.29h3.26c0.88,13.43,2.26,29.24,3.64,43.3
					c6.02-7.41,18.2-23.84,18.32-31.63c0-2.63-1.26-4.64-1.88-6.02c-0.5-1.01-0.75-1.76-0.38-2.76c1-2.64,4.89-5.02,7.15-5.02
					c3.14,0,4.77,2.89,4.77,7.15c0,3.39-1,6.9-3.26,11.04c-5.65,10.54-18.57,26.73-28.99,39.91h-3.64
					c-0.88-10.92-2.14-26.48-3.39-39.03c-8.16,13.68-18.07,28.11-24.85,39.03h-3.51c0-10.04,0-28.11-0.88-41.42
					c-0.38-5.15-0.88-7.53-2.01-7.53c-1,0-3.39,1.63-7.53,6.15L136.64,118.1z"/>
			</g>
		</g>
		<g>
			<path class="st0" d="M170.51,96.31c3.82-3.96,8.23-7.03,12.85-9.9c4.01-2.42,6.94,0.9,9.33,3.79c6.6,7.8,6.29,8.22-1.99,2.13
				c-1.72-0.9-3.26-3.84-5.42-2.73C180.57,92.32,175.8,94.79,170.51,96.31L170.51,96.31z"/>
		</g>
	</g>
</g>
</svg>
