<?xml version="1.0" encoding="utf-8"?>
<!-- Generator: Adobe Illustrator 26.0.1, SVG Export Plug-In . SVG Version: 6.00 Build 0)  -->
<svg version="1.1" id="Layer_1" xmlns="http://www.w3.org/2000/svg" xmlns:xlink="http://www.w3.org/1999/xlink" x="0px" y="0px"
	 viewBox="0 0 256 256" style="enable-background:new 0 0 256 256;" xml:space="preserve">
<style type="text/css">
	.st0{fill:#4259C3;}
</style>
<g>
	<g>
		<g>
			<g>
				<polygon class="st0" points="256,229.55 238.45,229.55 238.45,224.53 250.99,224.53 250.99,212 256,212 				"/>
			</g>
		</g>
		<g>
			<g>
				<polygon class="st0" points="214.51,229.55 196.96,229.55 196.96,212 201.97,212 201.97,224.53 214.51,224.53 				"/>
			</g>
		</g>
		<g>
			<g>
				<rect x="196.96" y="174.6" class="st0" width="5.01" height="18.7"/>
			</g>
		</g>
		<g>
			<g>
				<polygon class="st0" points="201.97,155.9 196.96,155.9 196.96,138.35 214.51,138.35 214.51,143.36 201.97,143.36 				"/>
			</g>
		</g>
		<g>
			<g>
				<polygon class="st0" points="256,155.9 250.99,155.9 250.99,143.36 238.45,143.36 238.45,138.35 256,138.35 				"/>
			</g>
		</g>
		<g>
			<g>
				<rect x="250.99" y="174.6" class="st0" width="5.01" height="18.7"/>
			</g>
		</g>
	</g>
	<g>
		<g>
			<path class="st0" d="M0,59.74c12.57-17.33,30.91-33.29,41.78-33.29c10.53,0,13.59,11.55,14.27,40.42
				c0.68,24.8,0.68,55.71,0.34,74.39c21.4-33.63,46.2-72.01,66.24-109.04h8.83c2.38,36.35,6.11,79.15,9.85,117.19
				c16.3-20.04,49.25-64.54,49.59-85.6c0-7.13-3.4-12.57-5.1-16.3c-1.36-2.72-2.04-4.76-1.02-7.48
				c2.72-7.13,13.24-13.59,19.36-13.59c8.5,0,12.91,7.82,12.91,19.36c0,9.17-2.71,18.68-8.83,29.89
				c-15.29,28.53-50.27,72.35-78.47,108.02h-9.85c-2.38-29.55-5.78-71.67-9.17-105.64c-22.08,37.03-48.92,76.09-67.26,105.64h-9.51
				c0-27.18,0-76.09-2.38-112.1c-1.02-13.93-2.38-20.38-5.43-20.38c-2.72,0-9.17,4.42-20.38,16.65L0,59.74z"/>
		</g>
	</g>
</g>
</svg>
