<?xml version="1.0" encoding="utf-8"?>
<!-- Generator: Adobe Illustrator 26.0.1, SVG Export Plug-In . SVG Version: 6.00 Build 0)  -->
<svg version="1.1" id="Layer_1" xmlns="http://www.w3.org/2000/svg" xmlns:xlink="http://www.w3.org/1999/xlink" x="0px" y="0px"
	 viewBox="0 0 256 256" style="enable-background:new 0 0 256 256;" xml:space="preserve">
<style type="text/css">
	.st0{fill:#4259C3;}
</style>
<g>
	<g>
		<g>
			<g>
				<path class="st0" d="M206.86,84.29h-80.22c-1,0-1.81-0.97-1.81-2.16s0.81-2.16,1.81-2.16h80.22c1,0,1.81,0.97,1.81,2.16
					S207.86,84.29,206.86,84.29z"/>
			</g>
		</g>
		<g>
			<g>
				<path class="st0" d="M118.2,116.53c5.37-7.41,13.21-14.23,17.86-14.23c4.5,0,5.81,4.94,6.1,17.28
					c0.29,10.6,0.29,23.82,0.14,31.8c9.15-14.38,19.75-30.78,28.32-46.62h3.78c1.02,15.54,2.61,33.84,4.21,50.1
					c6.97-8.57,21.06-27.59,21.2-36.6c0-3.05-1.45-5.37-2.18-6.97c-0.58-1.16-0.87-2.03-0.44-3.2c1.16-3.05,5.66-5.81,8.28-5.81
					c3.63,0,5.52,3.34,5.52,8.28c0,3.92-1.16,7.99-3.78,12.78c-6.53,12.2-21.49,30.93-33.55,46.18h-4.21
					c-1.02-12.64-2.47-30.64-3.92-45.16c-9.44,15.83-20.91,32.53-28.75,45.16h-4.07c0-11.62,0-32.53-1.02-47.92
					c-0.44-5.96-1.02-8.71-2.32-8.71c-1.16,0-3.92,1.89-8.71,7.12L118.2,116.53z"/>
			</g>
		</g>
	</g>
	<g>
		<path class="st0" d="M5.08,141.5c1.45,11.76,5.95,22.95,21.78,22.95c11.76,0,18.01-7.26,18.01-18.59
			c0-8.42-4.07-13.94-12.78-20.47l-5.08-3.78c-7.26-5.52-15.68-12.34-15.68-24.98c0-13.65,10.6-25.7,29.63-25.7
			c9.87,0,18.01,2.76,21.78,3.78c-1.16,5.81-1.89,14.38-2.61,20.77l-4.36,0.29c0.15-11.33-3.34-20.04-16.55-20.04
			c-11.47,0-16.7,7.84-16.7,17.43c0,8.57,4.94,13.36,12.78,19.02l5.23,3.92c10.02,7.41,16.41,14.96,16.41,25.7
			c0,15.54-13.5,27.74-31.8,27.74c-11.33,0-21.78-4.5-25.12-6.97c0.15-3.63,0.73-13.8,0.87-20.62L5.08,141.5z"/>
	</g>
	<g>
		<path class="st0" d="M121.25,64.83c-23.09,16.56-37.18,45.31-37.18,77.55c0,17.72,4.21,34.42,13.36,49.66l-3.63,3.05
			c-13.65-14.52-21.35-35.43-21.35-54.6c0-35.58,20.33-64.91,46.47-79.58L121.25,64.83z"/>
	</g>
	<g>
		<path class="st0" d="M207.21,191.32c23.24-16.56,37.18-45.45,37.18-77.69c0-17.72-4.21-34.27-13.36-49.52l3.63-3.2
			C248.3,75.43,256,96.34,256,115.51c0,35.72-20.33,65.06-46.47,79.58L207.21,191.32z"/>
	</g>
</g>
</svg>
