<?xml version="1.0" encoding="utf-8"?>
<!-- Generator: Adobe Illustrator 26.0.1, SVG Export Plug-In . SVG Version: 6.00 Build 0)  -->
<svg version="1.1" id="Layer_1" xmlns="http://www.w3.org/2000/svg" xmlns:xlink="http://www.w3.org/1999/xlink" x="0px" y="0px"
	 viewBox="0 0 256 256" style="enable-background:new 0 0 256 256;" xml:space="preserve">
<style type="text/css">
	.st0{fill:#4259C3;}
</style>
<g>
	<g>
		<g>
			<path class="st0" d="M68.68,100.96c0.88-15-5.42-19.41-18.65-19.41c-23.57,0-37.93,21.17-37.93,43.85
				c0,20.41,9.95,32.76,27.34,32.76c6.8,0,12.85-2.39,14.37-8.95l2.27-11.47c1.89-9.2,0.76-9.7-11.22-10.84l0.76-3.53h32.01
				l-0.88,3.4c-7.56,1.26-8.44,1.51-10.33,10.96l-1.89,10.33c-0.76,3.91-1.26,7.69-0.88,10.33c-7.81,1.77-16,4.28-25.96,4.28
				C15.63,162.71,0,149.23,0,126.16c0-28.35,21.55-49.02,52.93-49.02c10.46,0,18.78,2.39,23.06,3.15
				c-0.88,3.91-2.27,11.59-3.4,20.41L68.68,100.96z"/>
		</g>
		<g>
			<path class="st0" d="M139.07,71.85c-20.04,14.37-32.26,39.32-32.26,67.29c0,15.37,3.65,29.87,11.59,43.1l-3.15,2.65
				c-11.84-12.6-18.52-30.75-18.52-47.38c0-30.87,17.64-56.33,40.33-69.06L139.07,71.85z"/>
		</g>
		<g>
			<path class="st0" d="M136.42,116.34c4.66-6.43,11.47-12.35,15.5-12.35c3.91,0,5.04,4.29,5.29,15c0.25,9.2,0.25,20.67,0.13,27.6
				c7.94-12.48,17.14-26.71,24.57-40.45h3.28c0.88,13.48,2.27,29.36,3.65,43.48c6.05-7.44,18.27-23.94,18.4-31.76
				c0-2.65-1.26-4.66-1.89-6.05c-0.5-1.01-0.76-1.77-0.38-2.77c1.01-2.65,4.91-5.04,7.18-5.04c3.15,0,4.79,2.9,4.79,7.18
				c0,3.4-1.01,6.93-3.28,11.09c-5.67,10.59-18.65,26.84-29.11,40.07h-3.65c-0.88-10.96-2.14-26.59-3.4-39.19
				c-8.19,13.74-18.15,28.23-24.95,39.19h-3.53c0-10.08,0-28.23-0.88-41.59c-0.38-5.17-0.88-7.56-2.02-7.56
				c-1.01,0-3.4,1.64-7.56,6.18L136.42,116.34z"/>
		</g>
		<g>
			<path class="st0" d="M213.66,181.61c20.16-14.37,32.26-39.44,32.26-67.42c0-15.37-3.65-29.74-11.59-42.97l3.15-2.77
				C249.32,81.05,256,99.2,256,115.83c0,31-17.64,56.46-40.33,69.06L213.66,181.61z"/>
		</g>
	</g>
	<g>
		<path class="st0" d="M87.74,153.72h-0.93H71.42v5.93v0.59v20.81v6.51h15.39h0.93h5.58v-6.51v-20.81v-0.59v-5.93H87.74z
			 M91.47,160.23v20.81v4.65h-3.72h-0.93H73.28v-4.65v-20.81v-0.59v-4.07h13.53h0.93h3.72v4.07V160.23z"/>
	</g>
</g>
</svg>
