<?xml version="1.0" encoding="utf-8"?>
<!-- Generator: Adobe Illustrator 26.0.1, SVG Export Plug-In . SVG Version: 6.00 Build 0)  -->
<svg version="1.1" id="Layer_1" xmlns="http://www.w3.org/2000/svg" xmlns:xlink="http://www.w3.org/1999/xlink" x="0px" y="0px"
	 viewBox="0 0 256 256" style="enable-background:new 0 0 256 256;" xml:space="preserve">
<style type="text/css">
	.st0{fill:#4259C3;}
</style>
<g>
	<g>
		<g>
			<path class="st0" d="M244.61,16.38H23.3c-2.76,0-5-2.66-5-5.95s2.24-5.95,5-5.95h221.31c2.76,0,5,2.66,5,5.95
				S247.37,16.38,244.61,16.38z"/>
		</g>
	</g>
	<g>
		<g>
			<path class="st0" d="M0,105.3c14.82-20.44,36.46-39.27,49.28-39.27c12.42,0,16.02,13.63,16.83,47.67
				c0.8,29.25,0.8,65.7,0.4,87.74c25.24-39.66,54.49-84.93,78.12-128.6h10.42c2.81,42.87,7.21,93.35,11.62,138.22
				c19.23-23.64,58.09-76.12,58.49-100.96c0-8.41-4.01-14.82-6.01-19.23c-1.6-3.21-2.4-5.61-1.2-8.82
				c3.2-8.41,15.62-16.03,22.83-16.03c10.02,0,15.22,9.22,15.22,22.84c0,10.82-3.2,22.03-10.42,35.25
				c-18.03,33.65-59.29,85.34-92.55,127.4h-11.62c-2.81-34.86-6.81-84.53-10.82-124.6c-26.04,43.67-57.69,89.74-79.32,124.6H40.06
				c0-32.05,0-89.74-2.81-132.21c-1.2-16.43-2.8-24.04-6.41-24.04c-3.2,0-10.82,5.21-24.04,19.63L0,105.3z"/>
		</g>
	</g>
</g>
</svg>
