<?xml version="1.0" encoding="utf-8"?>
<!-- Generator: Adobe Illustrator 26.0.1, SVG Export Plug-In . SVG Version: 6.00 Build 0)  -->
<svg version="1.1" id="Layer_1" xmlns="http://www.w3.org/2000/svg" xmlns:xlink="http://www.w3.org/1999/xlink" x="0px" y="0px"
	 viewBox="0 0 256 256" style="enable-background:new 0 0 256 256;" xml:space="preserve">
<style type="text/css">
	.st0{fill:#4259C3;}
</style>
<g>
	<g>
		<path class="st0" d="M50.81,79.83c-4.02,0.4-14.26,1.21-20.28,1.21c-9.04,41.77-11.85,54.62-12.85,60.64
			c-1,6.22,0.2,8.03,2.01,8.03c4.02,0,10.64-5.22,18.07-12.65l2.61,5.02c-6.43,9.84-22.09,21.29-30.72,21.29
			c-7.03,0-10.44-5.42-5.22-29.12l11.65-53.21H0v-1.81l5.82-6.43h12.05l4.62-21.49c3.21-1.81,11.65-7.23,15.86-11.04l1.81,1
			c-2.41,8.03-5.62,21.09-7.83,31.53h22.29L50.81,79.83z"/>
	</g>
	<g>
		<path class="st0" d="M85.39,134.14c18.92,0,25.98,21.19,25.98,40.73c0,18.41-7.06,40.86-25.98,40.86
			c-19.3,0-26.36-20.81-26.36-40.73C59.03,156.58,66.22,134.14,85.39,134.14z M85.39,138.55c-11.73,0-14.63,18.54-14.63,36.19
			s3.53,36.57,14.63,36.57c11.35,0,14.38-18.79,14.38-36.45C99.76,157.09,96.61,138.55,85.39,138.55z"/>
		<path class="st0" d="M156.25,185.34v28.88h-7.57v-28.88h-26.61v-6.93h26.61v-26.23h7.57v26.23h26.48v6.93H156.25z"/>
		<path class="st0" d="M229.52,185.34v28.88h-7.57v-28.88h-26.61v-6.93h26.61v-26.23h7.57v26.23H256v6.93H229.52z"/>
	</g>
</g>
</svg>
