<?xml version="1.0" encoding="utf-8"?>
<!-- Generator: Adobe Illustrator 26.0.1, SVG Export Plug-In . SVG Version: 6.00 Build 0)  -->
<svg version="1.1" id="Layer_1" xmlns="http://www.w3.org/2000/svg" xmlns:xlink="http://www.w3.org/1999/xlink" x="0px" y="0px"
	 viewBox="0 0 256 256" style="enable-background:new 0 0 256 256;" xml:space="preserve">
<style type="text/css">
	.st0{fill:#4259C3;}
</style>
<g>
	<g>
		<path class="st0" d="M71.17,60.52c-5.63,0.56-19.97,1.69-28.41,1.69c-12.66,58.51-16.6,76.52-18,84.96
			c-1.41,8.72,0.28,11.25,2.81,11.25c5.63,0,14.91-7.31,25.32-17.72l3.66,7.03c-9,13.79-30.95,29.82-43.04,29.82
			c-9.85,0-14.63-7.6-7.31-40.79l16.32-74.55H0v-2.53l8.16-9h16.88l6.47-30.1c4.5-2.53,16.32-10.13,22.22-15.47l2.53,1.4
			c-3.38,11.25-7.88,29.54-10.97,44.17h31.23L71.17,60.52z"/>
	</g>
	<g>
		<path class="st0" d="M119.62,136.6c26.5,0,36.39,29.68,36.39,57.06c0,25.8-9.89,57.24-36.39,57.24
			c-27.03,0-36.93-29.15-36.93-57.06C82.69,168.04,92.76,136.6,119.62,136.6z M119.62,142.78c-16.43,0-20.5,25.97-20.5,50.71
			s4.95,51.24,20.5,51.24c15.9,0,20.14-26.32,20.14-51.06C139.76,168.75,135.34,142.78,119.62,142.78z"/>
		<path class="st0" d="M218.9,208.32v40.46h-10.6v-40.46h-37.28v-9.71h37.28v-36.75h10.6v36.75H256v9.71H218.9z"/>
	</g>
</g>
</svg>
