<?xml version="1.0" encoding="utf-8"?>
<!-- Generator: Adobe Illustrator 26.0.1, SVG Export Plug-In . SVG Version: 6.00 Build 0)  -->
<svg version="1.1" id="Layer_1" xmlns="http://www.w3.org/2000/svg" xmlns:xlink="http://www.w3.org/1999/xlink" x="0px" y="0px"
	 viewBox="0 0 256 256" style="enable-background:new 0 0 256 256;" xml:space="preserve">
<style type="text/css">
	.st0{fill:#4259C3;}
</style>
<g>
	<g>
		<path class="st0" d="M134.44,103.21c-7.35,0.74-26.08,2.21-37.1,2.21c-16.53,76.39-21.67,99.9-23.51,110.92
			c-1.84,11.38,0.37,14.69,3.67,14.69c7.34,0,19.47-9.55,33.05-23.14l4.77,9.18c-11.75,18-40.4,38.94-56.2,38.94
			c-12.85,0-19.1-9.92-9.55-53.26l21.3-97.33H41.51v-3.31l10.65-11.76H74.2l8.45-39.3c5.88-3.31,21.3-13.22,29.02-20.2l3.31,1.83
			c-4.41,14.69-10.28,38.57-14.32,57.66h40.77L134.44,103.21z"/>
		<path class="st0" d="M214.49,0c-8.45,30.85-24.24,70.15-34.53,87.05l-20.57,2.57c8.08-21.67,17.63-59.87,21.67-86.31L214.49,0z"/>
	</g>
</g>
</svg>
