<?xml version="1.0" encoding="utf-8"?>
<!-- Generator: Adobe Illustrator 26.0.1, SVG Export Plug-In . SVG Version: 6.00 Build 0)  -->
<svg version="1.1" id="Layer_1" xmlns="http://www.w3.org/2000/svg" xmlns:xlink="http://www.w3.org/1999/xlink" x="0px" y="0px"
	 viewBox="0 0 256 256" style="enable-background:new 0 0 256 256;" xml:space="preserve">
<style type="text/css">
	.st0{fill:#4259C3;}
</style>
<g>
	<g>
		<g>
			<path class="st0" d="M256,168.64h-70.02V60.48H256V168.64z M191.92,162.69h58.13V66.42h-58.13V162.69z"/>
		</g>
	</g>
	<g>
		<path class="st0" d="M50.62,80.76c-4,0.4-14.21,1.2-20.21,1.2c-9,41.61-11.8,54.42-12.8,60.42c-1,6.2,0.2,8,2,8
			c4,0,10.6-5.2,18.01-12.6l2.6,5c-6.4,9.8-22.01,21.21-30.61,21.21c-7,0-10.4-5.4-5.2-29.01l11.61-53.02H0v-1.8l5.8-6.4h12
			l4.6-21.41c3.2-1.8,11.61-7.2,15.81-11l1.8,1c-2.4,8-5.6,21.01-7.8,31.41h22.21L50.62,80.76z"/>
	</g>
	<g>
		<path class="st0" d="M88.25,191.79v9.55c0,8.29,0.5,8.92,9.42,9.8v3.52h-29.4v-3.52c9.42-0.88,10.05-1.64,10.05-9.93v-9.42H45.16
			v-3.77c11.94-16.96,24.88-35.31,37.44-52.77h5.65v50.51h12.31v6.03H88.25z M78.33,148.44c-7.92,11.56-16.71,24.38-25.38,37.32
			h25.38V148.44z"/>
	</g>
	<g>
		<path class="st0" d="M135.1,124.07v28.77h-7.54v-28.77h-26.51v-6.91h26.51V91.03h7.54v26.13h26.38v6.91H135.1z"/>
	</g>
</g>
</svg>
