<?xml version="1.0" encoding="utf-8"?>
<!-- Generator: Adobe Illustrator 26.0.1, SVG Export Plug-In . SVG Version: 6.00 Build 0)  -->
<svg version="1.1" id="Layer_1" xmlns="http://www.w3.org/2000/svg" xmlns:xlink="http://www.w3.org/1999/xlink" x="0px" y="0px"
	 viewBox="0 0 256 256" style="enable-background:new 0 0 256 256;" xml:space="preserve">
<style type="text/css">
	.st0{fill:#4259C3;}
</style>
<g>
	<g>
		<path class="st0" d="M120.82,58.22c-5.91,0.59-20.98,1.78-29.85,1.78c-13.3,61.47-17.44,80.38-18.91,89.25
			c-1.48,9.16,0.3,11.82,2.96,11.82c5.91,0,15.66-7.68,26.6-18.62l3.84,7.39c-9.46,14.48-32.51,31.33-45.22,31.33
			c-10.34,0-15.37-7.98-7.68-42.85l17.14-78.32H46.05v-2.66l8.57-9.46h17.73l6.8-31.62C83.88,13.59,96.29,5.62,102.5,0l2.66,1.48
			c-3.55,11.82-8.28,31.03-11.52,46.4h32.8L120.82,58.22z"/>
	</g>
	<g>
		<path class="st0" d="M209.95,231.32c-2.41,8.35-5.57,17.82-7.42,24.68h-69.97v-4.45c10.21-10.02,21.34-20.97,30.44-31.55
			c11.69-13.74,22.83-28.58,22.83-44.73c0-15.41-8.17-24.32-21.72-24.32c-12.81,0-20.79,10.02-25.61,17.26l-4.27-3.9l10.58-15.03
			c5.75-6.5,14.66-11.14,25.43-11.14c17.63,0,31.55,12.06,31.55,32.11c0,15.77-5.75,26.91-23.39,44.92
			c-7.98,8.35-19.68,19.67-27.65,27.28c1.11,0,33.78,0,35.45,0c10.02,0,12.81-0.93,19.12-12.62L209.95,231.32z"/>
	</g>
</g>
</svg>
