<?xml version="1.0" encoding="utf-8"?>
<!-- Generator: Adobe Illustrator 26.0.1, SVG Export Plug-In . SVG Version: 6.00 Build 0)  -->
<svg version="1.1" id="Layer_1" xmlns="http://www.w3.org/2000/svg" xmlns:xlink="http://www.w3.org/1999/xlink" x="0px" y="0px"
	 viewBox="0 0 256 256" style="enable-background:new 0 0 256 256;" xml:space="preserve">
<style type="text/css">
	.st0{fill:#4259C3;}
</style>
<g>
	<g>
		<path class="st0" d="M128.49,58.22c-5.91,0.59-20.98,1.78-29.85,1.78c-13.3,61.47-17.44,80.38-18.91,89.25
			c-1.48,9.16,0.3,11.82,2.96,11.82c5.91,0,15.66-7.68,26.6-18.62l3.84,7.39c-9.46,14.48-32.51,31.33-45.22,31.33
			c-10.34,0-15.37-7.98-7.68-42.85l17.14-78.32H53.72v-2.66l8.57-9.46h17.73l6.8-31.62C91.55,13.59,103.96,5.62,110.17,0l2.66,1.48
			c-3.55,11.82-8.28,31.03-11.52,46.4h32.8L128.49,58.22z"/>
	</g>
	<g>
		<path class="st0" d="M184.09,222.22v14.11c0,12.25,0.74,13.18,13.92,14.48v5.2h-43.43v-5.2c13.92-1.3,14.85-2.42,14.85-14.66
			v-13.92h-49v-5.57c17.63-25.06,36.75-52.16,55.31-77.96h8.35v74.61h18.19v8.91H184.09z M169.42,158.19
			c-11.69,17.08-24.68,36.01-37.49,55.13h37.49V158.19z"/>
	</g>
</g>
</svg>
