<?xml version="1.0" encoding="utf-8"?>
<!-- Generator: Adobe Illustrator 26.0.1, SVG Export Plug-In . SVG Version: 6.00 Build 0)  -->
<svg version="1.1" id="Layer_1" xmlns="http://www.w3.org/2000/svg" xmlns:xlink="http://www.w3.org/1999/xlink" x="0px" y="0px"
	 viewBox="0 0 256 256" style="enable-background:new 0 0 256 256;" xml:space="preserve">
<style type="text/css">
	.st0{fill:#4259C3;}
</style>
<g>
	<g>
		<path class="st0" d="M120.88,57.72c-5.86,0.59-20.8,1.76-29.59,1.76C78.11,120.42,74,139.17,72.54,147.96
			c-1.47,9.08,0.29,11.72,2.93,11.72c5.86,0,15.53-7.62,26.37-18.46l3.81,7.32c-9.38,14.36-32.23,31.06-44.83,31.06
			c-10.25,0-15.23-7.91-7.62-42.48L70.2,59.48H46.76v-2.64l8.5-9.38h17.58l6.74-31.35C84.26,13.48,96.56,5.57,102.72,0l2.64,1.46
			c-3.52,11.72-8.2,30.77-11.43,46h32.52L120.88,57.72z"/>
	</g>
	<g>
		<path class="st0" d="M171.34,136.95c27.6,0,37.91,30.91,37.91,59.43c0,26.87-10.3,59.62-37.91,59.62
			c-28.15,0-38.45-30.36-38.45-59.43C132.88,169.7,143.37,136.95,171.34,136.95z M171.34,143.39c-17.11,0-21.35,27.05-21.35,52.81
			s5.15,53.36,21.35,53.36c16.56,0,20.98-27.41,20.98-53.18C192.31,170.44,187.72,143.39,171.34,143.39z"/>
	</g>
</g>
</svg>
