<?xml version="1.0" encoding="utf-8"?>
<!-- Generator: Adobe Illustrator 26.0.1, SVG Export Plug-In . SVG Version: 6.00 Build 0)  -->
<svg version="1.1" id="Layer_1" xmlns="http://www.w3.org/2000/svg" xmlns:xlink="http://www.w3.org/1999/xlink" x="0px" y="0px"
	 viewBox="0 0 256 256" style="enable-background:new 0 0 256 256;" xml:space="preserve">
<style type="text/css">
	.st0{fill:#4259C3;}
</style>
<g>
	<g>
		<path class="st0" d="M124.63,58.22c-5.91,0.59-20.98,1.78-29.85,1.78c-13.3,61.47-17.44,80.38-18.91,89.25
			c-1.48,9.16,0.3,11.82,2.96,11.82c5.91,0,15.66-7.68,26.6-18.62l3.84,7.39c-9.46,14.48-32.51,31.33-45.22,31.33
			c-10.34,0-15.37-7.98-7.68-42.85L73.5,59.99H49.86v-2.66l8.57-9.46h17.73l6.8-31.62C87.68,13.59,100.1,5.62,106.3,0l2.66,1.48
			c-3.55,11.82-8.28,31.03-11.52,46.4h32.8L124.63,58.22z"/>
	</g>
	<g>
		<path class="st0" d="M147.12,256v-5.2c20.6-1.3,21.72-2.23,21.72-16.15v-71.27c0-9.47-1.3-9.84-9.47-10.58l-9.09-0.93v-4.64
			c12.25-2.04,24.5-5.01,33.97-9.09v96.51c0,14.11,1.11,14.85,21.9,16.15v5.2H147.12z"/>
	</g>
</g>
</svg>
