<?xml version="1.0" encoding="utf-8"?>
<!-- Generator: Adobe Illustrator 26.0.1, SVG Export Plug-In . SVG Version: 6.00 Build 0)  -->
<svg version="1.1" id="Layer_1" xmlns="http://www.w3.org/2000/svg" xmlns:xlink="http://www.w3.org/1999/xlink" x="0px" y="0px"
	 viewBox="0 0 256 256" style="enable-background:new 0 0 256 256;" xml:space="preserve">
<style type="text/css">
	.st0{fill:#4259C3;}
</style>
<g>
	<g>
		<g>
			<path class="st0" d="M256,167.89h-70.02V59.72H256V167.89z M191.92,161.94h58.13V65.67h-58.13V161.94z"/>
		</g>
	</g>
	<g>
		<path class="st0" d="M50.62,80.01c-4,0.4-14.21,1.2-20.21,1.2c-9,41.61-11.8,54.42-12.8,60.42c-1,6.2,0.2,8,2,8
			c4,0,10.6-5.2,18.01-12.6l2.6,5c-6.4,9.8-22.01,21.21-30.61,21.21c-7,0-10.4-5.4-5.2-29.01l11.61-53.02H0v-1.8L5.8,73h12
			l4.6-21.41c3.2-1.8,11.61-7.2,15.81-11l1.8,1c-2.4,8-5.6,21.01-7.8,31.41h22.21L50.62,80.01z"/>
	</g>
	<g>
		<path class="st0" d="M58.35,149.19l5.91-7.91c3.64-4.02,9.42-7.16,16.21-7.16c11.43,0,18.97,7.16,18.97,16.71
			c0,3.77-1.63,6.78-3.9,9.3c-2.01,2.13-5.28,4.4-8.92,6.78c11.68,2.51,18.6,10.18,18.6,19.35c0,20.48-24.12,29.15-33.05,29.15
			c-5.91,0-11.31-2.51-13.07-4.4c-1.51-1.63-1.88-2.76-1.88-4.15c0.13-2.01,1.76-3.89,2.89-4.77c1-0.75,2.14-0.88,3.27,0.13
			c3.39,3.01,8.42,6.66,15.58,6.66c9.05,0,15.46-6.79,15.46-18.97c-0.13-11.56-8.54-16.08-16.59-16.08c-2.89,0-6.41,0.75-8.42,1.38
			l-0.88-3.77c11.18-3.64,20.23-8.67,20.23-17.97c0-7.41-4.77-11.68-12.06-11.68c-7.04,0-12.44,5.15-15.71,9.93L58.35,149.19z"/>
	</g>
	<g>
		<path class="st0" d="M135.1,123.32v28.77h-7.54v-28.77h-26.51v-6.91h26.51V90.27h7.54v26.13h26.39v6.91H135.1z"/>
	</g>
</g>
</svg>
