<?xml version="1.0" encoding="utf-8"?>
<!-- Generator: Adobe Illustrator 26.0.1, SVG Export Plug-In . SVG Version: 6.00 Build 0)  -->
<svg version="1.1" id="Layer_1" xmlns="http://www.w3.org/2000/svg" xmlns:xlink="http://www.w3.org/1999/xlink" x="0px" y="0px"
	 viewBox="0 0 256 256" style="enable-background:new 0 0 256 256;" xml:space="preserve">
<style type="text/css">
	.st0{fill:#4259C3;}
</style>
<g>
	<g>
		<g>
			<path class="st0" d="M256,168.64h-70.02V60.48H256V168.64z M191.92,162.69h58.13V66.42h-58.13V162.69z"/>
		</g>
	</g>
	<g>
		<path class="st0" d="M50.62,80.76c-4,0.4-14.21,1.2-20.21,1.2c-9,41.61-11.8,54.42-12.8,60.42c-1,6.2,0.2,8,2,8
			c4,0,10.6-5.2,18.01-12.6l2.6,5c-6.4,9.8-22.01,21.21-30.61,21.21c-7,0-10.4-5.4-5.2-29.01l11.61-53.02H0v-1.8l5.8-6.4h12
			l4.6-21.41c3.2-1.8,11.61-7.2,15.81-11l1.8,1c-2.4,8-5.6,21.01-7.8,31.41h22.21L50.62,80.76z"/>
	</g>
	<g>
		<path class="st0" d="M110.96,197.94c-1.63,5.65-3.77,12.06-5.03,16.71H58.56v-3.01c6.91-6.78,14.45-14.2,20.61-21.36
			c7.92-9.3,15.45-19.35,15.45-30.28c0-10.43-5.53-16.46-14.7-16.46c-8.67,0-14.07,6.78-17.34,11.69l-2.89-2.64l7.16-10.18
			c3.89-4.4,9.93-7.54,17.21-7.54c11.94,0,21.36,8.17,21.36,21.74c0,10.68-3.9,18.22-15.83,30.41c-5.4,5.65-13.32,13.32-18.72,18.47
			c0.75,0,22.87,0,24,0c6.79,0,8.67-0.63,12.94-8.54L110.96,197.94z"/>
	</g>
	<g>
		<path class="st0" d="M135.1,124.07v28.77h-7.54v-28.77h-26.51v-6.91h26.51V91.03h7.54v26.13h26.39v6.91H135.1z"/>
	</g>
</g>
</svg>
