<?xml version="1.0" encoding="utf-8"?>
<!-- Generator: Adobe Illustrator 26.0.1, SVG Export Plug-In . SVG Version: 6.00 Build 0)  -->
<svg version="1.1" id="Layer_1" xmlns="http://www.w3.org/2000/svg" xmlns:xlink="http://www.w3.org/1999/xlink" x="0px" y="0px"
	 viewBox="0 0 256 256" style="enable-background:new 0 0 256 256;" xml:space="preserve">
<style type="text/css">
	.st0{fill:#4259C3;}
</style>
<g>
	<g>
		<g>
			<path class="st0" d="M166.28,26.96c-17.64,2.59-21.87,4.23-36.93,17.88c-13.4,11.99-31.75,27.99-50.33,44.69
				c11.99,19.05,31.99,47.74,42.57,62.09c8.94,11.99,12.94,13.41,27.99,15.05l-1.88,6.59h-35.75
				c-14.58-21.64-31.04-47.04-43.74-66.32c-5.17-8-7.76-9.17-14.11-8.7l-8.23,44.69c-3.53,20.93-3.06,21.87,18.11,23.75l-1.41,6.59
				H0l1.65-6.59c18.81-1.65,21.17-2.82,24.93-23.75l18.11-93.37c3.76-19.29,2.35-20.7-17.87-22.58l1.41-6.59h62.09l-1.41,6.59
				c-19.29,1.65-21.64,3.06-25.4,22.58l-8,41.86c5.41-0.47,9.88-2.35,15.05-6.35c13.4-11.05,38.81-34.1,50.57-47.04
				c5.88-6.59,4.7-8.94-3.29-10.11l-7.29-0.94l1.65-6.59h55.98L166.28,26.96z"/>
		</g>
	</g>
	<g>
		<g>
			<path class="st0" d="M256,136.37c-1.63,6.79-3.4,17.58-4.73,25.55l-4.58,0.3c0-2.36,0-5.61-0.59-8.12
				c-0.74-6.5-2.51-8.86-15.95-8.86h-9.01l-13.88,72.52c-2.21,11.96-1.03,12.7,12.41,13.74l-0.89,4.14h-40.62l1.03-4.14
				c12.55-1.03,13.59-1.92,15.8-13.74l13.88-72.52h-8.86c-11.82,0-14.33,1.92-16.99,5.76c-2.07,2.66-4.43,6.5-6.65,11.37l-4.73-0.44
				c2.36-8.57,4.73-17.43,6.06-25.55h3.4c1.48,3.4,3.1,3.25,7.09,3.25h56.72c3.84,0,4.87-0.44,7.68-3.25H256z"/>
		</g>
	</g>
</g>
</svg>
