<?xml version="1.0" encoding="utf-8"?>
<!-- Generator: Adobe Illustrator 26.0.1, SVG Export Plug-In . SVG Version: 6.00 Build 0)  -->
<svg version="1.1" id="Layer_1" xmlns="http://www.w3.org/2000/svg" xmlns:xlink="http://www.w3.org/1999/xlink" x="0px" y="0px"
	 viewBox="0 0 256 256" style="enable-background:new 0 0 256 256;" xml:space="preserve">
<style type="text/css">
	.st0{fill:#4259C3;}
</style>
<g>
	<g>
		<g>
			<path class="st0" d="M100.62,0c40.56,0,59.02,20.14,59.02,46.99c0,41.4-34.41,61.26-67.13,61.26c-2.52,0-7.83-0.56-11.19-1.4
				l-18.46-4.19l-8.39,45.31c-3.92,20.98-2.8,24.06,22.94,26.01l-1.4,7.83H0.21l1.68-7.83c21.82-1.96,25.17-3.64,29.37-26.85
				l22.1-113.56c4.19-21.82,2.8-23.5-21.54-25.73L33.49,0H100.62z M64.82,93.42c3.92,1.12,12.87,3.63,22.94,3.63
				c20.14,0,46.71-12.03,46.71-50.07c0-23.78-12.87-37.76-35.52-37.76c-14.55,0-19.3,3.92-21.26,15.66L64.82,93.42z"/>
		</g>
	</g>
	<g>
		<g>
			<path class="st0" d="M255.79,137.95c-1.93,8.08-4.04,20.9-5.62,30.39l-5.45,0.35c0-2.81,0-6.67-0.7-9.66
				c-0.88-7.73-2.99-10.54-18.97-10.54h-10.72l-16.51,86.25c-2.63,14.23-1.23,15.11,14.76,16.34l-1.05,4.92h-48.31l1.23-4.92
				c14.93-1.23,16.16-2.28,18.79-16.34l16.51-86.25h-10.54c-14.05,0-17.04,2.28-20.2,6.85c-2.46,3.16-5.27,7.73-7.91,13.52
				l-5.62-0.53c2.81-10.19,5.62-20.73,7.2-30.39h4.04c1.76,4.04,3.69,3.87,8.43,3.87h67.46c4.57,0,5.8-0.53,9.14-3.87H255.79z"/>
		</g>
	</g>
</g>
</svg>
