<?xml version="1.0" encoding="utf-8"?>
<!-- Generator: Adobe Illustrator 26.0.1, SVG Export Plug-In . SVG Version: 6.00 Build 0)  -->
<svg version="1.1" id="Layer_1" xmlns="http://www.w3.org/2000/svg" xmlns:xlink="http://www.w3.org/1999/xlink" x="0px" y="0px"
	 viewBox="0 0 256 256" style="enable-background:new 0 0 256 256;" xml:space="preserve">
<style type="text/css">
	.st0{fill:#4259C3;}
</style>
<g>
	<g>
		<g>
			<path class="st0" d="M256,137.39c-1.82,7.62-3.81,19.72-5.3,28.67l-5.14,0.33c0-2.65,0-6.3-0.66-9.11
				c-0.83-7.29-2.82-9.94-17.9-9.94h-10.11l-15.58,81.37c-2.48,13.42-1.16,14.25,13.92,15.41l-0.99,4.64h-45.57l1.16-4.64
				c14.09-1.16,15.24-2.15,17.73-15.41l15.58-81.37h-9.94c-13.26,0-16.07,2.15-19.06,6.46c-2.32,2.98-4.97,7.29-7.46,12.76l-5.3-0.5
				c2.65-9.61,5.3-19.56,6.8-28.67h3.81c1.66,3.81,3.48,3.65,7.96,3.65h63.64c4.31,0,5.47-0.5,8.62-3.65H256z"/>
		</g>
	</g>
	<g>
		<g>
			<path class="st0" d="M175.21,14.63c-17.94,1.06-21.9,6.6-24.28,16.36c-2.64,9.5-6.6,26.12-16.1,75.21
				c-9.5,50.4-27.97,76.79-74.94,76.52c-35.89-0.26-64.38-17.94-53.57-73.62l13.98-71.25C24.01,17.8,21.64,16.74,0,14.63l1.58-7.39
				h69.4l-1.32,7.39c-21.11,2.11-23.48,2.64-27.44,23.22L28.5,108.31c-8.71,44.07,9.5,60.43,37.47,60.43
				c32.19,0,48.03-16.36,57-62.01c9.76-50.4,12.67-67.02,13.46-77.05c0.79-11.09-3.96-13.72-23.75-15.04l1.85-7.39h62.54
				L175.21,14.63z"/>
		</g>
	</g>
</g>
</svg>
