<?xml version="1.0" encoding="utf-8"?>
<!-- Generator: Adobe Illustrator 26.0.1, SVG Export Plug-In . SVG Version: 6.00 Build 0)  -->
<svg version="1.1" id="Layer_1" xmlns="http://www.w3.org/2000/svg" xmlns:xlink="http://www.w3.org/1999/xlink" x="0px" y="0px"
	 viewBox="0 0 256 256" style="enable-background:new 0 0 256 256;" xml:space="preserve">
<style type="text/css">
	.st0{fill:#4259C3;}
</style>
<g>
	<g>
		<g>
			<path class="st0" d="M182.97,42.18c-17.18,1.6-18.18,2.2-20.77,18.78c-4.2,28.56-6.99,52.13-10.39,78.3
				c-2.6,19.37-0.8,20.17,15.98,21.57l-1.4,5.59h-52.33l1.4-5.59c15.98-1.6,17.18-2.2,20.17-21.57
				c4.19-28.96,7.99-55.53,12.38-83.89h-0.6c-21.97,36.75-55.33,92.48-65.32,111.06H77.5c-3.2-20.57-15.78-70.91-23.57-109.06h-0.4
				L40.35,112.1c-4.79,20.17-6.99,29.36-7.99,36.15c-1.4,8.79,0.6,11.19,15.98,12.58l-1.4,5.59H0l1.4-5.59
				c13.58-1,16.98-3.8,19.77-12.18c3.6-10.39,7.79-24.17,13.18-45.34l9.59-38.35c4.99-19.58,4.79-20.37-14.58-22.77l1.6-5.59h33.56
				c6.59,30.76,17.18,67.91,24.77,101.47l61.92-101.47h33.16L182.97,42.18z"/>
		</g>
	</g>
	<g>
		<g>
			<path class="st0" d="M256,135.11c-1.38,5.77-2.88,14.93-4.01,21.7l-3.89,0.25c0-2.01,0-4.77-0.5-6.9
				c-0.63-5.52-2.13-7.53-13.55-7.53h-7.65l-11.79,61.6c-1.88,10.16-0.88,10.79,10.54,11.67l-0.75,3.51h-34.5l0.88-3.51
				c10.66-0.88,11.54-1.63,13.42-11.67l11.79-61.6h-7.53c-10.04,0-12.17,1.63-14.43,4.89c-1.76,2.26-3.76,5.52-5.65,9.66l-4.01-0.38
				c2.01-7.28,4.01-14.8,5.14-21.7h2.88c1.26,2.88,2.64,2.76,6.02,2.76h48.17c3.26,0,4.14-0.38,6.52-2.76H256z"/>
		</g>
	</g>
</g>
</svg>
