<?xml version="1.0" encoding="utf-8"?>
<!-- Generator: Adobe Illustrator 26.0.1, SVG Export Plug-In . SVG Version: 6.00 Build 0)  -->
<svg version="1.1" id="Layer_1" xmlns="http://www.w3.org/2000/svg" xmlns:xlink="http://www.w3.org/1999/xlink" x="0px" y="0px"
	 viewBox="0 0 256 256" style="enable-background:new 0 0 256 256;" xml:space="preserve">
<style type="text/css">
	.st0{fill:#4259C3;}
</style>
<g>
	<g>
		<g>
			<path class="st0" d="M97.26,158.23c-13.88,18.6-31.37,27.48-39.7,27.48c-7.22,0-10.27-7.22-5-29.43
				c4.44-18.32,12.22-48.02,17.49-70.51C71.17,80.5,70.89,78,69.22,78c-2.78,0-11.1,5.55-18.32,12.49l-3.61-7.22
				c13.05-14.16,31.92-26.09,40.8-26.09c6.94,0,7.22,9.44,2.22,29.98c-5.27,19.99-11.94,48.02-16.93,67.73
				c-1.94,7.49-1.94,10.55,0,10.55c2.78,0,10.27-3.89,19.99-14.16L97.26,158.23z M105.03,12.77c0,8.6-6.11,16.1-14.71,16.1
				c-6.94,0-12.22-5-12.22-12.49C78.11,9.16,83.66,0,93.65,0C101.15,0,105.03,5.83,105.03,12.77z"/>
		</g>
	</g>
	<g>
		<g>
			<path class="st0" d="M208.7,138.85c-1.92,8.02-4.01,20.75-5.58,30.16l-5.41,0.35c0-2.79,0-6.62-0.7-9.59
				c-0.87-7.67-2.96-10.46-18.83-10.46h-10.64l-16.39,85.6c-2.61,14.12-1.22,14.99,14.64,16.21l-1.05,4.88h-47.94l1.22-4.88
				c14.82-1.22,16.04-2.27,18.65-16.21l16.39-85.6h-10.46c-13.95,0-16.91,2.27-20.05,6.8c-2.44,3.14-5.23,7.67-7.85,13.42
				l-5.58-0.52c2.79-10.11,5.58-20.57,7.15-30.16h4.01c1.74,4.01,3.66,3.84,8.37,3.84h66.94c4.53,0,5.75-0.52,9.07-3.84H208.7z"/>
		</g>
	</g>
</g>
</svg>
