<?xml version="1.0" encoding="utf-8"?>
<!-- Generator: Adobe Illustrator 26.0.1, SVG Export Plug-In . SVG Version: 6.00 Build 0)  -->
<svg version="1.1" id="Layer_1" xmlns="http://www.w3.org/2000/svg" xmlns:xlink="http://www.w3.org/1999/xlink" x="0px" y="0px"
	 viewBox="0 0 256 256" style="enable-background:new 0 0 256 256;" xml:space="preserve">
<style type="text/css">
	.st0{fill:#4259C3;}
</style>
<g>
	<g>
		<g>
			<path class="st0" d="M130.15,7.83c-23.49,1.96-25.73,3.64-29.65,24.06l-22.38,117.2c-4.2,21.26-1.68,23.22,21.82,24.89l-1.4,7.83
				H23.86l1.68-7.83c22.66-1.96,25.17-3.91,29.37-24.89l22.66-117.2c3.92-20.7,1.68-22.1-21.82-24.06L57.43,0h74.4L130.15,7.83z"/>
		</g>
	</g>
	<g>
		<g>
			<path class="st0" d="M232.14,137.95c-1.93,8.08-4.04,20.9-5.62,30.39l-5.45,0.35c0-2.81,0-6.67-0.7-9.66
				c-0.88-7.73-2.99-10.54-18.97-10.54h-10.72l-16.51,86.25c-2.63,14.23-1.23,15.11,14.76,16.34l-1.05,4.92h-48.31l1.23-4.92
				c14.93-1.23,16.16-2.28,18.79-16.34l16.51-86.25h-10.54c-14.05,0-17.04,2.28-20.2,6.85c-2.46,3.16-5.27,7.73-7.91,13.52
				l-5.62-0.53c2.81-10.19,5.62-20.73,7.2-30.39h4.04c1.76,4.04,3.69,3.87,8.43,3.87h67.46c4.57,0,5.8-0.53,9.14-3.87H232.14z"/>
		</g>
	</g>
</g>
</svg>
