<?xml version="1.0" encoding="utf-8"?>
<!-- Generator: Adobe Illustrator 26.0.1, SVG Export Plug-In . SVG Version: 6.00 Build 0)  -->
<svg version="1.1" id="Layer_1" xmlns="http://www.w3.org/2000/svg" xmlns:xlink="http://www.w3.org/1999/xlink" x="0px" y="0px"
	 viewBox="0 0 256 256" style="enable-background:new 0 0 256 256;" xml:space="preserve">
<style type="text/css">
	.st0{fill:#4259C3;}
</style>
<g>
	<g>
		<g>
			<path class="st0" d="M215.15,25.64c-14.29,1.91-17.87,2.86-27.64,22.16c-10.25,20.01-32.4,65.28-63.14,128.66h-7.86L99.12,56.61
				L39.55,176.46h-7.86L19.78,48.27C17.87,28.26,16.68,27.3,0,25.64l1.43-6.67h55.04l-1.91,6.67l-5,0.72
				c-10.01,1.67-12.15,2.86-10.96,15.72l8.1,99.6l59.33-120.09h7.39l16.92,120.32c15.25-30.26,37.88-77.44,47.42-99.84
				c5-11.91,2.38-14.06-9.77-15.48l-5.48-0.95l1.43-6.67h52.9L215.15,25.64z"/>
		</g>
	</g>
	<g>
		<g>
			<path class="st0" d="M256,136.48c-1.65,6.88-3.44,17.81-4.79,25.89l-4.64,0.3c0-2.4,0-5.69-0.6-8.23
				c-0.75-6.59-2.54-8.98-16.16-8.98h-9.13l-14.07,73.47c-2.24,12.12-1.05,12.87,12.57,13.92l-0.9,4.19h-41.15l1.05-4.19
				c12.72-1.05,13.77-1.95,16.01-13.92l14.07-73.47h-8.98c-11.97,0-14.51,1.95-17.21,5.84c-2.09,2.69-4.49,6.58-6.73,11.52
				l-4.79-0.45c2.4-8.68,4.79-17.66,6.14-25.89h3.44c1.5,3.44,3.14,3.29,7.18,3.29h57.46c3.89,0,4.94-0.45,7.78-3.29H256z"/>
		</g>
	</g>
</g>
</svg>
