<?xml version="1.0" encoding="utf-8"?>
<!-- Generator: Adobe Illustrator 26.0.1, SVG Export Plug-In . SVG Version: 6.00 Build 0)  -->
<svg version="1.1" id="Layer_1" xmlns="http://www.w3.org/2000/svg" xmlns:xlink="http://www.w3.org/1999/xlink" x="0px" y="0px"
	 viewBox="0 0 256 256" style="enable-background:new 0 0 256 256;" xml:space="preserve">
<style type="text/css">
	.st0{fill:#4259C3;}
</style>
<g>
	<g>
		<g>
			<path class="st0" d="M120.68,5.14c12.9,0,24.99,0,34.94-0.27c-1.61,6.45-4.57,25-6.99,40.86l-8.33,0.27
				c-1.08-27.95-5.65-30.64-23.12-30.64H90.58c-8.87,0-11.29,0.54-13.17,10.75L66.12,83.89H93.8c22.04,0,23.12-3.23,30.64-22.04
				h8.06l-11.02,55.63h-8.06c0-20.69,0.81-23.38-22.04-23.38H64.24l-9.41,47.84c-4.03,19.09-3.49,27.68,15.59,27.68h19.89
				c15.86,0,22.85-1.61,30.37-8.6c6.45-5.91,12.63-15.05,17.74-24.73l7.8,2.69c-2.69,7.53-11.83,32.52-15.32,40.85H0l1.88-7.53
				c23.65-2.42,25.8-3.23,29.83-24.73L52.95,37.66c4.03-20.7,2.69-23.12-20.7-25l1.61-7.53H120.68z"/>
		</g>
	</g>
	<g>
		<g>
			<path class="st0" d="M256,137.7c-1.86,7.76-3.88,20.09-5.4,29.2l-5.23,0.34c0-2.7,0-6.41-0.67-9.28
				c-0.84-7.43-2.87-10.13-18.23-10.13h-10.3l-15.87,82.88c-2.53,13.67-1.18,14.52,14.18,15.7l-1.01,4.73h-46.42l1.18-4.73
				c14.35-1.18,15.53-2.19,18.06-15.7l15.87-82.88h-10.13c-13.5,0-16.37,2.19-19.41,6.58c-2.36,3.04-5.06,7.43-7.6,13l-5.4-0.51
				c2.7-9.79,5.4-19.92,6.92-29.2h3.88c1.69,3.88,3.55,3.71,8.1,3.71h64.82c4.39,0,5.57-0.51,8.78-3.71H256z"/>
		</g>
	</g>
</g>
</svg>
