<?xml version="1.0" encoding="utf-8"?>
<!-- Generator: Adobe Illustrator 26.0.1, SVG Export Plug-In . SVG Version: 6.00 Build 0)  -->
<svg version="1.1" id="Layer_1" xmlns="http://www.w3.org/2000/svg" xmlns:xlink="http://www.w3.org/1999/xlink" x="0px" y="0px"
	 viewBox="0 0 256 256" style="enable-background:new 0 0 256 256;" xml:space="preserve">
<style type="text/css">
	.st0{fill:#4259C3;}
</style>
<g>
	<g>
		<g>
			<path class="st0" d="M256,136.42c-1.64,6.84-3.42,17.69-4.76,25.72l-4.61,0.3c0-2.38,0-5.65-0.59-8.18
				c-0.74-6.54-2.53-8.92-16.06-8.92h-9.07l-13.97,72.99c-2.23,12.04-1.04,12.78,12.49,13.83l-0.89,4.16h-40.88l1.04-4.16
				c12.64-1.04,13.68-1.93,15.91-13.83l13.97-72.99h-8.92c-11.89,0-14.42,1.93-17.1,5.8c-2.08,2.67-4.46,6.54-6.69,11.45l-4.76-0.44
				c2.38-8.62,4.76-17.54,6.1-25.72h3.42c1.49,3.42,3.12,3.27,7.14,3.27h57.09c3.87,0,4.91-0.45,7.73-3.27H256z"/>
		</g>
	</g>
	<g>
		<g>
			<path class="st0" d="M166.17,26.3c-16.1,1.89-20.36,2.84-33.14,16.57c-6.39,7.1-16.81,20.12-37.64,45.69l26.27,57.76
				c8.05,17.75,11.13,18.46,29.12,20.59l-1.42,6.63H88.53l1.42-6.63l6.39-0.95c8.99-1.18,10.65-3.08,7.34-11.12
				c-3.08-7.81-9-21.31-22.01-50.9c-15.62,20.12-28.88,37.4-38.58,50.9c-4.97,7.34-3.08,9.7,6.63,11.36l6.63,0.71l-1.66,6.63H0
				l1.42-6.63c14.44-1.42,18.46-2.84,29.59-14.91c8.05-8.76,25.56-30.77,46.16-56.81L55.39,45.24
				C48.53,29.62,45.21,27.96,28.64,26.3l1.66-6.63h57.52L86.4,26.3l-6.39,0.95c-8.05,1.42-10.18,2.6-7.57,9.23
				c4.02,10.65,10.18,25.09,18.7,43.32c11.13-13.26,22.01-27.46,32.43-41.9c4.97-7.34,4.02-9.23-4.03-10.42l-6.86-1.18l1.42-6.63
				h53.5L166.17,26.3z"/>
		</g>
	</g>
</g>
</svg>
