<?xml version="1.0" encoding="utf-8"?>
<!-- Generator: Adobe Illustrator 26.0.1, SVG Export Plug-In . SVG Version: 6.00 Build 0)  -->
<svg version="1.1" id="Layer_1" xmlns="http://www.w3.org/2000/svg" xmlns:xlink="http://www.w3.org/1999/xlink" x="0px" y="0px"
	 viewBox="0 0 256 256" style="enable-background:new 0 0 256 256;" xml:space="preserve">
<style type="text/css">
	.st0{fill:#4259C3;}
</style>
<g>
	<g>
		<g>
			<path class="st0" d="M88.94,37.45c9.51,0,18.42,0,25.75-0.2c-1.19,4.76-3.37,18.42-5.15,30.11l-6.14,0.2
				c-0.79-20.6-4.16-22.58-17.04-22.58H66.75c-6.54,0-8.32,0.4-9.71,7.92l-8.32,42.59h20.4c16.24,0,17.04-2.38,22.58-16.24h5.94
				l-8.12,41h-5.94c0-15.25,0.6-17.23-16.24-17.23H47.34l-6.93,35.26c-2.97,14.07-2.57,20.4,11.49,20.4h14.66
				c11.69,0,16.84-1.19,22.38-6.34c4.75-4.36,9.31-11.09,13.07-18.22l5.74,1.98c-1.98,5.55-8.72,23.97-11.29,30.11H0l1.39-5.55
				c17.43-1.78,19.02-2.38,21.99-18.22l15.65-81.01C41.99,46.17,41,44.39,23.77,43l1.19-5.55H88.94z"/>
		</g>
		<g>
			<path class="st0" d="M182.02,87.57c0,3.37-2.77,7.92-6.14,9.51c-1.78,0.79-2.97,0.4-4.56-1.39c-5.35-6.14-10.3-8.91-14.86-8.91
				c-5.15,0-10.7,4.16-10.7,11.29c0,6.54,5.94,11.29,13.07,16.83c11.88,9.31,17.04,14.46,17.04,23.18c0,16.24-20.6,30.5-36.65,30.5
				c-9.51,0-18.62-6.54-18.62-13.47c0-4.36,4.75-9.71,8.12-10.1c1.39-0.2,2.18,0.59,3.37,1.98c4.95,7.13,10.89,11.49,17.43,11.49
				c8.12,0,13.07-5.94,13.07-12.28c0-4.75-2.18-9.51-11.49-17.23c-9.31-7.33-17.43-12.88-17.23-23.18c0-5.94,2.38-12.48,10.3-19.21
				c6.34-5.74,15.45-9.71,22.18-9.71C175.09,76.87,182.02,82.02,182.02,87.57z"/>
		</g>
	</g>
	<g>
		<g>
			<path class="st0" d="M256,135.15c-1.37,5.72-2.86,14.8-3.98,21.52l-3.86,0.25c0-1.99,0-4.73-0.5-6.84
				c-0.62-5.47-2.11-7.46-13.43-7.46h-7.59l-11.69,61.08c-1.86,10.08-0.87,10.7,10.45,11.57l-0.75,3.48h-34.21l0.87-3.48
				c10.57-0.87,11.44-1.62,13.31-11.57l11.69-61.08h-7.46c-9.95,0-12.07,1.62-14.31,4.85c-1.74,2.24-3.73,5.47-5.6,9.58l-3.98-0.37
				c1.99-7.22,3.98-14.68,5.1-21.52h2.86c1.24,2.86,2.61,2.74,5.97,2.74h47.77c3.23,0,4.1-0.37,6.47-2.74H256z"/>
		</g>
	</g>
</g>
</svg>
