<?xml version="1.0" encoding="utf-8"?>
<!-- Generator: Adobe Illustrator 26.0.1, SVG Export Plug-In . SVG Version: 6.00 Build 0)  -->
<svg version="1.1" id="Layer_1" xmlns="http://www.w3.org/2000/svg" xmlns:xlink="http://www.w3.org/1999/xlink" x="0px" y="0px"
	 viewBox="0 0 256 256" style="enable-background:new 0 0 256 256;" xml:space="preserve">
<style type="text/css">
	.st0{fill:#4259C3;}
</style>
<g>
	<g>
		<path class="st0" d="M84.12,65.54c3.51-17.56,8.9-34.64,20.13-47.05C115.02,6.32,128.83,0,138.19,0c8.19,0,14.98,4.68,14.98,9.6
			c0,3.51-3.98,9.36-7.02,11.71c-1.87,1.4-3.74,1.64-5.39,0c-5.38-5.85-11.23-8.9-16.15-8.9c-8.9,0-15.22,9.83-22.47,53.14h26.45
			l-4.45,8.43c-3.98,0.23-17.09,1.17-23.41,1.17c-4.45,25.75-7.02,40.73-12.17,68.35c-7.96,41.43-16.62,57.58-29.49,70.92
			c-10.3,11.24-21.54,15.45-27.16,15.45c-8.66,0-14.98-4.45-14.98-10.3c0-3.98,3.28-10.06,7.26-12.87c1.64-1.17,3.51-1.17,4.45,0
			c4.68,3.98,9.36,7.96,15.22,7.96c13.34,0,17.32-16.38,25.28-62.97c5.62-31.83,9.36-53.37,13.11-76.54h-19.9l0.23-2.81l6.55-6.79
			H84.12z"/>
	</g>
	<g>
		<path class="st0" d="M191.79,147.99c-8.28,0.97-10.47,1.46-17.04,8.52c-3.29,3.65-8.64,10.35-19.35,23.49l13.51,29.71
			c4.14,9.13,5.72,9.5,14.97,10.59l-0.73,3.41h-31.29l0.73-3.41l3.29-0.49c4.62-0.61,5.48-1.58,3.78-5.72
			c-1.58-4.02-4.63-10.96-11.32-26.17c-8.04,10.35-14.85,19.24-19.84,26.17c-2.56,3.78-1.58,4.99,3.41,5.84l3.41,0.37l-0.85,3.41
			h-28.12l0.73-3.41c7.42-0.73,9.5-1.46,15.22-7.67c4.14-4.5,13.15-15.83,23.74-29.22l-11.2-25.69c-3.53-8.03-5.24-8.89-13.76-9.74
			l0.85-3.41h29.58l-0.73,3.41l-3.29,0.49c-4.14,0.73-5.24,1.34-3.9,4.75c2.07,5.48,5.24,12.91,9.62,22.28
			c5.72-6.82,11.32-14.12,16.68-21.55c2.56-3.77,2.07-4.75-2.07-5.36l-3.53-0.61l0.73-3.41h27.51L191.79,147.99z"/>
	</g>
	<g>
		<path class="st0" d="M239.06,204.62c-0.84,3.52-1.76,9.1-2.45,13.23l-2.37,0.15c0-1.22,0-2.91-0.31-4.2
			c-0.38-3.36-1.3-4.59-8.26-4.59h-4.67l-7.18,37.54c-1.15,6.19-0.54,6.57,6.42,7.11L219.8,256h-21.02l0.53-2.14
			c6.5-0.54,7.03-0.99,8.18-7.11l7.19-37.54h-4.59c-6.12,0-7.42,0.99-8.79,2.98c-1.07,1.38-2.3,3.36-3.44,5.89l-2.45-0.23
			c1.22-4.43,2.45-9.02,3.14-13.23h1.76c0.76,1.76,1.61,1.68,3.67,1.68h29.36c1.99,0,2.52-0.23,3.98-1.68H239.06z"/>
	</g>
</g>
</svg>
