<?xml version="1.0" encoding="utf-8"?>
<!-- Generator: Adobe Illustrator 26.0.1, SVG Export Plug-In . SVG Version: 6.00 Build 0)  -->
<svg version="1.1" id="Layer_1" xmlns="http://www.w3.org/2000/svg" xmlns:xlink="http://www.w3.org/1999/xlink" x="0px" y="0px"
	 viewBox="0 0 256 256" style="enable-background:new 0 0 256 256;" xml:space="preserve">
<style type="text/css">
	.st0{fill:#4259C3;}
</style>
<g>
	<g>
		<path class="st0" d="M77.16,65.54c3.51-17.56,8.9-34.64,20.13-47.05C108.06,6.32,121.87,0,131.23,0c8.19,0,14.98,4.68,14.98,9.6
			c0,3.51-3.98,9.36-7.02,11.71c-1.87,1.4-3.74,1.64-5.38,0c-5.39-5.85-11.24-8.9-16.15-8.9c-8.89,0-15.21,9.83-22.47,53.14h26.45
			l-4.45,8.43c-3.98,0.23-17.09,1.17-23.41,1.17c-4.45,25.75-7.02,40.73-12.17,68.35c-7.96,41.43-16.62,57.58-29.49,70.92
			c-10.3,11.24-21.54,15.45-27.15,15.45c-8.66,0-14.98-4.45-14.98-10.3c0-3.98,3.28-10.06,7.25-12.87c1.64-1.17,3.51-1.17,4.45,0
			c4.68,3.98,9.36,7.96,15.22,7.96c13.34,0,17.32-16.38,25.28-62.97c5.62-31.83,9.36-53.37,13.11-76.54H55.39l0.23-2.81l6.55-6.79
			H77.16z"/>
	</g>
	<g>
		<path class="st0" d="M221.97,147.99c-7.31,0.97-9.13,1.46-14.12,11.32c-5.24,10.23-16.56,33.36-32.26,65.74h-4.02l-8.89-61.23
			l-30.43,61.23h-4.02l-6.09-65.5c-0.98-10.23-1.58-10.71-10.11-11.56l0.73-3.41h28.12l-0.97,3.41l-2.56,0.37
			c-5.11,0.85-6.21,1.46-5.6,8.03l4.14,50.89l30.32-61.36h3.77l8.64,61.48c7.79-15.46,19.36-39.56,24.23-51.01
			c2.56-6.09,1.22-7.18-4.99-7.91l-2.8-0.49l0.73-3.41h27.03L221.97,147.99z"/>
	</g>
	<g>
		<path class="st0" d="M246.02,204.62c-0.84,3.52-1.76,9.1-2.45,13.23l-2.37,0.15c0-1.22,0-2.91-0.31-4.2
			c-0.38-3.36-1.3-4.59-8.26-4.59h-4.67l-7.18,37.54c-1.15,6.19-0.54,6.57,6.42,7.11l-0.46,2.14h-21.02l0.53-2.14
			c6.5-0.54,7.03-0.99,8.18-7.11l7.19-37.54h-4.59c-6.12,0-7.42,0.99-8.79,2.98c-1.07,1.38-2.3,3.36-3.44,5.89l-2.45-0.23
			c1.22-4.43,2.45-9.02,3.14-13.23h1.76c0.76,1.76,1.61,1.68,3.67,1.68h29.36c1.99,0,2.52-0.23,3.98-1.68H246.02z"/>
	</g>
</g>
</svg>
