<?xml version="1.0" encoding="utf-8"?>
<!-- Generator: Adobe Illustrator 26.0.1, SVG Export Plug-In . SVG Version: 6.00 Build 0)  -->
<svg version="1.1" id="Layer_1" xmlns="http://www.w3.org/2000/svg" xmlns:xlink="http://www.w3.org/1999/xlink" x="0px" y="0px"
	 viewBox="0 0 256 256" style="enable-background:new 0 0 256 256;" xml:space="preserve">
<style type="text/css">
	.st0{fill:#4259C3;}
</style>
<g>
	<g>
		<path class="st0" d="M101.52,65.54c3.51-17.56,8.9-34.64,20.13-47.05C132.41,6.32,146.23,0,155.59,0c8.19,0,14.98,4.68,14.98,9.6
			c0,3.51-3.98,9.36-7.02,11.71c-1.87,1.4-3.74,1.64-5.39,0c-5.38-5.85-11.23-8.9-16.15-8.9c-8.9,0-15.22,9.83-22.47,53.14h26.45
			l-4.45,8.43c-3.98,0.23-17.09,1.17-23.41,1.17c-4.45,25.75-7.02,40.73-12.17,68.35c-7.96,41.43-16.62,57.58-29.49,70.92
			c-10.3,11.24-21.54,15.45-27.16,15.45c-8.66,0-14.98-4.45-14.98-10.3c0-3.98,3.28-10.06,7.26-12.87c1.64-1.17,3.51-1.17,4.45,0
			c4.68,3.98,9.36,7.96,15.22,7.96c13.34,0,17.32-16.38,25.28-62.97c5.62-31.83,9.36-53.37,13.11-76.54h-19.9l0.23-2.81l6.55-6.79
			H101.52z"/>
	</g>
	<g>
		<path class="st0" d="M159.64,213.12c-6.09,8.16-13.75,12.05-17.41,12.05c-3.17,0-4.51-3.17-2.19-12.91
			c1.95-8.03,5.36-21.06,7.67-30.92c0.49-2.31,0.37-3.41-0.36-3.41c-1.22,0-4.87,2.43-8.04,5.48l-1.58-3.17
			c5.72-6.21,14-11.44,17.9-11.44c3.04,0,3.16,4.14,0.98,13.15c-2.31,8.76-5.24,21.06-7.43,29.7c-0.85,3.29-0.85,4.63,0,4.63
			c1.22,0,4.51-1.7,8.77-6.21L159.64,213.12z M163.05,149.33c0,3.77-2.68,7.06-6.45,7.06c-3.04,0-5.36-2.19-5.36-5.48
			c0-3.17,2.44-7.18,6.82-7.18C161.35,143.73,163.05,146.29,163.05,149.33z"/>
	</g>
	<g>
		<path class="st0" d="M221.67,204.62c-0.84,3.52-1.76,9.1-2.45,13.23l-2.37,0.15c0-1.22,0-2.91-0.31-4.2
			c-0.38-3.36-1.3-4.59-8.26-4.59h-4.67l-7.18,37.54c-1.15,6.19-0.54,6.57,6.42,7.11L202.4,256h-21.02l0.53-2.14
			c6.5-0.54,7.03-0.99,8.18-7.11l7.19-37.54h-4.59c-6.12,0-7.42,0.99-8.79,2.98c-1.07,1.38-2.3,3.36-3.44,5.89l-2.45-0.23
			c1.22-4.43,2.45-9.02,3.14-13.23h1.76c0.76,1.76,1.61,1.68,3.67,1.68h29.36c1.99,0,2.52-0.23,3.98-1.68H221.67z"/>
	</g>
</g>
</svg>
