<?xml version="1.0" encoding="utf-8"?>
<!-- Generator: Adobe Illustrator 26.0.1, SVG Export Plug-In . SVG Version: 6.00 Build 0)  -->
<svg version="1.1" id="Layer_1" xmlns="http://www.w3.org/2000/svg" xmlns:xlink="http://www.w3.org/1999/xlink" x="0px" y="0px"
	 viewBox="0 0 256 256" style="enable-background:new 0 0 256 256;" xml:space="preserve">
<style type="text/css">
	.st0{fill:#4259C3;}
</style>
<g>
	<g>
		<path class="st0" d="M82.38,65.54c3.51-17.56,8.9-34.64,20.13-47.05C113.28,6.32,127.09,0,136.45,0c8.19,0,14.98,4.68,14.98,9.6
			c0,3.51-3.98,9.36-7.02,11.71c-1.87,1.4-3.74,1.64-5.38,0c-5.38-5.85-11.24-8.9-16.15-8.9c-8.89,0-15.21,9.83-22.47,53.14h26.45
			l-4.45,8.43c-3.98,0.23-17.09,1.17-23.41,1.17c-4.45,25.75-7.02,40.73-12.17,68.35c-7.96,41.43-16.62,57.58-29.49,70.92
			c-10.3,11.24-21.54,15.45-27.15,15.45c-8.66,0-14.98-4.45-14.98-10.3c0-3.98,3.28-10.06,7.26-12.87c1.64-1.17,3.51-1.17,4.45,0
			c4.68,3.98,9.36,7.96,15.22,7.96c13.34,0,17.32-16.38,25.28-62.97c5.62-31.83,9.36-53.37,13.11-76.54h-19.9l0.23-2.81l6.55-6.79
			H82.38z"/>
	</g>
	<g>
		<path class="st0" d="M186.28,165.89c0.85-14.49-5.24-18.75-18.02-18.75c-22.77,0-36.64,20.45-36.64,42.37
			c0,19.72,9.62,31.65,26.42,31.65c6.57,0,12.42-2.31,13.88-8.64l2.19-11.08c1.82-8.89,0.73-9.37-10.84-10.47l0.73-3.41h30.92
			l-0.85,3.29c-7.31,1.22-8.16,1.46-9.98,10.59l-1.83,9.98c-0.73,3.77-1.22,7.43-0.85,9.98c-7.55,1.7-15.46,4.14-25.08,4.14
			c-21.3,0-36.4-13.03-36.4-35.3c0-27.39,20.82-47.36,51.13-47.36c10.11,0,18.14,2.31,22.28,3.04c-0.85,3.77-2.19,11.2-3.29,19.72
			L186.28,165.89z"/>
	</g>
	<g>
		<path class="st0" d="M240.8,204.62c-0.84,3.52-1.76,9.1-2.45,13.23l-2.37,0.15c0-1.22,0-2.91-0.31-4.2
			c-0.38-3.36-1.3-4.59-8.26-4.59h-4.67l-7.18,37.54c-1.15,6.19-0.54,6.57,6.42,7.11l-0.46,2.14h-21.02l0.53-2.14
			c6.5-0.54,7.03-0.99,8.18-7.11l7.19-37.54h-4.59c-6.12,0-7.42,0.99-8.79,2.98c-1.07,1.38-2.3,3.36-3.44,5.89l-2.45-0.23
			c1.22-4.43,2.45-9.02,3.14-13.23h1.76c0.76,1.76,1.61,1.68,3.67,1.68h29.36c1.99,0,2.52-0.23,3.98-1.68H240.8z"/>
	</g>
</g>
</svg>
