<?xml version="1.0" encoding="utf-8"?>
<!-- Generator: Adobe Illustrator 26.0.1, SVG Export Plug-In . SVG Version: 6.00 Build 0)  -->
<svg version="1.1" id="Layer_1" xmlns="http://www.w3.org/2000/svg" xmlns:xlink="http://www.w3.org/1999/xlink" x="0px" y="0px"
	 viewBox="0 0 256 256" style="enable-background:new 0 0 256 256;" xml:space="preserve">
<style type="text/css">
	.st0{fill:#4259C3;}
</style>
<g>
	<g>
		<path class="st0" d="M66.04,66.6c3.45-17.26,8.75-34.06,19.79-46.26C96.42,8.38,110,2.16,119.2,2.16c8.05,0,14.73,4.6,14.73,9.43
			c0,3.45-3.91,9.21-6.9,11.51c-1.84,1.38-3.68,1.61-5.29,0c-5.29-5.76-11.05-8.75-15.88-8.75c-8.74,0-14.96,9.66-22.09,52.24h26.01
			l-4.37,8.28c-3.91,0.23-16.8,1.15-23.01,1.15c-4.37,25.31-6.9,40.04-11.97,67.2c-7.82,40.73-16.34,56.61-29,69.73
			C31.3,224,20.25,228.14,14.73,228.14C6.21,228.14,0,223.77,0,218.02c0-3.91,3.22-9.89,7.13-12.66c1.61-1.15,3.45-1.15,4.37,0
			c4.6,3.91,9.21,7.82,14.96,7.82c13.12,0,17.03-16.11,24.85-61.9c5.53-31.3,9.21-52.47,12.89-75.25H44.65l0.23-2.76l6.44-6.67
			H66.04z"/>
	</g>
	<g>
		<path class="st0" d="M148.69,144.3c5.74,0,11.13,0,15.56-0.12c-0.72,2.87-2.03,11.13-3.11,18.19l-3.71,0.12
			c-0.48-12.45-2.51-13.64-10.29-13.64h-11.85c-3.95,0-5.03,0.24-5.87,4.79l-5.02,25.73h12.33c9.81,0,10.29-1.44,13.64-9.81h3.59
			l-4.91,24.77h-3.59c0-9.22,0.36-10.41-9.81-10.41h-12.09l-4.19,21.3c-1.8,8.5-1.56,12.33,6.94,12.33h8.86
			c7.06,0,10.17-0.72,13.53-3.83c2.87-2.63,5.63-6.7,7.9-11.01l3.47,1.2c-1.2,3.35-5.26,14.48-6.82,18.19H94.95l0.84-3.35
			c10.53-1.08,11.49-1.44,13.29-11.01l9.45-48.95c1.79-9.22,1.2-10.29-9.22-11.13l0.72-3.35H148.69z"/>
		<path class="st0" d="M204.93,174.58c0,2.04-1.68,4.79-3.71,5.75c-1.08,0.48-1.79,0.24-2.75-0.84c-3.23-3.71-6.22-5.38-8.98-5.38
			c-3.11,0-6.46,2.51-6.46,6.82c0,3.95,3.59,6.82,7.9,10.17c7.18,5.63,10.29,8.74,10.29,14c0,9.81-12.45,18.43-22.14,18.43
			c-5.75,0-11.25-3.95-11.25-8.14c0-2.63,2.87-5.86,4.91-6.1c0.84-0.12,1.32,0.36,2.03,1.2c2.99,4.31,6.58,6.94,10.53,6.94
			c4.91,0,7.9-3.59,7.9-7.42c0-2.87-1.32-5.75-6.94-10.41c-5.63-4.43-10.53-7.78-10.41-14c0-3.59,1.44-7.54,6.22-11.61
			c3.83-3.47,9.33-5.86,13.4-5.86C200.74,168.12,204.93,171.23,204.93,174.58z"/>
	</g>
	<g>
		<path class="st0" d="M256,203.33c-0.83,3.46-1.73,8.94-2.41,13l-2.33,0.15c0-1.2,0-2.86-0.3-4.13c-0.38-3.31-1.28-4.51-8.12-4.51
			h-4.59l-7.06,36.9c-1.13,6.09-0.53,6.46,6.31,6.99l-0.45,2.1h-20.67l0.52-2.1c6.39-0.53,6.91-0.98,8.04-6.99l7.07-36.9h-4.51
			c-6.01,0-7.29,0.98-8.64,2.93c-1.06,1.35-2.26,3.31-3.38,5.79l-2.41-0.23c1.2-4.36,2.41-8.87,3.08-13h1.73
			c0.75,1.73,1.58,1.65,3.61,1.65h28.86c1.95,0,2.48-0.23,3.91-1.65H256z"/>
	</g>
</g>
</svg>
