<?xml version="1.0" encoding="utf-8"?>
<!-- Generator: Adobe Illustrator 26.0.1, SVG Export Plug-In . SVG Version: 6.00 Build 0)  -->
<svg version="1.1" id="Layer_1" xmlns="http://www.w3.org/2000/svg" xmlns:xlink="http://www.w3.org/1999/xlink" x="0px" y="0px"
	 viewBox="0 0 256 256" style="enable-background:new 0 0 256 256;" xml:space="preserve">
<style type="text/css">
	.st0{fill:#4259C3;}
</style>
<g>
	<g>
		<path class="st0" d="M82.38,65.54c3.51-17.56,8.9-34.64,20.13-47.05C113.28,6.32,127.09,0,136.45,0c8.19,0,14.98,4.68,14.98,9.6
			c0,3.51-3.98,9.36-7.02,11.71c-1.87,1.4-3.74,1.64-5.38,0c-5.38-5.85-11.24-8.9-16.15-8.9c-8.89,0-15.21,9.83-22.47,53.14h26.45
			l-4.45,8.43c-3.98,0.23-17.09,1.17-23.41,1.17c-4.45,25.75-7.02,40.73-12.17,68.35c-7.96,41.43-16.62,57.58-29.49,70.92
			c-10.3,11.24-21.54,15.45-27.15,15.45c-8.66,0-14.98-4.45-14.98-10.3c0-3.98,3.28-10.06,7.26-12.87c1.64-1.17,3.51-1.17,4.45,0
			c4.68,3.98,9.36,7.96,15.22,7.96c13.34,0,17.32-16.38,25.28-62.97c5.62-31.83,9.36-53.37,13.11-76.54h-19.9l0.23-2.81l6.55-6.79
			H82.38z"/>
	</g>
	<g>
		<path class="st0" d="M198.58,147.99c-9.13,1.34-11.32,2.19-19.11,9.25c-6.94,6.21-16.44,14.49-26.05,23.13
			c6.21,9.86,16.56,24.71,22.04,32.14c4.62,6.21,6.69,6.94,14.49,7.79l-0.97,3.41h-18.5c-7.55-11.2-16.07-24.35-22.64-34.33
			c-2.68-4.14-4.02-4.75-7.31-4.5l-4.26,23.13c-1.82,10.84-1.58,11.32,9.37,12.3l-0.73,3.41h-32.38l0.85-3.41
			c9.74-0.85,10.95-1.46,12.9-12.3l9.37-48.33c1.95-9.98,1.22-10.71-9.25-11.69l0.73-3.41h32.14l-0.73,3.41
			c-9.98,0.85-11.2,1.58-13.15,11.69l-4.14,21.67c2.8-0.24,5.11-1.22,7.79-3.29c6.94-5.72,20.09-17.65,26.17-24.35
			c3.04-3.41,2.44-4.63-1.7-5.24l-3.78-0.49l0.85-3.41h28.97L198.58,147.99z"/>
	</g>
	<g>
		<path class="st0" d="M240.8,204.62c-0.84,3.52-1.76,9.1-2.45,13.23l-2.37,0.15c0-1.22,0-2.91-0.31-4.2
			c-0.38-3.36-1.3-4.59-8.26-4.59h-4.67l-7.18,37.54c-1.15,6.19-0.54,6.57,6.42,7.11l-0.46,2.14h-21.02l0.53-2.14
			c6.5-0.54,7.03-0.99,8.18-7.11l7.19-37.54h-4.59c-6.12,0-7.42,0.99-8.79,2.98c-1.07,1.38-2.3,3.36-3.44,5.89l-2.45-0.23
			c1.22-4.43,2.45-9.02,3.14-13.23h1.76c0.76,1.76,1.61,1.68,3.67,1.68h29.36c1.99,0,2.52-0.23,3.98-1.68H240.8z"/>
	</g>
</g>
</svg>
