<?xml version="1.0" encoding="utf-8"?>
<!-- Generator: Adobe Illustrator 26.0.1, SVG Export Plug-In . SVG Version: 6.00 Build 0)  -->
<svg version="1.1" id="Layer_1" xmlns="http://www.w3.org/2000/svg" xmlns:xlink="http://www.w3.org/1999/xlink" x="0px" y="0px"
	 viewBox="0 0 256 256" style="enable-background:new 0 0 256 256;" xml:space="preserve">
<style type="text/css">
	.st0{fill:#4259C3;}
</style>
<g>
	<g>
		<path class="st0" d="M70.2,65.54c3.51-17.56,8.9-34.64,20.13-47.05C101.1,6.32,114.91,0,124.28,0c8.19,0,14.98,4.68,14.98,9.6
			c0,3.51-3.98,9.36-7.02,11.71c-1.87,1.4-3.74,1.64-5.39,0c-5.38-5.85-11.23-8.9-16.15-8.9c-8.9,0-15.22,9.83-22.47,53.14h26.45
			l-4.45,8.43c-3.98,0.23-17.09,1.17-23.41,1.17c-4.45,25.75-7.02,40.73-12.17,68.35c-7.96,41.43-16.62,57.58-29.49,70.92
			c-10.3,11.24-21.54,15.45-27.16,15.45c-8.66,0-14.98-4.45-14.98-10.3c0-3.98,3.28-10.06,7.26-12.87c1.64-1.17,3.51-1.17,4.45,0
			c4.68,3.98,9.36,7.96,15.22,7.96c13.34,0,17.32-16.38,25.28-62.97c5.62-31.83,9.36-53.37,13.11-76.54h-19.9l0.23-2.81l6.55-6.79
			H70.2z"/>
	</g>
	<g>
		<path class="st0" d="M209.04,147.99c-10.47,0.97-11.08,1.34-12.66,11.44c-2.56,17.41-4.26,31.78-6.33,47.72
			c-1.58,11.81-0.49,12.3,9.74,13.15l-0.85,3.41h-31.9l0.85-3.41c9.74-0.98,10.47-1.34,12.3-13.15c2.56-17.65,4.87-33.84,7.55-51.13
			h-0.36c-13.39,22.4-33.72,56.37-39.81,67.69h-2.8c-1.95-12.54-9.62-43.22-14.37-66.47h-0.24l-8.04,33.36
			c-2.92,12.3-4.26,17.9-4.87,22.04c-0.85,5.36,0.36,6.82,9.74,7.67l-0.85,3.41H97.53l0.85-3.41c8.28-0.61,10.35-2.31,12.05-7.43
			c2.19-6.33,4.75-14.73,8.03-27.63l5.84-23.37c3.04-11.93,2.92-12.42-8.89-13.88l0.98-3.41h20.45
			c4.02,18.75,10.47,41.39,15.1,61.84l37.74-61.84h20.21L209.04,147.99z"/>
	</g>
	<g>
		<path class="st0" d="M252.98,204.62c-0.84,3.52-1.76,9.1-2.45,13.23l-2.37,0.15c0-1.22,0-2.91-0.31-4.2
			c-0.38-3.36-1.3-4.59-8.26-4.59h-4.67l-7.18,37.54c-1.15,6.19-0.54,6.57,6.42,7.11l-0.46,2.14h-21.02l0.53-2.14
			c6.5-0.54,7.03-0.99,8.18-7.11l7.19-37.54h-4.59c-6.12,0-7.42,0.99-8.79,2.98c-1.07,1.38-2.3,3.36-3.44,5.89l-2.45-0.23
			c1.22-4.43,2.45-9.02,3.14-13.23h1.76c0.76,1.76,1.61,1.68,3.67,1.68h29.36c1.99,0,2.52-0.23,3.98-1.68H252.98z"/>
	</g>
</g>
</svg>
