<?xml version="1.0" encoding="utf-8"?>
<!-- Generator: Adobe Illustrator 26.0.1, SVG Export Plug-In . SVG Version: 6.00 Build 0)  -->
<svg version="1.1" id="Layer_1" xmlns="http://www.w3.org/2000/svg" xmlns:xlink="http://www.w3.org/1999/xlink" x="0px" y="0px"
	 viewBox="0 0 256 256" style="enable-background:new 0 0 256 256;" xml:space="preserve">
<style type="text/css">
	.st0{fill:#4259C3;}
</style>
<g id="Speak_Logic_2_00000057139528290560561370000010178881766139891117_">
	<path class="st0" d="M200.92,26.71c-3.92,8.41-7.7,16.86-11.31,25.35c-3.62,8.49-6.53,15.46-8.74,20.92l-2.94,1.82
		c-1.72-17.13-5.42-31.22-11.12-42.29c-5.7-11.06-13-19.25-21.88-24.55C136.03,2.65,125.76,0,114.12,0
		C98.79,0,84.63,4.32,71.63,12.96c-13,8.64-24.31,20.35-33.93,35.13s-17.1,31.6-22.43,50.47c-5.33,18.87-8,38.54-8,59
		c0,20.31,2.57,37.85,7.72,52.63s12.47,26.11,21.98,33.99c9.5,7.88,20.75,11.82,33.75,11.82c11.77,0,22.34-2.65,31.72-7.96
		c9.38-5.3,17.96-12.92,25.74-22.85c7.78-9.93,14.99-21.71,21.61-35.35h2.39c-0.48,5.13-0.85,9.71-1.1,13.64
		c-0.37,5.76-0.55,10.91-0.55,15.46c0,11.67,1.9,20.73,5.7,27.17c3.8,6.44,10.05,9.66,18.76,9.66c3.92,0,8.52-0.65,13.79-1.93
		c5.27-1.29,10.7-3.22,16.28-5.8c5.58-2.58,10.76-5.6,15.54-9.09v-21.14h-6.07c-2.7,1.36-5.61,2.43-8.74,3.18
		c-3.13,0.76-5.86,1.14-8.18,1.14c-5.89,0-9.81-2.01-11.77-6.02c-1.96-4.01-3.07-8.53-3.31-13.53c-0.37-8.79-0.52-18.68-0.46-29.67
		c0.06-10.99,0.7-23.22,1.93-36.72c6.37-15.61,13.27-30.88,20.69-45.81c7.42-14.93,14.93-29.14,22.53-42.63
		c7.6-13.49,14.77-25.84,21.52-37.06V6.14h-37.7C208.21,11.45,204.84,18.3,200.92,26.71z M157.98,111.4
		c-0.06,2.13-0.18,4.36-0.37,6.71c-0.18,2.35-0.46,4.89-0.83,7.61c-2.94,10.61-7.02,21.6-12.23,32.96
		c-5.21,11.37-11.1,21.98-17.66,31.83c-6.56,9.85-13.49,17.81-20.78,23.87c-7.3,6.07-14.56,9.1-21.79,9.1
		c-9.69,0-17.28-2.99-22.8-8.98c-5.52-5.99-9.41-13.98-11.68-23.99c-2.27-10-3.4-21.14-3.4-33.42c0-13.64,1.1-26.83,3.31-39.56
		c2.21-12.73,5.36-24.59,9.47-35.58c4.11-10.99,8.95-20.61,14.53-28.87c5.58-8.26,11.8-14.7,18.67-19.33
		c6.86-4.62,14.1-6.93,21.7-6.93c8.7,0,15.88,1.9,21.51,5.68c5.64,3.79,10.11,9.17,13.43,16.14c3.31,6.97,5.64,15.27,6.99,24.89
		c1.35,9.63,2.02,20.28,2.02,31.94C158.07,107.31,158.03,109.28,157.98,111.4z"/>
</g>
</svg>
