<?xml version="1.0" encoding="utf-8"?>
<!-- Generator: Adobe Illustrator 26.0.1, SVG Export Plug-In . SVG Version: 6.00 Build 0)  -->
<svg version="1.1" id="Layer_1" xmlns="http://www.w3.org/2000/svg" xmlns:xlink="http://www.w3.org/1999/xlink" x="0px" y="0px"
	 viewBox="0 0 256 256" style="enable-background:new 0 0 256 256;" xml:space="preserve">
<style type="text/css">
	.st0{fill:#4259C3;}
</style>
<g>
	<g>
		<path class="st0" d="M20.77,172.9L0,164.86c2.38-6.84,6.03-14.4,10.94-22.67c4.92-8.27,10.91-16.16,17.98-23.68
			c7.08-7.52,15.12-13.7,24.13-18.54c9.01-4.84,18.8-7.26,29.38-7.26c12.06,0,22.74,1.56,32.05,4.68
			c9.31,3.13,17.91,6.74,25.8,10.84c7.89,4.1,15.64,7.71,23.23,10.84c7.6,3.13,15.56,4.69,23.9,4.69c11.62,0,20.74-3.61,27.36-10.84
			c6.63-7.22,13.37-17.16,20.23-29.82l21,8.27c-2.54,6.85-6.26,14.41-11.18,22.67c-4.91,8.27-10.94,16.2-18.09,23.79
			c-7.14,7.6-15.18,13.81-24.12,18.65c-8.93,4.84-18.69,7.26-29.26,7.26c-11.77,0-22.34-1.74-31.72-5.25
			c-9.38-3.5-18.06-7.6-26.02-12.29c-7.97-4.69-15.79-8.78-23.46-12.29c-7.67-3.49-15.68-5.25-24.01-5.25
			c-11.62,0-20.78,4.28-27.48,12.84C33.96,150.08,27.32,160.55,20.77,172.9z"/>
	</g>
</g>
</svg>
